<?xml version="1.0" encoding="utf-8" standalone="no"?>
<!DOCTYPE svg PUBLIC "-//W3C//DTD SVG 1.1//EN"
  "http://www.w3.org/Graphics/SVG/1.1/DTD/svg11.dtd">
<svg xmlns:xlink="http://www.w3.org/1999/xlink" width="288pt" height="162pt" viewBox="0 0 288 162" xmlns="http://www.w3.org/2000/svg" version="1.1">
 <metadata>
  <rdf:RDF xmlns:dc="http://purl.org/dc/elements/1.1/" xmlns:cc="http://creativecommons.org/ns#" xmlns:rdf="http://www.w3.org/1999/02/22-rdf-syntax-ns#">
   <cc:Work>
    <dc:type rdf:resource="http://purl.org/dc/dcmitype/StillImage"/>
    <dc:date>2023-02-11T13:30:49.558760</dc:date>
    <dc:format>image/svg+xml</dc:format>
    <dc:creator>
     <cc:Agent>
      <dc:title>Matplotlib v3.6.2, https://matplotlib.org/</dc:title>
     </cc:Agent>
    </dc:creator>
   </cc:Work>
  </rdf:RDF>
 </metadata>
 <defs>
  <style type="text/css">*{stroke-linejoin: round; stroke-linecap: butt}</style>
 </defs>
 <g id="figure_1">
  <g id="patch_1">
   <path d="M 0 162
L 288 162
L 288 0
L 0 0
z
" style="fill: #ffffff"/>
  </g>
  <g id="axes_1">
   <g id="patch_2">
    <path d="M 34.808365 129.826385
L 284.99976 129.826385
L 284.99976 3.00024
L 34.808365 3.00024
z
" style="fill: #ffffff"/>
   </g>
   <g id="matplotlib.axis_1">
    <g id="xtick_1">
     <g id="line2d_1">
      <defs>
       <path id="mb3210fe2ac" d="M 0 0
L 0 4.8
" style="stroke: #262626"/>
      </defs>
      <g>
       <use xlink:href="#mb3210fe2ac" x="44.431111" y="129.826385" style="fill: #262626; stroke: #262626"/>
      </g>
     </g>
     <g id="text_1">
      <!-- 0.1 -->
      <g style="fill: #262626" transform="translate(38.957236 144.39226) scale(0.088 -0.088)">
       <defs>
        <path id="SourceSansPro-Regular-30" d="M 1594 -77
C 2406 -77 2899 685 2899 2054
C 2899 3424 2406 4160 1594 4160
C 774 4160 282 3424 282 2054
C 282 685 774 -77 1594 -77
z
M 1594 352
C 1120 352 800 858 800 2054
C 800 3251 1120 3731 1594 3731
C 2067 3731 2387 3251 2387 2054
C 2387 858 2067 352 1594 352
z
" transform="scale(0.015625)"/>
        <path id="SourceSansPro-Regular-2e" d="M 800 -77
C 1011 -77 1184 90 1184 326
C 1184 570 1011 736 800 736
C 589 736 416 570 416 326
C 416 90 589 -77 800 -77
z
" transform="scale(0.015625)"/>
        <path id="SourceSansPro-Regular-31" d="M 506 0
L 2810 0
L 2810 442
L 1971 442
L 1971 4083
L 1562 4083
C 1338 3949 1069 3846 691 3782
L 691 3437
L 1440 3437
L 1440 442
L 506 442
L 506 0
z
" transform="scale(0.015625)"/>
       </defs>
       <use xlink:href="#SourceSansPro-Regular-30"/>
       <use xlink:href="#SourceSansPro-Regular-2e" x="49.699997"/>
       <use xlink:href="#SourceSansPro-Regular-31" x="74.699982"/>
      </g>
     </g>
    </g>
    <g id="xtick_2">
     <g id="line2d_2">
      <g>
       <use xlink:href="#mb3210fe2ac" x="63.676603" y="129.826385" style="fill: #262626; stroke: #262626"/>
      </g>
     </g>
     <g id="text_2">
      <!-- 0.2 -->
      <g style="fill: #262626" transform="translate(58.202728 144.39226) scale(0.088 -0.088)">
       <defs>
        <path id="SourceSansPro-Regular-32" d="M 256 0
L 2893 0
L 2893 454
L 1670 454
C 1459 454 1210 442 986 422
C 1978 1434 2694 2170 2694 2963
C 2694 3680 2221 4160 1466 4160
C 941 4160 576 3910 237 3526
L 538 3238
C 768 3507 1062 3725 1402 3725
C 1920 3725 2176 3398 2176 2931
C 2176 2272 1472 1517 256 326
L 256 0
z
" transform="scale(0.015625)"/>
       </defs>
       <use xlink:href="#SourceSansPro-Regular-30"/>
       <use xlink:href="#SourceSansPro-Regular-2e" x="49.699997"/>
       <use xlink:href="#SourceSansPro-Regular-32" x="74.699982"/>
      </g>
     </g>
    </g>
    <g id="xtick_3">
     <g id="line2d_3">
      <g>
       <use xlink:href="#mb3210fe2ac" x="82.922095" y="129.826385" style="fill: #262626; stroke: #262626"/>
      </g>
     </g>
     <g id="text_3">
      <!-- 0.25 -->
      <g style="fill: #262626" transform="translate(75.261282 144.39226) scale(0.088 -0.088)">
       <defs>
        <path id="SourceSansPro-Regular-35" d="M 1498 -77
C 2208 -77 2874 422 2874 1306
C 2874 2189 2304 2586 1613 2586
C 1363 2586 1178 2522 986 2419
L 1094 3622
L 2675 3622
L 2675 4083
L 627 4083
L 493 2118
L 774 1939
C 1018 2099 1190 2182 1472 2182
C 1997 2182 2336 1856 2336 1293
C 2336 723 1946 365 1446 365
C 966 365 659 589 416 832
L 160 480
C 442 198 845 -77 1498 -77
z
" transform="scale(0.015625)"/>
       </defs>
       <use xlink:href="#SourceSansPro-Regular-30"/>
       <use xlink:href="#SourceSansPro-Regular-2e" x="49.699997"/>
       <use xlink:href="#SourceSansPro-Regular-32" x="74.699982"/>
       <use xlink:href="#SourceSansPro-Regular-35" x="124.399979"/>
      </g>
     </g>
    </g>
    <g id="xtick_4">
     <g id="line2d_4">
      <g>
       <use xlink:href="#mb3210fe2ac" x="102.167587" y="129.826385" style="fill: #262626; stroke: #262626"/>
      </g>
     </g>
     <g id="text_4">
      <!-- 0.3 -->
      <g style="fill: #262626" transform="translate(96.693712 144.39226) scale(0.088 -0.088)">
       <defs>
        <path id="SourceSansPro-Regular-33" d="M 1510 -77
C 2259 -77 2861 365 2861 1088
C 2861 1651 2470 2010 1978 2125
L 1978 2150
C 2419 2317 2714 2630 2714 3123
C 2714 3782 2202 4160 1491 4160
C 1011 4160 634 3942 320 3648
L 602 3315
C 845 3552 1133 3725 1472 3725
C 1907 3725 2176 3475 2176 3085
C 2176 2656 1882 2323 1018 2323
L 1018 1920
C 1990 1920 2323 1594 2323 1107
C 2323 653 1971 365 1478 365
C 998 365 678 589 435 845
L 166 499
C 442 198 858 -77 1510 -77
z
" transform="scale(0.015625)"/>
       </defs>
       <use xlink:href="#SourceSansPro-Regular-30"/>
       <use xlink:href="#SourceSansPro-Regular-2e" x="49.699997"/>
       <use xlink:href="#SourceSansPro-Regular-33" x="74.699982"/>
      </g>
     </g>
    </g>
    <g id="xtick_5">
     <g id="line2d_5">
      <g>
       <use xlink:href="#mb3210fe2ac" x="121.413079" y="129.826385" style="fill: #262626; stroke: #262626"/>
      </g>
     </g>
     <g id="text_5">
      <!-- 0.4 -->
      <g style="fill: #262626" transform="translate(115.939204 144.39226) scale(0.088 -0.088)">
       <defs>
        <path id="SourceSansPro-Regular-34" d="M 666 1549
L 1619 2938
C 1734 3142 1850 3322 1952 3514
L 1978 3514
C 1965 3296 1946 2944 1946 2733
L 1946 1549
L 666 1549
z
M 1946 0
L 2445 0
L 2445 1126
L 3002 1126
L 3002 1549
L 2445 1549
L 2445 4083
L 1856 4083
L 109 1478
L 109 1126
L 1946 1126
L 1946 0
z
" transform="scale(0.015625)"/>
       </defs>
       <use xlink:href="#SourceSansPro-Regular-30"/>
       <use xlink:href="#SourceSansPro-Regular-2e" x="49.699997"/>
       <use xlink:href="#SourceSansPro-Regular-34" x="74.699982"/>
      </g>
     </g>
    </g>
    <g id="xtick_6">
     <g id="line2d_6">
      <g>
       <use xlink:href="#mb3210fe2ac" x="140.658571" y="129.826385" style="fill: #262626; stroke: #262626"/>
      </g>
     </g>
     <g id="text_6">
      <!-- 0.5 -->
      <g style="fill: #262626" transform="translate(135.184696 144.39226) scale(0.088 -0.088)">
       <use xlink:href="#SourceSansPro-Regular-30"/>
       <use xlink:href="#SourceSansPro-Regular-2e" x="49.699997"/>
       <use xlink:href="#SourceSansPro-Regular-35" x="74.699982"/>
      </g>
     </g>
    </g>
    <g id="xtick_7">
     <g id="line2d_7">
      <g>
       <use xlink:href="#mb3210fe2ac" x="159.904063" y="129.826385" style="fill: #262626; stroke: #262626"/>
      </g>
     </g>
     <g id="text_7">
      <!-- 0.75 -->
      <g style="fill: #262626" transform="translate(152.24325 144.39226) scale(0.088 -0.088)">
       <defs>
        <path id="SourceSansPro-Regular-37" d="M 1094 0
L 1638 0
C 1709 1594 1933 2515 2912 3757
L 2912 4083
L 282 4083
L 282 3622
L 2317 3622
C 1491 2496 1165 1536 1094 0
z
" transform="scale(0.015625)"/>
       </defs>
       <use xlink:href="#SourceSansPro-Regular-30"/>
       <use xlink:href="#SourceSansPro-Regular-2e" x="49.699997"/>
       <use xlink:href="#SourceSansPro-Regular-37" x="74.699982"/>
       <use xlink:href="#SourceSansPro-Regular-35" x="124.399979"/>
      </g>
     </g>
    </g>
    <g id="xtick_8">
     <g id="line2d_8">
      <g>
       <use xlink:href="#mb3210fe2ac" x="179.149554" y="129.826385" style="fill: #262626; stroke: #262626"/>
      </g>
     </g>
     <g id="text_8">
      <!-- 1 -->
      <g style="fill: #262626" transform="translate(176.962617 144.39226) scale(0.088 -0.088)">
       <use xlink:href="#SourceSansPro-Regular-31"/>
      </g>
     </g>
    </g>
    <g id="xtick_9">
     <g id="line2d_9">
      <g>
       <use xlink:href="#mb3210fe2ac" x="198.395046" y="129.826385" style="fill: #262626; stroke: #262626"/>
      </g>
     </g>
     <g id="text_9">
      <!-- 1.25 -->
      <g style="fill: #262626" transform="translate(190.734234 144.39226) scale(0.088 -0.088)">
       <use xlink:href="#SourceSansPro-Regular-31"/>
       <use xlink:href="#SourceSansPro-Regular-2e" x="49.699997"/>
       <use xlink:href="#SourceSansPro-Regular-32" x="74.699982"/>
       <use xlink:href="#SourceSansPro-Regular-35" x="124.399979"/>
      </g>
     </g>
    </g>
    <g id="xtick_10">
     <g id="line2d_10">
      <g>
       <use xlink:href="#mb3210fe2ac" x="217.640538" y="129.826385" style="fill: #262626; stroke: #262626"/>
      </g>
     </g>
     <g id="text_10">
      <!-- 1.5 -->
      <g style="fill: #262626" transform="translate(212.166663 144.39226) scale(0.088 -0.088)">
       <use xlink:href="#SourceSansPro-Regular-31"/>
       <use xlink:href="#SourceSansPro-Regular-2e" x="49.699997"/>
       <use xlink:href="#SourceSansPro-Regular-35" x="74.699982"/>
      </g>
     </g>
    </g>
    <g id="xtick_11">
     <g id="line2d_11">
      <g>
       <use xlink:href="#mb3210fe2ac" x="236.88603" y="129.826385" style="fill: #262626; stroke: #262626"/>
      </g>
     </g>
     <g id="text_11">
      <!-- 1.75 -->
      <g style="fill: #262626" transform="translate(229.225218 144.39226) scale(0.088 -0.088)">
       <use xlink:href="#SourceSansPro-Regular-31"/>
       <use xlink:href="#SourceSansPro-Regular-2e" x="49.699997"/>
       <use xlink:href="#SourceSansPro-Regular-37" x="74.699982"/>
       <use xlink:href="#SourceSansPro-Regular-35" x="124.399979"/>
      </g>
     </g>
    </g>
    <g id="xtick_12">
     <g id="line2d_12">
      <g>
       <use xlink:href="#mb3210fe2ac" x="256.131522" y="129.826385" style="fill: #262626; stroke: #262626"/>
      </g>
     </g>
     <g id="text_12">
      <!-- 2 -->
      <g style="fill: #262626" transform="translate(253.944585 144.39226) scale(0.088 -0.088)">
       <use xlink:href="#SourceSansPro-Regular-32"/>
      </g>
     </g>
    </g>
    <g id="xtick_13">
     <g id="line2d_13">
      <g>
       <use xlink:href="#mb3210fe2ac" x="275.377014" y="129.826385" style="fill: #262626; stroke: #262626"/>
      </g>
     </g>
     <g id="text_13">
      <!-- 3 -->
      <g style="fill: #262626" transform="translate(273.190077 144.39226) scale(0.088 -0.088)">
       <use xlink:href="#SourceSansPro-Regular-33"/>
      </g>
     </g>
    </g>
    <g id="text_14">
     <!-- $\rho$ -->
     <g style="fill: #262626" transform="translate(157.264063 157.03176) scale(0.096 -0.096)">
      <defs>
       <path id="SourceSansPro-Regular-3c1" d="M 499 -1146
L 1037 -1146
C 1024 -595 1018 -192 998 365
C 1280 32 1600 -77 1933 -77
C 2586 -77 3213 544 3213 1600
C 3213 2586 2739 3187 1869 3187
C 1114 3187 499 2669 499 1587
L 499 -1146
z
M 1837 371
C 1574 371 1293 442 1005 787
L 1005 1581
C 1005 2355 1395 2739 1850 2739
C 2426 2739 2669 2285 2669 1600
C 2669 832 2298 371 1837 371
z
" transform="scale(0.015625)"/>
      </defs>
      <use xlink:href="#SourceSansPro-Regular-3c1" transform="translate(0 0.203125)"/>
     </g>
    </g>
   </g>
   <g id="matplotlib.axis_2">
    <g id="ytick_1">
     <g id="line2d_14">
      <path d="M 34.808365 117.14377
L 284.99976 117.14377
" clip-path="url(#p03b4483abc)" style="fill: none; stroke: #cccccc; stroke-width: 0.8; stroke-linecap: round"/>
     </g>
     <g id="line2d_15"/>
     <g id="text_15">
      <!-- −0.2 -->
      <g style="fill: #262626" transform="translate(15.98674 120.276708) scale(0.088 -0.088)">
       <defs>
        <path id="SourceSansPro-Regular-2212" d="M 218 1914
L 2963 1914
L 2963 2310
L 218 2310
L 218 1914
z
" transform="scale(0.015625)"/>
       </defs>
       <use xlink:href="#SourceSansPro-Regular-2212"/>
       <use xlink:href="#SourceSansPro-Regular-30" x="49.699997"/>
       <use xlink:href="#SourceSansPro-Regular-2e" x="99.399994"/>
       <use xlink:href="#SourceSansPro-Regular-32" x="124.399979"/>
      </g>
     </g>
    </g>
    <g id="ytick_2">
     <g id="line2d_16">
      <path d="M 34.808365 91.778541
L 284.99976 91.778541
" clip-path="url(#p03b4483abc)" style="fill: none; stroke: #cccccc; stroke-width: 0.8; stroke-linecap: round"/>
     </g>
     <g id="line2d_17"/>
     <g id="text_16">
      <!-- −0.1 -->
      <g style="fill: #262626" transform="translate(15.98674 94.911479) scale(0.088 -0.088)">
       <use xlink:href="#SourceSansPro-Regular-2212"/>
       <use xlink:href="#SourceSansPro-Regular-30" x="49.699997"/>
       <use xlink:href="#SourceSansPro-Regular-2e" x="99.399994"/>
       <use xlink:href="#SourceSansPro-Regular-31" x="124.399979"/>
      </g>
     </g>
    </g>
    <g id="ytick_3">
     <g id="line2d_18">
      <path d="M 34.808365 66.413312
L 284.99976 66.413312
" clip-path="url(#p03b4483abc)" style="fill: none; stroke: #cccccc; stroke-width: 0.8; stroke-linecap: round"/>
     </g>
     <g id="line2d_19"/>
     <g id="text_17">
      <!-- 0.0 -->
      <g style="fill: #262626" transform="translate(20.360615 69.54625) scale(0.088 -0.088)">
       <use xlink:href="#SourceSansPro-Regular-30"/>
       <use xlink:href="#SourceSansPro-Regular-2e" x="49.699997"/>
       <use xlink:href="#SourceSansPro-Regular-30" x="74.699982"/>
      </g>
     </g>
    </g>
    <g id="ytick_4">
     <g id="line2d_20">
      <path d="M 34.808365 41.048083
L 284.99976 41.048083
" clip-path="url(#p03b4483abc)" style="fill: none; stroke: #cccccc; stroke-width: 0.8; stroke-linecap: round"/>
     </g>
     <g id="line2d_21"/>
     <g id="text_18">
      <!-- 0.1 -->
      <g style="fill: #262626" transform="translate(20.360615 44.181021) scale(0.088 -0.088)">
       <use xlink:href="#SourceSansPro-Regular-30"/>
       <use xlink:href="#SourceSansPro-Regular-2e" x="49.699997"/>
       <use xlink:href="#SourceSansPro-Regular-31" x="74.699982"/>
      </g>
     </g>
    </g>
    <g id="ytick_5">
     <g id="line2d_22">
      <path d="M 34.808365 15.682854
L 284.99976 15.682854
" clip-path="url(#p03b4483abc)" style="fill: none; stroke: #cccccc; stroke-width: 0.8; stroke-linecap: round"/>
     </g>
     <g id="line2d_23"/>
     <g id="text_19">
      <!-- 0.2 -->
      <g style="fill: #262626" transform="translate(20.360615 18.815792) scale(0.088 -0.088)">
       <use xlink:href="#SourceSansPro-Regular-30"/>
       <use xlink:href="#SourceSansPro-Regular-2e" x="49.699997"/>
       <use xlink:href="#SourceSansPro-Regular-32" x="74.699982"/>
      </g>
     </g>
    </g>
    <g id="text_20">
     <!-- Accuracy change -->
     <g style="fill: #262626" transform="translate(9.83574 100.147562) rotate(-90) scale(0.096 -0.096)">
      <defs>
       <path id="SourceSansPro-Regular-41" d="M 1306 2342
C 1453 2810 1587 3270 1715 3757
L 1741 3757
C 1875 3270 2010 2810 2163 2342
L 2362 1709
L 1107 1709
L 1306 2342
z
M 19 0
L 563 0
L 966 1274
L 2496 1274
L 2893 0
L 3462 0
L 2048 4198
L 1434 4198
L 19 0
z
" transform="scale(0.015625)"/>
       <path id="SourceSansPro-Regular-63" d="M 1754 -77
C 2125 -77 2477 64 2758 320
L 2528 659
C 2342 493 2086 365 1798 365
C 1229 365 845 838 845 1549
C 845 2266 1254 2746 1818 2746
C 2067 2746 2266 2650 2438 2490
L 2701 2822
C 2483 3027 2202 3187 1792 3187
C 992 3187 294 2592 294 1549
C 294 518 928 -77 1754 -77
z
" transform="scale(0.015625)"/>
       <path id="SourceSansPro-Regular-75" d="M 1434 -77
C 1862 -77 2170 147 2458 486
L 2477 486
L 2522 0
L 2957 0
L 2957 3110
L 2426 3110
L 2426 909
C 2138 544 1914 384 1600 384
C 1190 384 1011 634 1011 1210
L 1011 3110
L 480 3110
L 480 1139
C 480 346 774 -77 1434 -77
z
" transform="scale(0.015625)"/>
       <path id="SourceSansPro-Regular-72" d="M 525 0
L 1056 0
L 1056 1997
C 1267 2522 1581 2707 1843 2707
C 1965 2707 2035 2694 2125 2669
L 2240 3123
C 2144 3168 2048 3187 1907 3187
C 1562 3187 1242 2938 1024 2547
L 1005 2547
L 960 3110
L 525 3110
L 525 0
z
" transform="scale(0.015625)"/>
       <path id="SourceSansPro-Regular-61" d="M 1242 -77
C 1632 -77 1971 122 2266 371
L 2285 371
L 2336 0
L 2771 0
L 2771 1914
C 2771 2682 2445 3187 1690 3187
C 1190 3187 755 2976 467 2784
L 672 2426
C 915 2586 1242 2746 1600 2746
C 2106 2746 2234 2368 2240 1978
C 909 1830 333 1498 333 806
C 333 243 723 -77 1242 -77
z
M 1389 358
C 1088 358 851 493 851 838
C 851 1242 1190 1478 2240 1600
L 2240 755
C 1939 493 1690 358 1389 358
z
" transform="scale(0.015625)"/>
       <path id="SourceSansPro-Regular-79" d="M 582 -1338
C 1203 -1338 1530 -870 1747 -256
L 2918 3110
L 2400 3110
L 1843 1395
C 1760 1120 1670 800 1587 518
L 1562 518
C 1459 806 1357 1126 1254 1395
L 627 3110
L 77 3110
L 1325 -6
L 1254 -237
C 1126 -621 902 -896 557 -896
C 480 -896 403 -883 326 -858
L 211 -1274
C 314 -1312 435 -1338 582 -1338
z
" transform="scale(0.015625)"/>
       <path id="SourceSansPro-Regular-20" transform="scale(0.015625)"/>
       <path id="SourceSansPro-Regular-68" d="M 525 0
L 1056 0
L 1056 2253
C 1363 2566 1587 2726 1901 2726
C 2310 2726 2490 2483 2490 1901
L 2490 0
L 3021 0
L 3021 1971
C 3021 2765 2726 3187 2067 3187
C 1638 3187 1325 2957 1037 2675
L 1056 3315
L 1056 4557
L 525 4557
L 525 0
z
" transform="scale(0.015625)"/>
       <path id="SourceSansPro-Regular-6e" d="M 525 0
L 1056 0
L 1056 2253
C 1363 2566 1587 2726 1901 2726
C 2310 2726 2490 2483 2490 1901
L 2490 0
L 3021 0
L 3021 1971
C 3021 2765 2726 3187 2067 3187
C 1638 3187 1318 2957 1024 2662
L 1005 2662
L 960 3110
L 525 3110
L 525 0
z
" transform="scale(0.015625)"/>
       <path id="SourceSansPro-Regular-67" d="M 1574 -1434
C 2541 -1434 3149 -934 3149 -352
C 3149 160 2784 390 2061 390
L 1459 390
C 1043 390 915 531 915 723
C 915 896 998 998 1114 1094
C 1254 1024 1421 986 1574 986
C 2208 986 2714 1402 2714 2067
C 2714 2330 2611 2560 2464 2701
L 3098 2701
L 3098 3110
L 2016 3110
C 1901 3155 1747 3187 1574 3187
C 941 3187 403 2758 403 2080
C 403 1709 602 1408 806 1242
L 806 1216
C 646 1107 467 902 467 640
C 467 397 589 230 742 134
L 742 109
C 461 -83 288 -333 288 -595
C 288 -1133 813 -1434 1574 -1434
z
M 1574 1344
C 1216 1344 915 1626 915 2080
C 915 2534 1210 2803 1574 2803
C 1939 2803 2234 2528 2234 2080
C 2234 1626 1933 1344 1574 1344
z
M 1651 -1062
C 1088 -1062 749 -858 749 -525
C 749 -346 845 -160 1069 0
C 1203 -38 1350 -51 1472 -51
L 2003 -51
C 2413 -51 2630 -147 2630 -435
C 2630 -755 2240 -1062 1651 -1062
z
" transform="scale(0.015625)"/>
       <path id="SourceSansPro-Regular-65" d="M 1779 -77
C 2208 -77 2541 51 2810 243
L 2624 582
C 2406 435 2144 352 1843 352
C 1254 352 864 774 819 1414
L 2912 1414
C 2931 1517 2938 1613 2938 1728
C 2938 2624 2483 3187 1690 3187
C 979 3187 294 2566 294 1555
C 294 525 947 -77 1779 -77
z
M 819 1824
C 883 2419 1267 2765 1702 2765
C 2176 2765 2464 2438 2464 1824
L 819 1824
z
" transform="scale(0.015625)"/>
      </defs>
      <use xlink:href="#SourceSansPro-Regular-41"/>
      <use xlink:href="#SourceSansPro-Regular-63" x="54.399994"/>
      <use xlink:href="#SourceSansPro-Regular-63" x="99.999985"/>
      <use xlink:href="#SourceSansPro-Regular-75" x="145.599976"/>
      <use xlink:href="#SourceSansPro-Regular-72" x="199.999969"/>
      <use xlink:href="#SourceSansPro-Regular-61" x="234.799957"/>
      <use xlink:href="#SourceSansPro-Regular-63" x="285.199951"/>
      <use xlink:href="#SourceSansPro-Regular-79" x="330.799942"/>
      <use xlink:href="#SourceSansPro-Regular-20" x="377.59993"/>
      <use xlink:href="#SourceSansPro-Regular-63" x="397.599915"/>
      <use xlink:href="#SourceSansPro-Regular-68" x="443.199905"/>
      <use xlink:href="#SourceSansPro-Regular-61" x="497.599899"/>
      <use xlink:href="#SourceSansPro-Regular-6e" x="547.999893"/>
      <use xlink:href="#SourceSansPro-Regular-67" x="602.69989"/>
      <use xlink:href="#SourceSansPro-Regular-65" x="653.199875"/>
     </g>
    </g>
   </g>
   <g id="line2d_24">
    <path d="M 40.582013 66.904383
L 59.827505 66.904383
L 79.072996 66.934314
L 98.318488 66.890179
L 117.56398 66.895759
L 136.809472 66.873438
L 156.054964 66.856189
L 175.300456 66.806474
L 194.545948 66.868872
L 213.79144 66.821693
L 233.036932 66.843507
L 252.282424 66.836405
L 271.527916 66.841985
" clip-path="url(#p03b4483abc)" style="fill: none; stroke: #000000; stroke-width: 2.16; stroke-linecap: round"/>
   </g>
   <g id="line2d_25">
    <path d="M 40.582013 66.954112
L 40.582013 66.855669
" clip-path="url(#p03b4483abc)" style="fill: none; stroke: #000000; stroke-width: 2.16; stroke-linecap: round"/>
   </g>
   <g id="line2d_26">
    <path d="M 59.827505 66.970396
L 59.827505 66.835897
" clip-path="url(#p03b4483abc)" style="fill: none; stroke: #000000; stroke-width: 2.16; stroke-linecap: round"/>
   </g>
   <g id="line2d_27">
    <path d="M 79.072996 66.974404
L 79.072996 66.900832
" clip-path="url(#p03b4483abc)" style="fill: none; stroke: #000000; stroke-width: 2.16; stroke-linecap: round"/>
   </g>
   <g id="line2d_28">
    <path d="M 98.318488 66.935329
L 98.318488 66.843507
" clip-path="url(#p03b4483abc)" style="fill: none; stroke: #000000; stroke-width: 2.16; stroke-linecap: round"/>
   </g>
   <g id="line2d_29">
    <path d="M 117.56398 66.936876
L 117.56398 66.856189
" clip-path="url(#p03b4483abc)" style="fill: none; stroke: #000000; stroke-width: 2.16; stroke-linecap: round"/>
   </g>
   <g id="line2d_30">
    <path d="M 136.809472 66.906933
L 136.809472 66.84858
" clip-path="url(#p03b4483abc)" style="fill: none; stroke: #000000; stroke-width: 2.16; stroke-linecap: round"/>
   </g>
   <g id="line2d_31">
    <path d="M 156.054964 66.891713
L 156.054964 66.822187
" clip-path="url(#p03b4483abc)" style="fill: none; stroke: #000000; stroke-width: 2.16; stroke-linecap: round"/>
   </g>
   <g id="line2d_32">
    <path d="M 175.300456 66.828795
L 175.300456 66.783645
" clip-path="url(#p03b4483abc)" style="fill: none; stroke: #000000; stroke-width: 2.16; stroke-linecap: round"/>
   </g>
   <g id="line2d_33">
    <path d="M 194.545948 66.901859
L 194.545948 66.835377
" clip-path="url(#p03b4483abc)" style="fill: none; stroke: #000000; stroke-width: 2.16; stroke-linecap: round"/>
   </g>
   <g id="line2d_34">
    <path d="M 213.79144 66.847578
L 213.79144 66.798344
" clip-path="url(#p03b4483abc)" style="fill: none; stroke: #000000; stroke-width: 2.16; stroke-linecap: round"/>
   </g>
   <g id="line2d_35">
    <path d="M 233.036932 66.885106
L 233.036932 66.800893
" clip-path="url(#p03b4483abc)" style="fill: none; stroke: #000000; stroke-width: 2.16; stroke-linecap: round"/>
   </g>
   <g id="line2d_36">
    <path d="M 252.282424 66.871421
L 252.282424 66.797329
" clip-path="url(#p03b4483abc)" style="fill: none; stroke: #000000; stroke-width: 2.16; stroke-linecap: round"/>
   </g>
   <g id="line2d_37">
    <path d="M 271.527916 66.858726
L 271.527916 66.824737
" clip-path="url(#p03b4483abc)" style="fill: none; stroke: #000000; stroke-width: 2.16; stroke-linecap: round"/>
   </g>
   <g id="PathCollection_1">
    <defs>
     <path id="m4d91b72f46" d="M -2.707159 2.707159
L 2.707159 -2.707159
M -2.707159 -2.707159
L 2.707159 2.707159
" style="stroke: #000000; stroke-width: 1.62"/>
    </defs>
    <g clip-path="url(#p03b4483abc)">
     <use xlink:href="#m4d91b72f46" x="40.582013" y="66.904383" style="stroke: #000000; stroke-width: 1.62"/>
     <use xlink:href="#m4d91b72f46" x="59.827505" y="66.904383" style="stroke: #000000; stroke-width: 1.62"/>
     <use xlink:href="#m4d91b72f46" x="79.072996" y="66.934314" style="stroke: #000000; stroke-width: 1.62"/>
     <use xlink:href="#m4d91b72f46" x="98.318488" y="66.890179" style="stroke: #000000; stroke-width: 1.62"/>
     <use xlink:href="#m4d91b72f46" x="117.56398" y="66.895759" style="stroke: #000000; stroke-width: 1.62"/>
     <use xlink:href="#m4d91b72f46" x="136.809472" y="66.873438" style="stroke: #000000; stroke-width: 1.62"/>
     <use xlink:href="#m4d91b72f46" x="156.054964" y="66.856189" style="stroke: #000000; stroke-width: 1.62"/>
     <use xlink:href="#m4d91b72f46" x="175.300456" y="66.806474" style="stroke: #000000; stroke-width: 1.62"/>
     <use xlink:href="#m4d91b72f46" x="194.545948" y="66.868872" style="stroke: #000000; stroke-width: 1.62"/>
     <use xlink:href="#m4d91b72f46" x="213.79144" y="66.821693" style="stroke: #000000; stroke-width: 1.62"/>
     <use xlink:href="#m4d91b72f46" x="233.036932" y="66.843507" style="stroke: #000000; stroke-width: 1.62"/>
     <use xlink:href="#m4d91b72f46" x="252.282424" y="66.836405" style="stroke: #000000; stroke-width: 1.62"/>
     <use xlink:href="#m4d91b72f46" x="271.527916" y="66.841985" style="stroke: #000000; stroke-width: 1.62"/>
    </g>
   </g>
   <g id="line2d_38">
    <path d="M 34.808365 66.413312
L 284.99976 66.413312
" clip-path="url(#p03b4483abc)" style="fill: none; stroke: #000000; stroke-width: 1.2; stroke-linecap: round"/>
   </g>
   <g id="line2d_39">
    <path d="M 43.148078 62.727894
L 62.39357 63.246389
L 81.639062 63.216548
L 100.884554 63.731313
L 120.130046 63.865599
L 139.375538 64.156553
L 158.62103 65.163702
L 177.866522 65.581482
L 197.112014 66.417043
L 216.357505 66.644584
L 235.602997 67.427922
L 254.848489 67.532367
L 274.093981 69.076662
" clip-path="url(#p03b4483abc)" style="fill: none; stroke: #e69f00; stroke-width: 2.16; stroke-linecap: round"/>
   </g>
   <g id="line2d_40">
    <path d="M 43.148078 63.141944
L 43.148078 62.351146
" clip-path="url(#p03b4483abc)" style="fill: none; stroke: #e69f00; stroke-width: 2.16; stroke-linecap: round"/>
   </g>
   <g id="line2d_41">
    <path d="M 62.39357 63.61204
L 62.39357 62.876915
" clip-path="url(#p03b4483abc)" style="fill: none; stroke: #e69f00; stroke-width: 2.16; stroke-linecap: round"/>
   </g>
   <g id="line2d_42">
    <path d="M 81.639062 63.4702
L 81.639062 62.962709
" clip-path="url(#p03b4483abc)" style="fill: none; stroke: #e69f00; stroke-width: 2.16; stroke-linecap: round"/>
   </g>
   <g id="line2d_43">
    <path d="M 100.884554 64.003616
L 100.884554 63.421521
" clip-path="url(#p03b4483abc)" style="fill: none; stroke: #e69f00; stroke-width: 2.16; stroke-linecap: round"/>
   </g>
   <g id="line2d_44">
    <path d="M 120.130046 64.130442
L 120.130046 63.570822
" clip-path="url(#p03b4483abc)" style="fill: none; stroke: #e69f00; stroke-width: 2.16; stroke-linecap: round"/>
   </g>
   <g id="line2d_45">
    <path d="M 139.375538 64.357983
L 139.375538 63.984965
" clip-path="url(#p03b4483abc)" style="fill: none; stroke: #e69f00; stroke-width: 2.16; stroke-linecap: round"/>
   </g>
   <g id="line2d_46">
    <path d="M 158.62103 65.394973
L 158.62103 64.91378
" clip-path="url(#p03b4483abc)" style="fill: none; stroke: #e69f00; stroke-width: 2.16; stroke-linecap: round"/>
   </g>
   <g id="line2d_47">
    <path d="M 177.866522 65.74934
L 177.866522 65.432275
" clip-path="url(#p03b4483abc)" style="fill: none; stroke: #e69f00; stroke-width: 2.16; stroke-linecap: round"/>
   </g>
   <g id="line2d_48">
    <path d="M 197.112014 66.570073
L 197.112014 66.230534
" clip-path="url(#p03b4483abc)" style="fill: none; stroke: #e69f00; stroke-width: 2.16; stroke-linecap: round"/>
   </g>
   <g id="line2d_49">
    <path d="M 216.357505 66.853474
L 216.357505 66.416856
" clip-path="url(#p03b4483abc)" style="fill: none; stroke: #e69f00; stroke-width: 2.16; stroke-linecap: round"/>
   </g>
   <g id="line2d_50">
    <path d="M 235.602997 67.580859
L 235.602997 67.2637
" clip-path="url(#p03b4483abc)" style="fill: none; stroke: #e69f00; stroke-width: 2.16; stroke-linecap: round"/>
   </g>
   <g id="line2d_51">
    <path d="M 254.848489 67.81213
L 254.848489 67.237589
" clip-path="url(#p03b4483abc)" style="fill: none; stroke: #e69f00; stroke-width: 2.16; stroke-linecap: round"/>
   </g>
   <g id="line2d_52">
    <path d="M 274.093981 69.252073
L 274.093981 68.901343
" clip-path="url(#p03b4483abc)" style="fill: none; stroke: #e69f00; stroke-width: 2.16; stroke-linecap: round"/>
   </g>
   <g id="PathCollection_2">
    <defs>
     <path id="mee17fc33b9" d="M 0 1.353579
C 0.358973 1.353579 0.703293 1.210958 0.957125 0.957125
C 1.210958 0.703293 1.353579 0.358973 1.353579 0
C 1.353579 -0.358973 1.210958 -0.703293 0.957125 -0.957125
C 0.703293 -1.210958 0.358973 -1.353579 0 -1.353579
C -0.358973 -1.353579 -0.703293 -1.210958 -0.957125 -0.957125
C -1.210958 -0.703293 -1.353579 -0.358973 -1.353579 0
C -1.353579 0.358973 -1.210958 0.703293 -0.957125 0.957125
C -0.703293 1.210958 -0.358973 1.353579 0 1.353579
z
" style="stroke: #e69f00; stroke-width: 1.62"/>
    </defs>
    <g clip-path="url(#p03b4483abc)">
     <use xlink:href="#mee17fc33b9" x="43.148078" y="62.727894" style="fill: #e69f00; stroke: #e69f00; stroke-width: 1.62"/>
     <use xlink:href="#mee17fc33b9" x="62.39357" y="63.246389" style="fill: #e69f00; stroke: #e69f00; stroke-width: 1.62"/>
     <use xlink:href="#mee17fc33b9" x="81.639062" y="63.216548" style="fill: #e69f00; stroke: #e69f00; stroke-width: 1.62"/>
     <use xlink:href="#mee17fc33b9" x="100.884554" y="63.731313" style="fill: #e69f00; stroke: #e69f00; stroke-width: 1.62"/>
     <use xlink:href="#mee17fc33b9" x="120.130046" y="63.865599" style="fill: #e69f00; stroke: #e69f00; stroke-width: 1.62"/>
     <use xlink:href="#mee17fc33b9" x="139.375538" y="64.156553" style="fill: #e69f00; stroke: #e69f00; stroke-width: 1.62"/>
     <use xlink:href="#mee17fc33b9" x="158.62103" y="65.163702" style="fill: #e69f00; stroke: #e69f00; stroke-width: 1.62"/>
     <use xlink:href="#mee17fc33b9" x="177.866522" y="65.581482" style="fill: #e69f00; stroke: #e69f00; stroke-width: 1.62"/>
     <use xlink:href="#mee17fc33b9" x="197.112014" y="66.417043" style="fill: #e69f00; stroke: #e69f00; stroke-width: 1.62"/>
     <use xlink:href="#mee17fc33b9" x="216.357505" y="66.644584" style="fill: #e69f00; stroke: #e69f00; stroke-width: 1.62"/>
     <use xlink:href="#mee17fc33b9" x="235.602997" y="67.427922" style="fill: #e69f00; stroke: #e69f00; stroke-width: 1.62"/>
     <use xlink:href="#mee17fc33b9" x="254.848489" y="67.532367" style="fill: #e69f00; stroke: #e69f00; stroke-width: 1.62"/>
     <use xlink:href="#mee17fc33b9" x="274.093981" y="69.076662" style="fill: #e69f00; stroke: #e69f00; stroke-width: 1.62"/>
    </g>
   </g>
   <g id="patch_3">
    <path d="M 34.808365 129.826385
L 284.99976 129.826385
" style="fill: none; stroke: #262626; stroke-linejoin: miter; stroke-linecap: square"/>
   </g>
   <g id="line2d_53">
    <path d="M 45.714144 67.643976
L 64.959636 67.526417
L 84.205128 67.606908
L 103.45062 67.46499
L 122.696111 67.462872
L 141.941603 67.374967
L 161.187095 67.194922
L 180.432587 67.08054
L 199.678079 66.976749
L 218.923571 66.918499
L 238.169063 66.798822
L 257.414555 66.774463
L 276.660047 66.527694
" clip-path="url(#p03b4483abc)" style="fill: none; stroke: #56b4e9; stroke-width: 2.16; stroke-linecap: round"/>
   </g>
   <g id="line2d_54">
    <path d="M 45.714144 67.701167
L 45.714144 67.587818
" clip-path="url(#p03b4483abc)" style="fill: none; stroke: #56b4e9; stroke-width: 2.16; stroke-linecap: round"/>
   </g>
   <g id="line2d_55">
    <path d="M 64.959636 67.631294
L 64.959636 67.434276
" clip-path="url(#p03b4483abc)" style="fill: none; stroke: #56b4e9; stroke-width: 2.16; stroke-linecap: round"/>
   </g>
   <g id="line2d_56">
    <path d="M 84.205128 67.650357
L 84.205128 67.568754
" clip-path="url(#p03b4483abc)" style="fill: none; stroke: #56b4e9; stroke-width: 2.16; stroke-linecap: round"/>
   </g>
   <g id="line2d_57">
    <path d="M 103.45062 67.508413
L 103.45062 67.420508
" clip-path="url(#p03b4483abc)" style="fill: none; stroke: #56b4e9; stroke-width: 2.16; stroke-linecap: round"/>
   </g>
   <g id="line2d_58">
    <path d="M 122.696111 67.522181
L 122.696111 67.397208
" clip-path="url(#p03b4483abc)" style="fill: none; stroke: #56b4e9; stroke-width: 2.16; stroke-linecap: round"/>
   </g>
   <g id="line2d_59">
    <path d="M 141.941603 67.413094
L 141.941603 67.333636
" clip-path="url(#p03b4483abc)" style="fill: none; stroke: #56b4e9; stroke-width: 2.16; stroke-linecap: round"/>
   </g>
   <g id="line2d_60">
    <path d="M 161.187095 67.242581
L 161.187095 67.144085
" clip-path="url(#p03b4483abc)" style="fill: none; stroke: #56b4e9; stroke-width: 2.16; stroke-linecap: round"/>
   </g>
   <g id="line2d_61">
    <path d="M 180.432587 67.136672
L 180.432587 67.019113
" clip-path="url(#p03b4483abc)" style="fill: none; stroke: #56b4e9; stroke-width: 2.16; stroke-linecap: round"/>
   </g>
   <g id="line2d_62">
    <path d="M 199.678079 67.021231
L 199.678079 66.925913
" clip-path="url(#p03b4483abc)" style="fill: none; stroke: #56b4e9; stroke-width: 2.16; stroke-linecap: round"/>
   </g>
   <g id="line2d_63">
    <path d="M 218.923571 66.976775
L 218.923571 66.869781
" clip-path="url(#p03b4483abc)" style="fill: none; stroke: #56b4e9; stroke-width: 2.16; stroke-linecap: round"/>
   </g>
   <g id="line2d_64">
    <path d="M 238.169063 66.849658
L 238.169063 66.746926
" clip-path="url(#p03b4483abc)" style="fill: none; stroke: #56b4e9; stroke-width: 2.16; stroke-linecap: round"/>
   </g>
   <g id="line2d_65">
    <path d="M 257.414555 66.814734
L 257.414555 66.733158
" clip-path="url(#p03b4483abc)" style="fill: none; stroke: #56b4e9; stroke-width: 2.16; stroke-linecap: round"/>
   </g>
   <g id="line2d_66">
    <path d="M 276.660047 66.570058
L 276.660047 66.482153
" clip-path="url(#p03b4483abc)" style="fill: none; stroke: #56b4e9; stroke-width: 2.16; stroke-linecap: round"/>
   </g>
   <g id="PathCollection_3">
    <defs>
     <path id="m86a20f31b5" d="M -0 3.8285
L 2.2971 0
L 0 -3.8285
L -2.2971 -0
z
" style="stroke: #56b4e9; stroke-width: 1.62"/>
    </defs>
    <g clip-path="url(#p03b4483abc)">
     <use xlink:href="#m86a20f31b5" x="45.714144" y="67.643976" style="fill: #56b4e9; stroke: #56b4e9; stroke-width: 1.62"/>
     <use xlink:href="#m86a20f31b5" x="64.959636" y="67.526417" style="fill: #56b4e9; stroke: #56b4e9; stroke-width: 1.62"/>
     <use xlink:href="#m86a20f31b5" x="84.205128" y="67.606908" style="fill: #56b4e9; stroke: #56b4e9; stroke-width: 1.62"/>
     <use xlink:href="#m86a20f31b5" x="103.45062" y="67.46499" style="fill: #56b4e9; stroke: #56b4e9; stroke-width: 1.62"/>
     <use xlink:href="#m86a20f31b5" x="122.696111" y="67.462872" style="fill: #56b4e9; stroke: #56b4e9; stroke-width: 1.62"/>
     <use xlink:href="#m86a20f31b5" x="141.941603" y="67.374967" style="fill: #56b4e9; stroke: #56b4e9; stroke-width: 1.62"/>
     <use xlink:href="#m86a20f31b5" x="161.187095" y="67.194922" style="fill: #56b4e9; stroke: #56b4e9; stroke-width: 1.62"/>
     <use xlink:href="#m86a20f31b5" x="180.432587" y="67.08054" style="fill: #56b4e9; stroke: #56b4e9; stroke-width: 1.62"/>
     <use xlink:href="#m86a20f31b5" x="199.678079" y="66.976749" style="fill: #56b4e9; stroke: #56b4e9; stroke-width: 1.62"/>
     <use xlink:href="#m86a20f31b5" x="218.923571" y="66.918499" style="fill: #56b4e9; stroke: #56b4e9; stroke-width: 1.62"/>
     <use xlink:href="#m86a20f31b5" x="238.169063" y="66.798822" style="fill: #56b4e9; stroke: #56b4e9; stroke-width: 1.62"/>
     <use xlink:href="#m86a20f31b5" x="257.414555" y="66.774463" style="fill: #56b4e9; stroke: #56b4e9; stroke-width: 1.62"/>
     <use xlink:href="#m86a20f31b5" x="276.660047" y="66.527694" style="fill: #56b4e9; stroke: #56b4e9; stroke-width: 1.62"/>
    </g>
   </g>
   <g id="line2d_67">
    <path d="M 48.280209 67.459546
L 67.525701 67.422651
L 86.771193 67.410792
L 106.016685 67.290884
L 125.262177 67.260577
L 144.507669 67.209188
L 163.753161 67.032619
L 182.998653 66.898217
L 202.244145 66.894264
L 221.489637 66.763814
L 240.735129 66.692659
L 259.980621 66.667624
L 279.226112 66.443619
" clip-path="url(#p03b4483abc)" style="fill: none; stroke: #009e73; stroke-width: 2.16; stroke-linecap: round"/>
   </g>
   <g id="line2d_68">
    <path d="M 48.280209 67.501711
L 48.280209 67.41738
" clip-path="url(#p03b4483abc)" style="fill: none; stroke: #009e73; stroke-width: 2.16; stroke-linecap: round"/>
   </g>
   <g id="line2d_69">
    <path d="M 67.525701 67.510968
L 67.525701 67.348861
" clip-path="url(#p03b4483abc)" style="fill: none; stroke: #009e73; stroke-width: 2.16; stroke-linecap: round"/>
   </g>
   <g id="line2d_70">
    <path d="M 86.771193 67.491203
L 86.771193 67.336969
" clip-path="url(#p03b4483abc)" style="fill: none; stroke: #009e73; stroke-width: 2.16; stroke-linecap: round"/>
   </g>
   <g id="line2d_71">
    <path d="M 106.016685 67.315952
L 106.016685 67.263179
" clip-path="url(#p03b4483abc)" style="fill: none; stroke: #009e73; stroke-width: 2.16; stroke-linecap: round"/>
   </g>
   <g id="line2d_72">
    <path d="M 125.262177 67.326494
L 125.262177 67.19074
" clip-path="url(#p03b4483abc)" style="fill: none; stroke: #009e73; stroke-width: 2.16; stroke-linecap: round"/>
   </g>
   <g id="line2d_73">
    <path d="M 144.507669 67.243447
L 144.507669 67.181517
" clip-path="url(#p03b4483abc)" style="fill: none; stroke: #009e73; stroke-width: 2.16; stroke-linecap: round"/>
   </g>
   <g id="line2d_74">
    <path d="M 163.753161 67.076103
L 163.753161 66.991739
" clip-path="url(#p03b4483abc)" style="fill: none; stroke: #009e73; stroke-width: 2.16; stroke-linecap: round"/>
   </g>
   <g id="line2d_75">
    <path d="M 182.998653 66.933794
L 182.998653 66.866592
" clip-path="url(#p03b4483abc)" style="fill: none; stroke: #009e73; stroke-width: 2.16; stroke-linecap: round"/>
   </g>
   <g id="line2d_76">
    <path d="M 202.244145 66.939097
L 202.244145 66.84943
" clip-path="url(#p03b4483abc)" style="fill: none; stroke: #009e73; stroke-width: 2.16; stroke-linecap: round"/>
   </g>
   <g id="line2d_77">
    <path d="M 221.489637 66.804662
L 221.489637 66.725568
" clip-path="url(#p03b4483abc)" style="fill: none; stroke: #009e73; stroke-width: 2.16; stroke-linecap: round"/>
   </g>
   <g id="line2d_78">
    <path d="M 240.735129 66.730872
L 240.735129 66.655732
" clip-path="url(#p03b4483abc)" style="fill: none; stroke: #009e73; stroke-width: 2.16; stroke-linecap: round"/>
   </g>
   <g id="line2d_79">
    <path d="M 259.980621 66.703201
L 259.980621 66.632046
" clip-path="url(#p03b4483abc)" style="fill: none; stroke: #009e73; stroke-width: 2.16; stroke-linecap: round"/>
   </g>
   <g id="line2d_80">
    <path d="M 279.226112 66.487135
L 279.226112 66.404056
" clip-path="url(#p03b4483abc)" style="fill: none; stroke: #009e73; stroke-width: 2.16; stroke-linecap: round"/>
   </g>
   <g id="PathCollection_4">
    <defs>
     <path id="mce0091321f" d="M 0 -2.707159
L -0.607795 -0.836558
L -2.574661 -0.836558
L -0.983433 0.319537
L -1.591228 2.190137
L -0 1.034043
L 1.591228 2.190137
L 0.983433 0.319537
L 2.574661 -0.836558
L 0.607795 -0.836558
z
" style="stroke: #009e73; stroke-width: 1.62"/>
    </defs>
    <g clip-path="url(#p03b4483abc)">
     <use xlink:href="#mce0091321f" x="48.280209" y="67.459546" style="fill: #009e73; stroke: #009e73; stroke-width: 1.62"/>
     <use xlink:href="#mce0091321f" x="67.525701" y="67.422651" style="fill: #009e73; stroke: #009e73; stroke-width: 1.62"/>
     <use xlink:href="#mce0091321f" x="86.771193" y="67.410792" style="fill: #009e73; stroke: #009e73; stroke-width: 1.62"/>
     <use xlink:href="#mce0091321f" x="106.016685" y="67.290884" style="fill: #009e73; stroke: #009e73; stroke-width: 1.62"/>
     <use xlink:href="#mce0091321f" x="125.262177" y="67.260577" style="fill: #009e73; stroke: #009e73; stroke-width: 1.62"/>
     <use xlink:href="#mce0091321f" x="144.507669" y="67.209188" style="fill: #009e73; stroke: #009e73; stroke-width: 1.62"/>
     <use xlink:href="#mce0091321f" x="163.753161" y="67.032619" style="fill: #009e73; stroke: #009e73; stroke-width: 1.62"/>
     <use xlink:href="#mce0091321f" x="182.998653" y="66.898217" style="fill: #009e73; stroke: #009e73; stroke-width: 1.62"/>
     <use xlink:href="#mce0091321f" x="202.244145" y="66.894264" style="fill: #009e73; stroke: #009e73; stroke-width: 1.62"/>
     <use xlink:href="#mce0091321f" x="221.489637" y="66.763814" style="fill: #009e73; stroke: #009e73; stroke-width: 1.62"/>
     <use xlink:href="#mce0091321f" x="240.735129" y="66.692659" style="fill: #009e73; stroke: #009e73; stroke-width: 1.62"/>
     <use xlink:href="#mce0091321f" x="259.980621" y="66.667624" style="fill: #009e73; stroke: #009e73; stroke-width: 1.62"/>
     <use xlink:href="#mce0091321f" x="279.226112" y="66.443619" style="fill: #009e73; stroke: #009e73; stroke-width: 1.62"/>
    </g>
   </g>
  </g>
  <g id="legend_1">
   <g id="PathCollection_5">
    <g>
     <use xlink:href="#m4d91b72f46" x="55.69025" y="108.443062" style="stroke: #000000; stroke-width: 1.62"/>
    </g>
   </g>
   <g id="text_21">
    <!-- Overall -->
    <g style="fill: #262626" transform="translate(66.69025 110.753062) scale(0.088 -0.088)">
     <defs>
      <path id="SourceSansPro-Regular-4f" d="M 2125 -77
C 3181 -77 3923 768 3923 2118
C 3923 3456 3181 4275 2125 4275
C 1069 4275 333 3462 333 2118
C 333 768 1069 -77 2125 -77
z
M 2125 397
C 1376 397 890 1069 890 2118
C 890 3162 1376 3802 2125 3802
C 2874 3802 3366 3162 3366 2118
C 3366 1069 2874 397 2125 397
z
" transform="scale(0.015625)"/>
      <path id="SourceSansPro-Regular-76" d="M 1197 0
L 1818 0
L 2918 3110
L 2394 3110
L 1811 1350
C 1715 1043 1613 730 1523 429
L 1498 429
C 1402 730 1306 1043 1210 1350
L 627 3110
L 77 3110
L 1197 0
z
" transform="scale(0.015625)"/>
      <path id="SourceSansPro-Regular-6c" d="M 1082 -77
C 1216 -77 1312 -58 1389 -19
L 1318 378
C 1267 365 1242 365 1210 365
C 1126 365 1056 422 1056 589
L 1056 4557
L 525 4557
L 525 627
C 525 179 685 -77 1082 -77
z
" transform="scale(0.015625)"/>
     </defs>
     <use xlink:href="#SourceSansPro-Regular-4f"/>
     <use xlink:href="#SourceSansPro-Regular-76" x="66.399994"/>
     <use xlink:href="#SourceSansPro-Regular-65" x="113.199982"/>
     <use xlink:href="#SourceSansPro-Regular-72" x="162.799973"/>
     <use xlink:href="#SourceSansPro-Regular-61" x="197.59996"/>
     <use xlink:href="#SourceSansPro-Regular-6c" x="247.999954"/>
     <use xlink:href="#SourceSansPro-Regular-6c" x="273.499939"/>
    </g>
   </g>
   <g id="PathCollection_6">
    <g>
     <use xlink:href="#mee17fc33b9" x="119.40225" y="108.443062" style="fill: #e69f00; stroke: #e69f00; stroke-width: 1.62"/>
    </g>
   </g>
   <g id="text_22">
    <!-- Few -->
    <g style="fill: #262626" transform="translate(130.40225 110.753062) scale(0.088 -0.088)">
     <defs>
      <path id="SourceSansPro-Regular-46" d="M 576 0
L 1114 0
L 1114 1875
L 2714 1875
L 2714 2330
L 1114 2330
L 1114 3744
L 2995 3744
L 2995 4198
L 576 4198
L 576 0
z
" transform="scale(0.015625)"/>
      <path id="SourceSansPro-Regular-77" d="M 1024 0
L 1664 0
L 2080 1670
C 2163 1952 2221 2227 2278 2592
L 2304 2592
C 2374 2227 2432 1958 2509 1670
L 2931 0
L 3603 0
L 4442 3110
L 3936 3110
L 3482 1306
C 3411 1024 3360 755 3296 422
L 3270 422
C 3206 755 3136 1024 3066 1306
L 2592 3110
L 2022 3110
L 1555 1306
C 1485 1024 1427 755 1363 422
L 1338 422
C 1286 755 1222 1024 1152 1306
L 698 3110
L 154 3110
L 1024 0
z
" transform="scale(0.015625)"/>
     </defs>
     <use xlink:href="#SourceSansPro-Regular-46"/>
     <use xlink:href="#SourceSansPro-Regular-65" x="49.499985"/>
     <use xlink:href="#SourceSansPro-Regular-77" x="99.099976"/>
    </g>
   </g>
   <g id="PathCollection_7">
    <g>
     <use xlink:href="#m86a20f31b5" x="171.840625" y="108.443062" style="fill: #56b4e9; stroke: #56b4e9; stroke-width: 1.62"/>
    </g>
   </g>
   <g id="text_23">
    <!-- Medium -->
    <g style="fill: #262626" transform="translate(182.840625 110.753062) scale(0.088 -0.088)">
     <defs>
      <path id="SourceSansPro-Regular-4d" d="M 570 0
L 1062 0
L 1062 2317
C 1062 2688 1018 3206 986 3571
L 1011 3571
L 1344 2592
L 2125 422
L 2515 422
L 3302 2592
L 3629 3571
L 3654 3571
C 3622 3206 3578 2688 3578 2317
L 3578 0
L 4083 0
L 4083 4198
L 3411 4198
L 2618 1952
C 2515 1658 2438 1389 2342 1075
L 2317 1075
C 2227 1389 2138 1658 2035 1952
L 1242 4198
L 570 4198
L 570 0
z
" transform="scale(0.015625)"/>
      <path id="SourceSansPro-Regular-64" d="M 1587 -77
C 1952 -77 2285 128 2528 365
L 2547 365
L 2592 0
L 3027 0
L 3027 4557
L 2496 4557
L 2496 3360
L 2522 2829
C 2246 3053 2010 3187 1651 3187
C 941 3187 301 2560 301 1549
C 301 512 806 -77 1587 -77
z
M 1702 371
C 1158 371 851 813 851 1555
C 851 2266 1248 2739 1741 2739
C 1997 2739 2234 2656 2496 2419
L 2496 794
C 2240 512 1990 371 1702 371
z
" transform="scale(0.015625)"/>
      <path id="SourceSansPro-Regular-69" d="M 525 0
L 1056 0
L 1056 3110
L 525 3110
L 525 0
z
M 794 3750
C 998 3750 1146 3885 1146 4096
C 1146 4301 998 4442 794 4442
C 589 4442 442 4301 442 4096
C 442 3885 589 3750 794 3750
z
" transform="scale(0.015625)"/>
      <path id="SourceSansPro-Regular-6d" d="M 525 0
L 1056 0
L 1056 2253
C 1344 2573 1600 2726 1830 2726
C 2227 2726 2406 2483 2406 1901
L 2406 0
L 2938 0
L 2938 2253
C 3226 2573 3475 2726 3718 2726
C 4109 2726 4294 2483 4294 1901
L 4294 0
L 4826 0
L 4826 1971
C 4826 2765 4518 3187 3878 3187
C 3501 3187 3174 2944 2854 2598
C 2726 2963 2470 3187 1990 3187
C 1619 3187 1299 2957 1024 2662
L 1005 2662
L 960 3110
L 525 3110
L 525 0
z
" transform="scale(0.015625)"/>
     </defs>
     <use xlink:href="#SourceSansPro-Regular-4d"/>
     <use xlink:href="#SourceSansPro-Regular-65" x="72.699982"/>
     <use xlink:href="#SourceSansPro-Regular-64" x="122.299973"/>
     <use xlink:href="#SourceSansPro-Regular-69" x="177.799957"/>
     <use xlink:href="#SourceSansPro-Regular-75" x="202.499954"/>
     <use xlink:href="#SourceSansPro-Regular-6d" x="256.899948"/>
    </g>
   </g>
   <g id="PathCollection_8">
    <g>
     <use xlink:href="#mce0091321f" x="239.144125" y="108.443062" style="fill: #009e73; stroke: #009e73; stroke-width: 1.62"/>
    </g>
   </g>
   <g id="text_24">
    <!-- Many -->
    <g style="fill: #262626" transform="translate(250.144125 110.753062) scale(0.088 -0.088)">
     <use xlink:href="#SourceSansPro-Regular-4d"/>
     <use xlink:href="#SourceSansPro-Regular-61" x="72.699982"/>
     <use xlink:href="#SourceSansPro-Regular-6e" x="123.099976"/>
     <use xlink:href="#SourceSansPro-Regular-79" x="177.799973"/>
    </g>
   </g>
  </g>
 </g>
 <defs>
  <clipPath id="p03b4483abc">
   <rect x="34.808365" y="3.00024" width="250.191395" height="126.826145"/>
  </clipPath>
 </defs>
</svg>
