<?xml version="1.0" encoding="utf-8" standalone="no"?>
<!DOCTYPE svg PUBLIC "-//W3C//DTD SVG 1.1//EN"
  "http://www.w3.org/Graphics/SVG/1.1/DTD/svg11.dtd">
<svg xmlns:xlink="http://www.w3.org/1999/xlink" width="585pt" height="234pt" viewBox="0 0 585 234" xmlns="http://www.w3.org/2000/svg" version="1.1">
 <metadata>
  <rdf:RDF xmlns:dc="http://purl.org/dc/elements/1.1/" xmlns:cc="http://creativecommons.org/ns#" xmlns:rdf="http://www.w3.org/1999/02/22-rdf-syntax-ns#">
   <cc:Work>
    <dc:type rdf:resource="http://purl.org/dc/dcmitype/StillImage"/>
    <dc:date>2023-04-23T03:06:25.862074</dc:date>
    <dc:format>image/svg+xml</dc:format>
    <dc:creator>
     <cc:Agent>
      <dc:title>Matplotlib v3.6.2, https://matplotlib.org/</dc:title>
     </cc:Agent>
    </dc:creator>
   </cc:Work>
  </rdf:RDF>
 </metadata>
 <defs>
  <style type="text/css">*{stroke-linejoin: round; stroke-linecap: butt}</style>
 </defs>
 <g id="figure_1">
  <g id="patch_1">
   <path d="M 0 234
L 585 234
L 585 0
L 0 0
L 0 234
z
" style="fill: none"/>
  </g>
  <g id="axes_1">
   <g id="patch_2">
    <path d="M 9.784615 95.36851
L 111.345072 95.36851
L 111.345072 16.65024
L 9.784615 16.65024
L 9.784615 95.36851
z
" style="fill: none"/>
   </g>
   <g id="matplotlib.axis_1">
    <g id="xtick_1">
     <g id="line2d_1">
      <path d="M 9.784615 95.36851
L 9.784615 16.65024
" clip-path="url(#p468cebb155)" style="fill: none"/>
     </g>
     <g id="line2d_2">
      <defs>
       <path id="m204195b338" d="M 0 0
L 0 6.25
" style="stroke: #262626; stroke-width: 1.25"/>
      </defs>
      <g>
       <use xlink:href="#m204195b338" x="9.784615" y="95.36851" style="fill: #262626; stroke: #262626; stroke-width: 1.25"/>
      </g>
     </g>
     <g id="text_1">
      <!-- −1 -->
      <g style="fill: #262626" transform="translate(3.00024 112.059135) scale(0.1 -0.1)">
       <defs>
        <path id="LMSans8-Regular-2212" d="M 4902 1600
C 4902 1747 4762 1747 4672 1747
L 608 1747
C 518 1747 378 1747 378 1600
C 378 1453 518 1453 608 1453
L 4672 1453
C 4762 1453 4902 1453 4902 1600
z
" transform="scale(0.015625)"/>
        <path id="LMSans8-Regular-31" d="M 2906 0
L 2906 403
L 2054 403
L 2054 4333
L 1914 4333
C 1498 3949 973 3923 589 3910
L 589 3507
C 838 3514 1158 3526 1478 3654
L 1478 403
L 627 403
L 627 0
L 2906 0
z
" transform="scale(0.015625)"/>
       </defs>
       <use xlink:href="#LMSans8-Regular-2212"/>
       <use xlink:href="#LMSans8-Regular-31" x="82.599991"/>
      </g>
     </g>
    </g>
    <g id="xtick_2">
     <g id="line2d_3">
      <path d="M 60.564844 95.36851
L 60.564844 16.65024
" clip-path="url(#p468cebb155)" style="fill: none"/>
     </g>
     <g id="line2d_4">
      <g>
       <use xlink:href="#m204195b338" x="60.564844" y="95.36851" style="fill: #262626; stroke: #262626; stroke-width: 1.25"/>
      </g>
     </g>
     <g id="text_2">
      <!-- 0 -->
      <g style="fill: #262626" transform="translate(57.910156 112.059135) scale(0.1 -0.1)">
       <defs>
        <path id="LMSans8-Regular-30" d="M 3123 2080
C 3123 2387 3123 3136 2822 3661
C 2496 4237 2003 4333 1696 4333
C 1408 4333 909 4243 589 3693
C 282 3181 269 2483 269 2080
C 269 1606 294 1024 563 538
C 845 19 1318 -134 1696 -134
C 2336 -134 2688 237 2880 640
C 3104 1094 3123 1683 3123 2080
z
M 2566 2163
C 2566 1741 2566 1261 2413 851
C 2234 390 1907 288 1696 288
C 1427 288 1120 442 960 902
C 832 1293 826 1696 826 2163
C 826 2752 826 3910 1696 3910
C 2566 3910 2566 2752 2566 2163
z
" transform="scale(0.015625)"/>
       </defs>
       <use xlink:href="#LMSans8-Regular-30"/>
      </g>
     </g>
    </g>
    <g id="xtick_3">
     <g id="line2d_5">
      <path d="M 111.345072 95.36851
L 111.345072 16.65024
" clip-path="url(#p468cebb155)" style="fill: none"/>
     </g>
     <g id="line2d_6">
      <g>
       <use xlink:href="#m204195b338" x="111.345072" y="95.36851" style="fill: #262626; stroke: #262626; stroke-width: 1.25"/>
      </g>
     </g>
     <g id="text_3">
      <!-- 1 -->
      <g style="fill: #262626" transform="translate(108.690385 112.059135) scale(0.1 -0.1)">
       <use xlink:href="#LMSans8-Regular-31"/>
      </g>
     </g>
    </g>
   </g>
   <g id="matplotlib.axis_2"/>
   <g id="line2d_7">
    <path d="M 42.788173 95.203342
L 43.638451 94.931577
L 44.27616 94.528514
L 44.913869 93.854755
L 45.551577 92.80979
L 46.189286 91.308128
L 47.039564 88.540755
L 48.102412 84.089425
L 49.802968 76.838163
L 50.653247 74.275856
L 51.290955 73.073367
L 51.716094 72.626177
L 52.141234 72.45114
L 52.566373 72.527368
L 52.991512 72.822356
L 53.62922 73.56241
L 54.692068 74.846422
L 55.117207 74.989684
L 55.329777 74.898374
L 55.754916 74.278275
L 56.180055 72.937431
L 56.605194 70.744792
L 57.242903 65.730353
L 58.093181 56.162578
L 59.793738 34.857697
L 60.431446 29.847027
L 60.856586 28.23133
L 61.069155 27.994556
L 61.281725 28.144308
L 61.494294 28.675169
L 61.919433 30.8218
L 62.344572 34.25298
L 62.982281 41.211047
L 65.107977 66.970501
L 65.745685 72.011848
L 66.170825 74.233074
L 66.595964 75.532336
L 66.808533 75.852529
L 67.021103 75.96874
L 67.233672 75.896611
L 67.658811 75.263324
L 68.29652 73.430091
L 69.784507 68.543305
L 70.209646 67.799242
L 70.634785 67.559888
L 70.847355 67.641734
L 71.272494 68.201276
L 71.697633 69.238918
L 72.335342 71.460835
L 74.035898 77.818514
L 74.673607 79.166332
L 75.098746 79.61564
L 75.523885 79.75587
L 76.161594 79.594018
L 77.011872 79.326976
L 77.437011 79.437184
L 77.86215 79.822348
L 78.287289 80.518558
L 78.924998 82.12223
L 79.775276 85.004295
L 81.263263 90.227762
L 82.113541 92.431997
L 82.75125 93.581535
L 83.388959 94.350441
L 84.026668 94.825538
L 84.876946 95.156592
L 85.089515 95.204054
L 85.089515 95.204054
" clip-path="url(#p468cebb155)" style="fill: none; stroke: #f7d2d4; stroke-width: 1.5625; stroke-linecap: round"/>
   </g>
   <g id="line2d_8">
    <path d="M 36.025303 95.207726
L 36.907597 94.942637
L 37.569317 94.545491
L 38.231037 93.871778
L 38.892757 92.805124
L 39.554477 91.23031
L 40.216197 89.064789
L 41.09849 85.251883
L 42.421931 78.212142
L 43.524797 72.573071
L 44.186517 69.97005
L 44.848237 68.238129
L 45.289384 67.607498
L 45.730531 67.378333
L 46.171678 67.505095
L 46.612824 67.924234
L 47.274544 68.947171
L 48.377411 71.224799
L 49.700851 74.511115
L 50.803718 77.90838
L 53.009452 85.177499
L 53.450598 86.001008
L 53.891745 86.332204
L 54.112319 86.273253
L 54.332892 86.044256
L 54.774039 85.020276
L 55.215185 83.161621
L 55.656332 80.397604
L 56.318052 74.49829
L 57.200346 63.620499
L 59.847226 26.49767
L 60.288373 22.936277
L 60.729519 20.862325
L 60.950093 20.423787
L 61.170666 20.39321
L 61.391239 20.769202
L 61.832386 22.70356
L 62.273533 26.093405
L 62.935253 33.417812
L 64.03812 49.124374
L 65.36156 67.838987
L 66.243853 77.328727
L 66.905573 82.234959
L 67.34672 84.427821
L 67.787867 85.812008
L 68.229013 86.471267
L 68.449587 86.562475
L 68.67016 86.515245
L 69.111307 86.073209
L 69.773027 84.813183
L 71.096467 81.96296
L 71.537614 81.389856
L 71.978761 81.155809
L 72.419907 81.299131
L 72.861054 81.819566
L 73.522774 83.220346
L 74.405067 85.85713
L 75.949081 90.656755
L 76.831374 92.672636
L 77.493094 93.723028
L 78.154815 94.426643
L 78.816535 94.862932
L 79.698828 95.168927
L 79.919401 95.213108
L 79.919401 95.213108
" clip-path="url(#p468cebb155)" style="fill: none; stroke: #eaacc7; stroke-width: 1.5625; stroke-linecap: round"/>
   </g>
   <g id="line2d_9">
    <path d="M 39.952287 95.239421
L 41.404096 94.982968
L 42.565544 94.529324
L 43.436629 93.947213
L 44.307715 93.074034
L 45.178801 91.836118
L 46.049887 90.179079
L 46.920972 88.087321
L 48.08242 84.699868
L 51.857125 72.86867
L 52.72821 70.936491
L 53.599296 69.505217
L 54.470382 68.572717
L 55.051106 68.214467
L 55.631829 68.056135
L 56.212553 68.090917
L 56.793277 68.314956
L 57.374001 68.726063
L 58.245087 69.685198
L 59.116172 71.023141
L 60.27762 73.253473
L 62.890877 78.454266
L 63.761963 79.730963
L 64.633049 80.659776
L 65.504134 81.25708
L 66.37522 81.56609
L 67.246306 81.61793
L 68.117391 81.401803
L 68.988477 80.858635
L 69.859563 79.903124
L 70.730649 78.46746
L 71.601734 76.550676
L 73.053544 72.61183
L 74.505353 68.733927
L 75.376439 67.006332
L 75.957163 66.250955
L 76.537887 65.852835
L 77.11861 65.811496
L 77.699334 66.095398
L 78.280058 66.646329
L 79.151144 67.802514
L 81.183677 70.654827
L 82.345125 71.791631
L 84.66802 73.744502
L 85.539106 74.93893
L 86.410191 76.588092
L 87.571639 79.45999
L 91.346344 89.847565
L 92.21743 91.543168
L 93.088515 92.841325
L 93.959601 93.777237
L 94.830687 94.41382
L 95.992134 94.920604
L 97.153582 95.175848
L 97.734306 95.246218
L 97.734306 95.246218
" clip-path="url(#p468cebb155)" style="fill: none; stroke: #cc86c1; stroke-width: 1.5625; stroke-linecap: round"/>
   </g>
   <g id="line2d_10">
    <path d="M 39.63591 95.210867
L 40.799551 94.947842
L 41.672282 94.551208
L 42.545013 93.875338
L 43.417744 92.802767
L 44.290475 91.220686
L 45.163207 89.057255
L 46.035938 86.324256
L 47.490489 80.909024
L 48.945041 75.583702
L 49.817772 73.068797
L 50.690503 71.330686
L 51.272324 70.614853
L 51.854144 70.201151
L 52.726876 69.953209
L 53.890517 69.712898
L 54.472338 69.368474
L 55.054158 68.748342
L 55.635979 67.794681
L 56.2178 66.486381
L 57.090531 63.908364
L 58.545082 58.614709
L 59.708724 54.621687
L 60.290545 53.120485
L 60.872365 52.137231
L 61.163276 51.874473
L 61.454186 51.777661
L 61.745096 51.852988
L 62.036007 52.103258
L 62.617827 53.122067
L 63.199648 54.785529
L 64.072379 58.256381
L 67.563303 74.01871
L 68.436034 76.520752
L 69.308765 78.315346
L 70.181496 79.568197
L 71.054227 80.445115
L 71.926958 81.059773
L 73.0906 81.575155
L 74.836062 81.983404
L 75.999703 82.38851
L 76.872434 82.975825
L 77.745165 83.869202
L 79.199717 85.832896
L 80.363358 87.323393
L 81.23609 88.044238
L 81.81791 88.243231
L 82.399731 88.195003
L 82.981552 87.911494
L 83.854283 87.137194
L 85.890655 84.995736
L 86.472476 84.66595
L 87.054296 84.577663
L 87.636117 84.757491
L 88.217938 85.204453
L 89.090669 86.31121
L 90.25431 88.317294
L 92.290683 91.892617
L 93.163414 93.058288
L 94.036145 93.927229
L 94.908876 94.524511
L 96.072517 94.993814
L 97.527069 95.252611
L 97.527069 95.252611
" clip-path="url(#p468cebb155)" style="fill: none; stroke: #9361ae; stroke-width: 1.5625; stroke-linecap: round"/>
   </g>
   <g id="line2d_11">
    <path d="M 59.364802 95.210159
L 60.231847 94.952506
L 60.882131 94.572457
L 61.532414 93.940083
L 62.182698 92.963701
L 62.832982 91.566628
L 63.700027 89.001962
L 64.783833 84.861385
L 67.384969 73.552149
L 68.468775 67.887306
L 69.552581 60.843638
L 70.853149 52.411047
L 71.503433 49.721261
L 71.936955 48.934568
L 72.153717 48.88413
L 72.370478 49.067296
L 72.804 50.111592
L 73.237523 51.960391
L 74.104568 57.235815
L 75.188374 64.012666
L 75.838658 66.717894
L 76.272181 67.640239
L 76.488942 67.815015
L 76.705703 67.79818
L 76.922465 67.593449
L 77.355987 66.649426
L 77.78951 65.06479
L 78.439793 61.741655
L 80.607406 49.074832
L 81.040929 47.64987
L 81.474451 46.978963
L 81.691213 46.953365
L 81.907974 47.140102
L 82.341496 48.139294
L 82.775019 49.906758
L 83.425303 53.682676
L 85.809677 69.383317
L 86.676722 73.278661
L 87.977289 77.84841
L 89.494618 82.539163
L 90.144902 84.043715
L 90.578425 84.709377
L 91.011947 85.045711
L 91.44547 85.035189
L 91.878992 84.697362
L 92.529276 83.711535
L 94.046605 81.027189
L 94.480127 80.677625
L 94.91365 80.669414
L 95.347172 81.032512
L 95.780695 81.757189
L 96.430979 83.414519
L 97.731546 87.75793
L 98.815353 91.081994
L 99.682398 92.990682
L 100.332682 93.951872
L 100.982966 94.577721
L 101.850011 95.04006
L 102.500294 95.21101
L 102.500294 95.21101
" clip-path="url(#p468cebb155)" style="fill: none; stroke: #392f62; stroke-width: 1.5625; stroke-linecap: round"/>
   </g>
   <g id="patch_3">
    <path d="M 9.784615 95.36851
L 111.345072 95.36851
" style="fill: none; stroke: #262626; stroke-width: 1.25; stroke-linejoin: miter; stroke-linecap: square"/>
   </g>
   <g id="text_4">
    <!-- $\rho=0.1$ -->
    <g style="fill: #262626" transform="translate(44.927344 10.65024) scale(0.1125 -0.1125)">
     <defs>
      <path id="STIXNonUnicode-Italic-e1e8" d="M 38 -838
L 435 755
Q 576 1338 723 1709
Q 870 2080 1126 2381
Q 1619 2957 2304 2957
Q 2726 2957 2995 2669
Q 3264 2381 3264 1933
Q 3264 1171 2669 550
Q 2074 -70 1421 -70
Q 1062 -70 794 160
L 550 -813
Q 461 -1171 301 -1382
L -211 -1382
Q -32 -1120 38 -838
z
M 2726 1798
Q 2726 2118 2553 2310
Q 2381 2502 2099 2502
Q 1773 2502 1498 2176
Q 1331 1984 1216 1693
Q 1101 1402 947 781
Q 1094 384 1504 384
Q 1997 384 2361 819
Q 2726 1254 2726 1798
z
" transform="scale(0.015625)"/>
      <path id="STIXGeneral-Regular-3d" d="M 4077 2048
L 307 2048
L 307 2470
L 4077 2470
L 4077 2048
z
M 4077 768
L 307 768
L 307 1190
L 4077 1190
L 4077 768
z
" transform="scale(0.015625)"/>
      <path id="STIXGeneral-Regular-1d7e2" d="M 3053 2112
Q 3053 1523 2915 1046
Q 2778 570 2438 240
Q 2099 -90 1600 -90
Q 1203 -90 912 108
Q 621 307 461 643
Q 301 979 224 1353
Q 147 1728 147 2150
Q 147 2746 294 3222
Q 442 3699 787 4012
Q 1133 4326 1626 4326
Q 2253 4326 2653 3708
Q 3053 3091 3053 2112
z
M 2547 2112
Q 2547 2893 2288 3382
Q 2029 3872 1613 3872
Q 1139 3872 896 3376
Q 653 2880 653 2138
Q 653 1805 701 1507
Q 749 1210 854 944
Q 960 678 1152 521
Q 1344 365 1600 365
Q 1926 365 2147 627
Q 2368 890 2457 1270
Q 2547 1651 2547 2112
z
" transform="scale(0.015625)"/>
      <path id="STIXGeneral-Regular-2e" d="M 1158 275
Q 1158 134 1052 32
Q 947 -70 800 -70
Q 653 -70 550 32
Q 448 134 448 281
Q 448 429 553 534
Q 659 640 806 640
Q 947 640 1052 531
Q 1158 422 1158 275
z
" transform="scale(0.015625)"/>
      <path id="STIXGeneral-Regular-1d7e3" d="M 1933 0
L 1427 0
L 1427 3648
Q 1286 3584 1008 3440
Q 730 3296 691 3277
L 691 3744
L 1843 4333
L 1933 4301
L 1933 0
z
" transform="scale(0.015625)"/>
     </defs>
     <use xlink:href="#STIXNonUnicode-Italic-e1e8" transform="translate(0 0.296875)"/>
     <use xlink:href="#STIXGeneral-Regular-3d" transform="translate(68.519992 0.296875)"/>
     <use xlink:href="#STIXGeneral-Regular-1d7e2" transform="translate(152.139975 0.296875)"/>
     <use xlink:href="#STIXGeneral-Regular-2e" transform="translate(202.13996 0.296875)"/>
     <use xlink:href="#STIXGeneral-Regular-1d7e3" transform="translate(227.139944 0.296875)"/>
    </g>
   </g>
  </g>
  <g id="axes_2">
   <g id="patch_4">
    <path d="M 126.784615 95.36851
L 228.345072 95.36851
L 228.345072 16.65024
L 126.784615 16.65024
L 126.784615 95.36851
z
" style="fill: none"/>
   </g>
   <g id="matplotlib.axis_3">
    <g id="xtick_4">
     <g id="line2d_12">
      <path d="M 126.784615 95.36851
L 126.784615 16.65024
" clip-path="url(#p89e148c278)" style="fill: none"/>
     </g>
     <g id="line2d_13">
      <g>
       <use xlink:href="#m204195b338" x="126.784615" y="95.36851" style="fill: #262626; stroke: #262626; stroke-width: 1.25"/>
      </g>
     </g>
     <g id="text_5">
      <!-- −1 -->
      <g style="fill: #262626" transform="translate(120.00024 112.059135) scale(0.1 -0.1)">
       <use xlink:href="#LMSans8-Regular-2212"/>
       <use xlink:href="#LMSans8-Regular-31" x="82.599991"/>
      </g>
     </g>
    </g>
    <g id="xtick_5">
     <g id="line2d_14">
      <path d="M 177.564844 95.36851
L 177.564844 16.65024
" clip-path="url(#p89e148c278)" style="fill: none"/>
     </g>
     <g id="line2d_15">
      <g>
       <use xlink:href="#m204195b338" x="177.564844" y="95.36851" style="fill: #262626; stroke: #262626; stroke-width: 1.25"/>
      </g>
     </g>
     <g id="text_6">
      <!-- 0 -->
      <g style="fill: #262626" transform="translate(174.910156 112.059135) scale(0.1 -0.1)">
       <use xlink:href="#LMSans8-Regular-30"/>
      </g>
     </g>
    </g>
    <g id="xtick_6">
     <g id="line2d_16">
      <path d="M 228.345072 95.36851
L 228.345072 16.65024
" clip-path="url(#p89e148c278)" style="fill: none"/>
     </g>
     <g id="line2d_17">
      <g>
       <use xlink:href="#m204195b338" x="228.345072" y="95.36851" style="fill: #262626; stroke: #262626; stroke-width: 1.25"/>
      </g>
     </g>
     <g id="text_7">
      <!-- 1 -->
      <g style="fill: #262626" transform="translate(225.690385 112.059135) scale(0.1 -0.1)">
       <use xlink:href="#LMSans8-Regular-31"/>
      </g>
     </g>
    </g>
   </g>
   <g id="matplotlib.axis_4"/>
   <g id="line2d_18">
    <path d="M 157.69801 95.180218
L 158.356831 94.897594
L 158.850946 94.489578
L 159.345062 93.8149
L 159.839177 92.767693
L 160.333292 91.245027
L 160.992113 88.363418
L 161.815639 83.508175
L 163.297985 74.448365
L 163.7921 72.693849
L 164.121511 72.154297
L 164.286216 72.091384
L 164.450921 72.168726
L 164.780331 72.736101
L 165.109741 73.816174
L 165.603857 76.226695
L 166.756793 83.618104
L 167.745024 89.256418
L 168.403844 91.863294
L 169.062665 93.537245
L 169.55678 94.298989
L 170.050896 94.746342
L 170.545011 94.956957
L 171.039126 94.971273
L 171.533242 94.782119
L 172.027357 94.328099
L 172.521473 93.49068
L 173.015588 92.098323
L 173.509704 89.94347
L 174.003819 86.81761
L 174.66264 80.88533
L 175.486165 70.690081
L 177.627332 41.328954
L 178.286153 36.057836
L 178.780268 33.949386
L 179.109678 33.375773
L 179.274384 33.317854
L 179.439089 33.401749
L 179.768499 33.962446
L 180.262614 35.674611
L 180.75673 38.288141
L 181.41555 42.967191
L 182.403781 51.971442
L 185.203769 79.110572
L 186.191999 85.893684
L 187.015525 89.939466
L 187.674346 92.16572
L 188.333166 93.6258
L 188.991987 94.498589
L 189.650807 94.971675
L 190.474333 95.237964
L 190.474333 95.237964
" clip-path="url(#p89e148c278)" style="fill: none; stroke: #f7d2d4; stroke-width: 1.5625; stroke-linecap: round"/>
   </g>
   <g id="line2d_19">
    <path d="M 164.581286 95.185649
L 165.078407 94.876703
L 165.451248 94.413124
L 165.824088 93.631757
L 166.196929 92.412208
L 166.69405 89.935177
L 167.315451 85.428853
L 169.055374 71.511297
L 169.552495 69.633002
L 169.801055 69.222143
L 170.049616 69.16651
L 170.298176 69.464317
L 170.671017 70.562745
L 171.168138 73.156273
L 172.038099 79.592925
L 172.659501 83.613806
L 173.032341 84.890266
L 173.280902 85.074166
L 173.529462 84.665559
L 173.778023 83.650001
L 174.150863 81.027734
L 174.647984 75.718808
L 175.393666 64.798301
L 176.512188 44.376398
L 177.506429 27.30985
L 178.00355 22.111228
L 178.376391 20.480102
L 178.500671 20.3961
L 178.624951 20.538315
L 178.873512 21.471988
L 179.246352 24.32788
L 179.743473 30.264897
L 180.613435 44.144413
L 182.229078 71.01724
L 182.726199 76.206494
L 183.099039 78.405041
L 183.3476 79.085245
L 183.59616 79.234635
L 183.844721 78.988724
L 184.838963 77.449513
L 185.087523 77.674208
L 185.336083 78.308444
L 185.708924 79.9982
L 186.330325 84.157506
L 187.324567 90.759963
L 187.821688 92.900024
L 188.318809 94.196206
L 188.81593 94.874938
L 189.313051 95.184286
L 189.313051 95.184286
" clip-path="url(#p89e148c278)" style="fill: none; stroke: #eaacc7; stroke-width: 1.5625; stroke-linecap: round"/>
   </g>
   <g id="line2d_20">
    <path d="M 168.70857 95.227219
L 169.753472 94.990497
L 170.537149 94.631045
L 171.320825 94.012858
L 172.104502 93.019464
L 172.888179 91.529891
L 173.671855 89.449461
L 174.455532 86.749822
L 175.500434 82.33597
L 177.851463 72.055257
L 178.63514 69.74949
L 179.157591 68.757895
L 179.680042 68.232349
L 180.202493 68.16017
L 180.724944 68.498591
L 181.247395 69.18199
L 182.031072 70.679582
L 183.598425 74.414957
L 185.165778 77.947327
L 186.21068 79.851028
L 186.994356 80.928224
L 187.516807 81.414482
L 188.039258 81.658737
L 188.56171 81.606847
L 189.084161 81.20826
L 189.606612 80.426228
L 190.129063 79.248476
L 190.912739 76.797385
L 192.218867 71.598454
L 193.263769 67.712937
L 193.78622 66.31252
L 194.308671 65.461739
L 194.569896 65.27336
L 194.831122 65.253224
L 195.092347 65.404715
L 195.614798 66.218531
L 196.13725 67.672965
L 196.920926 70.848113
L 198.227054 77.63819
L 199.794407 85.539595
L 200.578083 88.617814
L 201.36176 90.952596
L 202.145436 92.573642
L 202.929113 93.572802
L 203.451564 93.946495
L 203.974015 94.119672
L 204.496466 94.115025
L 205.280143 93.811356
L 206.063819 93.190769
L 207.108721 91.956354
L 209.982202 88.083606
L 210.504653 87.710569
L 211.027104 87.53705
L 211.549555 87.577255
L 212.072006 87.827972
L 212.855683 88.550654
L 213.900585 89.955925
L 215.990389 92.918069
L 217.035291 93.971091
L 218.080193 94.654808
L 219.125095 95.042061
L 220.431223 95.263352
L 220.692448 95.286387
L 220.692448 95.286387
" clip-path="url(#p89e148c278)" style="fill: none; stroke: #cc86c1; stroke-width: 1.5625; stroke-linecap: round"/>
   </g>
   <g id="line2d_21">
    <path d="M 170.210401 95.182692
L 170.959171 94.840609
L 171.558186 94.251679
L 172.007448 93.504307
L 172.45671 92.38523
L 173.055726 90.13452
L 173.654742 86.830755
L 174.403512 81.127237
L 175.601544 69.510318
L 176.649821 60.101573
L 177.248837 56.61842
L 177.698099 55.319549
L 177.997607 55.131476
L 178.297115 55.480213
L 178.596623 56.334203
L 179.045885 58.439387
L 179.794655 63.456887
L 181.14244 72.733152
L 181.741456 75.239176
L 182.190718 76.160302
L 182.490226 76.336561
L 182.789734 76.211705
L 183.238996 75.602898
L 184.586782 73.292295
L 184.88629 73.152802
L 185.185797 73.248891
L 185.485305 73.587497
L 185.934567 74.508538
L 186.833091 77.197333
L 187.432107 78.783226
L 187.881369 79.380988
L 188.180877 79.360063
L 188.480385 78.94176
L 188.779893 78.09562
L 189.229155 76.014672
L 189.82817 71.879798
L 192.07448 54.283722
L 192.373988 53.411001
L 192.673496 53.178297
L 192.82325 53.312022
L 193.122758 54.081022
L 193.57202 56.42804
L 194.171035 61.414023
L 195.369067 74.416105
L 196.267591 83.281859
L 197.016361 88.631496
L 197.615377 91.486242
L 198.214393 93.292964
L 198.813408 94.339576
L 199.412424 94.89572
L 200.01144 95.16722
L 200.01144 95.16722
" clip-path="url(#p89e148c278)" style="fill: none; stroke: #9361ae; stroke-width: 1.5625; stroke-linecap: round"/>
   </g>
   <g id="line2d_22">
    <path d="M 158.892632 95.313309
L 161.68505 95.11814
L 163.679634 94.74833
L 165.275301 94.211002
L 166.870969 93.390855
L 168.466636 92.268468
L 170.46122 90.531402
L 173.253637 88.029552
L 174.849305 86.931601
L 176.046055 86.381187
L 177.242806 86.077201
L 178.439556 85.980245
L 182.827641 85.948632
L 184.024391 85.659267
L 185.620059 85.024637
L 190.008143 83.057831
L 191.603811 82.677919
L 193.199478 82.517275
L 194.795145 82.550926
L 196.390812 82.79963
L 197.98648 83.319384
L 199.582147 84.124572
L 203.571315 86.397351
L 204.768065 86.714954
L 205.964816 86.726751
L 207.161566 86.442056
L 208.757233 85.726349
L 212.347485 83.933541
L 213.943152 83.445242
L 215.538819 83.173501
L 217.533403 83.079538
L 219.12907 83.240843
L 220.325821 83.574737
L 221.522571 84.152741
L 222.719322 85.004537
L 223.916072 86.115984
L 225.910656 88.360674
L 228.703074 91.518775
L 230.298741 92.939172
L 231.495492 93.745996
L 232.692242 94.33852
L 234.287909 94.849694
L 235.883576 95.130162
L 238.277077 95.306147
L 238.277077 95.306147
" clip-path="url(#p89e148c278)" style="fill: none; stroke: #392f62; stroke-width: 1.5625; stroke-linecap: round"/>
   </g>
   <g id="patch_5">
    <path d="M 126.784615 95.36851
L 228.345072 95.36851
" style="fill: none; stroke: #262626; stroke-width: 1.25; stroke-linejoin: miter; stroke-linecap: square"/>
   </g>
   <g id="text_8">
    <!-- $\rho=0.25$ -->
    <g style="fill: #262626" transform="translate(159.114844 10.65024) scale(0.1125 -0.1125)">
     <defs>
      <path id="STIXGeneral-Regular-1d7e4" d="M 3002 454
L 2816 0
L 224 0
L 224 134
L 1344 1504
L 1344 1498
L 1702 1933
Q 1952 2234 2054 2365
Q 2157 2496 2253 2685
Q 2349 2874 2349 3040
Q 2349 3437 2134 3654
Q 1920 3872 1549 3872
Q 1254 3872 1008 3629
Q 762 3386 698 2938
L 237 3046
Q 339 3616 716 3971
Q 1094 4326 1594 4326
Q 2150 4326 2502 3980
Q 2854 3635 2854 3142
Q 2854 2784 2720 2525
Q 2586 2266 2157 1728
L 1133 454
L 3002 454
z
" transform="scale(0.015625)"/>
      <path id="STIXGeneral-Regular-1d7e7" d="M 2931 4326
L 2726 3872
L 1594 3872
L 1184 3059
Q 1914 2957 2384 2544
Q 2854 2131 2854 1446
Q 2854 813 2422 361
Q 1990 -90 1344 -90
Q 640 -90 230 358
L 531 717
Q 858 365 1312 365
Q 1786 365 2067 688
Q 2349 1011 2349 1446
Q 2349 1920 1926 2253
Q 1498 2605 602 2605
L 512 2714
L 1254 4326
L 2931 4326
z
" transform="scale(0.015625)"/>
     </defs>
     <use xlink:href="#STIXNonUnicode-Italic-e1e8" transform="translate(0 0.40625)"/>
     <use xlink:href="#STIXGeneral-Regular-3d" transform="translate(68.519992 0.40625)"/>
     <use xlink:href="#STIXGeneral-Regular-1d7e2" transform="translate(152.139975 0.40625)"/>
     <use xlink:href="#STIXGeneral-Regular-2e" transform="translate(202.13996 0.40625)"/>
     <use xlink:href="#STIXGeneral-Regular-1d7e4" transform="translate(227.139944 0.40625)"/>
     <use xlink:href="#STIXGeneral-Regular-1d7e7" transform="translate(277.139929 0.40625)"/>
    </g>
   </g>
  </g>
  <g id="axes_3">
   <g id="patch_6">
    <path d="M 243.784615 95.36851
L 345.345072 95.36851
L 345.345072 16.65024
L 243.784615 16.65024
L 243.784615 95.36851
z
" style="fill: none"/>
   </g>
   <g id="matplotlib.axis_5">
    <g id="xtick_7">
     <g id="line2d_23">
      <path d="M 243.784615 95.36851
L 243.784615 16.65024
" clip-path="url(#p166deff93f)" style="fill: none"/>
     </g>
     <g id="line2d_24">
      <g>
       <use xlink:href="#m204195b338" x="243.784615" y="95.36851" style="fill: #262626; stroke: #262626; stroke-width: 1.25"/>
      </g>
     </g>
     <g id="text_9">
      <!-- −1 -->
      <g style="fill: #262626" transform="translate(237.00024 112.059135) scale(0.1 -0.1)">
       <use xlink:href="#LMSans8-Regular-2212"/>
       <use xlink:href="#LMSans8-Regular-31" x="82.599991"/>
      </g>
     </g>
    </g>
    <g id="xtick_8">
     <g id="line2d_25">
      <path d="M 294.564844 95.36851
L 294.564844 16.65024
" clip-path="url(#p166deff93f)" style="fill: none"/>
     </g>
     <g id="line2d_26">
      <g>
       <use xlink:href="#m204195b338" x="294.564844" y="95.36851" style="fill: #262626; stroke: #262626; stroke-width: 1.25"/>
      </g>
     </g>
     <g id="text_10">
      <!-- 0 -->
      <g style="fill: #262626" transform="translate(291.910156 112.059135) scale(0.1 -0.1)">
       <use xlink:href="#LMSans8-Regular-30"/>
      </g>
     </g>
    </g>
    <g id="xtick_9">
     <g id="line2d_27">
      <path d="M 345.345072 95.36851
L 345.345072 16.65024
" clip-path="url(#p166deff93f)" style="fill: none"/>
     </g>
     <g id="line2d_28">
      <g>
       <use xlink:href="#m204195b338" x="345.345072" y="95.36851" style="fill: #262626; stroke: #262626; stroke-width: 1.25"/>
      </g>
     </g>
     <g id="text_11">
      <!-- 1 -->
      <g style="fill: #262626" transform="translate(342.690385 112.059135) scale(0.1 -0.1)">
       <use xlink:href="#LMSans8-Regular-31"/>
      </g>
     </g>
    </g>
   </g>
   <g id="matplotlib.axis_6"/>
   <g id="line2d_29">
    <path d="M 286.10921 95.24367
L 286.987677 94.95293
L 287.514757 94.568331
L 288.041837 93.901985
L 288.568917 92.809269
L 289.095997 91.114675
L 289.623077 88.63247
L 290.150157 85.204397
L 290.85293 79.045299
L 291.90709 67.048062
L 293.136943 53.005727
L 293.664023 48.808318
L 294.01541 47.0341
L 294.366796 46.194063
L 294.54249 46.137494
L 294.718183 46.322661
L 295.06957 47.394299
L 295.420956 49.327535
L 295.948036 53.554987
L 297.002196 64.70408
L 298.232049 77.473692
L 299.110516 84.225119
L 299.813289 87.812599
L 300.340369 89.466297
L 300.691756 90.110256
L 301.043142 90.41865
L 301.394529 90.424019
L 301.745916 90.163887
L 302.272996 89.369529
L 302.975769 87.807009
L 304.557009 84.076761
L 305.259782 83.03461
L 305.786862 82.657983
L 306.138249 82.614872
L 306.489635 82.739555
L 307.016715 83.231041
L 307.543795 84.054
L 308.422262 85.962223
L 309.827808 89.139818
L 310.354888 89.905684
L 310.881968 90.273539
L 311.233355 90.28263
L 311.584741 90.11391
L 312.111821 89.588382
L 313.868755 87.41836
L 314.220141 87.283702
L 314.571528 87.327444
L 314.922915 87.55467
L 315.449994 88.212147
L 316.152768 89.525093
L 317.909701 93.086026
L 318.612474 94.051786
L 319.315248 94.680924
L 320.018021 95.0435
L 320.896487 95.257779
L 321.072181 95.280884
L 321.072181 95.280884
" clip-path="url(#p166deff93f)" style="fill: none; stroke: #f7d2d4; stroke-width: 1.5625; stroke-linecap: round"/>
   </g>
   <g id="line2d_30">
    <path d="M 290.40446 95.082916
L 290.711855 94.765409
L 291.01925 94.174117
L 291.326645 93.149364
L 291.736504 90.774384
L 292.146364 86.852836
L 292.658688 79.523437
L 294.912916 42.566265
L 296.757285 20.54769
L 296.859749 20.396087
L 296.962214 20.515153
L 297.167144 21.626288
L 297.474539 25.570938
L 297.884399 34.756959
L 299.626302 81.211072
L 300.036162 85.018094
L 300.241091 85.707265
L 300.446021 85.739465
L 300.650951 85.260546
L 301.060811 83.416843
L 301.6756 80.811052
L 301.88053 80.492707
L 302.08546 80.566574
L 302.290389 81.041263
L 302.597784 82.426046
L 303.212574 86.618186
L 303.929828 91.038416
L 304.339688 92.289992
L 304.544617 92.471985
L 304.749547 92.348382
L 304.954477 91.922525
L 305.261872 90.747216
L 305.774196 87.635869
L 306.69638 81.606475
L 307.003775 80.672563
L 307.208705 80.559062
L 307.413635 80.87016
L 307.72103 82.066564
L 308.233354 85.398685
L 309.155538 91.608893
L 309.667863 93.671191
L 310.077722 94.579927
L 310.487582 95.042215
L 310.794977 95.212498
L 310.794977 95.212498
" clip-path="url(#p166deff93f)" style="fill: none; stroke: #eaacc7; stroke-width: 1.5625; stroke-linecap: round"/>
   </g>
   <g id="line2d_31">
    <path d="M 285.683479 95.251279
L 286.339669 94.993984
L 286.864621 94.529483
L 287.389573 93.682954
L 287.914524 92.331703
L 288.570714 89.928065
L 289.883094 84.814115
L 290.276807 84.017635
L 290.539283 83.800919
L 290.801759 83.830181
L 291.195473 84.25209
L 292.376614 85.981237
L 292.63909 85.991078
L 292.901566 85.772519
L 293.29528 85.030271
L 293.820232 83.446967
L 295.263849 77.966505
L 295.920039 74.735259
L 296.444991 71.050978
L 297.101181 64.653655
L 298.676036 47.972441
L 298.938512 46.785832
L 299.200988 46.487953
L 299.332226 46.698136
L 299.594702 47.851281
L 299.988415 51.318336
L 300.513367 58.469725
L 301.825747 78.073431
L 302.350698 82.564583
L 302.744412 84.075463
L 303.006888 84.253547
L 303.269364 83.852593
L 303.663078 82.369126
L 304.18803 79.268153
L 305.762885 69.172179
L 306.156599 67.92473
L 306.419075 67.639141
L 306.550313 67.679361
L 306.812789 68.143007
L 307.206502 69.790422
L 307.731454 73.527603
L 309.831261 90.949346
L 310.356213 93.079969
L 310.881165 94.30345
L 311.406117 94.923408
L 311.79983 95.152995
L 311.79983 95.152995
" clip-path="url(#p166deff93f)" style="fill: none; stroke: #cc86c1; stroke-width: 1.5625; stroke-linecap: round"/>
   </g>
   <g id="line2d_32">
    <path d="M 287.29512 95.22006
L 288.052957 94.995692
L 288.810794 94.513476
L 289.379172 93.866546
L 289.94755 92.859469
L 290.515927 91.38056
L 291.084305 89.333674
L 291.842142 85.641014
L 292.789438 79.648949
L 294.87349 65.737206
L 295.441868 63.184761
L 296.010246 61.585499
L 296.389164 61.092442
L 296.768083 61.062132
L 297.147001 61.480948
L 297.52592 62.322924
L 298.094297 64.298689
L 298.852134 68.015603
L 300.178349 76.169749
L 301.504564 83.938218
L 302.262401 87.183381
L 302.830779 88.800864
L 303.209697 89.459111
L 303.588616 89.781024
L 303.967534 89.778721
L 304.346453 89.47412
L 304.914831 88.519347
L 305.672668 86.532618
L 308.135638 79.096404
L 308.704016 78.130328
L 309.082934 77.771428
L 309.461853 77.657044
L 309.840771 77.790012
L 310.21969 78.162724
L 310.788068 79.128666
L 311.545905 81.001632
L 313.629956 86.593441
L 314.198334 87.500304
L 314.766712 87.999508
L 315.33509 88.138384
L 316.092927 87.969208
L 317.040223 87.718221
L 317.608601 87.802766
L 318.176978 88.164531
L 318.745356 88.807585
L 319.692652 90.331626
L 321.397786 93.187537
L 322.155623 94.07737
L 322.91346 94.672931
L 323.860756 95.087392
L 324.997512 95.290511
L 324.997512 95.290511
" clip-path="url(#p166deff93f)" style="fill: none; stroke: #9361ae; stroke-width: 1.5625; stroke-linecap: round"/>
   </g>
   <g id="line2d_33">
    <path d="M 292.148 95.313026
L 294.179225 95.108569
L 295.6301 94.71543
L 296.7908 94.142019
L 297.9515 93.269019
L 299.1122 92.084328
L 300.85325 89.904922
L 302.5943 87.800277
L 303.464825 87.010755
L 304.335349 86.491703
L 305.205874 86.268506
L 306.076399 86.321396
L 307.237099 86.71365
L 311.299549 88.504288
L 315.071824 89.635082
L 315.942348 89.674871
L 316.522698 89.539913
L 317.103048 89.230465
L 317.683398 88.715561
L 318.553923 87.522726
L 319.424448 85.843915
L 320.875323 82.318317
L 322.326198 78.829496
L 323.196723 77.273549
L 323.777073 76.594835
L 324.357423 76.244338
L 324.937773 76.229558
L 325.518123 76.532855
L 326.098473 77.114206
L 326.968998 78.379082
L 330.160922 83.645265
L 331.031447 84.531878
L 331.901972 85.066888
L 332.772497 85.278713
L 333.643022 85.232039
L 335.093897 84.84566
L 336.254597 84.585864
L 337.125122 84.615998
L 337.995647 84.946416
L 338.866172 85.619071
L 339.736697 86.612829
L 341.187571 88.749181
L 343.218796 91.80802
L 344.379496 93.164968
L 345.540196 94.126673
L 346.700896 94.732027
L 347.861596 95.072123
L 349.312471 95.269003
L 349.892821 95.306887
L 349.892821 95.306887
" clip-path="url(#p166deff93f)" style="fill: none; stroke: #392f62; stroke-width: 1.5625; stroke-linecap: round"/>
   </g>
   <g id="patch_7">
    <path d="M 243.784615 95.36851
L 345.345072 95.36851
" style="fill: none; stroke: #262626; stroke-width: 1.25; stroke-linejoin: miter; stroke-linecap: square"/>
   </g>
   <g id="text_12">
    <!-- $\rho=0.5$ -->
    <g style="fill: #262626" transform="translate(278.927344 10.65024) scale(0.1125 -0.1125)">
     <use xlink:href="#STIXNonUnicode-Italic-e1e8" transform="translate(0 0.40625)"/>
     <use xlink:href="#STIXGeneral-Regular-3d" transform="translate(68.519992 0.40625)"/>
     <use xlink:href="#STIXGeneral-Regular-1d7e2" transform="translate(152.139975 0.40625)"/>
     <use xlink:href="#STIXGeneral-Regular-2e" transform="translate(202.13996 0.40625)"/>
     <use xlink:href="#STIXGeneral-Regular-1d7e7" transform="translate(227.139944 0.40625)"/>
    </g>
   </g>
  </g>
  <g id="axes_4">
   <g id="patch_8">
    <path d="M 360.784615 95.36851
L 462.345072 95.36851
L 462.345072 16.65024
L 360.784615 16.65024
L 360.784615 95.36851
z
" style="fill: none"/>
   </g>
   <g id="matplotlib.axis_7">
    <g id="xtick_10">
     <g id="line2d_34">
      <path d="M 360.784615 95.36851
L 360.784615 16.65024
" clip-path="url(#p7ab7cf8fdf)" style="fill: none"/>
     </g>
     <g id="line2d_35">
      <g>
       <use xlink:href="#m204195b338" x="360.784615" y="95.36851" style="fill: #262626; stroke: #262626; stroke-width: 1.25"/>
      </g>
     </g>
     <g id="text_13">
      <!-- −1 -->
      <g style="fill: #262626" transform="translate(354.00024 112.059135) scale(0.1 -0.1)">
       <use xlink:href="#LMSans8-Regular-2212"/>
       <use xlink:href="#LMSans8-Regular-31" x="82.599991"/>
      </g>
     </g>
    </g>
    <g id="xtick_11">
     <g id="line2d_36">
      <path d="M 411.564844 95.36851
L 411.564844 16.65024
" clip-path="url(#p7ab7cf8fdf)" style="fill: none"/>
     </g>
     <g id="line2d_37">
      <g>
       <use xlink:href="#m204195b338" x="411.564844" y="95.36851" style="fill: #262626; stroke: #262626; stroke-width: 1.25"/>
      </g>
     </g>
     <g id="text_14">
      <!-- 0 -->
      <g style="fill: #262626" transform="translate(408.910156 112.059135) scale(0.1 -0.1)">
       <use xlink:href="#LMSans8-Regular-30"/>
      </g>
     </g>
    </g>
    <g id="xtick_12">
     <g id="line2d_38">
      <path d="M 462.345072 95.36851
L 462.345072 16.65024
" clip-path="url(#p7ab7cf8fdf)" style="fill: none"/>
     </g>
     <g id="line2d_39">
      <g>
       <use xlink:href="#m204195b338" x="462.345072" y="95.36851" style="fill: #262626; stroke: #262626; stroke-width: 1.25"/>
      </g>
     </g>
     <g id="text_15">
      <!-- 1 -->
      <g style="fill: #262626" transform="translate(459.690385 112.059135) scale(0.1 -0.1)">
       <use xlink:href="#LMSans8-Regular-31"/>
      </g>
     </g>
    </g>
   </g>
   <g id="matplotlib.axis_8"/>
   <g id="line2d_40">
    <path d="M 398.340044 95.251855
L 398.848116 95.012212
L 399.22917 94.626166
L 399.610224 93.952984
L 400.118296 92.452342
L 400.753386 89.601059
L 401.642512 85.4589
L 402.023565 84.587219
L 402.277601 84.511676
L 402.531637 84.857754
L 402.912691 86.068905
L 403.674799 89.787775
L 404.436907 93.018407
L 404.944979 94.281871
L 405.45305 94.92869
L 405.961122 95.172777
L 406.469194 95.142253
L 406.850248 94.916744
L 407.231302 94.406303
L 407.612356 93.418069
L 407.99341 91.668359
L 408.374464 88.796181
L 408.755518 84.407361
L 409.263589 75.629229
L 409.898679 59.807042
L 411.168859 25.520942
L 411.549913 20.891951
L 411.676931 20.398237
L 411.803949 20.462259
L 412.057985 22.253838
L 412.439039 28.733034
L 413.074128 46.253848
L 414.090272 74.873397
L 414.598344 84.263937
L 415.106416 90.012224
L 415.614488 93.035578
L 415.995542 94.120953
L 416.376596 94.543251
L 416.630632 94.54605
L 416.884667 94.352775
L 417.265721 93.698542
L 417.646775 92.589456
L 418.281865 89.816967
L 419.298009 85.196543
L 419.679063 84.515184
L 419.933099 84.580067
L 420.187135 85.058641
L 420.568188 86.422511
L 422.219422 93.630941
L 422.727494 94.617587
L 423.235566 95.091279
L 423.61662 95.250101
L 423.61662 95.250101
" clip-path="url(#p7ab7cf8fdf)" style="fill: none; stroke: #f7d2d4; stroke-width: 1.5625; stroke-linecap: round"/>
   </g>
   <g id="line2d_41">
    <path d="M 407.096093 95.037512
L 407.43684 94.646893
L 407.777586 93.889944
L 408.118333 92.520699
L 408.45908 90.211279
L 408.913409 85.020416
L 409.367738 76.735763
L 409.935649 61.93909
L 411.185054 27.14717
L 411.5258 22.623678
L 411.752965 21.611455
L 411.866547 21.71777
L 412.093712 23.096042
L 412.434458 27.697916
L 413.002369 39.669444
L 414.02461 61.810957
L 414.706103 71.854621
L 415.501179 79.983283
L 416.409837 87.204776
L 417.09133 91.211061
L 417.659241 93.358578
L 418.11357 94.368761
L 418.567899 94.922141
L 419.13581 95.228972
L 419.930886 95.347002
L 421.407455 95.300626
L 422.088949 95.070817
L 422.543278 94.67583
L 422.997607 93.931079
L 423.451936 92.708334
L 424.019847 90.480548
L 425.155669 85.720461
L 425.496416 85.078376
L 425.72358 85.004357
L 425.950745 85.224414
L 426.291492 86.059138
L 426.859403 88.376545
L 427.881643 92.707799
L 428.449554 94.157647
L 428.903883 94.801457
L 429.471794 95.181508
L 429.698959 95.254386
L 429.698959 95.254386
" clip-path="url(#p7ab7cf8fdf)" style="fill: none; stroke: #eaacc7; stroke-width: 1.5625; stroke-linecap: round"/>
   </g>
   <g id="line2d_42">
    <path d="M 403.371973 95.252174
L 404.377878 95.024349
L 405.182602 94.621755
L 405.786146 94.103909
L 406.389689 93.324022
L 406.993232 92.212778
L 407.797956 90.129894
L 408.60268 87.357176
L 411.419215 76.726259
L 411.821577 75.966809
L 412.22394 75.571928
L 412.626302 75.559026
L 413.028664 75.920806
L 413.431026 76.625561
L 414.034569 78.204169
L 415.442836 82.969344
L 416.247561 85.367895
L 416.851104 86.664443
L 417.454647 87.445599
L 417.857009 87.681927
L 418.259371 87.710115
L 418.661733 87.556382
L 419.265277 87.053647
L 420.070001 86.052157
L 421.88063 83.668624
L 422.484174 83.182536
L 423.087717 82.984404
L 423.490079 83.035078
L 424.093622 83.390387
L 424.697165 84.043963
L 425.904252 85.836849
L 426.708976 86.919839
L 427.312519 87.424957
L 427.714881 87.558033
L 428.117243 87.511986
L 428.519605 87.288772
L 429.123149 86.659935
L 430.129054 85.111581
L 431.33614 83.288717
L 431.939683 82.721696
L 432.543227 82.507122
L 432.945589 82.57771
L 433.549132 82.999198
L 434.152675 83.76256
L 434.957399 85.195392
L 436.566848 88.736124
L 437.975115 91.608442
L 438.981021 93.149406
L 439.785745 94.023559
L 440.590469 94.611281
L 441.596374 95.03693
L 442.803461 95.263966
L 443.407004 95.313684
L 443.407004 95.313684
" clip-path="url(#p7ab7cf8fdf)" style="fill: none; stroke: #cc86c1; stroke-width: 1.5625; stroke-linecap: round"/>
   </g>
   <g id="line2d_43">
    <path d="M 398.725807 95.309432
L 400.185005 95.089146
L 401.227289 94.673408
L 402.061116 94.087631
L 402.894943 93.239676
L 404.145684 91.578554
L 407.480993 86.707841
L 408.106363 85.211524
L 408.731733 83.144349
L 409.565561 79.387985
L 412.067042 66.478282
L 412.483956 65.41688
L 412.900869 64.971444
L 413.109326 64.993552
L 413.317783 65.18026
L 413.734697 66.033717
L 414.15161 67.47692
L 414.776981 70.537471
L 416.027721 78.319793
L 417.278462 85.648995
L 418.112289 89.306608
L 418.73766 91.288986
L 419.36303 92.657712
L 419.988401 93.481089
L 420.405314 93.760839
L 420.822228 93.844197
L 421.239141 93.742632
L 421.656055 93.464193
L 422.281425 92.729778
L 422.906796 91.644848
L 423.94908 89.251696
L 425.408277 85.781406
L 426.033648 84.75709
L 426.450561 84.339241
L 426.867475 84.154031
L 427.284389 84.195816
L 427.701302 84.438709
L 428.326673 85.084083
L 430.411241 87.612418
L 431.453525 88.364671
L 432.912722 89.374312
L 433.746549 90.243048
L 435.205747 92.176186
L 436.456488 93.68899
L 437.290315 94.406127
L 438.124142 94.871941
L 439.166426 95.181317
L 440.20871 95.30871
L 440.20871 95.30871
" clip-path="url(#p7ab7cf8fdf)" style="fill: none; stroke: #9361ae; stroke-width: 1.5625; stroke-linecap: round"/>
   </g>
   <g id="line2d_44">
    <path d="M 400.657858 95.336106
L 403.987524 95.154477
L 406.207301 94.799623
L 408.057115 94.285636
L 411.016817 93.162542
L 413.236594 92.425327
L 414.716445 92.151407
L 416.566259 92.071126
L 420.63585 92.054911
L 422.485664 91.725766
L 424.335478 91.159131
L 426.185292 90.38413
L 428.035106 89.36682
L 429.88492 88.088856
L 432.844623 85.978031
L 433.954511 85.439424
L 435.0644 85.171865
L 436.174288 85.221558
L 437.284176 85.591504
L 438.394065 86.242816
L 439.873916 87.422334
L 443.203581 90.287499
L 444.31347 90.98561
L 445.423358 91.440548
L 446.533247 91.616564
L 447.643135 91.504442
L 448.753023 91.120897
L 449.862912 90.504903
L 451.342763 89.420522
L 455.042391 86.49248
L 456.15228 85.907242
L 457.262168 85.610481
L 458.002094 85.604026
L 458.742019 85.762343
L 459.481945 86.085386
L 460.591833 86.854699
L 462.071685 88.290051
L 466.141275 92.624461
L 467.621127 93.725525
L 469.100978 94.4719
L 470.580829 94.923093
L 472.430643 95.20597
L 474.280457 95.317445
L 474.280457 95.317445
" clip-path="url(#p7ab7cf8fdf)" style="fill: none; stroke: #392f62; stroke-width: 1.5625; stroke-linecap: round"/>
   </g>
   <g id="patch_9">
    <path d="M 360.784615 95.36851
L 462.345072 95.36851
" style="fill: none; stroke: #262626; stroke-width: 1.25; stroke-linejoin: miter; stroke-linecap: square"/>
   </g>
   <g id="text_16">
    <!-- $\rho=0.75$ -->
    <g style="fill: #262626" transform="translate(393.114844 10.65024) scale(0.1125 -0.1125)">
     <defs>
      <path id="STIXGeneral-Regular-1d7e9" d="M 2886 4109
L 1472 -51
L 947 -51
L 2266 3782
L 243 3782
L 442 4237
L 2886 4237
L 2886 4109
z
" transform="scale(0.015625)"/>
     </defs>
     <use xlink:href="#STIXNonUnicode-Italic-e1e8" transform="translate(0 0.40625)"/>
     <use xlink:href="#STIXGeneral-Regular-3d" transform="translate(68.519992 0.40625)"/>
     <use xlink:href="#STIXGeneral-Regular-1d7e2" transform="translate(152.139975 0.40625)"/>
     <use xlink:href="#STIXGeneral-Regular-2e" transform="translate(202.13996 0.40625)"/>
     <use xlink:href="#STIXGeneral-Regular-1d7e9" transform="translate(227.139944 0.40625)"/>
     <use xlink:href="#STIXGeneral-Regular-1d7e7" transform="translate(277.139929 0.40625)"/>
    </g>
   </g>
  </g>
  <g id="axes_5">
   <g id="patch_10">
    <path d="M 477.784615 95.36851
L 579.345072 95.36851
L 579.345072 16.65024
L 477.784615 16.65024
L 477.784615 95.36851
z
" style="fill: none"/>
   </g>
   <g id="matplotlib.axis_9">
    <g id="xtick_13">
     <g id="line2d_45">
      <path d="M 477.784615 95.36851
L 477.784615 16.65024
" clip-path="url(#p842d0db953)" style="fill: none"/>
     </g>
     <g id="line2d_46">
      <g>
       <use xlink:href="#m204195b338" x="477.784615" y="95.36851" style="fill: #262626; stroke: #262626; stroke-width: 1.25"/>
      </g>
     </g>
     <g id="text_17">
      <!-- −1 -->
      <g style="fill: #262626" transform="translate(471.00024 112.059135) scale(0.1 -0.1)">
       <use xlink:href="#LMSans8-Regular-2212"/>
       <use xlink:href="#LMSans8-Regular-31" x="82.599991"/>
      </g>
     </g>
    </g>
    <g id="xtick_14">
     <g id="line2d_47">
      <path d="M 528.564844 95.36851
L 528.564844 16.65024
" clip-path="url(#p842d0db953)" style="fill: none"/>
     </g>
     <g id="line2d_48">
      <g>
       <use xlink:href="#m204195b338" x="528.564844" y="95.36851" style="fill: #262626; stroke: #262626; stroke-width: 1.25"/>
      </g>
     </g>
     <g id="text_18">
      <!-- 0 -->
      <g style="fill: #262626" transform="translate(525.910156 112.059135) scale(0.1 -0.1)">
       <use xlink:href="#LMSans8-Regular-30"/>
      </g>
     </g>
    </g>
    <g id="xtick_15">
     <g id="line2d_49">
      <path d="M 579.345073 95.36851
L 579.345073 16.65024
" clip-path="url(#p842d0db953)" style="fill: none"/>
     </g>
     <g id="line2d_50">
      <g>
       <use xlink:href="#m204195b338" x="579.345073" y="95.36851" style="fill: #262626; stroke: #262626; stroke-width: 1.25"/>
      </g>
     </g>
     <g id="text_19">
      <!-- 1 -->
      <g style="fill: #262626" transform="translate(576.690385 112.059135) scale(0.1 -0.1)">
       <use xlink:href="#LMSans8-Regular-31"/>
      </g>
     </g>
    </g>
   </g>
   <g id="matplotlib.axis_10"/>
   <g id="line2d_51">
    <path d="M 521.167216 95.212339
L 521.859582 94.913033
L 522.378857 94.418553
L 522.898131 93.498062
L 523.417406 91.890437
L 523.93668 89.259368
L 524.455954 85.231293
L 524.975229 79.477233
L 525.667595 68.88326
L 526.706143 48.263103
L 527.744692 28.746388
L 528.263966 22.655605
L 528.610149 20.689678
L 528.783241 20.398712
L 528.956332 20.57747
L 529.129424 21.221038
L 529.475607 23.839525
L 529.994881 30.658484
L 530.860338 46.857969
L 532.24507 72.810642
L 532.937436 81.941933
L 533.629802 88.057369
L 534.149076 90.997219
L 534.668351 92.884146
L 535.187625 94.027619
L 535.706899 94.682062
L 536.226174 95.035668
L 536.91854 95.252296
L 538.13018 95.354144
L 542.457467 95.351344
L 543.842198 95.213102
L 544.534564 94.977148
L 545.22693 94.493221
L 545.746204 93.887655
L 546.43857 92.677575
L 547.304027 90.563723
L 548.688759 87.107612
L 549.208034 86.411937
L 549.554217 86.259991
L 549.900399 86.376215
L 550.246582 86.750436
L 550.765857 87.720228
L 551.804406 90.43779
L 552.842954 92.934575
L 553.53532 94.057843
L 554.227686 94.741689
L 554.920052 95.102277
L 555.612418 95.268083
L 555.612418 95.268083
" clip-path="url(#p842d0db953)" style="fill: none; stroke: #f7d2d4; stroke-width: 1.5625; stroke-linecap: round"/>
   </g>
   <g id="line2d_52">
    <path d="M 508.196153 95.286204
L 509.366806 95.04188
L 510.069198 94.705496
L 510.77159 94.137649
L 511.473982 93.278661
L 512.410504 91.68441
L 514.283549 88.257427
L 514.75181 87.778408
L 515.220071 87.582338
L 515.688333 87.691973
L 516.156594 88.094515
L 516.858986 89.140039
L 519.434422 93.692984
L 520.136814 94.344786
L 520.839206 94.631417
L 521.307467 94.599812
L 521.775729 94.352173
L 522.24399 93.826961
L 522.712251 92.932063
L 523.180512 91.545933
L 523.648774 89.525981
L 524.117035 86.725962
L 524.819427 80.809058
L 525.521818 72.742157
L 526.692472 55.99871
L 527.628994 43.313889
L 528.097255 38.71081
L 528.565516 35.926828
L 528.799647 35.319896
L 529.033778 35.264511
L 529.267908 35.763095
L 529.502039 36.80278
L 529.9703 40.381485
L 530.672692 48.719282
L 533.013998 80.713368
L 533.71639 86.755127
L 534.418782 90.720681
L 534.887043 92.431045
L 535.355304 93.581458
L 535.823566 94.322044
L 536.525957 94.931948
L 537.228349 95.20111
L 538.399002 95.337604
L 540.506178 95.295889
L 541.676831 95.076329
L 542.379223 94.767678
L 543.081615 94.238362
L 543.784006 93.424299
L 544.720529 91.88062
L 546.593574 88.396266
L 547.061835 87.861179
L 547.530096 87.599551
L 547.998357 87.641628
L 548.466619 87.982499
L 549.169011 88.960821
L 550.573794 91.67922
L 551.510317 93.27476
L 552.212709 94.134929
L 552.9151 94.703804
L 553.851623 95.114849
L 554.788145 95.285919
L 554.788145 95.285919
" clip-path="url(#p842d0db953)" style="fill: none; stroke: #eaacc7; stroke-width: 1.5625; stroke-linecap: round"/>
   </g>
   <g id="line2d_53">
    <path d="M 523.22384 95.122585
L 523.795631 94.726888
L 524.224474 94.13954
L 524.653317 93.150209
L 525.08216 91.59508
L 525.653951 88.380623
L 526.225742 83.716927
L 527.226376 73.158635
L 528.084063 65.116028
L 528.512906 62.692644
L 528.798801 61.822515
L 529.084697 61.51368
L 529.370592 61.666963
L 529.799435 62.434333
L 530.514174 63.729881
L 530.800069 63.858788
L 531.085965 63.679322
L 531.514808 62.920467
L 532.372495 61.108601
L 532.65839 60.942557
L 532.944285 61.176478
L 533.230181 61.845562
L 533.659024 63.599683
L 534.659658 69.39192
L 535.231449 72.175491
L 535.660292 73.502249
L 536.089136 74.133971
L 536.375031 74.223063
L 536.660927 74.110804
L 537.232717 73.541627
L 537.947456 72.834379
L 538.376299 72.740822
L 538.662195 72.907468
L 538.94809 73.294574
L 539.376933 74.329461
L 539.948724 76.557855
L 540.806411 81.263314
L 541.949993 87.688723
L 542.521784 89.862782
L 542.950627 90.77179
L 543.236522 91.009257
L 543.522418 90.959119
L 543.808313 90.643597
L 544.237156 89.75559
L 545.23779 86.774603
L 545.809581 85.411331
L 546.238425 84.940755
L 546.52432 84.955245
L 546.810216 85.23822
L 547.239059 86.11707
L 547.953797 88.40208
L 549.240327 92.616477
L 549.812118 93.836035
L 550.383909 94.601184
L 550.9557 95.023038
L 551.670438 95.258786
L 551.670438 95.258786
" clip-path="url(#p842d0db953)" style="fill: none; stroke: #cc86c1; stroke-width: 1.5625; stroke-linecap: round"/>
   </g>
   <g id="line2d_54">
    <path d="M 523.413857 95.089419
L 523.857113 94.796125
L 524.300369 94.261331
L 524.743625 93.348064
L 525.186881 91.888916
L 525.630137 89.710457
L 526.221145 85.462963
L 526.959904 78.001263
L 528.88068 56.730513
L 529.471687 53.259777
L 529.914943 52.014348
L 530.210447 51.734304
L 530.505951 51.801959
L 530.801455 52.134819
L 531.244711 52.979799
L 531.983471 55.000658
L 532.72223 57.813552
L 533.46099 61.713599
L 534.643006 69.639849
L 535.529518 75.084104
L 536.268277 78.334516
L 537.007037 80.500854
L 537.745797 81.966189
L 538.336805 82.753957
L 538.927813 83.193485
L 539.666572 83.373294
L 540.25758 83.537413
L 540.700836 83.899628
L 541.144092 84.585465
L 541.7351 86.019487
L 543.508123 90.862758
L 543.951379 91.280411
L 544.246883 91.266106
L 544.542387 91.018171
L 544.985643 90.253374
L 545.724402 88.288133
L 546.610914 85.996605
L 547.05417 85.38837
L 547.349674 85.285105
L 547.645178 85.440774
L 547.940682 85.845808
L 548.383938 86.852154
L 549.270449 89.666686
L 550.304713 92.723869
L 550.895721 93.894
L 551.486729 94.628801
L 552.077736 95.034619
L 552.816496 95.262027
L 552.816496 95.262027
" clip-path="url(#p842d0db953)" style="fill: none; stroke: #9361ae; stroke-width: 1.5625; stroke-linecap: round"/>
   </g>
   <g id="line2d_55">
    <path d="M 517.688908 95.294625
L 519.971336 95.104594
L 521.873359 94.717193
L 523.394977 94.158296
L 524.916596 93.31679
L 526.438214 92.194852
L 530.622664 88.803434
L 531.763878 88.27133
L 532.524687 88.103858
L 533.285497 88.100732
L 534.046306 88.262004
L 535.18752 88.784971
L 536.328733 89.572796
L 541.273993 93.376929
L 542.415207 93.865914
L 543.556421 94.132716
L 544.697635 94.182648
L 545.838848 94.033139
L 547.360467 93.569205
L 549.26249 92.680149
L 558.011796 87.876183
L 559.913819 86.50822
L 561.815842 84.825935
L 566.380697 80.557452
L 567.521911 79.837318
L 568.663124 79.397528
L 569.804338 79.269752
L 570.945552 79.449913
L 572.086766 79.902497
L 573.608384 80.836991
L 575.130003 82.040115
L 577.032026 83.817971
L 579.314453 86.29584
L 583.879308 91.502145
L 585.400927 92.849735
L 586 93.285056
L 586 93.285056
" clip-path="url(#p842d0db953)" style="fill: none; stroke: #392f62; stroke-width: 1.5625; stroke-linecap: round"/>
   </g>
   <g id="patch_11">
    <path d="M 477.784615 95.36851
L 579.345073 95.36851
" style="fill: none; stroke: #262626; stroke-width: 1.25; stroke-linejoin: miter; stroke-linecap: square"/>
   </g>
   <g id="text_20">
    <!-- $\rho=1$ -->
    <g style="fill: #262626" transform="translate(517.146094 10.65024) scale(0.1125 -0.1125)">
     <use xlink:href="#STIXNonUnicode-Italic-e1e8" transform="translate(0 0.296875)"/>
     <use xlink:href="#STIXGeneral-Regular-3d" transform="translate(68.519992 0.296875)"/>
     <use xlink:href="#STIXGeneral-Regular-1d7e3" transform="translate(152.139975 0.296875)"/>
    </g>
   </g>
  </g>
  <g id="axes_6">
   <g id="patch_12">
    <path d="M 9.784615 212.36851
L 111.345072 212.36851
L 111.345072 133.65024
L 9.784615 133.65024
L 9.784615 212.36851
z
" style="fill: none"/>
   </g>
   <g id="matplotlib.axis_11">
    <g id="xtick_16">
     <g id="line2d_56">
      <path d="M 9.784615 212.36851
L 9.784615 133.65024
" clip-path="url(#p7e8603c4a3)" style="fill: none"/>
     </g>
     <g id="line2d_57">
      <g>
       <use xlink:href="#m204195b338" x="9.784615" y="212.36851" style="fill: #262626; stroke: #262626; stroke-width: 1.25"/>
      </g>
     </g>
     <g id="text_21">
      <!-- −1 -->
      <g style="fill: #262626" transform="translate(3.00024 229.059135) scale(0.1 -0.1)">
       <use xlink:href="#LMSans8-Regular-2212"/>
       <use xlink:href="#LMSans8-Regular-31" x="82.599991"/>
      </g>
     </g>
    </g>
    <g id="xtick_17">
     <g id="line2d_58">
      <path d="M 60.564844 212.36851
L 60.564844 133.65024
" clip-path="url(#p7e8603c4a3)" style="fill: none"/>
     </g>
     <g id="line2d_59">
      <g>
       <use xlink:href="#m204195b338" x="60.564844" y="212.36851" style="fill: #262626; stroke: #262626; stroke-width: 1.25"/>
      </g>
     </g>
     <g id="text_22">
      <!-- 0 -->
      <g style="fill: #262626" transform="translate(57.910156 229.059135) scale(0.1 -0.1)">
       <use xlink:href="#LMSans8-Regular-30"/>
      </g>
     </g>
    </g>
    <g id="xtick_18">
     <g id="line2d_60">
      <path d="M 111.345072 212.36851
L 111.345072 133.65024
" clip-path="url(#p7e8603c4a3)" style="fill: none"/>
     </g>
     <g id="line2d_61">
      <g>
       <use xlink:href="#m204195b338" x="111.345072" y="212.36851" style="fill: #262626; stroke: #262626; stroke-width: 1.25"/>
      </g>
     </g>
     <g id="text_23">
      <!-- 1 -->
      <g style="fill: #262626" transform="translate(108.690385 229.059135) scale(0.1 -0.1)">
       <use xlink:href="#LMSans8-Regular-31"/>
      </g>
     </g>
    </g>
   </g>
   <g id="matplotlib.axis_12"/>
   <g id="line2d_62">
    <path d="M 37.088164 212.310821
L 38.659232 212.125728
L 39.70661 211.82527
L 40.753988 211.292737
L 41.801366 210.483112
L 43.372433 208.889425
L 44.681656 207.669429
L 45.46719 207.23323
L 45.990879 207.124082
L 46.514568 207.173447
L 47.300102 207.530518
L 48.085635 208.158652
L 50.965925 210.764991
L 51.751459 211.041872
L 52.275148 211.02812
L 52.798837 210.820341
L 53.322526 210.3825
L 53.846215 209.673416
L 54.369904 208.649282
L 55.155438 206.434575
L 55.940972 203.333196
L 56.98835 197.900238
L 59.606795 182.923841
L 60.130485 180.992255
L 60.654174 179.77465
L 60.916018 179.460238
L 61.177863 179.349079
L 61.439707 179.441659
L 61.701552 179.734684
L 62.225241 180.89105
L 62.74893 182.724825
L 63.534464 186.445705
L 66.938443 204.344509
L 67.723976 207.018572
L 68.50951 208.975147
L 69.295044 210.310665
L 70.080577 211.147593
L 70.866111 211.598986
L 71.651645 211.745313
L 72.437178 211.624377
L 73.222712 211.23428
L 74.008246 210.549082
L 74.793779 209.54555
L 75.841157 207.742728
L 78.197758 203.207073
L 78.983292 202.301097
L 79.506981 202.038526
L 80.03067 202.079245
L 80.554359 202.41969
L 81.078048 203.030368
L 81.863582 204.33683
L 84.743872 209.760289
L 85.529406 210.726767
L 86.314939 211.402089
L 87.100473 211.836516
L 88.147851 212.152293
L 89.195229 212.290526
L 89.195229 212.290526
" clip-path="url(#p7e8603c4a3)" style="fill: none; stroke: #f7d2d4; stroke-width: 1.5625; stroke-linecap: round"/>
   </g>
   <g id="line2d_63">
    <path d="M 25.884066 212.309794
L 27.566556 212.091256
L 28.688216 211.717503
L 29.529461 211.245728
L 30.651122 210.322945
L 33.735687 207.326875
L 34.296517 207.088429
L 34.857347 207.03555
L 35.418177 207.173879
L 36.259422 207.702784
L 37.381082 208.806923
L 39.343987 210.802119
L 40.465648 211.565965
L 41.587308 212.012819
L 42.989383 212.263603
L 45.232703 212.358986
L 49.438929 212.301636
L 50.841004 212.078117
L 51.682249 211.730712
L 52.243079 211.331994
L 52.803909 210.735391
L 53.364739 209.873614
L 53.925569 208.672757
L 54.486399 207.059981
L 55.327644 203.743471
L 56.168889 199.297644
L 57.290549 191.964313
L 58.97304 180.901077
L 59.53387 178.218639
L 60.0947 176.438753
L 60.375115 175.935651
L 60.65553 175.704094
L 60.935945 175.745891
L 61.21636 176.055991
L 61.77719 177.428366
L 62.33802 179.659971
L 63.179265 184.108916
L 65.422585 196.748705
L 66.26383 200.2889
L 67.105075 202.935442
L 67.946321 204.760899
L 68.507151 205.578709
L 69.067981 206.122328
L 69.628811 206.435705
L 70.470056 206.588518
L 72.713376 206.6117
L 73.554621 206.980316
L 74.395866 207.638981
L 75.797941 209.135483
L 77.200016 210.590237
L 78.321677 211.429891
L 79.443337 211.939609
L 80.564997 212.198919
L 81.686657 212.310495
L 81.686657 212.310495
" clip-path="url(#p7e8603c4a3)" style="fill: none; stroke: #eaacc7; stroke-width: 1.5625; stroke-linecap: round"/>
   </g>
   <g id="line2d_64">
    <path d="M 48.809949 212.291192
L 49.876014 212.080047
L 50.586724 211.75652
L 51.297434 211.193897
L 52.008144 210.327668
L 52.896531 208.821981
L 55.206338 204.567599
L 57.160791 201.745463
L 57.693823 200.42288
L 58.404533 198.016726
L 60.358985 190.784562
L 60.71434 190.150722
L 61.069695 189.889971
L 61.42505 190.01041
L 61.780405 190.487434
L 62.313438 191.750734
L 63.201825 194.670625
L 64.26789 198.089201
L 64.9786 199.735177
L 65.511632 200.530439
L 66.044664 200.920371
L 66.400019 200.944781
L 66.755374 200.7755
L 67.288407 200.16125
L 67.821439 199.151834
L 68.709827 196.885026
L 69.775891 194.249175
L 70.308924 193.441819
L 70.664279 193.195505
L 71.019634 193.20242
L 71.374989 193.454844
L 71.908021 194.22327
L 74.040151 198.032752
L 74.395506 198.223247
L 74.750861 198.241677
L 75.283893 198.033377
L 76.172281 197.591465
L 76.527636 197.589383
L 76.882991 197.77662
L 77.238345 198.187966
L 77.771378 199.243429
L 78.482088 201.35048
L 80.791895 209.037051
L 81.502605 210.482481
L 82.213315 211.398571
L 82.924025 211.915588
L 83.812412 212.215956
L 84.167767 212.273906
L 84.167767 212.273906
" clip-path="url(#p7e8603c4a3)" style="fill: none; stroke: #cc86c1; stroke-width: 1.5625; stroke-linecap: round"/>
   </g>
   <g id="line2d_65">
    <path d="M 56.867607 212.143997
L 57.129417 211.775943
L 57.391228 210.973605
L 57.653038 209.435597
L 57.980301 206.008288
L 58.438468 198.043056
L 60.53295 155.450353
L 60.663855 155.192394
L 60.79476 155.61551
L 60.991118 157.403733
L 61.449286 164.735322
L 61.972906 171.962771
L 62.234716 173.335637
L 62.365621 173.340473
L 62.496526 172.863881
L 62.692884 171.186713
L 62.954694 167.002567
L 63.34741 156.673322
L 64.001935 138.703035
L 64.198293 137.398565
L 64.329198 138.344474
L 64.525555 142.615092
L 64.852818 156.143063
L 65.769154 198.104723
L 66.096417 203.663392
L 66.292774 204.32015
L 66.423679 203.846262
L 66.685489 201.290229
L 67.47092 192.077327
L 67.601825 191.864332
L 67.73273 192.237833
L 67.929088 193.821247
L 68.321803 199.429829
L 68.976329 208.402145
L 69.369044 210.992716
L 69.696307 211.902476
L 69.892664 212.145461
L 69.892664 212.145461
" clip-path="url(#p7e8603c4a3)" style="fill: none; stroke: #9361ae; stroke-width: 1.5625; stroke-linecap: round"/>
   </g>
   <g id="line2d_66">
    <path d="M 49.462324 212.334142
L 52.891053 212.157145
L 55.176872 211.816254
L 57.081721 211.30871
L 58.986571 210.579208
L 61.65336 209.292253
L 67.367908 206.235884
L 71.558576 203.865022
L 72.701486 203.447189
L 73.844396 203.263889
L 74.987305 203.367749
L 76.130215 203.77557
L 77.273125 204.462188
L 78.797004 205.697108
L 82.225733 208.69973
L 83.368643 209.441864
L 84.511552 209.948387
L 85.654462 210.191689
L 86.797371 210.166918
L 87.940281 209.888645
L 89.083191 209.387019
L 90.60707 208.443502
L 92.892889 206.672247
L 97.464528 203.009688
L 99.750347 201.498378
L 101.274227 200.732817
L 102.417136 200.345994
L 103.560046 200.164734
L 104.702956 200.224348
L 105.845865 200.547355
L 106.988775 201.137366
L 108.131684 201.975689
L 109.655564 203.406036
L 112.703323 206.751593
L 114.608172 208.682331
L 116.132052 209.934938
L 117.655931 210.875837
L 119.179811 211.520559
L 120.70369 211.923561
L 122.60854 212.191364
L 125.275329 212.329368
L 125.275329 212.329368
" clip-path="url(#p7e8603c4a3)" style="fill: none; stroke: #392f62; stroke-width: 1.5625; stroke-linecap: round"/>
   </g>
   <g id="patch_13">
    <path d="M 9.784615 212.36851
L 111.345072 212.36851
" style="fill: none; stroke: #262626; stroke-width: 1.25; stroke-linejoin: miter; stroke-linecap: square"/>
   </g>
   <g id="text_24">
    <!-- $\rho=1.25$ -->
    <g style="fill: #262626" transform="translate(42.114844 127.65024) scale(0.1125 -0.1125)">
     <use xlink:href="#STIXNonUnicode-Italic-e1e8" transform="translate(0 0.296875)"/>
     <use xlink:href="#STIXGeneral-Regular-3d" transform="translate(68.519992 0.296875)"/>
     <use xlink:href="#STIXGeneral-Regular-1d7e3" transform="translate(152.139975 0.296875)"/>
     <use xlink:href="#STIXGeneral-Regular-2e" transform="translate(202.13996 0.296875)"/>
     <use xlink:href="#STIXGeneral-Regular-1d7e4" transform="translate(227.139944 0.296875)"/>
     <use xlink:href="#STIXGeneral-Regular-1d7e7" transform="translate(277.139929 0.296875)"/>
    </g>
   </g>
  </g>
  <g id="axes_7">
   <g id="patch_14">
    <path d="M 126.784615 212.36851
L 228.345072 212.36851
L 228.345072 133.65024
L 126.784615 133.65024
L 126.784615 212.36851
z
" style="fill: none"/>
   </g>
   <g id="matplotlib.axis_13">
    <g id="xtick_19">
     <g id="line2d_67">
      <path d="M 126.784615 212.36851
L 126.784615 133.65024
" clip-path="url(#pcce25dd126)" style="fill: none"/>
     </g>
     <g id="line2d_68">
      <g>
       <use xlink:href="#m204195b338" x="126.784615" y="212.36851" style="fill: #262626; stroke: #262626; stroke-width: 1.25"/>
      </g>
     </g>
     <g id="text_25">
      <!-- −1 -->
      <g style="fill: #262626" transform="translate(120.00024 229.059135) scale(0.1 -0.1)">
       <use xlink:href="#LMSans8-Regular-2212"/>
       <use xlink:href="#LMSans8-Regular-31" x="82.599991"/>
      </g>
     </g>
    </g>
    <g id="xtick_20">
     <g id="line2d_69">
      <path d="M 177.564844 212.36851
L 177.564844 133.65024
" clip-path="url(#pcce25dd126)" style="fill: none"/>
     </g>
     <g id="line2d_70">
      <g>
       <use xlink:href="#m204195b338" x="177.564844" y="212.36851" style="fill: #262626; stroke: #262626; stroke-width: 1.25"/>
      </g>
     </g>
     <g id="text_26">
      <!-- 0 -->
      <g style="fill: #262626" transform="translate(174.910156 229.059135) scale(0.1 -0.1)">
       <use xlink:href="#LMSans8-Regular-30"/>
      </g>
     </g>
    </g>
    <g id="xtick_21">
     <g id="line2d_71">
      <path d="M 228.345072 212.36851
L 228.345072 133.65024
" clip-path="url(#pcce25dd126)" style="fill: none"/>
     </g>
     <g id="line2d_72">
      <g>
       <use xlink:href="#m204195b338" x="228.345072" y="212.36851" style="fill: #262626; stroke: #262626; stroke-width: 1.25"/>
      </g>
     </g>
     <g id="text_27">
      <!-- 1 -->
      <g style="fill: #262626" transform="translate(225.690385 229.059135) scale(0.1 -0.1)">
       <use xlink:href="#LMSans8-Regular-31"/>
      </g>
     </g>
    </g>
   </g>
   <g id="matplotlib.axis_14"/>
   <g id="line2d_73">
    <path d="M 172.135644 212.256243
L 172.617849 212.012354
L 173.003613 211.560424
L 173.389377 210.690545
L 173.77514 209.16319
L 174.160904 206.698149
L 174.643109 201.85902
L 175.125314 194.607572
L 175.70396 182.40299
L 177.247015 146.275408
L 177.536338 144.261559
L 177.632779 144.219725
L 177.825661 145.10498
L 178.114984 148.731639
L 178.597188 159.449295
L 179.75448 187.295411
L 180.236685 193.602022
L 180.815331 197.963226
L 182.647709 208.417903
L 183.033473 209.560359
L 183.322795 209.878033
L 183.515677 209.816971
L 183.805 209.313757
L 184.190764 207.910243
L 184.76941 204.55014
L 186.023142 196.767866
L 186.408906 195.526071
L 186.698229 195.125064
L 186.891111 195.116999
L 187.083993 195.316753
L 187.373316 196.00159
L 187.75908 197.596671
L 188.337725 201.133436
L 189.495017 208.561735
L 189.977222 210.461725
L 190.459427 211.547083
L 190.941631 212.065118
L 191.327395 212.246248
L 191.327395 212.246248
" clip-path="url(#pcce25dd126)" style="fill: none; stroke: #f7d2d4; stroke-width: 1.5625; stroke-linecap: round"/>
   </g>
   <g id="line2d_74">
    <path d="M 172.995515 212.122116
L 173.310356 211.830754
L 173.625198 211.260992
L 173.94004 210.215773
L 174.254882 208.418765
L 174.674671 204.256479
L 175.09446 197.323194
L 175.619196 184.137372
L 177.193405 139.355849
L 177.4033 137.623815
L 177.508247 137.396783
L 177.613194 137.5957
L 177.823089 139.223706
L 178.137931 144.379311
L 178.662667 157.745595
L 179.71214 185.46169
L 180.341823 196.207921
L 180.86656 201.445367
L 181.286349 203.506846
L 181.601191 203.993398
L 181.811085 203.910473
L 182.125927 203.357357
L 182.965505 201.507274
L 183.1754 201.408123
L 183.385294 201.558098
L 183.700136 202.259787
L 184.119925 203.932005
L 185.48424 210.136466
L 186.008976 211.330403
L 186.428765 211.746961
L 186.743607 211.789867
L 187.058449 211.609238
L 187.373291 211.186113
L 187.79308 210.1886
L 188.317816 208.195273
L 189.787078 201.867316
L 189.996972 201.633425
L 190.206867 201.69177
L 190.416761 202.037612
L 190.731603 203.029275
L 191.361287 206.028292
L 192.200865 209.793647
L 192.725601 211.195781
L 193.14539 211.816114
L 193.670127 212.183822
L 193.880021 212.254949
L 193.880021 212.254949
" clip-path="url(#pcce25dd126)" style="fill: none; stroke: #eaacc7; stroke-width: 1.5625; stroke-linecap: round"/>
   </g>
   <g id="line2d_75">
    <path d="M 168.582482 212.311847
L 170.139389 212.117773
L 171.251466 211.743665
L 172.141127 211.179652
L 173.030788 210.271234
L 173.92045 208.931353
L 174.810111 207.124649
L 175.922188 204.303625
L 178.146341 198.391194
L 178.813587 197.114303
L 179.480833 196.281413
L 179.925664 196.005401
L 180.370495 195.958954
L 180.815325 196.13352
L 181.482571 196.762488
L 182.372233 198.107249
L 185.041217 202.608002
L 185.930878 203.562692
L 186.820539 204.179539
L 187.710201 204.530466
L 188.822277 204.717573
L 190.379185 204.726441
L 193.048169 204.495236
L 194.605076 204.192388
L 195.717153 203.794797
L 196.82923 203.171371
L 198.163722 202.115567
L 200.16546 200.473915
L 200.832706 200.181917
L 201.499952 200.14182
L 202.167198 200.403712
L 202.834444 200.985618
L 203.50169 201.868664
L 204.391351 203.417172
L 207.505166 209.329934
L 208.394827 210.470703
L 209.284489 211.270452
L 210.17415 211.781048
L 211.286227 212.128319
L 212.843134 212.313091
L 212.843134 212.313091
" clip-path="url(#pcce25dd126)" style="fill: none; stroke: #cc86c1; stroke-width: 1.5625; stroke-linecap: round"/>
   </g>
   <g id="line2d_76">
    <path d="M 168.787342 212.287779
L 170.026849 212.07276
L 170.853186 211.730429
L 171.47294 211.288231
L 172.092693 210.615912
L 172.712446 209.642741
L 173.332199 208.302698
L 174.158537 205.869791
L 174.984874 202.704057
L 176.430965 196.026756
L 177.670472 190.650659
L 178.290225 188.682018
L 178.909978 187.445986
L 179.323147 187.084665
L 179.736316 187.106926
L 180.149484 187.503196
L 180.562653 188.245827
L 181.182406 189.910023
L 182.215328 193.638294
L 183.868004 199.806562
L 184.694341 202.173055
L 185.520679 203.91276
L 186.347016 205.153593
L 187.586523 206.540377
L 190.065536 208.967091
L 190.891873 209.483743
L 191.511626 209.641268
L 192.13138 209.557325
L 192.751133 209.216212
L 193.370886 208.626974
L 194.197224 207.513834
L 195.643314 205.045531
L 197.089405 202.665566
L 197.915743 201.668376
L 198.535496 201.19341
L 199.155249 200.998296
L 199.775002 201.108927
L 200.394756 201.531585
L 201.014509 202.248357
L 201.840846 203.582128
L 203.493522 206.877267
L 204.733028 209.138323
L 205.76595 210.535122
L 206.592288 211.297232
L 207.418625 211.788709
L 208.451547 212.127318
L 209.897638 212.311147
L 209.897638 212.311147
" clip-path="url(#pcce25dd126)" style="fill: none; stroke: #9361ae; stroke-width: 1.5625; stroke-linecap: round"/>
   </g>
   <g id="line2d_77">
    <path d="M 176.726726 212.309065
L 178.547212 212.109585
L 179.760869 211.772367
L 180.671111 211.33696
L 181.581354 210.6976
L 182.795011 209.499639
L 184.312083 207.583193
L 185.829154 205.701781
L 186.739397 204.89024
L 187.346225 204.560586
L 187.953054 204.418782
L 188.559882 204.458087
L 189.470125 204.791022
L 191.897439 205.965951
L 192.504267 206.00167
L 193.111096 205.848213
L 193.717924 205.491552
L 194.628167 204.591388
L 195.53841 203.339968
L 198.269138 199.313191
L 198.875967 198.765362
L 199.482795 198.450948
L 200.089624 198.386204
L 200.696452 198.561529
L 201.606695 199.188587
L 204.034009 201.286378
L 204.640838 201.514153
L 205.247666 201.545837
L 205.854495 201.396849
L 207.068152 200.771359
L 207.978394 200.331469
L 208.585223 200.211222
L 209.192051 200.307302
L 209.79888 200.657258
L 210.405708 201.267585
L 211.315951 202.612309
L 212.833022 205.516355
L 214.350094 208.338726
L 215.260336 209.6705
L 216.170579 210.651672
L 217.080822 211.292628
L 217.991065 211.636109
L 218.901308 211.730625
L 219.81155 211.61564
L 221.025207 211.187001
L 222.542279 210.318948
L 224.969593 208.84925
L 225.879835 208.552818
L 226.790078 208.500455
L 227.700321 208.702582
L 228.913978 209.295049
L 232.858363 211.610206
L 234.07202 211.986234
L 235.589092 212.23128
L 237.106163 212.32765
L 237.106163 212.32765
" clip-path="url(#pcce25dd126)" style="fill: none; stroke: #392f62; stroke-width: 1.5625; stroke-linecap: round"/>
   </g>
   <g id="patch_15">
    <path d="M 126.784615 212.36851
L 228.345072 212.36851
" style="fill: none; stroke: #262626; stroke-width: 1.25; stroke-linejoin: miter; stroke-linecap: square"/>
   </g>
   <g id="text_28">
    <!-- $\rho=1.5$ -->
    <g style="fill: #262626" transform="translate(161.927344 127.65024) scale(0.1125 -0.1125)">
     <use xlink:href="#STIXNonUnicode-Italic-e1e8" transform="translate(0 0.296875)"/>
     <use xlink:href="#STIXGeneral-Regular-3d" transform="translate(68.519992 0.296875)"/>
     <use xlink:href="#STIXGeneral-Regular-1d7e3" transform="translate(152.139975 0.296875)"/>
     <use xlink:href="#STIXGeneral-Regular-2e" transform="translate(202.13996 0.296875)"/>
     <use xlink:href="#STIXGeneral-Regular-1d7e7" transform="translate(227.139944 0.296875)"/>
    </g>
   </g>
  </g>
  <g id="axes_8">
   <g id="patch_16">
    <path d="M 243.784615 212.36851
L 345.345072 212.36851
L 345.345072 133.65024
L 243.784615 133.65024
L 243.784615 212.36851
z
" style="fill: none"/>
   </g>
   <g id="matplotlib.axis_15">
    <g id="xtick_22">
     <g id="line2d_78">
      <path d="M 243.784615 212.36851
L 243.784615 133.65024
" clip-path="url(#p7dfde6b256)" style="fill: none"/>
     </g>
     <g id="line2d_79">
      <g>
       <use xlink:href="#m204195b338" x="243.784615" y="212.36851" style="fill: #262626; stroke: #262626; stroke-width: 1.25"/>
      </g>
     </g>
     <g id="text_29">
      <!-- −1 -->
      <g style="fill: #262626" transform="translate(237.00024 229.059135) scale(0.1 -0.1)">
       <use xlink:href="#LMSans8-Regular-2212"/>
       <use xlink:href="#LMSans8-Regular-31" x="82.599991"/>
      </g>
     </g>
    </g>
    <g id="xtick_23">
     <g id="line2d_80">
      <path d="M 294.564844 212.36851
L 294.564844 133.65024
" clip-path="url(#p7dfde6b256)" style="fill: none"/>
     </g>
     <g id="line2d_81">
      <g>
       <use xlink:href="#m204195b338" x="294.564844" y="212.36851" style="fill: #262626; stroke: #262626; stroke-width: 1.25"/>
      </g>
     </g>
     <g id="text_30">
      <!-- 0 -->
      <g style="fill: #262626" transform="translate(291.910156 229.059135) scale(0.1 -0.1)">
       <use xlink:href="#LMSans8-Regular-30"/>
      </g>
     </g>
    </g>
    <g id="xtick_24">
     <g id="line2d_82">
      <path d="M 345.345072 212.36851
L 345.345072 133.65024
" clip-path="url(#p7dfde6b256)" style="fill: none"/>
     </g>
     <g id="line2d_83">
      <g>
       <use xlink:href="#m204195b338" x="345.345072" y="212.36851" style="fill: #262626; stroke: #262626; stroke-width: 1.25"/>
      </g>
     </g>
     <g id="text_31">
      <!-- 1 -->
      <g style="fill: #262626" transform="translate(342.690385 229.059135) scale(0.1 -0.1)">
       <use xlink:href="#LMSans8-Regular-31"/>
      </g>
     </g>
    </g>
   </g>
   <g id="matplotlib.axis_16"/>
   <g id="line2d_84">
    <path d="M 292.312821 212.13793
L 292.539883 211.706822
L 292.766945 210.668488
L 292.994008 208.453483
L 293.277835 202.825374
L 293.618429 190.017105
L 294.75374 137.398715
L 294.810506 137.531938
L 294.924037 139.064191
L 295.151099 146.670701
L 295.661989 175.569337
L 296.172879 199.544117
L 296.513473 207.554835
L 296.854066 210.936017
L 297.137894 211.934066
L 297.421722 212.257401
L 297.875846 212.359776
L 299.408516 212.327692
L 299.805875 212.121923
L 300.089703 211.653816
L 300.373531 210.644876
L 300.714124 208.479254
L 301.452077 203.221504
L 301.622373 203.028277
L 301.735904 203.239048
L 301.962967 204.382972
L 303.098278 211.668219
L 303.438871 212.178351
L 303.609168 212.278782
L 303.609168 212.278782
" clip-path="url(#p7dfde6b256)" style="fill: none; stroke: #f7d2d4; stroke-width: 1.5625; stroke-linecap: round"/>
   </g>
   <g id="line2d_85">
    <path d="M 290.26557 212.209496
L 290.686743 211.916377
L 291.002623 211.447217
L 291.318503 210.603492
L 291.634382 209.189318
L 292.055555 206.0385
L 292.476728 201.073877
L 293.108487 190.447024
L 293.950833 176.123544
L 294.266712 173.192828
L 294.477299 172.440147
L 294.582592 172.446026
L 294.793178 173.205849
L 295.109058 176.017446
L 295.635524 183.640761
L 296.583163 197.800494
L 297.214922 203.868184
L 297.846682 207.611349
L 298.478441 209.956243
L 299.004907 211.163512
L 299.531373 211.849251
L 300.057839 212.17851
L 300.794891 212.333677
L 302.584876 212.366129
L 304.058981 212.252589
L 304.69074 211.959212
L 305.217206 211.406209
L 305.743672 210.475978
L 307.217777 207.504632
L 307.533657 207.405599
L 307.849536 207.619794
L 308.270709 208.317093
L 309.955401 211.683847
L 310.481867 212.098516
L 311.113626 212.298678
L 311.218919 212.314146
L 311.218919 212.314146
" clip-path="url(#p7dfde6b256)" style="fill: none; stroke: #eaacc7; stroke-width: 1.5625; stroke-linecap: round"/>
   </g>
   <g id="line2d_86">
    <path d="M 285.209657 212.293918
L 286.500341 212.087119
L 287.360797 211.756564
L 288.221253 211.147772
L 288.866595 210.432003
L 289.511937 209.441337
L 290.372393 207.656707
L 291.447963 204.789046
L 293.168876 200.040453
L 293.814218 198.794407
L 294.244446 198.263894
L 294.674674 198.010951
L 295.104902 198.049417
L 295.53513 198.375397
L 295.965358 198.967815
L 296.6107 200.274018
L 297.68627 203.138577
L 299.407182 207.713195
L 300.267638 209.400601
L 301.128094 210.569375
L 301.773437 211.130702
L 302.418779 211.461564
L 303.279235 211.612157
L 304.139691 211.508659
L 305.215261 211.136528
L 308.872199 209.615438
L 310.377997 209.397003
L 312.314024 209.384421
L 314.680278 209.628152
L 316.831418 209.800835
L 319.197672 209.935932
L 320.488356 210.2845
L 322.209269 211.04829
L 324.145295 211.837509
L 325.651093 212.17592
L 327.587119 212.333434
L 328.017347 212.345912
L 328.017347 212.345912
" clip-path="url(#p7dfde6b256)" style="fill: none; stroke: #cc86c1; stroke-width: 1.5625; stroke-linecap: round"/>
   </g>
   <g id="line2d_87">
    <path d="M 288.829239 212.311484
L 289.655774 212.135099
L 290.206798 211.83278
L 290.757821 211.239679
L 291.308844 210.182258
L 291.859868 208.472057
L 292.410891 205.971074
L 293.09967 201.758819
L 294.75274 190.846083
L 295.166008 189.343455
L 295.441519 188.845265
L 295.717031 188.776675
L 295.992543 189.132054
L 296.40581 190.38843
L 296.956833 193.107519
L 299.298682 206.327659
L 299.987462 208.69167
L 300.676241 210.302053
L 301.36502 211.308737
L 302.053799 211.862747
L 302.742578 212.092416
L 303.431357 212.075099
L 304.120137 211.824717
L 304.808916 211.320371
L 305.635451 210.402712
L 307.150765 208.597081
L 307.839544 208.129574
L 308.528323 207.928538
L 309.63037 207.894577
L 310.456905 208.054942
L 311.145684 208.445283
L 311.834463 209.125941
L 314.038556 211.635308
L 314.865091 212.0825
L 315.829382 212.295994
L 316.242649 212.33173
L 316.242649 212.33173
" clip-path="url(#p7dfde6b256)" style="fill: none; stroke: #9361ae; stroke-width: 1.5625; stroke-linecap: round"/>
   </g>
   <g id="line2d_88">
    <path d="M 286.387061 212.354881
L 291.174449 212.217665
L 294.120534 211.921641
L 297.066619 211.37663
L 302.590528 210.241801
L 304.800091 210.102277
L 307.009655 210.200446
L 321.003558 211.532291
L 324.686164 211.984754
L 327.263988 212.065579
L 329.105291 211.926984
L 330.946594 211.557623
L 332.419636 211.045395
L 333.892679 210.304951
L 335.365721 209.330884
L 337.575285 207.545425
L 339.784848 205.76524
L 340.88963 205.075327
L 341.994412 204.625538
L 343.099194 204.472417
L 344.203976 204.639204
L 345.308757 205.110248
L 346.413539 205.833291
L 348.254842 207.377463
L 350.832667 209.571069
L 352.305709 210.562491
L 353.778751 211.290295
L 355.251794 211.773456
L 357.093097 212.115177
L 359.670921 212.306244
L 359.670921 212.306244
" clip-path="url(#p7dfde6b256)" style="fill: none; stroke: #392f62; stroke-width: 1.5625; stroke-linecap: round"/>
   </g>
   <g id="patch_17">
    <path d="M 243.784615 212.36851
L 345.345072 212.36851
" style="fill: none; stroke: #262626; stroke-width: 1.25; stroke-linejoin: miter; stroke-linecap: square"/>
   </g>
   <g id="text_32">
    <!-- $\rho=1.75$ -->
    <g style="fill: #262626" transform="translate(276.114844 127.65024) scale(0.1125 -0.1125)">
     <use xlink:href="#STIXNonUnicode-Italic-e1e8" transform="translate(0 0.296875)"/>
     <use xlink:href="#STIXGeneral-Regular-3d" transform="translate(68.519992 0.296875)"/>
     <use xlink:href="#STIXGeneral-Regular-1d7e3" transform="translate(152.139975 0.296875)"/>
     <use xlink:href="#STIXGeneral-Regular-2e" transform="translate(202.13996 0.296875)"/>
     <use xlink:href="#STIXGeneral-Regular-1d7e9" transform="translate(227.139944 0.296875)"/>
     <use xlink:href="#STIXGeneral-Regular-1d7e7" transform="translate(277.139929 0.296875)"/>
    </g>
   </g>
  </g>
  <g id="axes_9">
   <g id="patch_18">
    <path d="M 360.784615 212.36851
L 462.345072 212.36851
L 462.345072 133.65024
L 360.784615 133.65024
L 360.784615 212.36851
z
" style="fill: none"/>
   </g>
   <g id="matplotlib.axis_17">
    <g id="xtick_25">
     <g id="line2d_89">
      <path d="M 360.784615 212.36851
L 360.784615 133.65024
" clip-path="url(#pe57b7bf88c)" style="fill: none"/>
     </g>
     <g id="line2d_90">
      <g>
       <use xlink:href="#m204195b338" x="360.784615" y="212.36851" style="fill: #262626; stroke: #262626; stroke-width: 1.25"/>
      </g>
     </g>
     <g id="text_33">
      <!-- −1 -->
      <g style="fill: #262626" transform="translate(354.00024 229.059135) scale(0.1 -0.1)">
       <use xlink:href="#LMSans8-Regular-2212"/>
       <use xlink:href="#LMSans8-Regular-31" x="82.599991"/>
      </g>
     </g>
    </g>
    <g id="xtick_26">
     <g id="line2d_91">
      <path d="M 411.564844 212.36851
L 411.564844 133.65024
" clip-path="url(#pe57b7bf88c)" style="fill: none"/>
     </g>
     <g id="line2d_92">
      <g>
       <use xlink:href="#m204195b338" x="411.564844" y="212.36851" style="fill: #262626; stroke: #262626; stroke-width: 1.25"/>
      </g>
     </g>
     <g id="text_34">
      <!-- 0 -->
      <g style="fill: #262626" transform="translate(408.910156 229.059135) scale(0.1 -0.1)">
       <use xlink:href="#LMSans8-Regular-30"/>
      </g>
     </g>
    </g>
    <g id="xtick_27">
     <g id="line2d_93">
      <path d="M 462.345072 212.36851
L 462.345072 133.65024
" clip-path="url(#pe57b7bf88c)" style="fill: none"/>
     </g>
     <g id="line2d_94">
      <g>
       <use xlink:href="#m204195b338" x="462.345072" y="212.36851" style="fill: #262626; stroke: #262626; stroke-width: 1.25"/>
      </g>
     </g>
     <g id="text_35">
      <!-- 1 -->
      <g style="fill: #262626" transform="translate(459.690385 229.059135) scale(0.1 -0.1)">
       <use xlink:href="#LMSans8-Regular-31"/>
      </g>
     </g>
    </g>
   </g>
   <g id="matplotlib.axis_18"/>
   <g id="line2d_95">
    <path d="M 409.48394 212.271047
L 409.614748 211.982994
L 409.771718 210.869816
L 409.95485 207.485552
L 410.399599 197.723489
L 410.425761 197.798854
L 410.635054 199.174589
L 410.687378 198.786258
L 410.792024 195.791111
L 411.001318 180.295246
L 411.367582 154.826982
L 411.419905 154.286245
L 411.472229 154.476532
L 411.629199 157.556223
L 411.890816 161.075225
L 411.995463 161.690663
L 412.100109 164.01896
L 412.283241 175.352125
L 412.780314 209.352981
L 412.989607 211.785791
L 413.041931 211.864703
L 413.094254 211.802121
L 413.198901 211.243263
L 413.355871 209.019508
L 413.826782 198.120318
L 413.905267 198.656173
L 414.088398 203.180755
L 414.454662 211.251279
L 414.663956 212.215174
L 414.690118 212.253572
L 414.690118 212.253572
" clip-path="url(#pe57b7bf88c)" style="fill: none; stroke: #f7d2d4; stroke-width: 1.5625; stroke-linecap: round"/>
   </g>
   <g id="line2d_96">
    <path d="M 407.42878 212.281988
L 407.626153 212.012377
L 407.823526 211.226298
L 408.060373 209.041269
L 408.652493 202.361439
L 408.731442 202.587373
L 408.88934 204.078721
L 409.560409 211.677331
L 409.797256 212.222523
L 410.073578 212.326132
L 410.270951 212.204429
L 410.42885 211.803677
L 410.586748 210.66797
L 410.784121 206.853839
L 410.981494 198.030629
L 411.297291 170.305176
L 411.692037 138.116712
L 411.770987 137.398024
L 411.849936 139.274007
L 412.047309 153.56321
L 412.639428 204.400864
L 412.91575 210.706479
L 413.113123 211.540289
L 413.192072 211.428207
L 413.349971 210.599466
L 413.626293 207.354064
L 414.060514 202.385325
L 414.099988 202.358225
L 414.139463 202.430818
L 414.257887 203.211091
L 414.613158 208.190533
L 414.96843 211.519811
L 415.205277 212.181419
L 415.284227 212.264171
L 415.284227 212.264171
" clip-path="url(#pe57b7bf88c)" style="fill: none; stroke: #eaacc7; stroke-width: 1.5625; stroke-linecap: round"/>
   </g>
   <g id="line2d_97">
    <path d="M 408.223257 212.309779
L 408.705125 212.117918
L 409.02637 211.781655
L 409.347615 211.114392
L 409.66886 209.919713
L 410.070416 207.38031
L 410.552284 202.584661
L 411.756953 189.306535
L 411.997886 188.385721
L 412.158509 188.281901
L 412.319131 188.566019
L 412.560065 189.621842
L 413.041933 193.222555
L 414.648158 206.392352
L 415.290648 209.806151
L 415.692204 211.015805
L 416.013449 211.490035
L 416.334694 211.582574
L 416.655939 211.346997
L 417.057496 210.679149
L 418.181853 208.44595
L 418.503098 208.335647
L 418.824343 208.543454
L 419.707767 209.404958
L 420.029012 209.327841
L 420.430569 208.911656
L 420.992747 208.356594
L 421.233681 208.351368
L 421.474615 208.543319
L 421.876171 209.244998
L 423.08084 211.71257
L 423.562708 212.134234
L 424.124887 212.315951
L 424.205198 212.327137
L 424.205198 212.327137
" clip-path="url(#pe57b7bf88c)" style="fill: none; stroke: #cc86c1; stroke-width: 1.5625; stroke-linecap: round"/>
   </g>
   <g id="line2d_98">
    <path d="M 405.995921 212.295922
L 406.804058 212.104718
L 407.477506 211.699779
L 408.016265 211.087752
L 408.555023 210.111686
L 409.228471 208.289677
L 410.171298 204.832675
L 411.114126 201.492121
L 411.652884 200.343165
L 411.922263 200.091203
L 412.191642 200.076289
L 412.461022 200.298153
L 412.86509 201.041265
L 413.403849 202.636379
L 415.424193 209.401831
L 415.962951 210.33599
L 416.36702 210.704544
L 416.771089 210.809093
L 417.175157 210.682146
L 417.713916 210.228688
L 419.73426 208.032876
L 420.138329 207.945039
L 420.677087 208.099028
L 421.350535 208.594918
L 422.428052 209.415602
L 423.1015 209.611915
L 423.774948 209.538363
L 425.929981 209.038069
L 426.603429 209.15644
L 427.411567 209.548473
L 428.354394 210.288357
L 429.970669 211.610845
L 430.913496 212.065347
L 431.991013 212.290795
L 432.799151 212.346146
L 432.799151 212.346146
" clip-path="url(#pe57b7bf88c)" style="fill: none; stroke: #9361ae; stroke-width: 1.5625; stroke-linecap: round"/>
   </g>
   <g id="line2d_99">
    <path d="M 426.668498 212.353702
L 429.525786 212.199812
L 431.284117 211.892635
L 436.339319 210.77449
L 439.196607 210.437612
L 442.493478 209.788929
L 443.592435 209.898669
L 444.691392 210.235476
L 447.988263 211.428486
L 449.08722 211.505618
L 450.405968 211.344352
L 452.603882 210.78437
L 454.142422 210.253455
L 455.241379 209.624025
L 456.120545 208.858787
L 457.219502 207.569516
L 459.197624 205.144388
L 459.856998 204.671443
L 460.516372 204.510474
L 460.955955 204.594965
L 461.615329 205.00325
L 462.274704 205.703193
L 463.373661 207.278193
L 465.131992 209.845259
L 466.011157 210.801549
L 466.890323 211.473819
L 467.769488 211.898935
L 468.868445 212.182239
L 470.406985 212.327651
L 470.406985 212.327651
" clip-path="url(#pe57b7bf88c)" style="fill: none; stroke: #392f62; stroke-width: 1.5625; stroke-linecap: round"/>
   </g>
   <g id="patch_19">
    <path d="M 360.784615 212.36851
L 462.345072 212.36851
" style="fill: none; stroke: #262626; stroke-width: 1.25; stroke-linejoin: miter; stroke-linecap: square"/>
   </g>
   <g id="text_36">
    <!-- $\rho=2$ -->
    <g style="fill: #262626" transform="translate(400.146094 127.65024) scale(0.1125 -0.1125)">
     <use xlink:href="#STIXNonUnicode-Italic-e1e8" transform="translate(0 0.40625)"/>
     <use xlink:href="#STIXGeneral-Regular-3d" transform="translate(68.519992 0.40625)"/>
     <use xlink:href="#STIXGeneral-Regular-1d7e4" transform="translate(152.139975 0.40625)"/>
    </g>
   </g>
  </g>
  <g id="legend_1">
   <g id="line2d_100">
    <path d="M 484.3 160.589063
L 494.3 160.589063
L 504.3 160.589063
" style="fill: none; stroke: #392f62; stroke-width: 1.5625; stroke-linecap: round"/>
   </g>
   <g id="text_37">
    <!-- $\alpha_{1}$ -->
    <g style="fill: #262626" transform="translate(506.8 164.089063) scale(0.1 -0.1)">
     <defs>
      <path id="STIXNonUnicode-Italic-e1d8" d="M 3942 2899
L 2918 1427
Q 2931 781 2982 570
Q 3021 390 3270 390
L 3245 294
L 2989 -64
Q 2650 -64 2528 105
Q 2406 275 2381 595
Q 1882 -64 1184 -64
Q 774 -64 537 214
Q 301 493 301 960
Q 301 1709 800 2336
Q 1299 2963 1946 2963
Q 2739 2963 2880 2176
L 3392 2899
L 3942 2899
z
M 2406 1715
Q 2406 2093 2236 2301
Q 2067 2509 1811 2509
Q 1478 2509 1145 2109
Q 813 1709 813 1062
Q 813 749 953 569
Q 1094 390 1318 390
Q 1587 390 1878 652
Q 2170 915 2381 1434
Q 2406 1568 2406 1715
z
" transform="scale(0.015625)"/>
     </defs>
     <use xlink:href="#STIXNonUnicode-Italic-e1d8" transform="translate(0 0.703125)"/>
     <use xlink:href="#STIXGeneral-Regular-1d7e3" transform="translate(59.392686 -12.885937) scale(0.7)"/>
    </g>
   </g>
   <g id="line2d_101">
    <path d="M 484.3 174.529687
L 494.3 174.529687
L 504.3 174.529687
" style="fill: none; stroke: #9361ae; stroke-width: 1.5625; stroke-linecap: round"/>
   </g>
   <g id="text_38">
    <!-- $\alpha_{2}$ -->
    <g style="fill: #262626" transform="translate(506.8 178.029687) scale(0.1 -0.1)">
     <use xlink:href="#STIXNonUnicode-Italic-e1d8" transform="translate(0 0.703125)"/>
     <use xlink:href="#STIXGeneral-Regular-1d7e4" transform="translate(59.392686 -12.885937) scale(0.7)"/>
    </g>
   </g>
   <g id="line2d_102">
    <path d="M 484.3 188.470313
L 494.3 188.470313
L 504.3 188.470313
" style="fill: none; stroke: #cc86c1; stroke-width: 1.5625; stroke-linecap: round"/>
   </g>
   <g id="text_39">
    <!-- $\alpha_{3}$ -->
    <g style="fill: #262626" transform="translate(506.8 191.970313) scale(0.1 -0.1)">
     <defs>
      <path id="STIXGeneral-Regular-1d7e5" d="M 723 3149
L 269 3258
Q 410 3757 736 4041
Q 1062 4326 1555 4326
Q 2010 4326 2317 4038
Q 2624 3750 2624 3322
Q 2624 2752 2074 2368
Q 2432 2240 2627 1942
Q 2822 1645 2822 1344
Q 2822 723 2419 320
Q 2010 -90 1312 -90
Q 608 -90 198 358
L 499 717
Q 826 365 1280 365
Q 1754 365 2022 595
Q 2317 845 2317 1222
Q 2317 1555 2077 1779
Q 1837 2003 1421 2061
L 1011 2061
L 1011 2195
L 1318 2522
Q 1606 2522 1862 2742
Q 2118 2963 2118 3277
Q 2118 3546 1948 3709
Q 1779 3872 1536 3872
Q 1280 3872 1059 3689
Q 838 3507 723 3149
z
" transform="scale(0.015625)"/>
     </defs>
     <use xlink:href="#STIXNonUnicode-Italic-e1d8" transform="translate(0 0.703125)"/>
     <use xlink:href="#STIXGeneral-Regular-1d7e5" transform="translate(59.392686 -12.885937) scale(0.7)"/>
    </g>
   </g>
   <g id="line2d_103">
    <path d="M 536.5 160.589063
L 546.5 160.589063
L 556.5 160.589063
" style="fill: none; stroke: #eaacc7; stroke-width: 1.5625; stroke-linecap: round"/>
   </g>
   <g id="text_40">
    <!-- $\alpha_{4}$ -->
    <g style="fill: #262626" transform="translate(559 164.089063) scale(0.1 -0.1)">
     <defs>
      <path id="STIXGeneral-Regular-1d7e6" d="M 3130 1510
L 2918 1056
L 2387 1056
L 2387 0
L 1882 0
L 1882 1056
L 70 1056
L 70 1491
L 2067 4326
L 2387 4326
L 2387 1510
L 3130 1510
z
M 1882 1510
L 1882 3264
L 640 1510
L 1882 1510
z
" transform="scale(0.015625)"/>
     </defs>
     <use xlink:href="#STIXNonUnicode-Italic-e1d8" transform="translate(0 0.703125)"/>
     <use xlink:href="#STIXGeneral-Regular-1d7e6" transform="translate(59.392686 -12.885937) scale(0.7)"/>
    </g>
   </g>
   <g id="line2d_104">
    <path d="M 536.5 174.529687
L 546.5 174.529687
L 556.5 174.529687
" style="fill: none; stroke: #f7d2d4; stroke-width: 1.5625; stroke-linecap: round"/>
   </g>
   <g id="text_41">
    <!-- $\alpha_{5}$ -->
    <g style="fill: #262626" transform="translate(559 178.029687) scale(0.1 -0.1)">
     <use xlink:href="#STIXNonUnicode-Italic-e1d8" transform="translate(0 0.703125)"/>
     <use xlink:href="#STIXGeneral-Regular-1d7e7" transform="translate(59.392686 -12.885937) scale(0.7)"/>
    </g>
   </g>
  </g>
 </g>
 <defs>
  <clipPath id="p468cebb155">
   <rect x="9.784615" y="16.65024" width="101.560457" height="78.71827"/>
  </clipPath>
  <clipPath id="p89e148c278">
   <rect x="126.784615" y="16.65024" width="101.560457" height="78.71827"/>
  </clipPath>
  <clipPath id="p166deff93f">
   <rect x="243.784615" y="16.65024" width="101.560457" height="78.71827"/>
  </clipPath>
  <clipPath id="p7ab7cf8fdf">
   <rect x="360.784615" y="16.65024" width="101.560458" height="78.71827"/>
  </clipPath>
  <clipPath id="p842d0db953">
   <rect x="477.784615" y="16.65024" width="101.560458" height="78.71827"/>
  </clipPath>
  <clipPath id="p7e8603c4a3">
   <rect x="9.784615" y="133.65024" width="101.560457" height="78.71827"/>
  </clipPath>
  <clipPath id="pcce25dd126">
   <rect x="126.784615" y="133.65024" width="101.560457" height="78.71827"/>
  </clipPath>
  <clipPath id="p7dfde6b256">
   <rect x="243.784615" y="133.65024" width="101.560457" height="78.71827"/>
  </clipPath>
  <clipPath id="pe57b7bf88c">
   <rect x="360.784615" y="133.65024" width="101.560458" height="78.71827"/>
  </clipPath>
 </defs>
</svg>
