<?xml version="1.0" encoding="utf-8" standalone="no"?>
<!DOCTYPE svg PUBLIC "-//W3C//DTD SVG 1.1//EN"
  "http://www.w3.org/Graphics/SVG/1.1/DTD/svg11.dtd">
<svg xmlns:xlink="http://www.w3.org/1999/xlink" width="585pt" height="234pt" viewBox="0 0 585 234" xmlns="http://www.w3.org/2000/svg" version="1.1">
 <metadata>
  <rdf:RDF xmlns:dc="http://purl.org/dc/elements/1.1/" xmlns:cc="http://creativecommons.org/ns#" xmlns:rdf="http://www.w3.org/1999/02/22-rdf-syntax-ns#">
   <cc:Work>
    <dc:type rdf:resource="http://purl.org/dc/dcmitype/StillImage"/>
    <dc:date>2023-06-21T14:19:39.364232</dc:date>
    <dc:format>image/svg+xml</dc:format>
    <dc:creator>
     <cc:Agent>
      <dc:title>Matplotlib v3.7.1, https://matplotlib.org/</dc:title>
     </cc:Agent>
    </dc:creator>
   </cc:Work>
  </rdf:RDF>
 </metadata>
 <defs>
  <style type="text/css">*{stroke-linejoin: round; stroke-linecap: butt}</style>
 </defs>
 <g id="figure_1">
  <g id="patch_1">
   <path d="M 0 234 
L 585 234 
L 585 0 
L 0 0 
L 0 234 
z
" style="fill: none"/>
  </g>
  <g id="axes_1">
   <g id="patch_2">
    <path d="M 9.784615 212.36851 
L 123.696707 212.36851 
L 123.696707 3.00024 
L 9.784615 3.00024 
L 9.784615 212.36851 
z
" style="fill: none"/>
   </g>
   <g id="matplotlib.axis_1">
    <g id="xtick_1">
     <g id="line2d_1">
      <path d="M 9.784615 212.36851 
L 9.784615 3.00024 
" clip-path="url(#pb1a37ab835)" style="fill: none"/>
     </g>
     <g id="line2d_2">
      <defs>
       <path id="m9160a8d8b5" d="M 0 0 
L 0 6.25 
" style="stroke: #adb5bd; stroke-width: 1.25"/>
      </defs>
      <g>
       <use xlink:href="#m9160a8d8b5" x="9.784615" y="212.36851" style="fill: #adb5bd; stroke: #adb5bd; stroke-width: 1.25"/>
      </g>
     </g>
     <g id="text_1">
      <!-- −1 -->
      <g style="fill: #adb5bd" transform="translate(3.00024 229.059135) scale(0.1 -0.1)">
       <defs>
        <path id="LMSans8-Regular-2212" d="M 4902 1600 
C 4902 1747 4762 1747 4672 1747 
L 608 1747 
C 518 1747 378 1747 378 1600 
C 378 1453 518 1453 608 1453 
L 4672 1453 
C 4762 1453 4902 1453 4902 1600 
z
" transform="scale(0.015625)"/>
        <path id="LMSans8-Regular-31" d="M 2906 0 
L 2906 403 
L 2054 403 
L 2054 4333 
L 1914 4333 
C 1498 3949 973 3923 589 3910 
L 589 3507 
C 838 3514 1158 3526 1478 3654 
L 1478 403 
L 627 403 
L 627 0 
L 2906 0 
z
" transform="scale(0.015625)"/>
       </defs>
       <use xlink:href="#LMSans8-Regular-2212"/>
       <use xlink:href="#LMSans8-Regular-31" x="82.599991"/>
      </g>
     </g>
    </g>
    <g id="xtick_2">
     <g id="line2d_3">
      <path d="M 66.740661 212.36851 
L 66.740661 3.00024 
" clip-path="url(#pb1a37ab835)" style="fill: none"/>
     </g>
     <g id="line2d_4">
      <g>
       <use xlink:href="#m9160a8d8b5" x="66.740661" y="212.36851" style="fill: #adb5bd; stroke: #adb5bd; stroke-width: 1.25"/>
      </g>
     </g>
     <g id="text_2">
      <!-- 0 -->
      <g style="fill: #adb5bd" transform="translate(64.085973 229.059135) scale(0.1 -0.1)">
       <defs>
        <path id="LMSans8-Regular-30" d="M 3123 2080 
C 3123 2387 3123 3136 2822 3661 
C 2496 4237 2003 4333 1696 4333 
C 1408 4333 909 4243 589 3693 
C 282 3181 269 2483 269 2080 
C 269 1606 294 1024 563 538 
C 845 19 1318 -134 1696 -134 
C 2336 -134 2688 237 2880 640 
C 3104 1094 3123 1683 3123 2080 
z
M 2566 2163 
C 2566 1741 2566 1261 2413 851 
C 2234 390 1907 288 1696 288 
C 1427 288 1120 442 960 902 
C 832 1293 826 1696 826 2163 
C 826 2752 826 3910 1696 3910 
C 2566 3910 2566 2752 2566 2163 
z
" transform="scale(0.015625)"/>
       </defs>
       <use xlink:href="#LMSans8-Regular-30"/>
      </g>
     </g>
    </g>
    <g id="xtick_3">
     <g id="line2d_5">
      <path d="M 123.696707 212.36851 
L 123.696707 3.00024 
" clip-path="url(#pb1a37ab835)" style="fill: none"/>
     </g>
     <g id="line2d_6">
      <g>
       <use xlink:href="#m9160a8d8b5" x="123.696707" y="212.36851" style="fill: #adb5bd; stroke: #adb5bd; stroke-width: 1.25"/>
      </g>
     </g>
     <g id="text_3">
      <!-- 1 -->
      <g style="fill: #adb5bd" transform="translate(121.042019 229.059135) scale(0.1 -0.1)">
       <use xlink:href="#LMSans8-Regular-31"/>
      </g>
     </g>
    </g>
   </g>
   <g id="matplotlib.axis_2"/>
   <g id="line2d_7">
    <path d="M 16.05191 212.204814 
L 17.978987 211.951006 
L 19.263706 211.619951 
L 20.548424 211.068868 
L 21.833142 210.183291 
L 23.117861 208.809874 
L 23.76022 207.881202 
L 24.402579 206.754998 
L 25.687297 203.790324 
L 26.972016 199.668183 
L 28.256734 194.148693 
L 29.541452 187.038489 
L 30.826171 178.237871 
L 32.110889 167.789781 
L 34.037967 149.581041 
L 37.892122 111.130568 
L 39.17684 100.658123 
L 40.461558 92.755197 
L 41.103917 89.976368 
L 41.746277 88.06046 
L 42.388636 87.045408 
L 43.030995 86.949097 
L 43.673354 87.768813 
L 44.315713 89.481471 
L 44.958072 92.0446 
L 45.600432 95.398035 
L 46.88515 104.161017 
L 48.169868 115.033883 
L 50.739305 139.778932 
L 52.666382 157.951561 
L 53.951101 168.811685 
L 55.235819 178.293347 
L 56.520537 186.272574 
L 57.805256 192.765581 
L 59.089974 197.88689 
L 60.374692 201.807754 
L 61.659411 204.721125 
L 62.944129 206.816228 
L 64.228847 208.26302 
L 65.513566 209.204909 
L 66.798284 209.757212 
L 68.083002 210.008769 
L 69.367721 210.024585 
L 70.652439 209.848135 
L 71.937157 209.50263 
L 73.221876 208.991158 
L 74.506594 208.295998 
L 75.791312 207.377584 
L 77.076031 206.173629 
L 78.360749 204.598857 
L 79.645467 202.545673 
L 80.930186 199.886018 
L 82.214904 196.47473 
L 83.499623 192.154864 
L 84.784341 186.765724 
L 86.069059 180.15462 
L 87.353778 172.193366 
L 88.638496 162.80017 
L 89.923214 151.96649 
L 91.850292 133.256838 
L 94.419728 105.30515 
L 96.989165 77.938916 
L 98.273883 66.332532 
L 99.558602 57.173195 
L 100.200961 53.735104 
L 100.84332 51.157079 
L 101.485679 49.495996 
L 102.128038 48.792202 
L 102.770398 49.067918 
L 103.412757 50.326225 
L 104.055116 52.550721 
L 104.697475 55.705855 
L 105.339834 59.737939 
L 106.624553 70.137899 
L 107.909271 83.033728 
L 109.836348 105.176188 
L 113.048144 142.492399 
L 114.975222 161.591377 
L 116.25994 172.234846 
L 117.544658 181.12376 
L 118.829377 188.342655 
L 120.114095 194.066143 
L 121.398813 198.516046 
L 122.683532 201.925752 
L 123.96825 204.514596 
L 125.252968 206.472633 
L 126.537687 207.954398 
L 127.822405 209.07932 
L 129.107123 209.936234 
L 130.391842 210.589704 
L 132.318919 211.287181 
L 134.245997 211.739289 
L 136.815433 212.08721 
L 140.027229 212.280358 
L 143.881384 212.351436 
L 143.881384 212.351436 
" clip-path="url(#pb1a37ab835)" style="fill: none; stroke: #392f62; stroke-width: 1.5625; stroke-linecap: round"/>
   </g>
   <g id="line2d_8">
    <path d="M 23.422185 212.284561 
L 25.651316 212.04421 
L 26.765882 211.763928 
L 27.880448 211.280379 
L 28.995013 210.477721 
L 30.109579 209.196329 
L 31.224145 207.229915 
L 32.33871 204.330972 
L 33.453276 200.228542 
L 34.567842 194.661073 
L 35.682407 187.424256 
L 36.796973 178.429314 
L 37.911538 167.762213 
L 39.583387 149.364017 
L 42.369801 117.937581 
L 43.484367 107.723696 
L 44.598932 100.212345 
L 45.156215 97.689045 
L 45.713498 96.067733 
L 46.270781 95.381628 
L 46.828064 95.64068 
L 47.385346 96.831368 
L 47.942629 98.91747 
L 48.499912 101.841761 
L 49.614478 109.886709 
L 50.729043 120.198671 
L 52.958175 144.057579 
L 54.630023 161.541706 
L 56.301872 176.489228 
L 57.416437 184.579024 
L 58.531003 191.108455 
L 59.645568 196.175339 
L 60.760134 199.957229 
L 61.8747 202.667662 
L 62.989265 204.521714 
L 64.103831 205.712235 
L 65.218397 206.395842 
L 66.332962 206.686647 
L 67.447528 206.655487 
L 68.562094 206.332809 
L 69.676659 205.713877 
L 70.791225 204.765534 
L 71.90579 203.434018 
L 73.020356 201.653537 
L 74.134922 199.35522 
L 75.249487 196.475904 
L 76.364053 192.965883 
L 77.478619 188.794422 
L 78.593184 183.951609 
L 80.265033 175.448318 
L 81.936881 165.502871 
L 83.60873 154.097414 
L 85.280578 141.042953 
L 86.952427 125.967699 
L 88.624275 108.48678 
L 90.296124 88.569719 
L 94.754386 32.960453 
L 95.868952 22.667506 
L 96.426235 18.727831 
L 96.983517 15.740122 
L 97.5408 13.796517 
L 98.098083 12.96963 
L 98.655366 13.309299 
L 99.212649 14.840171 
L 99.769931 17.560263 
L 100.327214 21.440575 
L 100.884497 26.425797 
L 101.999063 39.36967 
L 103.113628 55.512761 
L 105.34276 92.912689 
L 107.571891 129.732472 
L 109.243739 153.036529 
L 110.358305 165.795768 
L 111.472871 176.289788 
L 112.587436 184.687309 
L 113.702002 191.263949 
L 114.816568 196.338093 
L 115.931133 200.221526 
L 117.045699 203.188301 
L 118.160265 205.460732 
L 119.27483 207.208553 
L 120.389396 208.556143 
L 121.503961 209.593127 
L 122.618527 210.384899 
L 124.290376 211.218538 
L 125.962224 211.738879 
L 128.191355 212.113235 
L 130.977769 212.29911 
L 134.321466 212.357427 
L 134.321466 212.357427 
" clip-path="url(#pb1a37ab835)" style="fill: none; stroke: #f7d2d4; stroke-width: 1.5625; stroke-linecap: round"/>
   </g>
   <g id="patch_3">
    <path d="M 9.784615 212.36851 
L 123.696707 212.36851 
" style="fill: none; stroke: #adb5bd; stroke-width: 1.25; stroke-linejoin: miter; stroke-linecap: square"/>
   </g>
  </g>
  <g id="legend_1">
   <g id="line2d_9">
    <path d="M 484.3 174.529687 
L 494.3 174.529687 
L 504.3 174.529687 
" style="fill: none; stroke: #f7d2d4; stroke-width: 1.5625; stroke-linecap: round"/>
   </g>
   <g id="text_4">
    <!-- $\alpha_{1}$ -->
    <g style="fill: #adb5bd" transform="translate(506.8 178.029687) scale(0.1 -0.1)">
     <defs>
      <path id="STIXNonUnicode-Italic-e1d8" d="M 3942 2899 
L 2918 1427 
Q 2931 781 2982 570 
Q 3021 390 3270 390 
L 3245 294 
L 2989 -64 
Q 2650 -64 2528 105 
Q 2406 275 2381 595 
Q 1882 -64 1184 -64 
Q 774 -64 537 214 
Q 301 493 301 960 
Q 301 1709 800 2336 
Q 1299 2963 1946 2963 
Q 2739 2963 2880 2176 
L 3392 2899 
L 3942 2899 
z
M 2406 1715 
Q 2406 2093 2236 2301 
Q 2067 2509 1811 2509 
Q 1478 2509 1145 2109 
Q 813 1709 813 1062 
Q 813 749 953 569 
Q 1094 390 1318 390 
Q 1587 390 1878 652 
Q 2170 915 2381 1434 
Q 2406 1568 2406 1715 
z
" transform="scale(0.015625)"/>
      <path id="STIXGeneral-Regular-1d7e3" d="M 1933 0 
L 1427 0 
L 1427 3648 
Q 1286 3584 1008 3440 
Q 730 3296 691 3277 
L 691 3744 
L 1843 4333 
L 1933 4301 
L 1933 0 
z
" transform="scale(0.015625)"/>
     </defs>
     <use xlink:href="#STIXNonUnicode-Italic-e1d8" transform="translate(0 0.703125)"/>
     <use xlink:href="#STIXGeneral-Regular-1d7e3" transform="translate(59.392686 -12.885937) scale(0.7)"/>
    </g>
   </g>
   <g id="line2d_10">
    <path d="M 536.5 174.529687 
L 546.5 174.529687 
L 556.5 174.529687 
" style="fill: none; stroke: #392f62; stroke-width: 1.5625; stroke-linecap: round"/>
   </g>
   <g id="text_5">
    <!-- $\alpha_{2}$ -->
    <g style="fill: #adb5bd" transform="translate(559 178.029687) scale(0.1 -0.1)">
     <defs>
      <path id="STIXGeneral-Regular-1d7e4" d="M 3002 454 
L 2816 0 
L 224 0 
L 224 134 
L 1344 1504 
L 1344 1498 
L 1702 1933 
Q 1952 2234 2054 2365 
Q 2157 2496 2253 2685 
Q 2349 2874 2349 3040 
Q 2349 3437 2134 3654 
Q 1920 3872 1549 3872 
Q 1254 3872 1008 3629 
Q 762 3386 698 2938 
L 237 3046 
Q 339 3616 716 3971 
Q 1094 4326 1594 4326 
Q 2150 4326 2502 3980 
Q 2854 3635 2854 3142 
Q 2854 2784 2720 2525 
Q 2586 2266 2157 1728 
L 1133 454 
L 3002 454 
z
" transform="scale(0.015625)"/>
     </defs>
     <use xlink:href="#STIXNonUnicode-Italic-e1d8" transform="translate(0 0.703125)"/>
     <use xlink:href="#STIXGeneral-Regular-1d7e4" transform="translate(59.392686 -12.885937) scale(0.7)"/>
    </g>
   </g>
  </g>
 </g>
 <defs>
  <clipPath id="pb1a37ab835">
   <rect x="9.784615" y="3.00024" width="113.912092" height="209.36827"/>
  </clipPath>
 </defs>
</svg>
