<?xml version="1.0" encoding="utf-8" standalone="no"?>
<!DOCTYPE svg PUBLIC "-//W3C//DTD SVG 1.1//EN"
  "http://www.w3.org/Graphics/SVG/1.1/DTD/svg11.dtd">
<svg xmlns:xlink="http://www.w3.org/1999/xlink" width="585pt" height="234pt" viewBox="0 0 585 234" xmlns="http://www.w3.org/2000/svg" version="1.1">
 <metadata>
  <rdf:RDF xmlns:dc="http://purl.org/dc/elements/1.1/" xmlns:cc="http://creativecommons.org/ns#" xmlns:rdf="http://www.w3.org/1999/02/22-rdf-syntax-ns#">
   <cc:Work>
    <dc:type rdf:resource="http://purl.org/dc/dcmitype/StillImage"/>
    <dc:date>2023-06-29T14:16:12.769172</dc:date>
    <dc:format>image/svg+xml</dc:format>
    <dc:creator>
     <cc:Agent>
      <dc:title>Matplotlib v3.7.1, https://matplotlib.org/</dc:title>
     </cc:Agent>
    </dc:creator>
   </cc:Work>
  </rdf:RDF>
 </metadata>
 <defs>
  <style type="text/css">*{stroke-linejoin: round; stroke-linecap: butt}</style>
 </defs>
 <g id="figure_1">
  <g id="patch_1">
   <path d="M 0 234
L 585 234
L 585 0
L 0 0
z
" style="fill: #212529"/>
  </g>
  <g id="axes_1">
   <g id="patch_2">
    <path d="M 8.201959 96.049916
L 111.498041 96.049916
L 111.498041 15.997564
L 8.201959 15.997564
z
" style="fill: #212529"/>
   </g>
   <g id="matplotlib.axis_1">
    <g id="xtick_1">
     <g id="line2d_1">
      <path d="M 8.201959 96.049916
L 8.201959 15.997564
" clip-path="url(#p5b4a865b92)" style="fill: none"/>
     </g>
     <g id="line2d_2">
      <defs>
       <path id="m681ba5d7d5" d="M 0 0
L 0 6.25
" style="stroke: #adb5bd; stroke-width: 1.25"/>
      </defs>
      <g>
       <use xlink:href="#m681ba5d7d5" x="8.201959" y="96.049916" style="fill: #adb5bd; stroke: #adb5bd; stroke-width: 1.25"/>
      </g>
     </g>
     <g id="text_1">
      <text style="fill: #adb5bd; font: 9px 'system-ui', '-apple-system', 'Segoe UI', 'Roboto', 'Helvetica Neue', 'Noto Sans', 'Liberation Sans', 'Arial', sans-serif; text-anchor: middle" x="8.201959" y="112.226479" transform="rotate(-0 8.201959 112.226479)">−1</text>
     </g>
    </g>
    <g id="xtick_2">
     <g id="line2d_3">
      <path d="M 59.85 96.049916
L 59.85 15.997564
" clip-path="url(#p5b4a865b92)" style="fill: none"/>
     </g>
     <g id="line2d_4">
      <g>
       <use xlink:href="#m681ba5d7d5" x="59.85" y="96.049916" style="fill: #adb5bd; stroke: #adb5bd; stroke-width: 1.25"/>
      </g>
     </g>
     <g id="text_2">
      <text style="fill: #adb5bd; font: 9px 'system-ui', '-apple-system', 'Segoe UI', 'Roboto', 'Helvetica Neue', 'Noto Sans', 'Liberation Sans', 'Arial', sans-serif; text-anchor: middle" x="59.85" y="112.226479" transform="rotate(-0 59.85 112.226479)">0</text>
     </g>
    </g>
    <g id="xtick_3">
     <g id="line2d_5">
      <path d="M 111.498041 96.049916
L 111.498041 15.997564
" clip-path="url(#p5b4a865b92)" style="fill: none"/>
     </g>
     <g id="line2d_6">
      <g>
       <use xlink:href="#m681ba5d7d5" x="111.498041" y="96.049916" style="fill: #adb5bd; stroke: #adb5bd; stroke-width: 1.25"/>
      </g>
     </g>
     <g id="text_3">
      <text style="fill: #adb5bd; font: 9px 'system-ui', '-apple-system', 'Segoe UI', 'Roboto', 'Helvetica Neue', 'Noto Sans', 'Liberation Sans', 'Arial', sans-serif; text-anchor: middle" x="111.498041" y="112.226479" transform="rotate(-0 111.498041 112.226479)">1</text>
     </g>
    </g>
   </g>
   <g id="matplotlib.axis_2"/>
   <g id="line2d_7">
    <path d="M 25.430205 96.047385
L 29.058394 95.943905
L 34.863495 95.397084
L 36.31477 94.964942
L 37.766046 94.231896
L 39.217321 93.182226
L 40.668596 91.766737
L 42.119872 89.983428
L 47.199335 83.246556
L 49.376248 80.724045
L 52.641618 76.398547
L 53.367255 75.896063
L 54.092893 75.659166
L 55.544168 75.591665
L 56.269806 75.488118
L 56.995444 75.158235
L 57.721082 74.475993
L 58.446719 73.318066
L 59.172357 71.574432
L 59.897995 69.176271
L 60.986451 64.388974
L 62.437726 56.523483
L 64.251821 46.67256
L 65.703096 39.854172
L 67.154371 33.944438
L 67.880009 31.577689
L 68.605647 29.964855
L 68.968465 29.544286
L 69.331284 29.429989
L 69.694103 29.649668
L 70.056922 30.221121
L 70.419741 31.151061
L 71.145378 34.056846
L 71.871016 38.205211
L 72.959473 46.082919
L 75.499204 65.369298
L 76.587661 71.626923
L 77.676117 76.388778
L 78.764574 80.076638
L 80.215849 84.087954
L 81.667125 87.541695
L 82.755581 89.726581
L 83.844038 91.435278
L 84.932494 92.672074
L 86.020951 93.56742
L 87.472226 94.446543
L 88.923501 95.054443
L 90.374777 95.429726
L 92.914508 95.822634
L 95.45424 96.014656
L 97.631153 96.047169
L 97.631153 96.047169
" clip-path="url(#p5b4a865b92)" style="fill: none; stroke: #392f62; stroke-width: 1.5625; stroke-linecap: round"/>
   </g>
   <g id="line2d_8">
    <path d="M 31.756163 96.046152
L 34.287293 95.922724
L 36.095243 95.572902
L 38.264783 95.148987
L 40.795912 94.900042
L 44.773402 94.907729
L 46.219762 94.820112
L 46.942942 94.608613
L 48.027712 93.982608
L 50.558841 92.17195
L 52.005201 91.296429
L 52.728381 90.642672
L 53.813151 89.277165
L 55.621101 86.443464
L 56.705871 84.421931
L 57.42905 82.690695
L 58.15223 80.46172
L 58.87541 77.582841
L 59.59859 73.911892
L 60.68336 66.790252
L 63.93767 42.55433
L 65.02244 36.568985
L 66.830389 28.036643
L 67.915159 23.48182
L 68.638339 21.171136
L 68.999929 20.391247
L 69.361519 19.925632
L 69.723109 19.809495
L 70.084699 20.064072
L 70.446289 20.694859
L 70.807879 21.69101
L 71.531059 24.660847
L 72.615829 30.868373
L 74.785369 45.647378
L 76.954908 60.012082
L 78.762858 69.931094
L 81.655578 84.572985
L 82.378758 87.307768
L 83.101938 89.402314
L 83.825118 90.908665
L 84.548297 91.931451
L 85.271477 92.59475
L 86.356247 93.198011
L 88.164197 93.849817
L 91.418507 94.90098
L 93.226457 95.556055
L 94.311226 95.727516
L 96.480766 95.758964
L 99.373486 95.843631
L 102.989385 96.042301
L 103.712565 96.047563
L 103.712565 96.047563
" clip-path="url(#p5b4a865b92)" style="fill: none; stroke: #9361ae; stroke-width: 1.5625; stroke-linecap: round"/>
   </g>
   <g id="line2d_9">
    <path d="M 28.738773 96.046074
L 31.665421 95.939957
L 33.128745 95.710652
L 34.59207 95.27823
L 36.421225 94.488636
L 39.347873 93.152437
L 40.445366 92.856798
L 41.542859 92.739988
L 43.372014 92.827132
L 44.835339 92.826066
L 45.567001 92.663821
L 46.298663 92.339457
L 47.030325 91.837066
L 48.127818 90.774023
L 51.054466 87.492249
L 51.786128 86.985821
L 52.883621 86.542712
L 56.541932 85.498323
L 57.273594 85.022246
L 58.005256 84.273199
L 58.736918 83.148182
L 59.46858 81.582096
L 60.200242 79.564205
L 61.297735 75.782842
L 62.76106 69.729836
L 67.151032 49.785416
L 68.980187 39.985655
L 70.07768 34.414534
L 70.809342 31.627896
L 71.541005 29.965603
L 71.906836 29.603894
L 72.272667 29.556096
L 72.638498 29.810146
L 73.004329 30.346836
L 73.735991 32.171915
L 74.467653 34.829509
L 75.565146 39.957473
L 77.760132 52.093564
L 79.223456 59.664611
L 80.320949 64.387173
L 82.150105 70.951187
L 84.345091 79.061465
L 85.808415 84.209955
L 86.905908 87.297567
L 88.003401 89.70898
L 89.100894 91.624225
L 90.198388 93.147851
L 91.295881 94.279496
L 92.393374 95.019365
L 93.490867 95.440604
L 94.954191 95.717937
L 97.880839 95.973247
L 101.53915 96.048044
L 101.53915 96.048044
" clip-path="url(#p5b4a865b92)" style="fill: none; stroke: #cc86c1; stroke-width: 1.5625; stroke-linecap: round"/>
   </g>
   <g id="line2d_10">
    <path d="M 16.870894 96.048013
L 21.510149 95.927086
L 24.462402 95.90456
L 30.366908 96.04802
L 33.740911 95.949882
L 35.427913 95.679967
L 38.380166 94.85228
L 39.645417 94.393241
L 40.488918 93.934075
L 41.332419 93.284724
L 42.59767 91.936468
L 44.284672 89.666448
L 46.393424 86.869579
L 47.658675 85.624176
L 48.923926 84.810346
L 51.876179 83.315497
L 53.141431 82.157214
L 54.828432 80.124282
L 58.202436 75.691371
L 59.045937 74.091514
L 59.889438 71.9747
L 60.732938 69.24295
L 61.99819 64.029562
L 63.685191 55.622322
L 67.902696 33.363199
L 68.746197 30.028859
L 69.589697 27.61056
L 70.011448 26.823283
L 70.433198 26.361164
L 70.854949 26.258039
L 71.276699 26.546929
L 71.69845 27.257683
L 72.1202 28.413776
L 72.54195 30.028519
L 73.385451 34.613807
L 74.228952 40.790589
L 75.915954 55.67494
L 77.181205 66.294109
L 78.024706 72.102336
L 78.868207 76.672183
L 79.711708 80.123855
L 80.555209 82.766185
L 81.82046 85.933702
L 83.085711 88.633068
L 84.350962 90.814448
L 85.194463 91.924009
L 86.459714 93.151008
L 87.724966 94.005205
L 88.990217 94.605016
L 90.677219 95.13996
L 92.36422 95.453069
L 97.003475 95.935837
L 99.955728 96.043285
L 100.799229 96.047801
L 100.799229 96.047801
" clip-path="url(#p5b4a865b92)" style="fill: none; stroke: #eaacc7; stroke-width: 1.5625; stroke-linecap: round"/>
   </g>
   <g id="line2d_11">
    <path d="M 37.612754 96.046714
L 40.309509 95.927844
L 41.508067 95.656796
L 42.406986 95.249147
L 43.305905 94.619603
L 44.504463 93.461912
L 46.00266 91.678301
L 47.201218 89.970211
L 48.399776 87.806279
L 52.29509 80.009975
L 54.392567 76.860844
L 55.591125 75.417111
L 56.490043 74.666716
L 57.688601 73.765655
L 58.287881 73.071122
L 58.88716 72.036806
L 59.486439 70.582911
L 60.385357 67.599247
L 61.583915 62.433042
L 63.082113 54.874536
L 66.677787 35.686137
L 67.277066 33.646913
L 67.876345 32.318285
L 68.475624 31.675354
L 68.775264 31.578548
L 69.374543 31.744873
L 69.973822 32.277961
L 70.573101 33.085878
L 71.472019 34.788873
L 72.071298 36.349508
L 72.670578 38.387021
L 73.269857 41.020109
L 74.168775 46.200559
L 75.367333 54.872067
L 76.865531 65.524861
L 77.764449 70.361018
L 78.663368 73.950349
L 79.861926 77.678731
L 82.259042 84.294506
L 83.4576 87.094113
L 84.656158 89.355659
L 85.555077 90.678744
L 86.453995 91.669976
L 87.352914 92.349123
L 88.551472 92.923428
L 90.349309 93.734979
L 93.944983 95.70833
L 95.143542 95.947536
L 96.941379 96.040686
L 97.241018 96.044164
L 97.241018 96.044164
" clip-path="url(#p5b4a865b92)" style="fill: none; stroke: #f7d2d4; stroke-width: 1.5625; stroke-linecap: round"/>
   </g>
   <g id="patch_3">
    <path d="M 8.201959 96.049916
L 111.498041 96.049916
" style="fill: none; stroke: #adb5bd; stroke-width: 1.25; stroke-linejoin: miter; stroke-linecap: square"/>
   </g>
   <g id="text_4">
    <!-- $\rho=0.1$ -->
    <g style="fill: #adb5bd" transform="translate(45.77625 9.997564)">
     <text>
      <tspan style="font: italic 10.125px 'STIXNonUnicode'" x="0" y="-0.234375"></tspan>
      <tspan style="font: 10.125px 'STIXGeneral'" x="6.937653 15.404175 20.466675 22.997925" y="-0.234375">=𝟢.𝟣</tspan>
     </text>
    </g>
   </g>
  </g>
  <g id="axes_2">
   <g id="patch_4">
    <path d="M 125.201959 96.049916
L 228.498041 96.049916
L 228.498041 15.997564
L 125.201959 15.997564
z
" style="fill: #212529"/>
   </g>
   <g id="matplotlib.axis_3">
    <g id="xtick_4">
     <g id="line2d_12">
      <path d="M 125.201959 96.049916
L 125.201959 15.997564
" clip-path="url(#ped3ceb0438)" style="fill: none"/>
     </g>
     <g id="line2d_13">
      <g>
       <use xlink:href="#m681ba5d7d5" x="125.201959" y="96.049916" style="fill: #adb5bd; stroke: #adb5bd; stroke-width: 1.25"/>
      </g>
     </g>
     <g id="text_5">
      <text style="fill: #adb5bd; font: 9px 'system-ui', '-apple-system', 'Segoe UI', 'Roboto', 'Helvetica Neue', 'Noto Sans', 'Liberation Sans', 'Arial', sans-serif; text-anchor: middle" x="125.201959" y="112.226479" transform="rotate(-0 125.201959 112.226479)">−1</text>
     </g>
    </g>
    <g id="xtick_5">
     <g id="line2d_14">
      <path d="M 176.85 96.049916
L 176.85 15.997564
" clip-path="url(#ped3ceb0438)" style="fill: none"/>
     </g>
     <g id="line2d_15">
      <g>
       <use xlink:href="#m681ba5d7d5" x="176.85" y="96.049916" style="fill: #adb5bd; stroke: #adb5bd; stroke-width: 1.25"/>
      </g>
     </g>
     <g id="text_6">
      <text style="fill: #adb5bd; font: 9px 'system-ui', '-apple-system', 'Segoe UI', 'Roboto', 'Helvetica Neue', 'Noto Sans', 'Liberation Sans', 'Arial', sans-serif; text-anchor: middle" x="176.85" y="112.226479" transform="rotate(-0 176.85 112.226479)">0</text>
     </g>
    </g>
    <g id="xtick_6">
     <g id="line2d_16">
      <path d="M 228.498041 96.049916
L 228.498041 15.997564
" clip-path="url(#ped3ceb0438)" style="fill: none"/>
     </g>
     <g id="line2d_17">
      <g>
       <use xlink:href="#m681ba5d7d5" x="228.498041" y="96.049916" style="fill: #adb5bd; stroke: #adb5bd; stroke-width: 1.25"/>
      </g>
     </g>
     <g id="text_7">
      <text style="fill: #adb5bd; font: 9px 'system-ui', '-apple-system', 'Segoe UI', 'Roboto', 'Helvetica Neue', 'Noto Sans', 'Liberation Sans', 'Arial', sans-serif; text-anchor: middle" x="228.498041" y="112.226479" transform="rotate(-0 228.498041 112.226479)">1</text>
     </g>
    </g>
   </g>
   <g id="matplotlib.axis_4"/>
   <g id="line2d_18">
    <path d="M 133.276949 96.048183
L 138.721281 95.925017
L 145.003204 95.555005
L 146.259588 95.23651
L 147.515973 94.694433
L 150.866331 92.938345
L 152.122716 92.614617
L 154.635485 92.13317
L 155.891869 91.558916
L 157.148254 90.648901
L 158.404638 89.430161
L 160.079818 87.415645
L 163.430176 83.110797
L 165.105356 81.384515
L 166.780535 80.0065
L 168.036919 79.308894
L 168.874509 79.059214
L 170.130894 78.978239
L 173.062457 79.051848
L 173.900047 78.816995
L 174.737637 78.311078
L 175.575226 77.397978
L 176.412816 75.915766
L 177.250406 73.715136
L 178.087995 70.71041
L 178.925585 66.922616
L 180.18197 60.109455
L 183.951123 38.512554
L 185.207507 32.570067
L 186.045097 29.456511
L 186.882687 27.37101
L 187.301482 26.803859
L 187.720276 26.591443
L 188.139071 26.752893
L 188.557866 27.299474
L 188.976661 28.23476
L 189.395456 29.555043
L 190.233045 33.301074
L 191.070635 38.368583
L 192.32702 47.789332
L 194.839789 67.682633
L 196.096173 75.352172
L 196.933763 79.205463
L 197.771352 82.166684
L 198.608942 84.456908
L 199.865327 87.156679
L 201.959301 90.920769
L 203.215685 92.843962
L 204.47207 94.304301
L 205.309659 94.967979
L 206.147249 95.400915
L 207.403634 95.727098
L 209.078813 95.859559
L 216.61712 96.048195
L 216.61712 96.048195
" clip-path="url(#ped3ceb0438)" style="fill: none; stroke: #392f62; stroke-width: 1.5625; stroke-linecap: round"/>
   </g>
   <g id="line2d_19">
    <path d="M 130.011063 96.048028
L 134.746898 95.939023
L 137.760611 95.892634
L 143.357506 95.9796
L 149.384933 95.67725
L 151.107054 95.306462
L 154.551298 94.317309
L 155.412359 93.817305
L 156.27342 93.069931
L 157.565011 91.535412
L 162.731376 84.815595
L 164.453498 82.750219
L 165.745089 81.591134
L 167.897741 79.8125
L 168.758802 78.82146
L 170.050394 76.879203
L 171.772515 73.682575
L 173.494637 70.567814
L 175.216759 68.026823
L 176.50835 65.962609
L 177.369411 64.1492
L 178.230472 61.830582
L 179.091533 58.963932
L 180.383124 53.718853
L 182.105246 45.531314
L 183.827368 37.302698
L 184.688428 33.83788
L 185.549489 31.230067
L 185.98002 30.34033
L 186.41055 29.768933
L 186.841081 29.542141
L 187.271611 29.681618
L 187.702141 30.203887
L 188.132672 31.119124
L 188.563202 32.42922
L 189.424263 36.185772
L 190.285324 41.239937
L 192.437976 56.364074
L 193.729568 64.698746
L 195.021159 71.654328
L 196.31275 77.492676
L 197.604342 82.526625
L 198.895933 86.778625
L 199.756994 89.07446
L 200.618055 90.862394
L 201.479115 92.13809
L 202.340176 92.977424
L 203.201237 93.516442
L 205.353889 94.417228
L 207.937072 95.371402
L 209.659194 95.744264
L 211.811846 95.961972
L 215.256089 96.046575
L 215.68662 96.047995
L 215.68662 96.047995
" clip-path="url(#ped3ceb0438)" style="fill: none; stroke: #9361ae; stroke-width: 1.5625; stroke-linecap: round"/>
   </g>
   <g id="line2d_20">
    <path d="M 140.775422 96.044085
L 144.253423 95.905048
L 145.992423 95.621132
L 148.166173 94.984023
L 154.252674 92.813319
L 155.556924 91.85134
L 157.730674 89.809755
L 159.904424 87.899548
L 162.512925 85.673776
L 163.817175 84.223321
L 165.121425 82.461782
L 168.599425 77.388172
L 169.468925 76.491365
L 170.338426 75.92801
L 171.207926 75.744026
L 172.077426 75.92013
L 172.946926 76.359939
L 174.685926 77.349365
L 175.555426 77.527504
L 176.424926 77.316198
L 177.294426 76.675133
L 178.163926 75.635058
L 179.033426 74.267913
L 180.337677 71.763354
L 181.641927 68.82112
L 182.946177 65.394359
L 184.250427 61.342937
L 185.554677 56.580833
L 187.728427 47.52018
L 189.032677 42.359586
L 189.902178 39.634559
L 190.771678 37.85564
L 191.206428 37.403024
L 191.641178 37.271269
L 192.075928 37.471561
L 192.510678 38.005686
L 192.945428 38.866251
L 193.814928 41.496103
L 194.684428 45.155263
L 195.988678 51.959288
L 199.466679 71.132945
L 200.770929 76.892582
L 202.075179 81.563326
L 203.379429 85.267039
L 204.683679 88.20225
L 205.987929 90.548276
L 207.292179 92.403061
L 208.59643 93.789508
L 209.46593 94.459624
L 210.77018 95.124367
L 212.07443 95.469695
L 213.81343 95.623747
L 220.769431 95.830812
L 224.682181 96.02739
L 227.290681 96.048057
L 227.290681 96.048057
" clip-path="url(#ped3ceb0438)" style="fill: none; stroke: #cc86c1; stroke-width: 1.5625; stroke-linecap: round"/>
   </g>
   <g id="line2d_21">
    <path d="M 137.912515 96.045989
L 141.196021 95.923614
L 143.658651 95.571438
L 145.710842 95.347424
L 147.763034 95.416569
L 150.225663 95.540452
L 151.867416 95.351064
L 153.509169 94.879211
L 155.150922 94.124648
L 156.382237 93.273287
L 157.613552 92.069918
L 158.844866 90.506151
L 160.486619 87.999593
L 162.538811 84.383917
L 164.591002 80.191351
L 166.232755 76.998242
L 167.053632 75.779934
L 168.284946 74.445287
L 169.926699 72.866499
L 171.158014 71.333867
L 172.799767 68.825951
L 174.44152 65.897906
L 175.672835 63.302685
L 177.314588 59.290811
L 178.545903 55.785113
L 179.777217 51.549928
L 183.471162 37.661429
L 184.292038 35.801344
L 185.112915 34.679586
L 185.523353 34.417612
L 185.933791 34.369761
L 186.34423 34.547496
L 186.754668 34.959846
L 187.165106 35.611014
L 187.985983 37.61384
L 188.806859 40.463572
L 190.038174 46.019821
L 191.269489 52.820065
L 192.911242 63.332747
L 194.963433 76.264909
L 196.194748 82.324295
L 197.015624 85.463634
L 197.836501 87.966975
L 198.657377 89.939857
L 199.478254 91.46616
L 200.29913 92.602016
L 201.120007 93.394993
L 201.940883 93.903947
L 203.172198 94.300575
L 210.149648 95.468382
L 213.022716 95.771784
L 217.127099 96.021126
L 219.589728 96.04799
L 219.589728 96.04799
" clip-path="url(#ped3ceb0438)" style="fill: none; stroke: #eaacc7; stroke-width: 1.5625; stroke-linecap: round"/>
   </g>
   <g id="line2d_22">
    <path d="M 147.581282 96.046884
L 150.527157 95.918193
L 152.163754 95.60774
L 154.78231 95.02873
L 157.073546 94.675774
L 158.055504 94.238648
L 159.037463 93.505069
L 160.34674 92.140006
L 163.292616 88.810303
L 164.274574 88.010675
L 165.256532 87.547294
L 165.911171 87.450971
L 167.220449 87.566446
L 168.202407 87.549363
L 168.857046 87.331727
L 169.511685 86.915073
L 170.493644 85.940245
L 171.475602 84.56635
L 172.45756 82.697517
L 173.439519 80.146031
L 174.421477 76.795068
L 175.730755 71.297444
L 178.349311 58.956158
L 179.658588 51.655143
L 183.586422 27.916866
L 184.56838 24.124775
L 185.223019 22.279223
L 185.877658 20.920973
L 186.532297 20.056896
L 186.859616 19.843824
L 187.186936 19.809499
L 187.514255 19.984247
L 187.841575 20.398792
L 188.168894 21.080287
L 188.823533 23.314021
L 189.478172 26.717843
L 190.460131 33.654806
L 194.387964 64.568144
L 196.024561 74.641963
L 197.333839 81.306039
L 198.315797 85.274104
L 199.297756 88.359504
L 200.279714 90.64583
L 201.261673 92.269346
L 202.243631 93.382836
L 203.225589 94.100728
L 204.207548 94.525171
L 208.462701 95.70756
L 210.099298 95.964379
L 212.390534 96.045427
L 212.717854 96.047257
L 212.717854 96.047257
" clip-path="url(#ped3ceb0438)" style="fill: none; stroke: #f7d2d4; stroke-width: 1.5625; stroke-linecap: round"/>
   </g>
   <g id="patch_5">
    <path d="M 125.201959 96.049916
L 228.498041 96.049916
" style="fill: none; stroke: #adb5bd; stroke-width: 1.25; stroke-linejoin: miter; stroke-linecap: square"/>
   </g>
   <g id="text_8">
    <!-- $\rho=0.25$ -->
    <g style="fill: #adb5bd" transform="translate(160.245 9.997564)">
     <text>
      <tspan style="font: italic 10.125px 'STIXNonUnicode'" x="0" y="-0.234375"></tspan>
      <tspan style="font: 10.125px 'STIXGeneral'" x="6.937653 15.404175 20.466675 22.997925 28.060425" y="-0.234375">=𝟢.𝟤𝟧</tspan>
     </text>
    </g>
   </g>
  </g>
  <g id="axes_3">
   <g id="patch_6">
    <path d="M 242.201959 96.049916
L 345.498041 96.049916
L 345.498041 15.997564
L 242.201959 15.997564
z
" style="fill: #212529"/>
   </g>
   <g id="matplotlib.axis_5">
    <g id="xtick_7">
     <g id="line2d_23">
      <path d="M 242.201959 96.049916
L 242.201959 15.997564
" clip-path="url(#p5ef6480092)" style="fill: none"/>
     </g>
     <g id="line2d_24">
      <g>
       <use xlink:href="#m681ba5d7d5" x="242.201959" y="96.049916" style="fill: #adb5bd; stroke: #adb5bd; stroke-width: 1.25"/>
      </g>
     </g>
     <g id="text_9">
      <text style="fill: #adb5bd; font: 9px 'system-ui', '-apple-system', 'Segoe UI', 'Roboto', 'Helvetica Neue', 'Noto Sans', 'Liberation Sans', 'Arial', sans-serif; text-anchor: middle" x="242.201959" y="112.226479" transform="rotate(-0 242.201959 112.226479)">−1</text>
     </g>
    </g>
    <g id="xtick_8">
     <g id="line2d_25">
      <path d="M 293.85 96.049916
L 293.85 15.997564
" clip-path="url(#p5ef6480092)" style="fill: none"/>
     </g>
     <g id="line2d_26">
      <g>
       <use xlink:href="#m681ba5d7d5" x="293.85" y="96.049916" style="fill: #adb5bd; stroke: #adb5bd; stroke-width: 1.25"/>
      </g>
     </g>
     <g id="text_10">
      <text style="fill: #adb5bd; font: 9px 'system-ui', '-apple-system', 'Segoe UI', 'Roboto', 'Helvetica Neue', 'Noto Sans', 'Liberation Sans', 'Arial', sans-serif; text-anchor: middle" x="293.85" y="112.226479" transform="rotate(-0 293.85 112.226479)">0</text>
     </g>
    </g>
    <g id="xtick_9">
     <g id="line2d_27">
      <path d="M 345.498041 96.049916
L 345.498041 15.997564
" clip-path="url(#p5ef6480092)" style="fill: none"/>
     </g>
     <g id="line2d_28">
      <g>
       <use xlink:href="#m681ba5d7d5" x="345.498041" y="96.049916" style="fill: #adb5bd; stroke: #adb5bd; stroke-width: 1.25"/>
      </g>
     </g>
     <g id="text_11">
      <text style="fill: #adb5bd; font: 9px 'system-ui', '-apple-system', 'Segoe UI', 'Roboto', 'Helvetica Neue', 'Noto Sans', 'Liberation Sans', 'Arial', sans-serif; text-anchor: middle" x="345.498041" y="112.226479" transform="rotate(-0 345.498041 112.226479)">1</text>
     </g>
    </g>
   </g>
   <g id="matplotlib.axis_6"/>
   <g id="line2d_29">
    <path d="M 248.693764 96.048387
L 254.241506 95.949388
L 257.228751 95.676823
L 260.215997 95.156424
L 262.776493 94.50799
L 264.056741 94.014555
L 265.336989 93.31459
L 266.617237 92.37695
L 267.897485 91.211831
L 269.177733 89.804836
L 270.457981 88.050967
L 271.73823 85.780677
L 273.018478 82.883656
L 274.725475 78.19461
L 277.712721 69.671001
L 278.992969 66.627461
L 280.273217 64.149059
L 281.126716 62.842919
L 281.980214 61.84979
L 282.833713 61.219532
L 283.687212 61.011352
L 284.113961 61.082094
L 284.540711 61.274954
L 285.394209 62.027297
L 286.247708 63.234869
L 287.527956 65.694799
L 290.515202 71.971844
L 291.3687 73.297931
L 292.222199 74.243114
L 293.075698 74.755296
L 293.502447 74.839257
L 293.929197 74.806085
L 294.782695 74.388854
L 295.636194 73.515014
L 296.489693 72.208293
L 297.343192 70.499972
L 298.62344 67.275043
L 300.330437 62.113835
L 302.037435 56.935975
L 302.890933 54.810535
L 303.744432 53.260628
L 304.171181 52.755054
L 304.597931 52.451496
L 305.02468 52.361978
L 305.45143 52.494237
L 305.878179 52.851485
L 306.304928 53.432303
L 307.158427 55.236028
L 308.011926 57.805126
L 309.292174 62.731293
L 313.132918 78.841299
L 314.413166 82.964936
L 315.693414 86.209399
L 316.973662 88.693377
L 318.253911 90.583678
L 319.534159 92.030274
L 320.814407 93.143717
L 322.094655 93.99997
L 323.801652 94.832852
L 325.50865 95.393876
L 327.215647 95.743461
L 329.349394 95.959914
L 332.763389 96.044196
L 333.616888 96.047495
L 333.616888 96.047495
" clip-path="url(#p5ef6480092)" style="fill: none; stroke: #392f62; stroke-width: 1.5625; stroke-linecap: round"/>
   </g>
   <g id="line2d_30">
    <path d="M 251.520318 96.048389
L 258.00808 95.935078
L 262.062931 95.697339
L 263.684872 95.374906
L 265.306812 94.79438
L 266.928753 93.970862
L 268.956178 92.660884
L 270.172634 91.678886
L 271.389089 90.414683
L 272.200059 89.319789
L 273.01103 87.94755
L 273.822 86.245256
L 275.038455 83.033471
L 276.660396 77.743925
L 279.093306 69.482932
L 280.309762 66.217943
L 281.120732 64.602261
L 281.931702 63.47624
L 282.742672 62.818299
L 283.553643 62.56831
L 284.364613 62.649274
L 285.175583 62.992634
L 285.986553 63.558463
L 286.797524 64.342148
L 287.608494 65.362825
L 288.824949 67.362084
L 292.06883 73.496412
L 292.8798 74.335444
L 293.285285 74.545403
L 293.690771 74.603549
L 294.096256 74.50625
L 294.501741 74.253775
L 295.312711 73.300003
L 296.123681 71.797134
L 296.934651 69.821623
L 298.151107 66.164371
L 300.178532 59.059601
L 301.800473 53.538623
L 303.016928 50.224123
L 303.827898 48.69657
L 304.233384 48.192529
L 304.638869 47.881787
L 305.044354 47.775347
L 305.449839 47.879974
L 305.855324 48.197632
L 306.260809 48.725231
L 307.071779 50.373648
L 307.88275 52.712209
L 309.099205 57.172708
L 311.126631 65.915117
L 314.370511 80.084065
L 315.586967 84.662564
L 316.803422 88.453177
L 317.614392 90.464194
L 318.425363 92.050795
L 319.236333 93.238964
L 320.047303 94.081388
L 320.858273 94.648064
L 322.074729 95.145512
L 323.696669 95.481035
L 326.94055 95.874997
L 329.778946 96.022984
L 332.211857 96.047346
L 332.211857 96.047346
" clip-path="url(#p5ef6480092)" style="fill: none; stroke: #9361ae; stroke-width: 1.5625; stroke-linecap: round"/>
   </g>
   <g id="line2d_31">
    <path d="M 264.763995 96.047169
L 267.644112 95.954926
L 269.08417 95.71235
L 270.164214 95.325285
L 271.244258 94.697186
L 272.324302 93.820732
L 274.844405 91.517423
L 275.564434 91.117338
L 276.284463 90.944824
L 277.004493 90.991866
L 279.88461 91.617706
L 280.604639 91.424133
L 281.684683 90.794626
L 283.124742 89.586063
L 284.5648 88.129132
L 287.804932 84.557403
L 288.524961 84.206219
L 289.244991 84.097598
L 290.685049 84.091216
L 291.405078 83.801655
L 292.125108 83.078365
L 292.845137 81.81465
L 293.565166 79.967351
L 294.285196 77.526886
L 295.36524 72.739569
L 296.445283 66.584464
L 297.885342 56.539076
L 300.04543 40.852276
L 301.125474 34.873913
L 301.845503 31.971399
L 302.565532 29.88714
L 303.285562 28.514922
L 304.005591 27.785542
L 304.365606 27.659592
L 304.72562 27.697845
L 305.085635 27.904519
L 305.44565 28.281711
L 306.165679 29.538356
L 306.885708 31.414433
L 307.965752 35.194783
L 309.405811 41.50375
L 311.565899 51.320493
L 314.446016 63.566042
L 316.246089 73.204668
L 317.686147 80.422539
L 318.766191 84.641483
L 319.846235 87.816241
L 320.926279 90.218809
L 322.006323 92.087241
L 323.086367 93.515974
L 324.166411 94.517003
L 325.246455 95.126179
L 326.326499 95.438339
L 327.766558 95.596129
L 336.406909 96.047792
L 336.406909 96.047792
" clip-path="url(#p5ef6480092)" style="fill: none; stroke: #cc86c1; stroke-width: 1.5625; stroke-linecap: round"/>
   </g>
   <g id="line2d_32">
    <path d="M 265.87598 96.047614
L 269.290775 95.942299
L 272.084698 95.631022
L 273.016005 95.369565
L 273.947313 94.907901
L 275.189056 94.001708
L 276.741235 92.843657
L 277.982979 92.19287
L 279.535158 91.375
L 280.466466 90.611975
L 282.018645 88.932383
L 285.433439 84.864528
L 286.675183 82.853271
L 287.916926 80.355506
L 290.710849 74.371918
L 292.263028 71.182102
L 293.194336 68.630506
L 294.125643 65.356984
L 295.367387 59.979629
L 296.919566 52.149307
L 298.782181 41.610145
L 301.88654 23.312138
L 302.507411 21.155211
L 303.128283 20.00669
L 303.438719 19.809508
L 303.749155 19.845074
L 304.059591 20.092446
L 304.680462 21.132843
L 305.301334 22.776793
L 305.922206 24.946905
L 306.853513 29.22883
L 307.784821 34.949335
L 308.716128 42.184631
L 312.130923 71.162081
L 313.06223 76.344612
L 313.993538 80.279334
L 315.235281 84.533365
L 316.787461 89.054156
L 317.718768 91.23194
L 318.650076 92.908195
L 319.581383 94.097039
L 320.512691 94.871797
L 321.443998 95.341339
L 322.685742 95.690216
L 324.548357 95.948371
L 327.031844 96.043772
L 327.652715 96.047541
L 327.652715 96.047541
" clip-path="url(#p5ef6480092)" style="fill: none; stroke: #eaacc7; stroke-width: 1.5625; stroke-linecap: round"/>
   </g>
   <g id="line2d_33">
    <path d="M 258.682955 96.048057
L 263.209501 95.94334
L 266.60441 95.636045
L 268.113259 95.310288
L 269.622108 94.727203
L 271.130956 93.866161
L 272.262593 93.026105
L 273.394229 91.927235
L 274.148654 90.962823
L 274.903078 89.737769
L 276.034714 87.318528
L 277.166351 84.253092
L 280.938473 73.316144
L 283.578958 66.620837
L 285.087806 63.362289
L 286.219443 61.480585
L 287.351079 60.076713
L 288.482716 59.108152
L 289.614352 58.556102
L 291.500413 57.882072
L 292.254837 57.239545
L 293.009262 56.185293
L 293.763686 54.732481
L 296.404171 49.159886
L 297.158595 48.201056
L 297.91302 47.59304
L 299.044656 47.081975
L 300.553505 46.718509
L 301.307929 46.759557
L 302.062353 47.143493
L 302.816778 48.03639
L 303.571202 49.557441
L 304.325626 51.744884
L 305.457263 56.126574
L 309.229384 72.696145
L 310.738233 77.659127
L 312.624294 82.964965
L 314.133143 86.555798
L 315.264779 88.683778
L 316.396416 90.358071
L 317.905264 92.108626
L 319.036901 93.13693
L 320.168537 93.915474
L 321.677386 94.624447
L 323.563447 95.216345
L 325.449507 95.60337
L 328.089992 95.873929
L 331.862114 96.034765
L 333.748175 96.048066
L 333.748175 96.048066
" clip-path="url(#p5ef6480092)" style="fill: none; stroke: #f7d2d4; stroke-width: 1.5625; stroke-linecap: round"/>
   </g>
   <g id="patch_7">
    <path d="M 242.201959 96.049916
L 345.498041 96.049916
" style="fill: none; stroke: #adb5bd; stroke-width: 1.25; stroke-linejoin: miter; stroke-linecap: square"/>
   </g>
   <g id="text_12">
    <!-- $\rho=0.5$ -->
    <g style="fill: #adb5bd" transform="translate(279.77625 9.997564)">
     <text>
      <tspan style="font: italic 10.125px 'STIXNonUnicode'" x="0" y="-0.234375"></tspan>
      <tspan style="font: 10.125px 'STIXGeneral'" x="6.937653 15.404175 20.466675 22.997925" y="-0.234375">=𝟢.𝟧</tspan>
     </text>
    </g>
   </g>
  </g>
  <g id="axes_4">
   <g id="patch_8">
    <path d="M 359.201959 96.049916
L 462.498041 96.049916
L 462.498041 15.997564
L 359.201959 15.997564
z
" style="fill: #212529"/>
   </g>
   <g id="matplotlib.axis_7">
    <g id="xtick_10">
     <g id="line2d_34">
      <path d="M 359.201959 96.049916
L 359.201959 15.997564
" clip-path="url(#pf19bcca2e2)" style="fill: none"/>
     </g>
     <g id="line2d_35">
      <g>
       <use xlink:href="#m681ba5d7d5" x="359.201959" y="96.049916" style="fill: #adb5bd; stroke: #adb5bd; stroke-width: 1.25"/>
      </g>
     </g>
     <g id="text_13">
      <text style="fill: #adb5bd; font: 9px 'system-ui', '-apple-system', 'Segoe UI', 'Roboto', 'Helvetica Neue', 'Noto Sans', 'Liberation Sans', 'Arial', sans-serif; text-anchor: middle" x="359.201959" y="112.226479" transform="rotate(-0 359.201959 112.226479)">−1</text>
     </g>
    </g>
    <g id="xtick_11">
     <g id="line2d_36">
      <path d="M 410.85 96.049916
L 410.85 15.997564
" clip-path="url(#pf19bcca2e2)" style="fill: none"/>
     </g>
     <g id="line2d_37">
      <g>
       <use xlink:href="#m681ba5d7d5" x="410.85" y="96.049916" style="fill: #adb5bd; stroke: #adb5bd; stroke-width: 1.25"/>
      </g>
     </g>
     <g id="text_14">
      <text style="fill: #adb5bd; font: 9px 'system-ui', '-apple-system', 'Segoe UI', 'Roboto', 'Helvetica Neue', 'Noto Sans', 'Liberation Sans', 'Arial', sans-serif; text-anchor: middle" x="410.85" y="112.226479" transform="rotate(-0 410.85 112.226479)">0</text>
     </g>
    </g>
    <g id="xtick_12">
     <g id="line2d_38">
      <path d="M 462.498041 96.049916
L 462.498041 15.997564
" clip-path="url(#pf19bcca2e2)" style="fill: none"/>
     </g>
     <g id="line2d_39">
      <g>
       <use xlink:href="#m681ba5d7d5" x="462.498041" y="96.049916" style="fill: #adb5bd; stroke: #adb5bd; stroke-width: 1.25"/>
      </g>
     </g>
     <g id="text_15">
      <text style="fill: #adb5bd; font: 9px 'system-ui', '-apple-system', 'Segoe UI', 'Roboto', 'Helvetica Neue', 'Noto Sans', 'Liberation Sans', 'Arial', sans-serif; text-anchor: middle" x="462.498041" y="112.226479" transform="rotate(-0 462.498041 112.226479)">1</text>
     </g>
    </g>
   </g>
   <g id="matplotlib.axis_8"/>
   <g id="line2d_40">
    <path d="M 371.448921 96.048122
L 376.656306 95.924556
L 379.059715 95.649821
L 380.661987 95.247331
L 382.264259 94.56065
L 384.2671 93.38824
L 389.474485 90.152011
L 390.676189 88.928098
L 391.877894 87.21871
L 393.079598 84.975664
L 394.281302 82.250904
L 397.886415 73.395532
L 398.687551 72.073012
L 399.488688 71.254825
L 399.889256 71.050333
L 400.289824 70.982657
L 400.690392 71.047872
L 401.491528 71.548536
L 402.292664 72.477169
L 403.494368 74.449883
L 405.897777 78.742064
L 406.698913 79.671384
L 407.500049 80.111195
L 407.900618 80.121497
L 408.301186 79.985547
L 408.701754 79.70307
L 409.50289 78.713894
L 410.304026 77.210043
L 411.105162 75.270799
L 412.306867 71.695853
L 413.508571 67.37121
L 414.710275 62.100579
L 415.911979 55.53023
L 417.113684 47.459965
L 420.318228 24.285092
L 421.119365 20.983036
L 421.519933 20.109594
L 421.920501 19.809501
L 422.321069 20.097889
L 422.721637 20.967619
L 423.122205 22.39012
L 423.923341 26.688039
L 424.724477 32.457113
L 429.130727 67.474902
L 430.332431 74.635862
L 431.534135 80.550346
L 432.735839 85.263064
L 433.937544 88.820958
L 434.73868 90.595227
L 435.539816 91.944354
L 436.340952 92.932063
L 437.142088 93.634005
L 438.343793 94.322652
L 439.946065 94.894873
L 442.349474 95.481389
L 444.752882 95.828338
L 447.556859 96.003096
L 451.161972 96.048132
L 451.161972 96.048132
" clip-path="url(#pf19bcca2e2)" style="fill: none; stroke: #392f62; stroke-width: 1.5625; stroke-linecap: round"/>
   </g>
   <g id="line2d_41">
    <path d="M 373.23459 96.047978
L 377.734561 95.942773
L 379.780002 95.692208
L 381.416355 95.259562
L 382.643619 94.728574
L 383.870884 93.979725
L 385.098149 92.988659
L 386.325413 91.720952
L 387.552678 90.127673
L 388.779943 88.199635
L 391.234472 83.79176
L 394.507178 77.655865
L 398.59806 69.177816
L 399.416236 68.2033
L 400.234413 67.684333
L 401.052589 67.573868
L 401.870766 67.746179
L 405.961648 69.247454
L 406.779824 69.818506
L 408.825266 71.562669
L 409.234354 71.717477
L 409.643442 71.70723
L 410.05253 71.48966
L 410.461618 71.028773
L 410.870707 70.297631
L 411.688883 67.973746
L 412.50706 64.541715
L 413.734324 57.831378
L 415.779765 45.906367
L 416.597942 42.152354
L 417.416118 39.459246
L 417.825206 38.554773
L 418.234295 37.947995
L 418.643383 37.628985
L 419.052471 37.579466
L 419.461559 37.774518
L 419.870648 38.184638
L 420.688824 39.522945
L 421.507 41.353375
L 422.734265 44.657147
L 423.96153 48.493114
L 425.188794 53.042829
L 426.416059 58.524598
L 428.052412 67.10128
L 430.097853 77.981085
L 431.325118 83.31765
L 432.143294 86.105247
L 432.961471 88.281854
L 433.779647 89.939183
L 434.597824 91.203932
L 435.825088 92.618994
L 437.052353 93.672933
L 438.279618 94.462721
L 439.506882 95.022434
L 441.143235 95.485084
L 443.188676 95.762938
L 446.052294 95.862645
L 454.643146 96.048192
L 454.643146 96.048192
" clip-path="url(#pf19bcca2e2)" style="fill: none; stroke: #9361ae; stroke-width: 1.5625; stroke-linecap: round"/>
   </g>
   <g id="line2d_42">
    <path d="M 367.509526 96.048173
L 373.674376 95.925332
L 377.373286 95.925668
L 380.661206 95.934117
L 382.305166 95.690766
L 383.538136 95.235188
L 384.360116 94.735178
L 385.182097 94.042591
L 386.415067 92.619015
L 387.648037 90.797933
L 390.935957 85.647867
L 392.579917 83.647865
L 397.100807 78.630868
L 397.922787 78.124774
L 398.744767 77.919922
L 399.566747 77.979965
L 402.854667 78.725116
L 404.087638 78.63947
L 406.142588 78.26243
L 406.964568 77.993422
L 407.786548 77.526496
L 408.608528 76.736487
L 409.430508 75.517618
L 410.252488 73.819333
L 411.074468 71.663909
L 412.307438 67.76964
L 414.362388 60.357497
L 416.417338 52.154939
L 418.472288 42.892893
L 420.116248 35.51425
L 420.938228 32.386091
L 421.760208 29.990567
L 422.171199 29.152283
L 422.582189 28.594094
L 422.993179 28.341213
L 423.404169 28.413611
L 423.815159 28.825392
L 424.226149 29.584471
L 424.637139 30.692478
L 425.459119 33.930505
L 426.281099 38.427296
L 427.514069 47.035929
L 430.801989 72.101589
L 432.034959 78.998572
L 432.856939 82.506678
L 433.678919 85.27307
L 434.500899 87.466955
L 435.733869 90.022111
L 436.966839 91.979271
L 438.199809 93.449791
L 439.432779 94.464438
L 440.665749 95.10221
L 441.89872 95.489188
L 443.95367 95.842424
L 446.41961 96.010782
L 449.29654 96.047679
L 449.29654 96.047679
" clip-path="url(#pf19bcca2e2)" style="fill: none; stroke: #cc86c1; stroke-width: 1.5625; stroke-linecap: round"/>
   </g>
   <g id="line2d_43">
    <path d="M 365.852413 96.048244
L 371.865538 95.937947
L 377.878664 95.638632
L 379.883039 95.287597
L 381.887414 94.706982
L 383.490914 94.019205
L 384.693539 93.262643
L 385.896164 92.156206
L 387.098789 90.580262
L 388.301414 88.511923
L 389.904914 85.1938
L 394.314539 75.234582
L 396.318914 70.801819
L 397.120664 69.385379
L 397.922414 68.354628
L 398.724164 67.779857
L 399.525914 67.654226
L 400.327664 67.891266
L 401.53029 68.616863
L 403.13379 69.606396
L 406.34079 71.332714
L 409.146915 73.292495
L 409.948665 73.37827
L 410.34954 73.246381
L 410.750415 72.974849
L 411.15129 72.54907
L 411.95304 71.190408
L 412.75479 69.113815
L 413.55654 66.317299
L 414.759165 60.905216
L 416.362665 52.126643
L 418.36704 41.117674
L 419.16879 37.572452
L 419.97054 34.913482
L 420.371415 33.985865
L 420.77229 33.357261
L 421.173165 33.046645
L 421.57404 33.068924
L 421.974915 33.434255
L 422.37579 34.147193
L 422.776665 35.205765
L 423.578415 38.314197
L 424.380165 42.586551
L 425.58279 50.502571
L 427.988041 67.062036
L 429.190666 73.861121
L 430.393291 79.373676
L 431.595916 83.807158
L 432.798541 87.358401
L 434.001166 90.123342
L 435.203791 92.170129
L 436.406416 93.608675
L 437.609041 94.580997
L 438.811666 95.217303
L 440.014291 95.614968
L 441.617791 95.895001
L 444.023041 96.028864
L 445.626541 96.045973
L 445.626541 96.045973
" clip-path="url(#pf19bcca2e2)" style="fill: none; stroke: #eaacc7; stroke-width: 1.5625; stroke-linecap: round"/>
   </g>
   <g id="line2d_44">
    <path d="M 372.970082 96.047861
L 377.446837 95.925368
L 382.296656 95.45508
L 383.788908 95.18625
L 384.908097 94.807495
L 386.027286 94.223192
L 387.519538 93.159282
L 389.384852 91.496534
L 390.504041 90.259701
L 391.62323 88.694052
L 392.742419 86.661031
L 393.861608 84.101548
L 395.35386 80.01949
L 397.592238 73.146022
L 400.203679 64.32038
L 401.695931 59.438316
L 402.442056 57.433735
L 403.188182 55.939098
L 403.934308 55.081793
L 404.307371 54.912155
L 404.680434 54.914392
L 405.053497 55.080501
L 405.799623 55.845958
L 406.545749 57.050318
L 408.784127 61.114874
L 409.530253 61.812925
L 409.903316 61.906677
L 410.276379 61.798548
L 410.649442 61.470548
L 411.022505 60.910655
L 411.768631 59.082387
L 412.514757 56.366608
L 413.633946 51.056771
L 415.499261 41.75589
L 416.245386 39.005936
L 416.991512 37.257554
L 417.364575 36.800083
L 417.737638 36.622449
L 418.110701 36.714812
L 418.483764 37.060024
L 418.856827 37.635593
L 419.602953 39.373737
L 420.349079 41.719039
L 421.468268 45.98535
L 423.333583 54.218773
L 425.198898 63.441709
L 428.183402 78.67621
L 429.302591 83.197755
L 430.421779 86.575283
L 431.167905 88.225474
L 431.914031 89.485376
L 433.03322 90.857003
L 434.152409 91.866782
L 436.017724 93.223773
L 437.883039 94.356587
L 439.375291 95.056555
L 440.867543 95.542947
L 442.732858 95.880836
L 444.971235 96.022706
L 447.209613 96.047748
L 447.209613 96.047748
" clip-path="url(#pf19bcca2e2)" style="fill: none; stroke: #f7d2d4; stroke-width: 1.5625; stroke-linecap: round"/>
   </g>
   <g id="patch_9">
    <path d="M 359.201959 96.049916
L 462.498041 96.049916
" style="fill: none; stroke: #adb5bd; stroke-width: 1.25; stroke-linejoin: miter; stroke-linecap: square"/>
   </g>
   <g id="text_16">
    <!-- $\rho=0.75$ -->
    <g style="fill: #adb5bd" transform="translate(394.245 9.997564)">
     <text>
      <tspan style="font: italic 10.125px 'STIXNonUnicode'" x="0" y="-0.234375"></tspan>
      <tspan style="font: 10.125px 'STIXGeneral'" x="6.937653 15.404175 20.466675 22.997925 28.060425" y="-0.234375">=𝟢.𝟩𝟧</tspan>
     </text>
    </g>
   </g>
  </g>
  <g id="axes_5">
   <g id="patch_10">
    <path d="M 476.201959 96.049916
L 579.498041 96.049916
L 579.498041 15.997564
L 476.201959 15.997564
z
" style="fill: #212529"/>
   </g>
   <g id="matplotlib.axis_9">
    <g id="xtick_13">
     <g id="line2d_45">
      <path d="M 476.201959 96.049916
L 476.201959 15.997564
" clip-path="url(#pc82c868fc4)" style="fill: none"/>
     </g>
     <g id="line2d_46">
      <g>
       <use xlink:href="#m681ba5d7d5" x="476.201959" y="96.049916" style="fill: #adb5bd; stroke: #adb5bd; stroke-width: 1.25"/>
      </g>
     </g>
     <g id="text_17">
      <text style="fill: #adb5bd; font: 9px 'system-ui', '-apple-system', 'Segoe UI', 'Roboto', 'Helvetica Neue', 'Noto Sans', 'Liberation Sans', 'Arial', sans-serif; text-anchor: middle" x="476.201959" y="112.226479" transform="rotate(-0 476.201959 112.226479)">−1</text>
     </g>
    </g>
    <g id="xtick_14">
     <g id="line2d_47">
      <path d="M 527.85 96.049916
L 527.85 15.997564
" clip-path="url(#pc82c868fc4)" style="fill: none"/>
     </g>
     <g id="line2d_48">
      <g>
       <use xlink:href="#m681ba5d7d5" x="527.85" y="96.049916" style="fill: #adb5bd; stroke: #adb5bd; stroke-width: 1.25"/>
      </g>
     </g>
     <g id="text_18">
      <text style="fill: #adb5bd; font: 9px 'system-ui', '-apple-system', 'Segoe UI', 'Roboto', 'Helvetica Neue', 'Noto Sans', 'Liberation Sans', 'Arial', sans-serif; text-anchor: middle" x="527.85" y="112.226479" transform="rotate(-0 527.85 112.226479)">0</text>
     </g>
    </g>
    <g id="xtick_15">
     <g id="line2d_49">
      <path d="M 579.498041 96.049916
L 579.498041 15.997564
" clip-path="url(#pc82c868fc4)" style="fill: none"/>
     </g>
     <g id="line2d_50">
      <g>
       <use xlink:href="#m681ba5d7d5" x="579.498041" y="96.049916" style="fill: #adb5bd; stroke: #adb5bd; stroke-width: 1.25"/>
      </g>
     </g>
     <g id="text_19">
      <text style="fill: #adb5bd; font: 9px 'system-ui', '-apple-system', 'Segoe UI', 'Roboto', 'Helvetica Neue', 'Noto Sans', 'Liberation Sans', 'Arial', sans-serif; text-anchor: middle" x="579.498041" y="112.226479" transform="rotate(-0 579.498041 112.226479)">1</text>
     </g>
    </g>
   </g>
   <g id="matplotlib.axis_10"/>
   <g id="line2d_51">
    <path d="M 482.796254 96.047698
L 487.671725 95.932022
L 490.109461 95.661426
L 492.140907 95.215188
L 493.766064 94.648098
L 495.797511 93.676307
L 499.860403 91.60077
L 504.329585 89.571801
L 505.548453 88.751205
L 506.767321 87.706037
L 507.986189 86.39123
L 509.205057 84.779504
L 510.830214 82.235132
L 513.674239 77.64579
L 514.893107 76.074788
L 515.705685 75.270096
L 516.518264 74.70922
L 517.330842 74.434401
L 518.143421 74.478026
L 518.956 74.849009
L 519.768578 75.52129
L 520.987446 76.944714
L 523.425182 79.975781
L 524.23776 80.642935
L 525.050339 80.994061
L 525.862917 80.968132
L 526.675496 80.515764
L 527.488075 79.592686
L 528.300653 78.154716
L 529.113232 76.157481
L 529.92581 73.562764
L 530.738389 70.350156
L 531.957257 64.403994
L 533.176124 57.290515
L 537.239017 31.762087
L 538.051596 28.284877
L 538.457885 27.027454
L 538.864174 26.143395
L 539.270464 25.664249
L 539.676753 25.61319
L 540.083042 26.003742
L 540.489332 26.83901
L 540.895621 28.111451
L 541.708199 31.886659
L 542.520778 37.07797
L 543.739646 46.706602
L 546.583671 70.417609
L 547.802539 78.422754
L 548.615117 82.657171
L 549.427696 86.035911
L 550.240274 88.656174
L 551.052853 90.64607
L 551.865431 92.136925
L 552.67801 93.245258
L 553.490589 94.065056
L 554.709456 94.905005
L 555.928324 95.421486
L 557.553481 95.794286
L 559.584928 95.982383
L 563.647821 96.048127
L 563.647821 96.048127
" clip-path="url(#pc82c868fc4)" style="fill: none; stroke: #392f62; stroke-width: 1.5625; stroke-linecap: round"/>
   </g>
   <g id="line2d_52">
    <path d="M 481.303632 96.046223
L 485.594453 95.940341
L 488.598029 95.618804
L 494.176097 94.898506
L 496.75059 94.574316
L 498.466918 94.127093
L 499.754165 93.55376
L 501.041411 92.67773
L 501.899575 91.865484
L 502.75774 90.81568
L 503.615904 89.474357
L 504.474068 87.791855
L 505.761315 84.576438
L 507.048561 80.631181
L 509.623054 72.296564
L 510.481219 70.039762
L 511.339383 68.277069
L 512.197547 67.053554
L 513.055711 66.345422
L 513.913876 66.078527
L 514.77204 66.154055
L 515.630204 66.471717
L 516.917451 67.216732
L 522.495519 71.068808
L 524.64093 72.535539
L 525.499094 72.942746
L 526.357258 73.095592
L 527.215423 72.879244
L 528.073587 72.193858
L 528.931751 70.971258
L 529.789916 69.187292
L 530.64808 66.870632
L 531.935326 62.605616
L 534.509819 53.582192
L 535.367984 51.353203
L 536.226148 49.924095
L 536.65523 49.562628
L 537.084312 49.452762
L 537.513394 49.597901
L 537.942477 49.994146
L 538.371559 50.63046
L 539.229723 52.546924
L 540.087887 55.144122
L 541.804216 61.361139
L 543.520545 67.44676
L 544.807791 71.340821
L 546.095037 74.650475
L 548.240448 79.430435
L 552.102188 87.445213
L 553.389434 89.73457
L 554.676681 91.615873
L 555.963927 93.055962
L 557.251174 94.105299
L 558.53842 94.84808
L 559.825666 95.358068
L 561.541995 95.765826
L 563.687406 95.981851
L 566.690981 96.045314
L 566.690981 96.045314
" clip-path="url(#pc82c868fc4)" style="fill: none; stroke: #9361ae; stroke-width: 1.5625; stroke-linecap: round"/>
   </g>
   <g id="line2d_53">
    <path d="M 497.77017 96.046632
L 501.031141 95.934669
L 502.842791 95.644655
L 504.654441 95.101205
L 506.103761 94.476348
L 507.190751 93.827324
L 508.277741 92.930142
L 509.364731 91.723118
L 510.451721 90.202095
L 511.901041 87.787762
L 515.524342 81.501649
L 516.611332 80.079086
L 517.698322 79.076998
L 518.422982 78.658469
L 519.147642 78.424339
L 520.234632 78.365236
L 521.321622 78.593803
L 522.408612 79.057619
L 524.582592 80.169828
L 525.307252 80.313741
L 526.031912 80.203946
L 526.756572 79.796931
L 527.481232 79.090095
L 528.205892 78.102799
L 528.930552 76.838545
L 529.655212 75.246829
L 530.379872 73.208137
L 531.104532 70.556463
L 531.829193 67.13441
L 532.553853 62.85837
L 533.640843 54.963795
L 536.901813 29.094116
L 537.626473 25.017649
L 538.351133 22.057663
L 539.075793 20.304283
L 539.438123 19.896837
L 539.800453 19.809496
L 540.162783 20.047437
L 540.525113 20.614942
L 540.887443 21.513954
L 541.612103 24.290569
L 542.336763 28.271202
L 543.423753 35.929751
L 546.322393 57.920006
L 547.771713 67.047557
L 549.221034 74.878146
L 550.670354 81.383652
L 551.757344 85.323969
L 552.844334 88.486058
L 553.931324 90.952769
L 555.018314 92.807333
L 556.105304 94.117692
L 557.192294 94.964733
L 558.279284 95.458029
L 559.366274 95.712135
L 561.177924 95.844961
L 569.873845 96.048004
L 569.873845 96.048004
" clip-path="url(#pc82c868fc4)" style="fill: none; stroke: #cc86c1; stroke-width: 1.5625; stroke-linecap: round"/>
   </g>
   <g id="line2d_54">
    <path d="M 490.86289 96.047991
L 495.229326 95.940197
L 497.776414 95.637317
L 499.959633 95.134706
L 501.778981 94.494415
L 503.23446 93.776839
L 504.689939 92.81289
L 506.145418 91.553024
L 507.237027 90.336144
L 508.328636 88.752285
L 509.420246 86.675592
L 510.511855 84.097404
L 514.150552 74.956419
L 515.606031 72.221802
L 517.06151 69.9066
L 518.153119 68.468761
L 518.880858 67.739079
L 519.608598 67.24752
L 520.336337 67.012632
L 521.064077 67.020167
L 521.791816 67.229828
L 522.883425 67.798578
L 524.702774 68.811643
L 525.430513 68.968241
L 526.158253 68.828355
L 526.885992 68.301642
L 527.613732 67.315507
L 528.341471 65.811139
L 529.069211 63.740095
L 529.79695 61.073906
L 530.888559 56.017778
L 534.163387 38.980176
L 534.891126 36.465384
L 535.618866 34.817505
L 535.982735 34.33791
L 536.346605 34.091056
L 536.710475 34.07608
L 537.074345 34.290142
L 537.438214 34.728722
L 538.165954 36.253542
L 538.893693 38.582651
L 539.621433 41.621529
L 540.713042 47.246207
L 542.53239 58.320151
L 544.715609 71.733879
L 545.807218 77.409265
L 546.898827 81.956963
L 547.990436 85.368009
L 549.082045 87.881299
L 550.173655 89.813423
L 551.629134 91.867435
L 553.084612 93.479432
L 554.176222 94.387842
L 555.267831 95.038079
L 556.35944 95.467615
L 557.814919 95.795805
L 559.998137 95.994973
L 563.272965 96.047967
L 563.272965 96.047967
" clip-path="url(#pc82c868fc4)" style="fill: none; stroke: #eaacc7; stroke-width: 1.5625; stroke-linecap: round"/>
   </g>
   <g id="line2d_55">
    <path d="M 491.147809 96.047879
L 495.807305 95.921322
L 499.749955 95.631713
L 500.825224 95.278722
L 501.900492 94.624419
L 502.97576 93.666644
L 504.767874 91.646082
L 506.201565 89.778057
L 507.276833 88.081436
L 508.352102 85.982122
L 509.785793 82.561976
L 511.219484 78.538358
L 512.294752 74.993951
L 513.37002 70.781945
L 514.803711 64.057296
L 516.595825 55.283138
L 517.671093 51.224989
L 518.387939 49.342035
L 519.104785 48.05859
L 519.82163 47.21464
L 520.538476 46.657383
L 521.255321 46.32292
L 521.972167 46.257278
L 522.689012 46.571984
L 523.405858 47.364145
L 524.122703 48.64271
L 525.197972 51.189589
L 526.27324 53.74974
L 526.990085 55.010202
L 527.706931 55.683551
L 528.065354 55.771675
L 528.423776 55.692744
L 528.782199 55.452902
L 529.499045 54.534415
L 530.21589 53.125157
L 531.291159 50.374907
L 533.083272 45.610351
L 533.800118 44.425657
L 534.158541 44.142968
L 534.516963 44.109056
L 534.875386 44.345678
L 535.233809 44.86483
L 535.592232 45.668389
L 536.309077 48.089828
L 537.025923 51.460814
L 538.101191 57.801284
L 541.326996 78.422534
L 542.402264 83.67792
L 543.477533 87.670904
L 544.194378 89.662777
L 544.911224 91.17304
L 545.628069 92.265123
L 546.344915 93.015495
L 547.06176 93.509463
L 548.137029 93.955388
L 554.230216 95.68038
L 556.380752 95.84064
L 562.473939 96.047879
L 562.473939 96.047879
" clip-path="url(#pc82c868fc4)" style="fill: none; stroke: #f7d2d4; stroke-width: 1.5625; stroke-linecap: round"/>
   </g>
   <g id="patch_11">
    <path d="M 476.201959 96.049916
L 579.498041 96.049916
" style="fill: none; stroke: #adb5bd; stroke-width: 1.25; stroke-linejoin: miter; stroke-linecap: square"/>
   </g>
   <g id="text_20">
    <!-- $\rho=1$ -->
    <g style="fill: #adb5bd" transform="translate(517.573125 9.997564)">
     <text>
      <tspan style="font: italic 10.125px 'STIXNonUnicode'" x="0" y="-0.234375"></tspan>
      <tspan style="font: 10.125px 'STIXGeneral'" x="6.937653 15.404175" y="-0.234375">=𝟣</tspan>
     </text>
    </g>
   </g>
  </g>
  <g id="axes_6">
   <g id="patch_12">
    <path d="M 8.201959 213.049916
L 111.498041 213.049916
L 111.498041 132.997564
L 8.201959 132.997564
z
" style="fill: #212529"/>
   </g>
   <g id="matplotlib.axis_11">
    <g id="xtick_16">
     <g id="line2d_56">
      <path d="M 8.201959 213.049916
L 8.201959 132.997564
" clip-path="url(#pb86fc28cc6)" style="fill: none"/>
     </g>
     <g id="line2d_57">
      <g>
       <use xlink:href="#m681ba5d7d5" x="8.201959" y="213.049916" style="fill: #adb5bd; stroke: #adb5bd; stroke-width: 1.25"/>
      </g>
     </g>
     <g id="text_21">
      <text style="fill: #adb5bd; font: 9px 'system-ui', '-apple-system', 'Segoe UI', 'Roboto', 'Helvetica Neue', 'Noto Sans', 'Liberation Sans', 'Arial', sans-serif; text-anchor: middle" x="8.201959" y="229.226479" transform="rotate(-0 8.201959 229.226479)">−1</text>
     </g>
    </g>
    <g id="xtick_17">
     <g id="line2d_58">
      <path d="M 59.85 213.049916
L 59.85 132.997564
" clip-path="url(#pb86fc28cc6)" style="fill: none"/>
     </g>
     <g id="line2d_59">
      <g>
       <use xlink:href="#m681ba5d7d5" x="59.85" y="213.049916" style="fill: #adb5bd; stroke: #adb5bd; stroke-width: 1.25"/>
      </g>
     </g>
     <g id="text_22">
      <text style="fill: #adb5bd; font: 9px 'system-ui', '-apple-system', 'Segoe UI', 'Roboto', 'Helvetica Neue', 'Noto Sans', 'Liberation Sans', 'Arial', sans-serif; text-anchor: middle" x="59.85" y="229.226479" transform="rotate(-0 59.85 229.226479)">0</text>
     </g>
    </g>
    <g id="xtick_18">
     <g id="line2d_60">
      <path d="M 111.498041 213.049916
L 111.498041 132.997564
" clip-path="url(#pb86fc28cc6)" style="fill: none"/>
     </g>
     <g id="line2d_61">
      <g>
       <use xlink:href="#m681ba5d7d5" x="111.498041" y="213.049916" style="fill: #adb5bd; stroke: #adb5bd; stroke-width: 1.25"/>
      </g>
     </g>
     <g id="text_23">
      <text style="fill: #adb5bd; font: 9px 'system-ui', '-apple-system', 'Segoe UI', 'Roboto', 'Helvetica Neue', 'Noto Sans', 'Liberation Sans', 'Arial', sans-serif; text-anchor: middle" x="111.498041" y="229.226479" transform="rotate(-0 111.498041 229.226479)">1</text>
     </g>
    </g>
   </g>
   <g id="matplotlib.axis_12"/>
   <g id="line2d_62">
    <path d="M 13.155328 213.047271
L 18.328668 212.923412
L 20.915338 212.646993
L 22.639785 212.288699
L 23.93312 211.832494
L 25.226455 211.091562
L 26.088678 210.376184
L 26.950901 209.450155
L 28.244236 207.649469
L 29.537571 205.397159
L 31.262018 201.809073
L 32.555353 198.670388
L 33.848688 195.050323
L 35.573134 189.430964
L 40.315363 173.040362
L 41.608697 169.380003
L 42.902032 166.396201
L 43.764256 164.888012
L 44.626479 163.831969
L 45.488702 163.261681
L 45.919814 163.160354
L 46.350926 163.178034
L 47.213149 163.547686
L 48.075372 164.310448
L 48.937596 165.393523
L 50.230931 167.473776
L 51.524266 169.975301
L 53.248712 173.855533
L 56.266494 180.939172
L 57.128717 182.439267
L 57.99094 183.434105
L 58.422052 183.704613
L 58.853164 183.808935
L 59.284275 183.73944
L 59.715387 183.491474
L 60.146499 183.063403
L 61.008722 181.675704
L 61.870945 179.624829
L 62.733169 177.008965
L 64.457615 170.709734
L 66.182062 164.38182
L 67.044285 161.782751
L 67.906508 159.848084
L 68.33762 159.187752
L 68.768732 158.758451
L 69.199843 158.576764
L 69.630955 158.656393
L 70.062067 159.007767
L 70.493178 159.637548
L 70.92429 160.548026
L 71.786513 163.194659
L 72.648737 166.856522
L 73.942072 173.816984
L 77.390965 193.789812
L 78.6843 199.322031
L 79.546523 202.134921
L 80.408746 204.305037
L 81.27097 205.93747
L 82.133193 207.159806
L 83.426528 208.498529
L 85.150975 209.847759
L 87.306533 211.240172
L 89.030979 212.064847
L 90.755426 212.576412
L 92.479873 212.844981
L 95.066543 213.003959
L 98.946547 213.047874
L 98.946547 213.047874
" clip-path="url(#pb86fc28cc6)" style="fill: none; stroke: #392f62; stroke-width: 1.5625; stroke-linecap: round"/>
   </g>
   <g id="line2d_63">
    <path d="M 15.86826 213.047506
L 20.848021 212.924211
L 24.167861 212.840072
L 31.222522 212.947827
L 34.127383 212.711283
L 35.372323 212.463429
L 36.202283 212.134878
L 37.032243 211.568068
L 37.862204 210.647095
L 38.692164 209.250149
L 39.522124 207.27113
L 40.352084 204.648037
L 41.597024 199.560949
L 45.331845 182.254926
L 46.161805 179.553401
L 46.991765 177.487319
L 47.821725 175.964215
L 48.651685 174.857947
L 49.481645 174.069502
L 50.311606 173.55721
L 51.141566 173.326061
L 51.971526 173.392385
L 52.801486 173.752477
L 53.631446 174.371702
L 54.876386 175.640106
L 56.536307 177.361296
L 57.366267 177.847232
L 57.781247 177.910992
L 58.196227 177.82865
L 58.611207 177.58705
L 59.026187 177.179795
L 59.856147 175.876532
L 60.686107 173.988225
L 61.931048 170.305444
L 63.175988 165.850053
L 64.835908 158.851782
L 68.570729 142.129442
L 69.400689 139.58049
L 70.230649 137.825411
L 70.645629 137.26568
L 71.060609 136.92489
L 71.475589 136.809484
L 71.890569 136.929032
L 72.305549 137.29736
L 72.720529 137.93264
L 73.135509 138.856233
L 73.965469 141.65446
L 74.79543 145.816119
L 75.62539 151.312464
L 76.87033 161.479273
L 79.77519 186.327433
L 81.020131 194.641514
L 81.850091 199.081037
L 82.680051 202.675918
L 83.510011 205.517467
L 84.339971 207.71933
L 85.169931 209.391955
L 85.999891 210.627953
L 86.829852 211.502377
L 87.659812 212.082253
L 88.489772 212.435108
L 89.734712 212.688319
L 92.639573 212.876004
L 97.619333 213.04384
L 98.449294 213.047506
L 98.449294 213.047506
" clip-path="url(#pb86fc28cc6)" style="fill: none; stroke: #9361ae; stroke-width: 1.5625; stroke-linecap: round"/>
   </g>
   <g id="line2d_64">
    <path d="M 17.986251 213.047816
L 23.577561 212.934303
L 26.588266 212.689096
L 28.308669 212.338931
L 29.598971 211.82925
L 30.889274 211.020334
L 32.179576 209.905331
L 33.899979 208.085161
L 36.910684 204.555438
L 38.200987 202.710165
L 39.061188 201.158111
L 39.92139 199.228436
L 40.781591 196.852728
L 42.071893 192.457532
L 45.9428 177.668918
L 46.803002 175.370114
L 47.663203 173.787761
L 48.093304 173.279404
L 48.523405 172.954157
L 48.953506 172.799312
L 49.383606 172.795562
L 50.243808 173.136929
L 53.254513 174.999694
L 54.544816 175.25356
L 55.835118 175.473227
L 56.695319 175.780633
L 57.985622 176.522495
L 59.275924 177.321271
L 60.136126 177.617793
L 60.566226 177.624607
L 60.996327 177.506072
L 61.426428 177.241004
L 61.856529 176.811238
L 62.71673 175.407146
L 63.576932 173.252123
L 64.437133 170.414107
L 65.727435 165.28954
L 67.877939 156.67786
L 68.738141 153.899594
L 69.598342 151.693983
L 70.458544 150.092085
L 71.318745 149.102338
L 71.748846 148.844716
L 72.178947 148.754928
L 72.609048 148.844246
L 73.039148 149.126619
L 73.469249 149.617591
L 73.89935 150.332799
L 74.759552 152.488292
L 75.619753 155.653234
L 76.479955 159.787359
L 77.770257 167.428916
L 81.211063 189.218627
L 82.501365 195.48311
L 83.791668 200.280682
L 85.08197 203.86379
L 86.372272 206.564365
L 87.662574 208.624591
L 88.952877 210.171671
L 90.243179 211.27412
L 91.533481 211.996698
L 92.823784 212.423856
L 94.544187 212.705853
L 97.984993 212.938321
L 102.716101 213.045061
L 103.576303 213.047818
L 103.576303 213.047818
" clip-path="url(#pb86fc28cc6)" style="fill: none; stroke: #cc86c1; stroke-width: 1.5625; stroke-linecap: round"/>
   </g>
   <g id="line2d_65">
    <path d="M 24.167435 213.046787
L 27.86351 212.93427
L 29.711547 212.659886
L 31.189977 212.222437
L 32.668407 211.538444
L 34.146837 210.573924
L 35.255659 209.632308
L 36.364482 208.440081
L 37.473304 206.894534
L 38.582127 204.866185
L 39.690949 202.246023
L 40.799771 199.018872
L 45.235061 185.005206
L 46.713491 181.656163
L 48.931136 177.248609
L 50.409566 174.735023
L 51.518388 173.288314
L 52.627211 172.295672
L 53.366426 171.895691
L 54.105641 171.712534
L 54.844856 171.753528
L 55.584071 172.013046
L 56.692893 172.713325
L 57.801716 173.457575
L 58.540931 173.696966
L 58.910538 173.666669
L 59.280146 173.505471
L 59.649753 173.193249
L 60.388968 172.054217
L 61.128183 170.174278
L 61.867398 167.562807
L 62.97622 162.500917
L 66.672295 143.724234
L 67.41151 141.062721
L 68.150725 139.106103
L 68.88994 137.971354
L 69.259548 137.744979
L 69.629155 137.75983
L 69.998763 138.022625
L 70.36837 138.536132
L 71.107585 140.303196
L 71.8468 142.989162
L 72.955623 148.430218
L 74.434052 157.418993
L 79.23895 188.469591
L 80.347772 194.091494
L 81.456595 198.782738
L 82.565417 202.588158
L 83.67424 205.584879
L 84.783062 207.84977
L 85.891884 209.474651
L 87.000707 210.5847
L 88.109529 211.326065
L 89.587959 211.96926
L 91.435997 212.494407
L 93.653642 212.872853
L 95.871286 213.018041
L 97.719324 213.045326
L 97.719324 213.045326
" clip-path="url(#pb86fc28cc6)" style="fill: none; stroke: #eaacc7; stroke-width: 1.5625; stroke-linecap: round"/>
   </g>
   <g id="line2d_66">
    <path d="M 17.218622 213.047314
L 21.774702 212.917515
L 24.812089 212.816142
L 28.229149 212.779798
L 29.36817 212.547697
L 30.886863 211.984287
L 33.544577 210.675565
L 35.06327 209.782143
L 36.20229 208.865628
L 37.341311 207.584726
L 38.480331 205.826738
L 39.619351 203.49183
L 40.758371 200.457004
L 41.897391 196.635388
L 43.416085 190.575968
L 45.314451 182.934451
L 46.833145 177.841439
L 48.731512 172.583353
L 50.629879 167.196371
L 52.528246 161.763877
L 53.287592 160.101767
L 54.046939 158.906489
L 54.806286 158.160182
L 55.565633 157.762603
L 56.704653 157.520738
L 57.843673 157.304299
L 58.60302 156.977377
L 59.362366 156.394223
L 60.121713 155.503817
L 60.88106 154.312098
L 62.02008 152.100859
L 65.816814 144.2815
L 66.57616 143.289493
L 66.955834 142.995301
L 67.335507 142.869851
L 67.715181 142.934724
L 68.094854 143.206355
L 68.474527 143.695415
L 69.233874 145.342282
L 69.993221 147.873005
L 70.752568 151.256415
L 71.891588 157.813133
L 73.410281 168.564103
L 75.308648 182.080649
L 76.447668 188.800768
L 77.586688 194.367053
L 79.105382 200.473694
L 80.244402 204.218094
L 81.383422 207.185244
L 82.522442 209.349046
L 83.281789 210.387142
L 84.041136 211.158569
L 85.180156 211.938602
L 86.319176 212.415391
L 87.83787 212.777049
L 89.736236 212.979522
L 92.773623 213.047092
L 92.773623 213.047092
" clip-path="url(#pb86fc28cc6)" style="fill: none; stroke: #f7d2d4; stroke-width: 1.5625; stroke-linecap: round"/>
   </g>
   <g id="patch_13">
    <path d="M 8.201959 213.049916
L 111.498041 213.049916
" style="fill: none; stroke: #adb5bd; stroke-width: 1.25; stroke-linejoin: miter; stroke-linecap: square"/>
   </g>
   <g id="text_24">
    <!-- $\rho=1.25$ -->
    <g style="fill: #adb5bd" transform="translate(43.245 126.997564)">
     <text>
      <tspan style="font: italic 10.125px 'STIXNonUnicode'" x="0" y="-0.234375"></tspan>
      <tspan style="font: 10.125px 'STIXGeneral'" x="6.937653 15.404175 20.466675 22.997925 28.060425" y="-0.234375">=𝟣.𝟤𝟧</tspan>
     </text>
    </g>
   </g>
  </g>
  <g id="axes_7">
   <g id="patch_14">
    <path d="M 125.201959 213.049916
L 228.498041 213.049916
L 228.498041 132.997564
L 125.201959 132.997564
z
" style="fill: #212529"/>
   </g>
   <g id="matplotlib.axis_13">
    <g id="xtick_19">
     <g id="line2d_67">
      <path d="M 125.201959 213.049916
L 125.201959 132.997564
" clip-path="url(#pe891eeb2e5)" style="fill: none"/>
     </g>
     <g id="line2d_68">
      <g>
       <use xlink:href="#m681ba5d7d5" x="125.201959" y="213.049916" style="fill: #adb5bd; stroke: #adb5bd; stroke-width: 1.25"/>
      </g>
     </g>
     <g id="text_25">
      <text style="fill: #adb5bd; font: 9px 'system-ui', '-apple-system', 'Segoe UI', 'Roboto', 'Helvetica Neue', 'Noto Sans', 'Liberation Sans', 'Arial', sans-serif; text-anchor: middle" x="125.201959" y="229.226479" transform="rotate(-0 125.201959 229.226479)">−1</text>
     </g>
    </g>
    <g id="xtick_20">
     <g id="line2d_69">
      <path d="M 176.85 213.049916
L 176.85 132.997564
" clip-path="url(#pe891eeb2e5)" style="fill: none"/>
     </g>
     <g id="line2d_70">
      <g>
       <use xlink:href="#m681ba5d7d5" x="176.85" y="213.049916" style="fill: #adb5bd; stroke: #adb5bd; stroke-width: 1.25"/>
      </g>
     </g>
     <g id="text_26">
      <text style="fill: #adb5bd; font: 9px 'system-ui', '-apple-system', 'Segoe UI', 'Roboto', 'Helvetica Neue', 'Noto Sans', 'Liberation Sans', 'Arial', sans-serif; text-anchor: middle" x="176.85" y="229.226479" transform="rotate(-0 176.85 229.226479)">0</text>
     </g>
    </g>
    <g id="xtick_21">
     <g id="line2d_71">
      <path d="M 228.498041 213.049916
L 228.498041 132.997564
" clip-path="url(#pe891eeb2e5)" style="fill: none"/>
     </g>
     <g id="line2d_72">
      <g>
       <use xlink:href="#m681ba5d7d5" x="228.498041" y="213.049916" style="fill: #adb5bd; stroke: #adb5bd; stroke-width: 1.25"/>
      </g>
     </g>
     <g id="text_27">
      <text style="fill: #adb5bd; font: 9px 'system-ui', '-apple-system', 'Segoe UI', 'Roboto', 'Helvetica Neue', 'Noto Sans', 'Liberation Sans', 'Arial', sans-serif; text-anchor: middle" x="228.498041" y="229.226479" transform="rotate(-0 228.498041 229.226479)">1</text>
     </g>
    </g>
   </g>
   <g id="matplotlib.axis_14"/>
   <g id="line2d_73">
    <path d="M 124.963619 213.04855
L 131.126998 212.942422
L 134.208688 212.684893
L 137.730619 212.141891
L 143.013515 211.167503
L 144.334239 210.71986
L 145.654963 210.056321
L 146.975687 209.136609
L 148.296411 207.95431
L 150.057376 206.008128
L 152.258583 203.13515
L 161.06341 191.069107
L 162.384134 189.650515
L 163.704858 188.592628
L 165.025582 187.90413
L 166.346306 187.48733
L 167.66703 187.262084
L 168.987754 187.28254
L 169.868237 187.512589
L 170.74872 187.968244
L 171.629202 188.659265
L 172.949926 190.0365
L 174.710892 191.919247
L 175.591374 192.536686
L 176.031616 192.695345
L 176.471857 192.730776
L 176.912098 192.628113
L 177.35234 192.374829
L 177.792581 191.960889
L 178.673064 190.623991
L 179.553547 188.591698
L 180.434029 185.890737
L 181.754753 180.816373
L 184.396201 170.063876
L 185.276684 167.605334
L 185.716925 166.78462
L 186.157167 166.275801
L 186.597408 166.096453
L 187.037649 166.25351
L 187.477891 166.743215
L 187.918132 167.551678
L 188.798615 170.025606
L 189.679098 173.412167
L 191.440063 181.621409
L 193.201028 189.817146
L 194.521752 195.118749
L 195.842476 199.532999
L 197.1632 203.131681
L 198.483924 206.008083
L 199.804649 208.225193
L 201.125373 209.853288
L 202.446097 211.00044
L 203.766821 211.790571
L 205.087545 212.324488
L 206.84851 212.750107
L 209.049717 212.977378
L 212.571648 213.046767
L 212.571648 213.046767
" clip-path="url(#pe891eeb2e5)" style="fill: none; stroke: #392f62; stroke-width: 1.5625; stroke-linecap: round"/>
   </g>
   <g id="line2d_74">
    <path d="M 134.917635 213.048406
L 141.601421 212.924405
L 145.139896 212.751548
L 146.319387 212.499512
L 147.498879 211.979073
L 148.285206 211.423494
L 149.071534 210.662328
L 149.857862 209.66545
L 150.64419 208.405258
L 151.823681 205.968681
L 153.003173 202.823175
L 154.182664 198.938919
L 155.362156 194.324782
L 156.934811 187.190936
L 159.686958 174.14362
L 160.86645 169.755451
L 161.652778 167.628285
L 162.439105 166.226673
L 162.832269 165.797447
L 163.225433 165.539134
L 163.618597 165.438509
L 164.011761 165.478658
L 164.798088 165.901186
L 165.584416 166.6388
L 167.550235 168.993966
L 169.122891 171.115507
L 170.302382 173.150032
L 171.481874 175.871397
L 172.661366 179.329624
L 175.413513 187.924242
L 176.19984 189.701309
L 176.986168 190.981763
L 177.772496 191.796766
L 178.558823 192.24092
L 179.345151 192.43036
L 180.524643 192.443069
L 182.097298 192.175043
L 183.669954 191.6378
L 185.242609 191.066752
L 186.028937 190.957265
L 186.815264 191.086313
L 187.601592 191.51823
L 188.38792 192.273209
L 189.174248 193.323681
L 190.353739 195.3103
L 193.49905 201.408373
L 195.464869 204.968963
L 197.037525 207.382635
L 198.61018 209.316242
L 199.789672 210.454066
L 200.969163 211.328007
L 202.148655 211.945191
L 203.328147 212.341254
L 204.900802 212.640712
L 207.652949 212.90863
L 211.191424 213.037023
L 213.157243 213.048186
L 213.157243 213.048186
" clip-path="url(#pe891eeb2e5)" style="fill: none; stroke: #9361ae; stroke-width: 1.5625; stroke-linecap: round"/>
   </g>
   <g id="line2d_75">
    <path d="M 139.719814 213.048064
L 144.644401 212.927153
L 146.917287 212.649645
L 149.190173 212.123354
L 150.705431 211.578709
L 151.841874 210.985673
L 152.978317 210.142598
L 154.11476 208.975996
L 155.251203 207.45906
L 156.766461 204.946787
L 158.660533 201.230828
L 162.448676 193.535924
L 163.585119 191.832536
L 164.342748 190.993699
L 165.100377 190.414276
L 165.858006 190.095379
L 166.615634 190.025298
L 167.373263 190.183201
L 168.130892 190.543015
L 169.267335 191.400847
L 170.403778 192.56085
L 172.29785 194.891042
L 173.813108 196.646977
L 174.570736 197.262933
L 175.328365 197.574006
L 176.085994 197.493388
L 176.843623 196.956705
L 177.601251 195.927394
L 178.35888 194.397387
L 179.116509 192.386566
L 180.252952 188.584078
L 181.768209 182.542262
L 184.041096 173.448615
L 185.177539 169.632066
L 186.313982 166.500559
L 187.071611 164.84099
L 187.829239 163.59029
L 188.586868 162.837074
L 188.965683 162.678259
L 189.344497 162.680078
L 189.723311 162.8516
L 190.102126 163.198794
L 190.859754 164.424854
L 191.617383 166.325729
L 192.375012 168.806747
L 193.511455 173.308983
L 198.436042 194.24505
L 199.951299 199.33928
L 201.087743 202.450695
L 202.224186 204.962238
L 203.360629 206.969986
L 204.497072 208.591669
L 205.633515 209.91041
L 206.769958 210.961744
L 207.906401 211.757502
L 209.042844 212.315083
L 210.558102 212.752507
L 212.452174 212.977231
L 215.103874 213.04432
L 215.103874 213.04432
" clip-path="url(#pe891eeb2e5)" style="fill: none; stroke: #cc86c1; stroke-width: 1.5625; stroke-linecap: round"/>
   </g>
   <g id="line2d_76">
    <path d="M 142.078428 213.047821
L 146.183594 212.920621
L 148.578275 212.87397
L 152.683441 212.951614
L 154.05183 212.709857
L 155.420219 212.222373
L 157.814899 211.29803
L 159.525385 210.640721
L 160.551677 209.925491
L 161.577968 208.851151
L 163.288454 206.54119
L 165.683135 203.018425
L 166.709426 200.830545
L 167.735718 197.996481
L 169.446204 193.173726
L 170.472496 191.112052
L 171.15669 190.184231
L 171.840884 189.569816
L 172.525079 189.231524
L 173.209273 189.147374
L 173.893468 189.278993
L 175.261857 189.68279
L 175.603954 189.655505
L 175.946051 189.514996
L 176.288148 189.23466
L 176.972343 188.178913
L 177.656537 186.40495
L 178.340731 183.920156
L 179.367023 178.990785
L 180.393315 172.875444
L 182.787995 156.502413
L 184.498481 145.517125
L 185.524773 140.26621
L 186.208967 137.895135
L 186.551064 137.173741
L 186.893161 136.809516
L 187.235259 136.828967
L 187.577356 137.249535
L 187.919453 138.079286
L 188.603647 140.954304
L 189.287842 145.35008
L 190.314133 154.267221
L 193.393008 184.450899
L 194.4193 191.836353
L 195.445591 197.601015
L 196.471883 201.983714
L 197.498175 205.206249
L 198.524466 207.547545
L 199.550758 209.277625
L 200.577049 210.570194
L 201.603341 211.510523
L 202.629633 212.143801
L 203.655924 212.523858
L 205.024313 212.784944
L 207.418993 212.993085
L 210.155771 213.047813
L 210.155771 213.047813
" clip-path="url(#pe891eeb2e5)" style="fill: none; stroke: #eaacc7; stroke-width: 1.5625; stroke-linecap: round"/>
   </g>
   <g id="line2d_77">
    <path d="M 139.623936 213.048156
L 144.867156 212.925187
L 149.735861 212.63616
L 150.859409 212.305947
L 151.982956 211.776266
L 153.106503 211.033351
L 154.230051 210.043224
L 155.353598 208.739557
L 156.477145 207.041031
L 157.600693 204.852057
L 158.72424 202.027749
L 159.847787 198.363659
L 160.971334 193.702248
L 162.469397 186.173185
L 164.341976 176.653623
L 165.465524 172.28701
L 166.214555 170.305942
L 166.963587 169.14844
L 167.338102 168.872924
L 167.712618 168.786391
L 168.087134 168.873599
L 168.46165 169.116003
L 169.210681 169.981014
L 170.334229 171.881849
L 172.206807 175.192002
L 173.330355 176.618241
L 174.453902 177.56304
L 175.577449 178.13693
L 176.326481 178.293395
L 177.075512 178.197549
L 177.824544 177.789491
L 178.573575 177.055827
L 179.697123 175.484615
L 181.195186 173.252048
L 181.944217 172.441415
L 182.693249 171.993121
L 183.44228 171.957154
L 184.191312 172.338114
L 184.940344 173.115769
L 185.689375 174.26215
L 186.438407 175.752166
L 187.561954 178.602064
L 188.685501 182.191265
L 189.809048 186.493797
L 193.554206 201.88129
L 194.677753 205.244034
L 195.801301 207.775304
L 196.924848 209.59369
L 198.048395 210.844733
L 199.171943 211.652645
L 200.29549 212.134023
L 201.793553 212.4831
L 204.040648 212.767237
L 206.662258 212.864755
L 214.152573 213.048156
L 214.152573 213.048156
" clip-path="url(#pe891eeb2e5)" style="fill: none; stroke: #f7d2d4; stroke-width: 1.5625; stroke-linecap: round"/>
   </g>
   <g id="patch_15">
    <path d="M 125.201959 213.049916
L 228.498041 213.049916
" style="fill: none; stroke: #adb5bd; stroke-width: 1.25; stroke-linejoin: miter; stroke-linecap: square"/>
   </g>
   <g id="text_28">
    <!-- $\rho=1.5$ -->
    <g style="fill: #adb5bd" transform="translate(162.77625 126.997564)">
     <text>
      <tspan style="font: italic 10.125px 'STIXNonUnicode'" x="0" y="-0.234375"></tspan>
      <tspan style="font: 10.125px 'STIXGeneral'" x="6.937653 15.404175 20.466675 22.997925" y="-0.234375">=𝟣.𝟧</tspan>
     </text>
    </g>
   </g>
  </g>
  <g id="axes_8">
   <g id="patch_16">
    <path d="M 242.201959 213.049916
L 345.498041 213.049916
L 345.498041 132.997564
L 242.201959 132.997564
z
" style="fill: #212529"/>
   </g>
   <g id="matplotlib.axis_15">
    <g id="xtick_22">
     <g id="line2d_78">
      <path d="M 242.201959 213.049916
L 242.201959 132.997564
" clip-path="url(#p83148561ba)" style="fill: none"/>
     </g>
     <g id="line2d_79">
      <g>
       <use xlink:href="#m681ba5d7d5" x="242.201959" y="213.049916" style="fill: #adb5bd; stroke: #adb5bd; stroke-width: 1.25"/>
      </g>
     </g>
     <g id="text_29">
      <text style="fill: #adb5bd; font: 9px 'system-ui', '-apple-system', 'Segoe UI', 'Roboto', 'Helvetica Neue', 'Noto Sans', 'Liberation Sans', 'Arial', sans-serif; text-anchor: middle" x="242.201959" y="229.226479" transform="rotate(-0 242.201959 229.226479)">−1</text>
     </g>
    </g>
    <g id="xtick_23">
     <g id="line2d_80">
      <path d="M 293.85 213.049916
L 293.85 132.997564
" clip-path="url(#p83148561ba)" style="fill: none"/>
     </g>
     <g id="line2d_81">
      <g>
       <use xlink:href="#m681ba5d7d5" x="293.85" y="213.049916" style="fill: #adb5bd; stroke: #adb5bd; stroke-width: 1.25"/>
      </g>
     </g>
     <g id="text_30">
      <text style="fill: #adb5bd; font: 9px 'system-ui', '-apple-system', 'Segoe UI', 'Roboto', 'Helvetica Neue', 'Noto Sans', 'Liberation Sans', 'Arial', sans-serif; text-anchor: middle" x="293.85" y="229.226479" transform="rotate(-0 293.85 229.226479)">0</text>
     </g>
    </g>
    <g id="xtick_24">
     <g id="line2d_82">
      <path d="M 345.498041 213.049916
L 345.498041 132.997564
" clip-path="url(#p83148561ba)" style="fill: none"/>
     </g>
     <g id="line2d_83">
      <g>
       <use xlink:href="#m681ba5d7d5" x="345.498041" y="213.049916" style="fill: #adb5bd; stroke: #adb5bd; stroke-width: 1.25"/>
      </g>
     </g>
     <g id="text_31">
      <text style="fill: #adb5bd; font: 9px 'system-ui', '-apple-system', 'Segoe UI', 'Roboto', 'Helvetica Neue', 'Noto Sans', 'Liberation Sans', 'Arial', sans-serif; text-anchor: middle" x="345.498041" y="229.226479" transform="rotate(-0 345.498041 229.226479)">1</text>
     </g>
    </g>
   </g>
   <g id="matplotlib.axis_16"/>
   <g id="line2d_84">
    <path d="M 251.9785 213.04614
L 255.771477 212.93171
L 257.878686 212.665129
L 260.407337 212.111696
L 263.357431 211.229117
L 265.46464 210.336889
L 267.150407 209.365506
L 269.257617 207.858513
L 271.786268 205.816574
L 273.050594 204.535962
L 274.314919 202.93108
L 277.265012 198.843185
L 278.529338 197.608033
L 279.793664 196.757844
L 281.900873 195.738255
L 283.58664 195.093953
L 284.850966 194.811278
L 286.115292 194.787658
L 287.379617 195.001488
L 289.486827 195.407078
L 290.32971 195.353051
L 291.172594 195.061568
L 292.015478 194.477747
L 292.858362 193.547984
L 293.701245 192.188908
L 294.544129 190.259683
L 295.387013 187.563852
L 296.229897 183.895942
L 297.07278 179.122771
L 298.337106 169.995026
L 301.287199 146.114939
L 302.130083 141.158201
L 302.972967 137.968871
L 303.394409 137.127522
L 303.81585 136.809505
L 304.237292 137.012766
L 304.658734 137.721332
L 305.080176 138.906424
L 305.92306 142.537857
L 306.765944 147.496849
L 308.451711 159.527976
L 310.55892 174.517677
L 311.823246 182.188887
L 313.087572 188.753776
L 314.773339 196.134007
L 316.037665 200.78218
L 317.30199 204.616248
L 318.566316 207.563281
L 319.4092 209.040972
L 320.252083 210.166901
L 321.094967 210.993179
L 321.937851 211.580086
L 323.202177 212.139965
L 324.887944 212.530117
L 327.416595 212.783191
L 332.89534 213.024385
L 335.845433 213.048172
L 335.845433 213.048172
" clip-path="url(#p83148561ba)" style="fill: none; stroke: #392f62; stroke-width: 1.5625; stroke-linecap: round"/>
   </g>
   <g id="line2d_85">
    <path d="M 246.229447 213.048324
L 252.896286 212.925363
L 259.563125 212.536189
L 261.646512 212.151398
L 263.313222 211.647108
L 264.979931 210.888028
L 266.229964 210.051119
L 267.479996 208.871438
L 268.313351 207.83683
L 269.146706 206.560494
L 269.980061 205.004453
L 271.230093 202.073106
L 272.480125 198.379557
L 273.730157 193.996119
L 278.730287 175.408661
L 279.563642 173.231599
L 280.396996 171.610462
L 281.230351 170.634318
L 281.647029 170.40745
L 282.063706 170.35975
L 282.480384 170.491193
L 282.897061 170.798601
L 283.730416 171.913584
L 284.563771 173.623283
L 285.813803 177.048211
L 287.89719 183.901465
L 289.5639 189.134362
L 290.813932 192.222583
L 291.647287 193.680891
L 292.480642 194.562638
L 292.89732 194.767617
L 293.313997 194.807364
L 293.730674 194.677625
L 294.147352 194.375676
L 294.564029 193.900461
L 295.397384 192.435163
L 296.230739 190.311118
L 297.064094 187.589624
L 298.314126 182.599864
L 302.064223 166.338921
L 302.897578 163.940067
L 303.314255 163.090483
L 303.730933 162.504254
L 304.14761 162.196735
L 304.564288 162.176417
L 304.980965 162.444416
L 305.397643 162.994382
L 305.81432 163.812846
L 306.647675 166.170929
L 307.48103 169.307382
L 308.731062 174.93972
L 312.897837 194.632189
L 314.147869 199.49203
L 315.397901 203.467845
L 316.647933 206.507017
L 317.481288 208.05779
L 318.314643 209.288673
L 319.564675 210.65843
L 320.814708 211.598872
L 322.06474 212.226109
L 323.314772 212.621326
L 324.981482 212.898336
L 327.481547 213.029165
L 329.148257 213.045918
L 329.148257 213.045918
" clip-path="url(#p83148561ba)" style="fill: none; stroke: #9361ae; stroke-width: 1.5625; stroke-linecap: round"/>
   </g>
   <g id="line2d_86">
    <path d="M 260.059179 213.047724
L 263.83458 212.948032
L 265.72228 212.66905
L 266.8549 212.322223
L 267.98752 211.785031
L 269.12014 211.041078
L 271.00784 209.460445
L 278.1811 202.94057
L 279.31372 201.357844
L 280.44634 199.277458
L 283.089121 193.984132
L 283.844201 192.929085
L 284.599281 192.156406
L 285.731901 191.376736
L 286.864521 190.870579
L 287.619601 190.696927
L 288.374681 190.739087
L 289.129761 191.071315
L 289.884841 191.705836
L 292.150081 194.075978
L 292.527621 194.236583
L 292.905161 194.251886
L 293.282701 194.101108
L 293.660241 193.769536
L 294.037781 193.248553
L 294.792861 191.630531
L 295.547941 189.268925
L 296.303021 186.218281
L 297.435641 180.481363
L 298.568261 173.568958
L 302.343662 149.129581
L 303.476282 143.754402
L 304.231362 140.965472
L 304.986442 138.922617
L 305.363982 138.236787
L 305.741522 137.814623
L 306.119062 137.689144
L 306.496602 137.892125
L 306.874142 138.4505
L 307.251682 139.382849
L 308.006762 142.385613
L 308.761842 146.799014
L 309.894462 155.37399
L 313.292322 183.065641
L 314.802482 192.789089
L 315.935102 198.675299
L 317.067722 203.289106
L 317.822802 205.671471
L 318.577882 207.551234
L 319.332962 209.000886
L 320.088042 210.103022
L 321.220663 211.271468
L 322.353283 212.028304
L 323.485903 212.491752
L 324.618523 212.737012
L 326.506223 212.853433
L 332.546863 213.022621
L 335.189643 213.047989
L 335.189643 213.047989
" clip-path="url(#p83148561ba)" style="fill: none; stroke: #cc86c1; stroke-width: 1.5625; stroke-linecap: round"/>
   </g>
   <g id="line2d_87">
    <path d="M 246.496749 213.048157
L 251.960002 212.940566
L 257.423255 212.775068
L 261.065423 212.678276
L 262.431236 212.431332
L 263.797049 211.907939
L 264.707591 211.349936
L 266.073404 210.165733
L 267.439218 208.611651
L 269.260302 206.093988
L 270.626115 203.822189
L 271.991928 201.039544
L 273.357741 197.570737
L 274.723554 193.238791
L 276.089368 187.789684
L 277.455181 181.076547
L 280.186807 166.693565
L 281.097349 163.307431
L 281.55262 162.128794
L 282.007891 161.325501
L 282.463162 160.89903
L 282.918433 160.833824
L 283.373704 161.100393
L 283.828975 161.659588
L 284.739517 163.47921
L 285.65006 165.955577
L 287.015873 170.361159
L 291.113312 184.378468
L 292.023854 186.758442
L 292.934396 188.486171
L 293.389667 189.054233
L 293.844938 189.403187
L 294.300209 189.520799
L 294.755481 189.398463
L 295.210752 189.031317
L 295.666023 188.418389
L 296.576565 186.472596
L 297.487107 183.646671
L 298.85292 178.193474
L 300.674004 170.561087
L 301.584546 167.673824
L 302.039817 166.671283
L 302.495088 166.021951
L 302.950359 165.753344
L 303.40563 165.877221
L 303.860901 166.389225
L 304.316173 167.269976
L 305.226715 170.000583
L 306.137257 173.726116
L 307.50307 180.38437
L 310.689967 196.491295
L 312.05578 202.170041
L 312.966322 205.171569
L 313.876865 207.475486
L 314.787407 209.120159
L 315.697949 210.21696
L 316.608491 210.915082
L 317.974304 211.531678
L 320.250659 212.177433
L 322.982286 212.744259
L 324.80337 212.906593
L 327.990267 212.897422
L 331.632435 212.954509
L 337.095688 213.04818
L 337.095688 213.04818
" clip-path="url(#p83148561ba)" style="fill: none; stroke: #eaacc7; stroke-width: 1.5625; stroke-linecap: round"/>
   </g>
   <g id="line2d_88">
    <path d="M 264.584176 213.047087
L 267.759644 212.931667
L 269.491717 212.626255
L 270.646432 212.199505
L 271.512469 211.653148
L 272.378506 210.784312
L 273.244542 209.457333
L 274.110579 207.544657
L 274.976616 204.924331
L 275.842652 201.458904
L 276.708689 197.008336
L 277.574726 191.513454
L 279.01812 180.539389
L 280.750193 167.321367
L 281.61623 162.059719
L 282.482267 158.057338
L 283.348303 155.18797
L 284.21434 153.202634
L 284.791698 152.286973
L 285.369056 151.69019
L 285.946413 151.435906
L 286.523771 151.55596
L 287.101129 152.07524
L 287.678487 153.002134
L 288.255844 154.322813
L 289.121881 156.944918
L 290.853954 163.3913
L 292.00867 167.379128
L 292.874707 169.697368
L 293.452064 170.803295
L 294.029422 171.488377
L 294.60678 171.702867
L 294.895459 171.625716
L 295.472817 171.11427
L 296.050174 170.1908
L 298.359605 165.779488
L 298.648284 165.563749
L 298.936963 165.48732
L 299.225642 165.556836
L 299.514321 165.772836
L 300.091679 166.616995
L 300.669036 167.916394
L 301.823752 171.268274
L 304.133183 178.764726
L 305.287899 183.502119
L 306.731293 190.649076
L 308.463366 199.243852
L 309.618082 203.883388
L 310.484119 206.572972
L 311.350155 208.621209
L 312.216192 210.128114
L 313.082229 211.197024
L 313.948265 211.913346
L 314.814302 212.356545
L 315.969017 212.67054
L 317.98977 212.913557
L 320.876558 213.039141
L 322.031274 213.047601
L 322.031274 213.047601
" clip-path="url(#p83148561ba)" style="fill: none; stroke: #f7d2d4; stroke-width: 1.5625; stroke-linecap: round"/>
   </g>
   <g id="patch_17">
    <path d="M 242.201959 213.049916
L 345.498041 213.049916
" style="fill: none; stroke: #adb5bd; stroke-width: 1.25; stroke-linejoin: miter; stroke-linecap: square"/>
   </g>
   <g id="text_32">
    <!-- $\rho=1.75$ -->
    <g style="fill: #adb5bd" transform="translate(277.245 126.997564)">
     <text>
      <tspan style="font: italic 10.125px 'STIXNonUnicode'" x="0" y="-0.234375"></tspan>
      <tspan style="font: 10.125px 'STIXGeneral'" x="6.937653 15.404175 20.466675 22.997925 28.060425" y="-0.234375">=𝟣.𝟩𝟧</tspan>
     </text>
    </g>
   </g>
  </g>
  <g id="axes_9">
   <g id="patch_18">
    <path d="M 359.201959 213.049916
L 462.498041 213.049916
L 462.498041 132.997564
L 359.201959 132.997564
z
" style="fill: #212529"/>
   </g>
   <g id="matplotlib.axis_17">
    <g id="xtick_25">
     <g id="line2d_89">
      <path d="M 359.201959 213.049916
L 359.201959 132.997564
" clip-path="url(#peb54cdce08)" style="fill: none"/>
     </g>
     <g id="line2d_90">
      <g>
       <use xlink:href="#m681ba5d7d5" x="359.201959" y="213.049916" style="fill: #adb5bd; stroke: #adb5bd; stroke-width: 1.25"/>
      </g>
     </g>
     <g id="text_33">
      <text style="fill: #adb5bd; font: 9px 'system-ui', '-apple-system', 'Segoe UI', 'Roboto', 'Helvetica Neue', 'Noto Sans', 'Liberation Sans', 'Arial', sans-serif; text-anchor: middle" x="359.201959" y="229.226479" transform="rotate(-0 359.201959 229.226479)">−1</text>
     </g>
    </g>
    <g id="xtick_26">
     <g id="line2d_91">
      <path d="M 410.85 213.049916
L 410.85 132.997564
" clip-path="url(#peb54cdce08)" style="fill: none"/>
     </g>
     <g id="line2d_92">
      <g>
       <use xlink:href="#m681ba5d7d5" x="410.85" y="213.049916" style="fill: #adb5bd; stroke: #adb5bd; stroke-width: 1.25"/>
      </g>
     </g>
     <g id="text_34">
      <text style="fill: #adb5bd; font: 9px 'system-ui', '-apple-system', 'Segoe UI', 'Roboto', 'Helvetica Neue', 'Noto Sans', 'Liberation Sans', 'Arial', sans-serif; text-anchor: middle" x="410.85" y="229.226479" transform="rotate(-0 410.85 229.226479)">0</text>
     </g>
    </g>
    <g id="xtick_27">
     <g id="line2d_93">
      <path d="M 462.498041 213.049916
L 462.498041 132.997564
" clip-path="url(#peb54cdce08)" style="fill: none"/>
     </g>
     <g id="line2d_94">
      <g>
       <use xlink:href="#m681ba5d7d5" x="462.498041" y="213.049916" style="fill: #adb5bd; stroke: #adb5bd; stroke-width: 1.25"/>
      </g>
     </g>
     <g id="text_35">
      <text style="fill: #adb5bd; font: 9px 'system-ui', '-apple-system', 'Segoe UI', 'Roboto', 'Helvetica Neue', 'Noto Sans', 'Liberation Sans', 'Arial', sans-serif; text-anchor: middle" x="462.498041" y="229.226479" transform="rotate(-0 462.498041 229.226479)">1</text>
     </g>
    </g>
   </g>
   <g id="matplotlib.axis_18"/>
   <g id="line2d_95">
    <path d="M 363.316901 213.04725
L 368.468139 212.938413
L 371.473028 212.636127
L 374.048647 212.14588
L 375.765726 211.617553
L 377.053536 210.98812
L 377.912076 210.379058
L 378.770615 209.557043
L 379.629155 208.468207
L 380.487695 207.065545
L 381.346235 205.316489
L 382.634044 202.025917
L 383.921854 198.014743
L 386.497473 188.85524
L 388.214552 183.04744
L 389.502362 179.321333
L 390.790171 176.225088
L 392.077981 173.715115
L 393.365791 171.739731
L 394.22433 170.723922
L 395.08287 169.975131
L 395.94141 169.526564
L 396.799949 169.410157
L 397.658489 169.645368
L 398.517029 170.229769
L 399.375569 171.134436
L 400.663378 172.972033
L 402.380458 175.972927
L 405.385347 181.826705
L 407.960966 186.810606
L 408.819505 188.102144
L 409.678045 188.98698
L 410.107315 189.235248
L 410.536585 189.335882
L 410.965855 189.279045
L 411.395125 189.058641
L 411.824394 188.672666
L 412.682934 187.417309
L 413.541474 185.580765
L 414.829283 182.024327
L 417.834172 173.138032
L 418.692712 171.222615
L 419.551252 169.803688
L 420.409792 168.932975
L 420.839061 168.708712
L 421.268331 168.624165
L 421.697601 168.676744
L 422.126871 168.862868
L 422.985411 169.618695
L 423.84395 170.856328
L 424.70249 172.542534
L 425.56103 174.647012
L 426.848839 178.513069
L 428.565919 184.699609
L 432.000078 197.649571
L 433.287887 201.623745
L 434.575697 204.830482
L 435.863506 207.298569
L 437.151316 209.140646
L 438.439126 210.487721
L 439.726935 211.450898
L 441.014745 212.114122
L 442.302554 212.544165
L 444.019634 212.857711
L 446.165983 213.006185
L 448.741602 213.045162
L 448.741602 213.045162
" clip-path="url(#peb54cdce08)" style="fill: none; stroke: #392f62; stroke-width: 1.5625; stroke-linecap: round"/>
   </g>
   <g id="line2d_96">
    <path d="M 365.680492 213.047447
L 370.677524 212.922536
L 376.923815 212.391654
L 379.005912 212.069509
L 380.25517 211.694667
L 381.504428 211.101056
L 382.753687 210.21415
L 384.002945 208.953466
L 385.252203 207.233345
L 386.501461 204.971461
L 387.750719 202.116973
L 388.999977 198.698251
L 391.082074 192.209161
L 393.164171 185.940348
L 394.413429 182.88661
L 395.246268 181.274215
L 396.079107 180.029204
L 396.911945 179.151993
L 397.744784 178.629177
L 398.577623 178.441302
L 399.410462 178.569285
L 400.243301 178.997871
L 401.076139 179.714399
L 401.908978 180.701426
L 403.158236 182.603535
L 405.656752 186.734969
L 406.489591 187.689115
L 407.32243 188.20812
L 407.738849 188.27976
L 408.155269 188.219745
L 408.571688 188.027005
L 409.404527 187.2497
L 410.237366 185.971227
L 411.070204 184.216771
L 411.903043 181.997881
L 412.735882 179.307142
L 413.98514 174.336529
L 415.234398 168.191824
L 416.900076 158.404181
L 418.982173 145.683703
L 419.815011 141.509237
L 420.64785 138.465821
L 421.06427 137.487659
L 421.480689 136.925329
L 421.897108 136.809481
L 422.313528 137.161382
L 422.729947 137.991745
L 423.146366 139.299962
L 423.979205 143.289525
L 424.812044 148.899017
L 426.061302 159.483784
L 428.976238 185.720748
L 430.225496 194.408634
L 431.058335 198.914708
L 431.891173 202.443911
L 432.724012 205.127946
L 433.556851 207.131049
L 434.38969 208.615878
L 435.222529 209.721433
L 436.055367 210.553725
L 437.304625 211.444834
L 438.553884 212.037546
L 440.219561 212.521401
L 442.301658 212.836855
L 445.216594 213.010827
L 448.547949 213.047826
L 448.547949 213.047826
" clip-path="url(#peb54cdce08)" style="fill: none; stroke: #9361ae; stroke-width: 1.5625; stroke-linecap: round"/>
   </g>
   <g id="line2d_97">
    <path d="M 371.542855 213.045872
L 375.505334 212.929999
L 377.882821 212.643655
L 380.656556 212.098923
L 382.241548 211.605068
L 383.430292 210.947569
L 384.222787 210.271269
L 385.015283 209.344017
L 385.807779 208.12871
L 386.996523 205.735628
L 388.185266 202.70534
L 389.770258 197.94118
L 395.713976 179.134223
L 397.298968 175.001704
L 398.487711 172.452943
L 399.676455 170.420749
L 400.865199 168.871488
L 402.053942 167.747382
L 403.242686 167.023297
L 404.035182 166.772051
L 404.827678 166.714411
L 405.620173 166.846715
L 406.808917 167.360702
L 407.997661 168.174428
L 409.582652 169.596801
L 411.96014 171.895738
L 412.752635 172.385371
L 413.545131 172.550337
L 414.337627 172.315775
L 415.130123 171.678545
L 415.922618 170.720632
L 418.300106 167.584893
L 419.092601 167.010475
L 419.885097 166.838704
L 420.677593 167.08402
L 421.470089 167.721111
L 422.262585 168.705063
L 423.05508 169.988552
L 424.243824 172.398092
L 425.432568 175.345958
L 426.621311 178.836482
L 428.206303 184.250258
L 430.980038 194.095785
L 432.168782 197.589451
L 433.357525 200.420983
L 434.546269 202.676445
L 436.131261 205.072494
L 437.716252 207.055383
L 439.697492 209.143087
L 441.282483 210.51334
L 442.867475 211.588048
L 444.452466 212.334488
L 446.037458 212.764656
L 448.018697 212.985321
L 450.396185 213.04361
L 450.396185 213.04361
" clip-path="url(#peb54cdce08)" style="fill: none; stroke: #cc86c1; stroke-width: 1.5625; stroke-linecap: round"/>
   </g>
   <g id="line2d_98">
    <path d="M 378.628472 213.047598
L 382.835354 212.93818
L 384.588222 212.719948
L 385.990516 212.318628
L 387.042237 211.739266
L 387.743384 211.133057
L 388.444531 210.277502
L 389.145678 209.0977
L 389.846825 207.512904
L 390.547972 205.446916
L 391.249119 202.844796
L 392.30084 197.920842
L 393.703134 189.821436
L 396.858296 170.71613
L 397.910017 165.567326
L 398.961737 161.469297
L 400.013458 158.481125
L 401.065179 156.426774
L 402.116899 155.015542
L 402.818046 154.357272
L 403.519193 153.971808
L 403.869767 153.914784
L 404.22034 153.97093
L 404.570914 154.15768
L 404.921488 154.4908
L 405.622635 155.641447
L 406.323782 157.460386
L 407.375502 161.272613
L 409.829517 171.171248
L 410.530664 172.959873
L 410.881238 173.532708
L 411.231811 173.870607
L 411.582385 173.966878
L 411.932959 173.822341
L 412.283532 173.4455
L 412.984679 172.066487
L 413.685826 170.04015
L 416.139841 162.225621
L 416.840988 160.887971
L 417.542135 160.187962
L 417.892709 160.073001
L 418.243282 160.10449
L 418.593856 160.271902
L 419.295003 160.969096
L 419.99615 162.078891
L 421.047871 164.376203
L 422.099591 167.317372
L 423.501886 172.110034
L 425.254753 179.18181
L 428.409915 192.324125
L 429.812209 197.100135
L 430.86393 200.006542
L 431.915651 202.399263
L 433.317945 205.039969
L 435.070813 207.812707
L 436.473107 209.632755
L 437.524827 210.700027
L 438.576548 211.492168
L 439.628269 212.038809
L 441.030563 212.490446
L 442.783431 212.800875
L 445.237445 212.996305
L 448.392607 213.04754
L 448.392607 213.04754
" clip-path="url(#peb54cdce08)" style="fill: none; stroke: #eaacc7; stroke-width: 1.5625; stroke-linecap: round"/>
   </g>
   <g id="line2d_99">
    <path d="M 376.423761 213.047174
L 380.049289 212.932904
L 382.026851 212.639215
L 383.674818 212.170139
L 384.993193 211.580923
L 385.981973 210.946753
L 386.970754 210.085636
L 387.959534 208.951839
L 388.948315 207.527309
L 390.266689 205.207705
L 391.585063 202.449222
L 392.573844 199.999832
L 393.562625 197.026562
L 394.551405 193.378021
L 396.199373 186.110158
L 397.847341 179.096826
L 398.836121 175.882525
L 399.824902 173.601194
L 400.813682 172.092269
L 401.802463 171.095208
L 402.791244 170.442025
L 403.780024 170.116225
L 404.768805 170.127709
L 406.746366 170.38562
L 407.405553 170.112796
L 408.06474 169.450961
L 408.723927 168.311895
L 409.383114 166.649671
L 410.042301 164.464387
L 411.031082 160.316145
L 412.67905 151.988881
L 413.997424 145.541424
L 414.986204 141.894743
L 415.645392 140.371559
L 415.974985 139.924851
L 416.304579 139.695233
L 416.634172 139.681606
L 416.963766 139.878268
L 417.293359 140.275782
L 417.952546 141.623298
L 418.611733 143.613841
L 419.600514 147.567761
L 420.918888 154.142341
L 423.226043 167.276552
L 427.181165 189.794341
L 428.49954 195.754301
L 429.48832 199.306978
L 430.477101 202.13612
L 431.465881 204.372272
L 432.784256 206.710285
L 434.432223 209.089769
L 435.750597 210.698092
L 436.739378 211.646109
L 437.728159 212.312801
L 438.716939 212.713793
L 440.035313 212.956617
L 442.012875 213.041889
L 442.012875 213.041889
" clip-path="url(#peb54cdce08)" style="fill: none; stroke: #f7d2d4; stroke-width: 1.5625; stroke-linecap: round"/>
   </g>
   <g id="patch_19">
    <path d="M 359.201959 213.049916
L 462.498041 213.049916
" style="fill: none; stroke: #adb5bd; stroke-width: 1.25; stroke-linejoin: miter; stroke-linecap: square"/>
   </g>
   <g id="text_36">
    <!-- $\rho=2$ -->
    <g style="fill: #adb5bd" transform="translate(400.573125 126.997564)">
     <text>
      <tspan style="font: italic 10.125px 'STIXNonUnicode'" x="0" y="-0.234375"></tspan>
      <tspan style="font: 10.125px 'STIXGeneral'" x="6.937653 15.404175" y="-0.234375">=𝟤</tspan>
     </text>
    </g>
   </g>
  </g>
  <g id="legend_1">
   <g id="line2d_100">
    <path d="M 488.52 161.976797
L 497.52 161.976797
L 506.52 161.976797
" style="fill: none; stroke: #f7d2d4; stroke-width: 1.5625; stroke-linecap: round"/>
   </g>
   <g id="text_37">
    <!-- $\alpha_{1}$ -->
    <g style="fill: #adb5bd" transform="translate(508.77 165.126797)">
     <text>
      <tspan style="font: italic 9px 'STIXNonUnicode'" x="0" y="-0.828125"></tspan>
      <tspan style="font: 6.3px 'STIXGeneral'" x="5.345369" y="0.3953125000000002">𝟣</tspan>
     </text>
    </g>
   </g>
   <g id="line2d_101">
    <path d="M 488.52 174.676641
L 497.52 174.676641
L 506.52 174.676641
" style="fill: none; stroke: #eaacc7; stroke-width: 1.5625; stroke-linecap: round"/>
   </g>
   <g id="text_38">
    <!-- $\alpha_{2}$ -->
    <g style="fill: #adb5bd" transform="translate(508.77 177.826641)">
     <text>
      <tspan style="font: italic 9px 'STIXNonUnicode'" x="0" y="-0.828125"></tspan>
      <tspan style="font: 6.3px 'STIXGeneral'" x="5.345369" y="0.3953125000000002">𝟤</tspan>
     </text>
    </g>
   </g>
   <g id="line2d_102">
    <path d="M 488.52 187.376484
L 497.52 187.376484
L 506.52 187.376484
" style="fill: none; stroke: #cc86c1; stroke-width: 1.5625; stroke-linecap: round"/>
   </g>
   <g id="text_39">
    <!-- $\alpha_{3}$ -->
    <g style="fill: #adb5bd" transform="translate(508.77 190.526484)">
     <text>
      <tspan style="font: italic 9px 'STIXNonUnicode'" x="0" y="-0.828125"></tspan>
      <tspan style="font: 6.3px 'STIXGeneral'" x="5.345369" y="0.3953125000000002">𝟥</tspan>
     </text>
    </g>
   </g>
   <g id="line2d_103">
    <path d="M 535.5 161.976797
L 544.5 161.976797
L 553.5 161.976797
" style="fill: none; stroke: #9361ae; stroke-width: 1.5625; stroke-linecap: round"/>
   </g>
   <g id="text_40">
    <!-- $\alpha_{4}$ -->
    <g style="fill: #adb5bd" transform="translate(555.75 165.126797)">
     <text>
      <tspan style="font: italic 9px 'STIXNonUnicode'" x="0" y="-0.828125"></tspan>
      <tspan style="font: 6.3px 'STIXGeneral'" x="5.345369" y="0.3953125000000002">𝟦</tspan>
     </text>
    </g>
   </g>
   <g id="line2d_104">
    <path d="M 535.5 174.676641
L 544.5 174.676641
L 553.5 174.676641
" style="fill: none; stroke: #392f62; stroke-width: 1.5625; stroke-linecap: round"/>
   </g>
   <g id="text_41">
    <!-- $\alpha_{5}$ -->
    <g style="fill: #adb5bd" transform="translate(555.75 177.826641)">
     <text>
      <tspan style="font: italic 9px 'STIXNonUnicode'" x="0" y="-0.828125"></tspan>
      <tspan style="font: 6.3px 'STIXGeneral'" x="5.345369" y="0.3953125000000002">𝟧</tspan>
     </text>
    </g>
   </g>
  </g>
 </g>
 <defs>
  <clipPath id="p5b4a865b92">
   <rect x="8.201959" y="15.997564" width="103.296082" height="80.052352"/>
  </clipPath>
  <clipPath id="ped3ceb0438">
   <rect x="125.201959" y="15.997564" width="103.296082" height="80.052352"/>
  </clipPath>
  <clipPath id="p5ef6480092">
   <rect x="242.201959" y="15.997564" width="103.296082" height="80.052352"/>
  </clipPath>
  <clipPath id="pf19bcca2e2">
   <rect x="359.201959" y="15.997564" width="103.296083" height="80.052352"/>
  </clipPath>
  <clipPath id="pc82c868fc4">
   <rect x="476.201959" y="15.997564" width="103.296083" height="80.052352"/>
  </clipPath>
  <clipPath id="pb86fc28cc6">
   <rect x="8.201959" y="132.997564" width="103.296082" height="80.052352"/>
  </clipPath>
  <clipPath id="pe891eeb2e5">
   <rect x="125.201959" y="132.997564" width="103.296082" height="80.052352"/>
  </clipPath>
  <clipPath id="p83148561ba">
   <rect x="242.201959" y="132.997564" width="103.296082" height="80.052352"/>
  </clipPath>
  <clipPath id="peb54cdce08">
   <rect x="359.201959" y="132.997564" width="103.296083" height="80.052352"/>
  </clipPath>
 </defs>
</svg>
