<?xml version="1.0" encoding="utf-8" standalone="no"?>
<!DOCTYPE svg PUBLIC "-//W3C//DTD SVG 1.1//EN"
  "http://www.w3.org/Graphics/SVG/1.1/DTD/svg11.dtd">
<svg xmlns:xlink="http://www.w3.org/1999/xlink" width="585pt" height="234pt" viewBox="0 0 585 234" xmlns="http://www.w3.org/2000/svg" version="1.1">
 <metadata>
  <rdf:RDF xmlns:dc="http://purl.org/dc/elements/1.1/" xmlns:cc="http://creativecommons.org/ns#" xmlns:rdf="http://www.w3.org/1999/02/22-rdf-syntax-ns#">
   <cc:Work>
    <dc:type rdf:resource="http://purl.org/dc/dcmitype/StillImage"/>
    <dc:date>2023-06-29T01:36:14.700113</dc:date>
    <dc:format>image/svg+xml</dc:format>
    <dc:creator>
     <cc:Agent>
      <dc:title>Matplotlib v3.7.1, https://matplotlib.org/</dc:title>
     </cc:Agent>
    </dc:creator>
   </cc:Work>
  </rdf:RDF>
 </metadata>
 <defs>
  <style type="text/css">*{stroke-linejoin: round; stroke-linecap: butt}</style>
 </defs>
 <g id="figure_1">
  <g id="patch_1">
   <path d="M 0 234
L 585 234
L 585 0
L 0 0
z
" style="fill: #ffffff"/>
  </g>
  <g id="axes_1">
   <g id="patch_2">
    <path d="M 8.201959 96.049916
L 111.498041 96.049916
L 111.498041 15.997564
L 8.201959 15.997564
z
" style="fill: #ffffff"/>
   </g>
   <g id="matplotlib.axis_1">
    <g id="xtick_1">
     <g id="line2d_1">
      <path d="M 8.201959 96.049916
L 8.201959 15.997564
" clip-path="url(#p5a69627919)" style="fill: none"/>
     </g>
     <g id="line2d_2">
      <defs>
       <path id="mf3b91db6d6" d="M 0 0
L 0 6.25
" style="stroke: #212529; stroke-width: 1.25"/>
      </defs>
      <g>
       <use xlink:href="#mf3b91db6d6" x="8.201959" y="96.049916" style="fill: #212529; stroke: #212529; stroke-width: 1.25"/>
      </g>
     </g>
     <g id="text_1">
      <text style="fill: #212529; font: 9px 'system-ui', '-apple-system', 'Segoe UI', 'Roboto', 'Helvetica Neue', 'Noto Sans', 'Liberation Sans', 'Arial', sans-serif; text-anchor: middle" x="8.201959" y="112.226479" transform="rotate(-0 8.201959 112.226479)">−1</text>
     </g>
    </g>
    <g id="xtick_2">
     <g id="line2d_3">
      <path d="M 59.85 96.049916
L 59.85 15.997564
" clip-path="url(#p5a69627919)" style="fill: none"/>
     </g>
     <g id="line2d_4">
      <g>
       <use xlink:href="#mf3b91db6d6" x="59.85" y="96.049916" style="fill: #212529; stroke: #212529; stroke-width: 1.25"/>
      </g>
     </g>
     <g id="text_2">
      <text style="fill: #212529; font: 9px 'system-ui', '-apple-system', 'Segoe UI', 'Roboto', 'Helvetica Neue', 'Noto Sans', 'Liberation Sans', 'Arial', sans-serif; text-anchor: middle" x="59.85" y="112.226479" transform="rotate(-0 59.85 112.226479)">0</text>
     </g>
    </g>
    <g id="xtick_3">
     <g id="line2d_5">
      <path d="M 111.498041 96.049916
L 111.498041 15.997564
" clip-path="url(#p5a69627919)" style="fill: none"/>
     </g>
     <g id="line2d_6">
      <g>
       <use xlink:href="#mf3b91db6d6" x="111.498041" y="96.049916" style="fill: #212529; stroke: #212529; stroke-width: 1.25"/>
      </g>
     </g>
     <g id="text_3">
      <text style="fill: #212529; font: 9px 'system-ui', '-apple-system', 'Segoe UI', 'Roboto', 'Helvetica Neue', 'Noto Sans', 'Liberation Sans', 'Arial', sans-serif; text-anchor: middle" x="111.498041" y="112.226479" transform="rotate(-0 111.498041 112.226479)">1</text>
     </g>
    </g>
   </g>
   <g id="matplotlib.axis_2"/>
   <g id="line2d_7">
    <path d="M 33.633569 96.038975
L 36.316332 95.92316
L 37.806756 95.644253
L 38.70101 95.286603
L 39.595264 94.681984
L 40.489519 93.71415
L 41.383773 92.248062
L 42.278027 90.147551
L 43.172281 87.302205
L 44.066536 83.658547
L 45.258875 77.624542
L 46.749298 68.713221
L 49.133977 54.198077
L 50.326316 48.300895
L 51.22057 44.977396
L 51.816739 43.406468
L 52.412909 42.417021
L 52.710994 42.155372
L 53.009078 42.055674
L 53.307163 42.121676
L 53.605248 42.355974
L 54.201417 43.33295
L 54.797587 44.977405
L 55.393756 47.251204
L 56.288011 51.681371
L 57.48035 58.897449
L 59.566943 71.84693
L 60.461197 76.266889
L 61.355452 79.483143
L 61.951621 80.851705
L 62.547791 81.55678
L 62.845875 81.654753
L 63.14396 81.581901
L 63.442045 81.338474
L 64.038214 80.344947
L 64.634384 78.69236
L 65.230553 76.412684
L 66.124808 71.927604
L 67.317147 64.37025
L 70.297994 44.11931
L 71.192248 39.966347
L 71.788418 38.172308
L 72.384588 37.268339
L 72.682672 37.165934
L 72.980757 37.299036
L 73.278842 37.665701
L 73.875011 39.077309
L 74.471181 41.328853
L 75.365435 46.032244
L 76.557774 54.005453
L 79.538622 74.911894
L 80.730961 81.389004
L 81.625215 85.222313
L 82.519469 88.223994
L 83.413723 90.503267
L 84.307978 92.19317
L 85.202232 93.423338
L 86.096486 94.304653
L 86.990741 94.924773
L 88.18308 95.458711
L 89.673503 95.814011
L 91.462012 95.985697
L 92.952436 96.031861
L 92.952436 96.031861
" clip-path="url(#p5a69627919)" style="fill: none; stroke: #f7d2d4; stroke-width: 1.5625; stroke-linecap: round"/>
   </g>
   <g id="line2d_8">
    <path d="M 30.674652 96.03405
L 33.216843 95.896829
L 34.487939 95.648097
L 35.441261 95.275653
L 36.394582 94.637609
L 37.03013 94.002075
L 37.665678 93.146753
L 38.301225 92.023831
L 39.254547 89.73551
L 40.207869 86.608881
L 41.16119 82.58645
L 42.432286 75.95764
L 46.245572 54.377934
L 47.198894 50.680285
L 47.834442 48.895899
L 48.469989 47.691307
L 49.105537 47.074332
L 49.423311 46.984471
L 49.741085 47.037887
L 50.058859 47.23186
L 50.694407 48.027185
L 51.329954 49.334433
L 51.965502 51.104207
L 52.918824 54.479781
L 54.507693 61.276796
L 56.414336 69.27163
L 57.367658 72.360532
L 58.003206 73.881433
L 58.638753 74.893539
L 59.274301 75.344343
L 59.592075 75.346265
L 59.909849 75.193893
L 60.227623 74.884366
L 60.863171 73.787641
L 61.498718 72.056292
L 62.134266 69.714871
L 63.087588 65.188769
L 64.358683 57.832392
L 66.265326 46.685689
L 67.218648 42.465273
L 67.854196 40.530514
L 68.489744 39.421805
L 68.807517 39.195766
L 69.125291 39.192698
L 69.443065 39.412222
L 69.760839 39.851383
L 70.396387 41.365055
L 71.031935 43.665827
L 71.985256 48.374425
L 73.256352 56.324265
L 76.43409 77.299729
L 77.387412 82.196831
L 78.340734 86.071971
L 79.294055 88.94361
L 80.247377 90.94092
L 81.200699 92.257629
L 82.15402 93.105017
L 83.425116 93.825292
L 85.649533 94.707725
L 88.191724 95.503389
L 90.098367 95.848897
L 92.322784 96.007361
L 93.911654 96.039093
L 93.911654 96.039093
" clip-path="url(#p5a69627919)" style="fill: none; stroke: #eaacc7; stroke-width: 1.5625; stroke-linecap: round"/>
   </g>
   <g id="line2d_9">
    <path d="M 31.572862 96.042524
L 35.181166 95.911082
L 36.684625 95.678386
L 37.887393 95.291763
L 38.789469 94.799385
L 39.691545 94.038476
L 40.593621 92.889797
L 41.495697 91.203889
L 42.397773 88.814759
L 43.299849 85.570818
L 44.201925 81.382628
L 45.404693 74.401253
L 49.012996 51.424831
L 49.61438 48.898375
L 50.215764 47.111561
L 50.817148 46.129367
L 51.11784 45.947875
L 51.418532 45.971337
L 51.719224 46.19532
L 52.320608 47.214973
L 52.921992 48.92591
L 53.824068 52.543409
L 55.026836 58.612898
L 57.131679 69.348822
L 58.033755 72.810938
L 58.635139 74.481634
L 59.236523 75.570888
L 59.837907 76.047887
L 60.138599 76.054373
L 60.439291 75.907927
L 61.040675 75.169406
L 61.642059 73.869488
L 62.243443 72.059263
L 63.145519 68.521552
L 64.348287 62.636137
L 67.655898 45.150335
L 68.557974 41.946421
L 69.159358 40.625163
L 69.46005 40.245961
L 69.760742 40.064602
L 70.061434 40.084567
L 70.362126 40.305622
L 70.96351 41.330685
L 71.564894 43.061139
L 72.46697 46.677173
L 76.075273 62.993711
L 81.187037 81.842025
L 82.690497 87.40418
L 83.592573 90.092847
L 84.494648 92.174874
L 85.396724 93.671369
L 86.2988 94.672482
L 87.200876 95.297367
L 88.102952 95.662069
L 89.30572 95.903628
L 91.410564 96.029332
L 91.410564 96.029332
" clip-path="url(#p5a69627919)" style="fill: none; stroke: #cc86c1; stroke-width: 1.5625; stroke-linecap: round"/>
   </g>
   <g id="line2d_10">
    <path d="M 31.476738 96.025687
L 33.781459 95.882408
L 35.098442 95.621767
L 36.086179 95.247884
L 37.073916 94.638945
L 38.061654 93.712761
L 39.049391 92.394469
L 40.037128 90.634554
L 41.024866 88.425872
L 42.341849 84.869931
L 44.975815 76.739625
L 46.622044 72.026141
L 47.939027 68.970929
L 48.926764 67.244309
L 49.585256 66.405304
L 50.243748 65.841522
L 50.902239 65.573764
L 51.560731 65.619477
L 52.219222 65.989017
L 52.877714 66.681109
L 53.536205 67.678458
L 54.523943 69.661164
L 56.499417 74.499584
L 57.487155 76.708014
L 58.145646 77.864528
L 58.804138 78.660806
L 59.462629 79.023559
L 59.791875 79.025319
L 60.121121 78.901196
L 60.779612 78.266031
L 61.438104 77.114447
L 62.096595 75.465282
L 63.084333 72.146919
L 64.07207 67.990695
L 65.718299 59.863408
L 69.010757 43.246786
L 70.32774 37.912975
L 71.315477 34.912274
L 71.973969 33.553526
L 72.63246 32.824054
L 72.961706 32.726
L 73.290952 32.820575
L 73.620198 33.117133
L 73.949443 33.623025
L 74.607935 35.279463
L 75.266427 37.792435
L 75.924918 41.110037
L 76.912655 47.344631
L 78.88813 62.107431
L 80.534359 73.583106
L 81.522096 79.110489
L 82.509834 83.428804
L 83.497571 86.630255
L 84.485308 88.933945
L 85.473046 90.597426
L 86.460783 91.846864
L 87.777766 93.130682
L 89.094749 94.132724
L 90.411732 94.895533
L 91.728715 95.425184
L 93.374944 95.804617
L 95.350419 95.988366
L 96.996648 96.034378
L 96.996648 96.034378
" clip-path="url(#p5a69627919)" style="fill: none; stroke: #9361ae; stroke-width: 1.5625; stroke-linecap: round"/>
   </g>
   <g id="line2d_11">
    <path d="M 35.064593 96.034824
L 37.590789 95.881494
L 38.713543 95.622943
L 39.555609 95.238958
L 40.397674 94.581758
L 41.23974 93.516333
L 42.081805 91.882544
L 42.923871 89.516709
L 43.765936 86.288218
L 44.608002 82.147071
L 45.730756 75.363909
L 48.537641 57.220012
L 49.379706 53.552841
L 49.941083 52.015033
L 50.50246 51.298783
L 50.783149 51.259893
L 51.063837 51.433505
L 51.344526 51.815455
L 51.905903 53.172777
L 52.46728 55.241716
L 53.309345 59.395035
L 54.993476 69.521668
L 56.396919 77.404189
L 57.238984 81.133252
L 58.08105 83.881368
L 58.642427 85.127562
L 59.203804 85.892919
L 59.765181 86.173099
L 60.045869 86.130398
L 60.607246 85.677805
L 61.168623 84.733395
L 61.73 83.295114
L 62.572066 80.213545
L 63.414131 76.045616
L 64.536885 68.916882
L 65.940328 57.950066
L 69.30859 29.746666
L 70.150655 24.593773
L 70.712032 22.084371
L 71.273409 20.459139
L 71.554098 20.007991
L 71.834786 19.809229
L 72.115475 19.86811
L 72.396163 20.187012
L 72.676852 20.765309
L 73.238229 22.682305
L 73.799606 25.553779
L 74.641671 31.401829
L 75.764425 41.255624
L 78.851999 70.057495
L 79.974753 78.231635
L 80.816818 83.135263
L 81.658884 87.005778
L 82.500949 89.938154
L 83.343015 92.069765
L 84.18508 93.555461
L 85.027146 94.54748
L 85.869211 95.181471
L 86.711277 95.568896
L 87.834031 95.845727
L 89.518162 96.001625
L 90.921604 96.037449
L 90.921604 96.037449
" clip-path="url(#p5a69627919)" style="fill: none; stroke: #392f62; stroke-width: 1.5625; stroke-linecap: round"/>
   </g>
   <g id="patch_3">
    <path d="M 8.201959 96.049916
L 111.498041 96.049916
" style="fill: none; stroke: #212529; stroke-width: 1.25; stroke-linejoin: miter; stroke-linecap: square"/>
   </g>
   <g id="text_4">
    <!-- $\rho=0.1$ -->
    <g style="fill: #212529" transform="translate(45.77625 9.997564)">
     <text>
      <tspan style="font: italic 10.125px 'STIXNonUnicode'" x="0" y="-0.234375"></tspan>
      <tspan style="font: 10.125px 'STIXGeneral'" x="6.937653 15.404175 20.466675 22.997925" y="-0.234375">=𝟢.𝟣</tspan>
     </text>
    </g>
   </g>
  </g>
  <g id="axes_2">
   <g id="patch_4">
    <path d="M 125.201959 96.049916
L 228.498041 96.049916
L 228.498041 15.997564
L 125.201959 15.997564
z
" style="fill: #ffffff"/>
   </g>
   <g id="matplotlib.axis_3">
    <g id="xtick_4">
     <g id="line2d_12">
      <path d="M 125.201959 96.049916
L 125.201959 15.997564
" clip-path="url(#pc6c346b708)" style="fill: none"/>
     </g>
     <g id="line2d_13">
      <g>
       <use xlink:href="#mf3b91db6d6" x="125.201959" y="96.049916" style="fill: #212529; stroke: #212529; stroke-width: 1.25"/>
      </g>
     </g>
     <g id="text_5">
      <text style="fill: #212529; font: 9px 'system-ui', '-apple-system', 'Segoe UI', 'Roboto', 'Helvetica Neue', 'Noto Sans', 'Liberation Sans', 'Arial', sans-serif; text-anchor: middle" x="125.201959" y="112.226479" transform="rotate(-0 125.201959 112.226479)">−1</text>
     </g>
    </g>
    <g id="xtick_5">
     <g id="line2d_14">
      <path d="M 176.85 96.049916
L 176.85 15.997564
" clip-path="url(#pc6c346b708)" style="fill: none"/>
     </g>
     <g id="line2d_15">
      <g>
       <use xlink:href="#mf3b91db6d6" x="176.85" y="96.049916" style="fill: #212529; stroke: #212529; stroke-width: 1.25"/>
      </g>
     </g>
     <g id="text_6">
      <text style="fill: #212529; font: 9px 'system-ui', '-apple-system', 'Segoe UI', 'Roboto', 'Helvetica Neue', 'Noto Sans', 'Liberation Sans', 'Arial', sans-serif; text-anchor: middle" x="176.85" y="112.226479" transform="rotate(-0 176.85 112.226479)">0</text>
     </g>
    </g>
    <g id="xtick_6">
     <g id="line2d_16">
      <path d="M 228.498041 96.049916
L 228.498041 15.997564
" clip-path="url(#pc6c346b708)" style="fill: none"/>
     </g>
     <g id="line2d_17">
      <g>
       <use xlink:href="#mf3b91db6d6" x="228.498041" y="96.049916" style="fill: #212529; stroke: #212529; stroke-width: 1.25"/>
      </g>
     </g>
     <g id="text_7">
      <text style="fill: #212529; font: 9px 'system-ui', '-apple-system', 'Segoe UI', 'Roboto', 'Helvetica Neue', 'Noto Sans', 'Liberation Sans', 'Arial', sans-serif; text-anchor: middle" x="228.498041" y="112.226479" transform="rotate(-0 228.498041 112.226479)">1</text>
     </g>
    </g>
   </g>
   <g id="matplotlib.axis_4"/>
   <g id="line2d_18">
    <path d="M 142.252742 96.041686
L 145.439111 95.920345
L 147.032295 95.641054
L 147.988206 95.289288
L 148.944116 94.703823
L 149.900027 93.781213
L 150.855938 92.404143
L 151.811848 90.455766
L 152.767759 87.837909
L 153.723669 84.486847
L 154.67958 80.379498
L 155.954127 73.749553
L 157.228675 65.883462
L 158.821859 54.59163
L 161.370954 35.911336
L 162.326865 30.459422
L 162.964139 27.882656
L 163.601412 26.38556
L 163.920049 26.088729
L 164.238686 26.109017
L 164.557323 26.451782
L 164.87596 27.11666
L 165.513233 29.382162
L 166.150507 32.788626
L 167.106418 39.593841
L 169.018239 56.020985
L 170.611423 68.677584
L 171.567334 74.805269
L 172.523245 79.694567
L 173.479155 83.43201
L 174.435066 86.168214
L 175.390976 88.054273
L 176.02825 88.902755
L 176.665524 89.460759
L 177.302798 89.754756
L 177.940071 89.807286
L 178.577345 89.63653
L 179.214619 89.255354
L 179.851892 88.670527
L 180.807803 87.412252
L 181.763714 85.687779
L 182.719624 83.504584
L 183.994172 80.022224
L 185.905993 74.702363
L 186.861904 72.791293
L 187.499177 72.055212
L 187.817814 71.880328
L 188.136451 71.842917
L 188.455088 71.946009
L 189.092362 72.570905
L 189.729635 73.720034
L 190.685546 76.247729
L 192.27873 81.615381
L 193.871915 86.828653
L 194.827825 89.376368
L 195.783736 91.386585
L 196.739646 92.893226
L 197.695557 93.978302
L 198.651468 94.73466
L 199.607378 95.245757
L 200.881926 95.660485
L 202.47511 95.911996
L 205.024205 96.031576
L 205.661479 96.039638
L 205.661479 96.039638
" clip-path="url(#pc6c346b708)" style="fill: none; stroke: #f7d2d4; stroke-width: 1.5625; stroke-linecap: round"/>
   </g>
   <g id="line2d_19">
    <path d="M 147.138773 96.043531
L 150.647193 95.914744
L 153.198771 95.588943
L 155.750349 95.083023
L 156.707191 94.683881
L 157.345086 94.245425
L 157.98298 93.605516
L 158.620875 92.716921
L 159.577717 90.868644
L 160.534559 88.471277
L 162.767189 82.627864
L 163.405084 81.520804
L 164.042979 80.866846
L 164.680873 80.694412
L 165.318768 80.968042
L 165.956662 81.596895
L 167.232451 83.392156
L 168.189293 84.661926
L 168.827188 85.255962
L 169.465082 85.561005
L 170.102977 85.539196
L 170.740872 85.183492
L 171.378766 84.514863
L 172.335608 83.030231
L 173.930344 79.857505
L 177.119817 73.189057
L 178.076659 70.373445
L 179.033501 66.465724
L 179.990343 61.187436
L 180.947185 54.542575
L 182.541921 41.489572
L 184.136657 28.951575
L 185.093499 23.398287
L 185.731394 21.01265
L 186.050341 20.280774
L 186.369288 19.876415
L 186.688236 19.809313
L 187.007183 20.08469
L 187.32613 20.703195
L 187.964025 22.949424
L 188.601919 26.463527
L 189.558761 33.76461
L 190.83455 46.063618
L 193.067181 68.275923
L 194.024023 75.908274
L 194.980865 81.805538
L 195.937707 86.025387
L 196.575601 88.050948
L 197.213496 89.582125
L 198.170338 91.203868
L 199.12718 92.299057
L 200.402969 93.308092
L 201.997705 94.21317
L 203.911389 95.048325
L 205.825072 95.636509
L 207.419809 95.902191
L 209.65244 96.02895
L 210.609282 96.042426
L 210.609282 96.042426
" clip-path="url(#pc6c346b708)" style="fill: none; stroke: #eaacc7; stroke-width: 1.5625; stroke-linecap: round"/>
   </g>
   <g id="line2d_20">
    <path d="M 148.56107 96.029584
L 150.909018 95.879528
L 152.082992 95.633226
L 152.963473 95.288866
L 153.843954 94.734209
L 154.724434 93.889355
L 155.604915 92.667971
L 156.485396 90.98655
L 157.365876 88.775991
L 158.246357 85.993776
L 159.420331 81.390617
L 160.594306 75.865666
L 162.355267 66.367168
L 164.703215 53.547048
L 165.87719 48.437817
L 166.75767 45.796468
L 167.344657 44.7602
L 167.638151 44.481241
L 167.931645 44.366996
L 168.225138 44.418648
L 168.518632 44.635023
L 169.105619 45.545221
L 169.692606 47.04074
L 170.573087 50.173913
L 172.040554 56.691154
L 173.508022 62.941906
L 174.388503 65.834113
L 175.268983 67.850139
L 175.855971 68.703164
L 176.442958 69.203021
L 177.029945 69.407382
L 177.616932 69.385143
L 178.497413 69.079685
L 184.367284 66.302842
L 185.247764 66.27268
L 185.834751 66.462863
L 186.421739 66.862459
L 187.008726 67.490371
L 187.889206 68.855043
L 188.769687 70.651008
L 190.530648 74.936337
L 192.878597 80.544718
L 195.226545 85.453367
L 197.574494 89.884874
L 199.041961 92.200819
L 200.215936 93.645699
L 201.38991 94.684437
L 202.563884 95.351172
L 203.737858 95.730164
L 205.205326 95.947986
L 206.966287 96.029875
L 206.966287 96.029875
" clip-path="url(#pc6c346b708)" style="fill: none; stroke: #cc86c1; stroke-width: 1.5625; stroke-linecap: round"/>
   </g>
   <g id="line2d_21">
    <path d="M 141.873442 96.044169
L 145.943805 95.910047
L 147.63979 95.664041
L 148.996577 95.269738
L 150.353365 94.605494
L 151.370956 93.884875
L 152.727743 92.616417
L 154.762925 90.276861
L 156.458909 88.386289
L 157.815697 87.17607
L 159.511681 86.007391
L 160.868469 85.023885
L 161.88606 83.994982
L 162.903651 82.548039
L 163.921241 80.620307
L 165.278029 77.430331
L 167.652407 71.629527
L 168.669998 69.701562
L 169.687589 68.296957
L 170.70518 67.368562
L 171.72277 66.762296
L 174.097149 65.536096
L 175.453936 64.51555
L 181.898678 59.066699
L 187.325828 54.803198
L 188.004222 54.594119
L 188.682616 54.643319
L 189.36101 55.043927
L 190.039404 55.883839
L 190.717798 57.229396
L 191.396191 59.110348
L 192.413782 62.885723
L 193.77057 69.250004
L 196.484145 82.510496
L 197.501736 86.456622
L 198.519327 89.558772
L 199.536917 91.845716
L 200.554508 93.436806
L 201.572099 94.488094
L 202.58969 95.151677
L 203.60728 95.553568
L 204.964068 95.839923
L 206.999249 96.001621
L 209.373628 96.043718
L 209.373628 96.043718
" clip-path="url(#pc6c346b708)" style="fill: none; stroke: #9361ae; stroke-width: 1.5625; stroke-linecap: round"/>
   </g>
   <g id="line2d_22">
    <path d="M 146.621713 96.044279
L 150.622769 95.925354
L 152.469411 95.661056
L 153.700505 95.280428
L 154.623826 94.811652
L 155.547146 94.117888
L 156.470467 93.131303
L 157.393788 91.790345
L 158.317108 90.056879
L 159.548202 87.147735
L 161.08707 82.793507
L 163.857032 74.850842
L 165.088126 72.078984
L 166.011447 70.528821
L 166.626994 69.800124
L 167.242541 69.350585
L 167.858088 69.211237
L 168.473635 69.410138
L 169.089182 69.967166
L 169.70473 70.888144
L 170.320277 72.159608
L 171.243597 74.638939
L 172.782465 79.708003
L 174.321333 84.678132
L 175.244653 87.008687
L 175.860201 88.14058
L 176.475748 88.878357
L 177.091295 89.190385
L 177.399068 89.180379
L 178.014615 88.821327
L 178.630163 88.006813
L 179.24571 86.738132
L 179.861257 85.021294
L 180.784577 81.628087
L 181.707898 77.29784
L 182.938992 70.197277
L 184.47786 59.625377
L 187.555595 37.747444
L 188.478916 32.962958
L 189.094463 30.730025
L 189.71001 29.42351
L 190.017784 29.150363
L 190.325557 29.142529
L 190.633331 29.404943
L 190.941105 29.939081
L 191.556652 31.810421
L 192.172199 34.696311
L 193.095519 40.662834
L 194.326614 50.740882
L 197.096576 74.30735
L 198.019896 80.496266
L 198.943217 85.429192
L 199.866537 89.132879
L 200.789858 91.756949
L 201.713179 93.513245
L 202.636499 94.62431
L 203.55982 95.288748
L 204.483141 95.664274
L 205.714235 95.906678
L 207.86865 96.029993
L 207.86865 96.029993
" clip-path="url(#pc6c346b708)" style="fill: none; stroke: #392f62; stroke-width: 1.5625; stroke-linecap: round"/>
   </g>
   <g id="patch_5">
    <path d="M 125.201959 96.049916
L 228.498041 96.049916
" style="fill: none; stroke: #212529; stroke-width: 1.25; stroke-linejoin: miter; stroke-linecap: square"/>
   </g>
   <g id="text_8">
    <!-- $\rho=0.25$ -->
    <g style="fill: #212529" transform="translate(160.245 9.997564)">
     <text>
      <tspan style="font: italic 10.125px 'STIXNonUnicode'" x="0" y="-0.234375"></tspan>
      <tspan style="font: 10.125px 'STIXGeneral'" x="6.937653 15.404175 20.466675 22.997925 28.060425" y="-0.234375">=𝟢.𝟤𝟧</tspan>
     </text>
    </g>
   </g>
  </g>
  <g id="axes_3">
   <g id="patch_6">
    <path d="M 242.201959 96.049916
L 345.498041 96.049916
L 345.498041 15.997564
L 242.201959 15.997564
z
" style="fill: #ffffff"/>
   </g>
   <g id="matplotlib.axis_5">
    <g id="xtick_7">
     <g id="line2d_23">
      <path d="M 242.201959 96.049916
L 242.201959 15.997564
" clip-path="url(#pdb10150a02)" style="fill: none"/>
     </g>
     <g id="line2d_24">
      <g>
       <use xlink:href="#mf3b91db6d6" x="242.201959" y="96.049916" style="fill: #212529; stroke: #212529; stroke-width: 1.25"/>
      </g>
     </g>
     <g id="text_9">
      <text style="fill: #212529; font: 9px 'system-ui', '-apple-system', 'Segoe UI', 'Roboto', 'Helvetica Neue', 'Noto Sans', 'Liberation Sans', 'Arial', sans-serif; text-anchor: middle" x="242.201959" y="112.226479" transform="rotate(-0 242.201959 112.226479)">−1</text>
     </g>
    </g>
    <g id="xtick_8">
     <g id="line2d_25">
      <path d="M 293.85 96.049916
L 293.85 15.997564
" clip-path="url(#pdb10150a02)" style="fill: none"/>
     </g>
     <g id="line2d_26">
      <g>
       <use xlink:href="#mf3b91db6d6" x="293.85" y="96.049916" style="fill: #212529; stroke: #212529; stroke-width: 1.25"/>
      </g>
     </g>
     <g id="text_10">
      <text style="fill: #212529; font: 9px 'system-ui', '-apple-system', 'Segoe UI', 'Roboto', 'Helvetica Neue', 'Noto Sans', 'Liberation Sans', 'Arial', sans-serif; text-anchor: middle" x="293.85" y="112.226479" transform="rotate(-0 293.85 112.226479)">0</text>
     </g>
    </g>
    <g id="xtick_9">
     <g id="line2d_27">
      <path d="M 345.498041 96.049916
L 345.498041 15.997564
" clip-path="url(#pdb10150a02)" style="fill: none"/>
     </g>
     <g id="line2d_28">
      <g>
       <use xlink:href="#mf3b91db6d6" x="345.498041" y="96.049916" style="fill: #212529; stroke: #212529; stroke-width: 1.25"/>
      </g>
     </g>
     <g id="text_11">
      <text style="fill: #212529; font: 9px 'system-ui', '-apple-system', 'Segoe UI', 'Roboto', 'Helvetica Neue', 'Noto Sans', 'Liberation Sans', 'Arial', sans-serif; text-anchor: middle" x="345.498041" y="112.226479" transform="rotate(-0 345.498041 112.226479)">1</text>
     </g>
    </g>
   </g>
   <g id="matplotlib.axis_6"/>
   <g id="line2d_29">
    <path d="M 252.251793 96.046684
L 259.118083 95.920236
L 261.788306 95.663562
L 263.314149 95.336295
L 264.45853 94.917969
L 265.602912 94.262923
L 266.747293 93.267073
L 267.510214 92.356405
L 268.654596 90.537278
L 269.798978 88.100015
L 270.943359 85.017487
L 272.469202 80.029436
L 275.902346 67.971723
L 277.046728 65.013298
L 277.809649 63.664581
L 278.57257 62.906599
L 278.954031 62.763839
L 279.335491 62.781814
L 279.716952 62.95993
L 280.098412 63.295167
L 280.861333 64.4132
L 281.624255 66.067053
L 282.768636 69.333191
L 284.675939 75.859421
L 286.583242 82.181771
L 287.727623 85.350396
L 288.872005 87.897639
L 290.016387 89.802932
L 290.779308 90.728091
L 291.542229 91.388764
L 292.30515 91.791334
L 293.068071 91.935685
L 293.830992 91.813803
L 294.593913 91.409966
L 295.356834 90.702524
L 296.119755 89.667167
L 296.882676 88.281546
L 297.645597 86.530957
L 298.789979 83.22448
L 299.934361 79.188374
L 304.130427 63.256456
L 304.893348 61.390846
L 305.656269 60.191683
L 306.037729 59.869526
L 306.41919 59.741195
L 306.80065 59.809351
L 307.182111 60.073347
L 307.563571 60.529236
L 308.326493 61.985168
L 309.089414 64.085902
L 310.233795 68.157796
L 314.811322 86.046213
L 315.955703 89.156671
L 317.100085 91.506179
L 318.244467 93.18196
L 319.388848 94.315072
L 320.53323 95.043698
L 321.677612 95.490302
L 323.203454 95.810363
L 325.492217 95.992023
L 328.162441 96.041232
L 328.162441 96.041232
" clip-path="url(#pdb10150a02)" style="fill: none; stroke: #f7d2d4; stroke-width: 1.5625; stroke-linecap: round"/>
   </g>
   <g id="line2d_30">
    <path d="M 260.13526 96.042213
L 263.304279 95.931156
L 264.888788 95.688971
L 266.156395 95.268994
L 267.107101 94.746289
L 268.057806 93.990186
L 269.008512 92.963044
L 269.959218 91.649471
L 271.226825 89.476301
L 272.811334 86.206212
L 274.712745 81.655369
L 276.297254 77.279338
L 277.881764 72.192075
L 280.416978 62.97677
L 281.684586 58.694768
L 282.635291 56.112846
L 283.269095 54.832551
L 283.902899 53.977825
L 284.536702 53.594608
L 284.853604 53.58946
L 285.170506 53.711455
L 285.80431 54.338261
L 286.438114 55.465884
L 287.071917 57.066374
L 288.022623 60.248231
L 289.29023 65.577701
L 292.459249 79.619825
L 293.409954 82.709391
L 294.043758 84.259429
L 294.677562 85.360847
L 295.311365 85.997832
L 295.945169 86.169693
L 296.578973 85.889253
L 297.212776 85.182157
L 297.84658 84.087314
L 298.797286 81.839244
L 300.064893 78.116314
L 301.649402 73.428345
L 302.600108 71.252867
L 303.233911 70.264608
L 303.867715 69.719352
L 304.184617 69.623806
L 304.501519 69.648465
L 305.135323 70.054045
L 305.769126 70.910937
L 306.40293 72.170973
L 307.353635 74.670081
L 308.938145 79.792761
L 311.156458 86.934184
L 312.424065 90.166225
L 313.374771 92.030738
L 314.325476 93.426344
L 315.276182 94.412894
L 316.226887 95.072959
L 317.177593 95.491991
L 318.4452 95.803081
L 320.346611 95.987558
L 323.198728 96.044536
L 323.198728 96.044536
" clip-path="url(#pdb10150a02)" style="fill: none; stroke: #eaacc7; stroke-width: 1.5625; stroke-linecap: round"/>
   </g>
   <g id="line2d_31">
    <path d="M 256.007465 96.045647
L 260.73245 95.927072
L 263.252442 95.644009
L 264.827437 95.283582
L 266.087433 94.806927
L 267.347429 94.060145
L 268.292426 93.252072
L 269.237423 92.175674
L 270.18242 90.785327
L 271.127417 89.038254
L 272.072414 86.887219
L 273.017411 84.271919
L 273.962408 81.117835
L 275.222404 75.953823
L 276.4824 69.676874
L 279.63239 52.790177
L 280.262388 50.422186
L 280.892386 48.821844
L 281.207385 48.35555
L 281.522384 48.129502
L 281.837383 48.151684
L 282.152382 48.425412
L 282.467381 48.949131
L 283.097379 50.715903
L 283.727377 53.34496
L 284.672374 58.520577
L 287.822364 77.642953
L 288.767361 81.732899
L 289.397359 83.788372
L 290.027357 85.301883
L 290.657355 86.288876
L 291.287353 86.772382
L 291.602352 86.833166
L 291.917351 86.777518
L 292.547349 86.32985
L 293.177347 85.457204
L 293.807345 84.193764
L 294.752342 81.669257
L 296.012338 77.491254
L 297.902332 71.045662
L 298.847329 68.514701
L 299.477327 67.285791
L 300.107325 66.486232
L 300.737323 66.139848
L 301.367321 66.244801
L 301.997319 66.777344
L 302.627317 67.697333
L 303.572314 69.692006
L 304.517311 72.257738
L 306.092306 77.306048
L 308.927297 86.587066
L 310.187294 89.91757
L 311.132291 91.885387
L 312.077288 93.378321
L 313.022285 94.435962
L 313.967282 95.1341
L 314.912279 95.562831
L 316.172275 95.86069
L 318.062269 96.013454
L 318.692267 96.030125
L 318.692267 96.030125
" clip-path="url(#pdb10150a02)" style="fill: none; stroke: #cc86c1; stroke-width: 1.5625; stroke-linecap: round"/>
   </g>
   <g id="line2d_32">
    <path d="M 271.76272 96.030604
L 273.716525 95.864067
L 274.693428 95.584565
L 275.67033 95.035245
L 276.403007 94.382007
L 277.37991 93.153325
L 278.601038 91.135764
L 280.79907 86.911067
L 282.020198 84.126003
L 282.997101 81.196064
L 283.974003 77.364279
L 285.439357 70.346471
L 286.660486 64.913123
L 287.393163 62.632806
L 287.881614 61.678408
L 288.370065 61.194966
L 288.858517 61.15121
L 289.346968 61.483498
L 289.835419 62.109547
L 290.812322 63.905176
L 293.010353 68.341741
L 293.74303 69.377042
L 294.231482 69.784956
L 294.719933 69.892305
L 295.208384 69.641144
L 295.696836 68.988038
L 296.185287 67.910702
L 296.917964 65.512195
L 297.650641 62.286682
L 298.871769 55.730598
L 300.337123 47.916612
L 301.0698 45.015132
L 301.558252 43.750853
L 302.046703 43.152226
L 302.290929 43.128514
L 302.535154 43.297501
L 303.023606 44.222823
L 303.512057 45.914571
L 304.244734 49.735097
L 305.221637 56.565684
L 307.908119 76.634234
L 308.885022 82.138908
L 309.861925 86.332167
L 310.594602 88.692931
L 311.327279 90.496561
L 312.304181 92.247827
L 313.281084 93.492383
L 314.257987 94.405738
L 315.234889 95.070494
L 316.456018 95.606599
L 317.677146 95.884121
L 319.386726 96.020543
L 320.363629 96.040917
L 320.363629 96.040917
" clip-path="url(#pdb10150a02)" style="fill: none; stroke: #9361ae; stroke-width: 1.5625; stroke-linecap: round"/>
   </g>
   <g id="line2d_33">
    <path d="M 274.875363 96.040865
L 276.967858 95.925616
L 278.130355 95.675328
L 279.060352 95.278112
L 279.99035 94.640892
L 280.920347 93.717151
L 281.850345 92.466001
L 282.780342 90.851169
L 283.942839 88.332718
L 286.267833 82.977945
L 286.965331 81.957706
L 287.43033 81.583959
L 287.895329 81.489415
L 288.360327 81.681589
L 288.825326 82.146389
L 289.522824 83.273039
L 290.685321 85.791384
L 291.847818 88.135017
L 292.545316 89.040571
L 293.010315 89.349227
L 293.475314 89.400953
L 293.940313 89.192496
L 294.405311 88.72619
L 294.87031 87.999641
L 295.567808 86.37418
L 296.265306 83.939314
L 296.962805 80.38571
L 297.660303 75.36257
L 298.357801 68.655953
L 299.287798 57.34981
L 301.380293 30.549615
L 302.077791 24.521195
L 302.54279 21.850852
L 303.007789 20.296219
L 303.240288 19.92457
L 303.472787 19.809427
L 303.705287 19.936893
L 303.937786 20.290998
L 304.402785 21.60792
L 305.100283 24.817708
L 306.030281 30.601093
L 308.122775 45.779633
L 309.750271 58.93819
L 312.307764 80.548494
L 313.237761 86.274032
L 313.93526 89.408035
L 314.632758 91.658185
L 315.330256 93.212783
L 316.027754 94.263096
L 316.725252 94.962269
L 317.65525 95.529471
L 318.585247 95.827841
L 319.980244 96.002566
L 321.14274 96.040028
L 321.14274 96.040028
" clip-path="url(#pdb10150a02)" style="fill: none; stroke: #392f62; stroke-width: 1.5625; stroke-linecap: round"/>
   </g>
   <g id="patch_7">
    <path d="M 242.201959 96.049916
L 345.498041 96.049916
" style="fill: none; stroke: #212529; stroke-width: 1.25; stroke-linejoin: miter; stroke-linecap: square"/>
   </g>
   <g id="text_12">
    <!-- $\rho=0.5$ -->
    <g style="fill: #212529" transform="translate(279.77625 9.997564)">
     <text>
      <tspan style="font: italic 10.125px 'STIXNonUnicode'" x="0" y="-0.234375"></tspan>
      <tspan style="font: 10.125px 'STIXGeneral'" x="6.937653 15.404175 20.466675 22.997925" y="-0.234375">=𝟢.𝟧</tspan>
     </text>
    </g>
   </g>
  </g>
  <g id="axes_4">
   <g id="patch_8">
    <path d="M 359.201959 96.049916
L 462.498041 96.049916
L 462.498041 15.997564
L 359.201959 15.997564
z
" style="fill: #ffffff"/>
   </g>
   <g id="matplotlib.axis_7">
    <g id="xtick_10">
     <g id="line2d_34">
      <path d="M 359.201959 96.049916
L 359.201959 15.997564
" clip-path="url(#p4bf487623a)" style="fill: none"/>
     </g>
     <g id="line2d_35">
      <g>
       <use xlink:href="#mf3b91db6d6" x="359.201959" y="96.049916" style="fill: #212529; stroke: #212529; stroke-width: 1.25"/>
      </g>
     </g>
     <g id="text_13">
      <text style="fill: #212529; font: 9px 'system-ui', '-apple-system', 'Segoe UI', 'Roboto', 'Helvetica Neue', 'Noto Sans', 'Liberation Sans', 'Arial', sans-serif; text-anchor: middle" x="359.201959" y="112.226479" transform="rotate(-0 359.201959 112.226479)">−1</text>
     </g>
    </g>
    <g id="xtick_11">
     <g id="line2d_36">
      <path d="M 410.85 96.049916
L 410.85 15.997564
" clip-path="url(#p4bf487623a)" style="fill: none"/>
     </g>
     <g id="line2d_37">
      <g>
       <use xlink:href="#mf3b91db6d6" x="410.85" y="96.049916" style="fill: #212529; stroke: #212529; stroke-width: 1.25"/>
      </g>
     </g>
     <g id="text_14">
      <text style="fill: #212529; font: 9px 'system-ui', '-apple-system', 'Segoe UI', 'Roboto', 'Helvetica Neue', 'Noto Sans', 'Liberation Sans', 'Arial', sans-serif; text-anchor: middle" x="410.85" y="112.226479" transform="rotate(-0 410.85 112.226479)">0</text>
     </g>
    </g>
    <g id="xtick_12">
     <g id="line2d_38">
      <path d="M 462.498041 96.049916
L 462.498041 15.997564
" clip-path="url(#p4bf487623a)" style="fill: none"/>
     </g>
     <g id="line2d_39">
      <g>
       <use xlink:href="#mf3b91db6d6" x="462.498041" y="96.049916" style="fill: #212529; stroke: #212529; stroke-width: 1.25"/>
      </g>
     </g>
     <g id="text_15">
      <text style="fill: #212529; font: 9px 'system-ui', '-apple-system', 'Segoe UI', 'Roboto', 'Helvetica Neue', 'Noto Sans', 'Liberation Sans', 'Arial', sans-serif; text-anchor: middle" x="462.498041" y="112.226479" transform="rotate(-0 462.498041 112.226479)">1</text>
     </g>
    </g>
   </g>
   <g id="matplotlib.axis_8"/>
   <g id="line2d_40">
    <path d="M 362.993974 96.044676
L 368.397652 95.911335
L 371.099491 95.609876
L 373.029376 95.177476
L 374.573284 94.629862
L 376.117192 93.833741
L 377.6611 92.726328
L 379.205008 91.282346
L 381.134893 89.096077
L 384.222709 85.496767
L 385.766617 84.014976
L 390.012364 80.280629
L 391.170295 78.742605
L 392.328226 76.779216
L 393.486157 74.401255
L 395.416042 69.832859
L 397.345927 65.346887
L 398.503858 63.194986
L 399.275812 62.149316
L 400.047766 61.495891
L 400.81972 61.289213
L 401.205697 61.365212
L 401.977651 61.886255
L 402.749605 62.892346
L 403.521559 64.347561
L 404.67949 67.21524
L 408.153283 76.953605
L 408.925237 78.449334
L 409.697191 79.426281
L 410.083168 79.690875
L 410.469145 79.793796
L 410.855122 79.727853
L 411.241099 79.487619
L 411.627076 79.06947
L 412.39903 77.694304
L 413.170984 75.611975
L 413.942938 72.866313
L 415.100869 67.695081
L 417.416731 55.499327
L 418.574662 49.975747
L 419.346616 47.090274
L 420.11857 45.112602
L 420.504547 44.521195
L 420.890524 44.216394
L 421.276501 44.207997
L 421.662478 44.500215
L 422.048455 45.091505
L 422.434432 45.974586
L 423.206386 48.559707
L 423.97834 52.094533
L 425.136271 58.678192
L 428.610064 79.681968
L 429.767995 84.966453
L 430.925926 88.969666
L 431.69788 90.967294
L 432.469834 92.496557
L 433.241788 93.631186
L 434.013742 94.44738
L 434.785696 95.016757
L 435.943627 95.542156
L 437.101558 95.815678
L 439.031443 95.994042
L 439.803397 96.019997
L 439.803397 96.019997
" clip-path="url(#p4bf487623a)" style="fill: none; stroke: #f7d2d4; stroke-width: 1.5625; stroke-linecap: round"/>
   </g>
   <g id="line2d_41">
    <path d="M 379.445221 96.034137
L 381.795972 95.901096
L 383.265191 95.591926
L 384.440567 95.072438
L 385.322098 94.448134
L 386.20363 93.570056
L 387.085161 92.39279
L 387.966693 90.862158
L 388.848224 88.895653
L 389.729756 86.362937
L 390.611288 83.083586
L 391.492819 78.8599
L 392.374351 73.550376
L 393.549726 64.834065
L 396.782008 39.00238
L 397.66354 34.440866
L 398.251228 32.468213
L 398.838915 31.384676
L 399.132759 31.168473
L 399.426603 31.159467
L 399.720447 31.347505
L 400.308135 32.266286
L 400.895822 33.81832
L 401.777354 37.083638
L 402.952729 42.594242
L 405.891168 57.029215
L 407.066543 61.370103
L 407.948075 63.794351
L 408.829606 65.496702
L 409.417294 66.238533
L 410.004982 66.671524
L 410.592669 66.801492
L 411.180357 66.639758
L 411.768045 66.208823
L 412.649576 65.147461
L 415.294171 61.323984
L 415.881859 60.924037
L 416.469546 60.857424
L 417.057234 61.166981
L 417.644922 61.870079
L 418.232609 62.959048
L 419.114141 65.245287
L 420.289516 69.226956
L 424.40333 84.415273
L 425.578706 87.592948
L 426.754081 90.060662
L 427.929456 91.91697
L 429.104832 93.29182
L 430.280207 94.2967
L 431.455582 95.009159
L 432.630958 95.484561
L 434.100177 95.823401
L 435.86324 95.991495
L 437.920147 96.04181
L 437.920147 96.04181
" clip-path="url(#p4bf487623a)" style="fill: none; stroke: #eaacc7; stroke-width: 1.5625; stroke-linecap: round"/>
   </g>
   <g id="line2d_42">
    <path d="M 370.230495 96.033056
L 373.495306 95.901804
L 375.535813 95.598349
L 376.760117 95.240586
L 377.984421 94.684986
L 379.208725 93.876587
L 380.433029 92.769479
L 381.657333 91.333471
L 382.881637 89.555512
L 384.105941 87.435732
L 385.738347 84.092949
L 387.370752 80.207258
L 390.227461 72.62577
L 391.859867 68.562428
L 393.084171 66.141813
L 393.900373 64.995366
L 394.716576 64.311584
L 395.124678 64.160531
L 395.532779 64.142543
L 395.94088 64.259586
L 396.348982 64.511571
L 397.165184 65.40963
L 397.981387 66.795092
L 398.79759 68.596812
L 400.021894 71.8677
L 403.286704 81.181458
L 404.511009 83.855228
L 405.327211 85.163743
L 406.143414 86.030317
L 406.959617 86.417662
L 407.367718 86.423467
L 407.775819 86.301095
L 408.592022 85.666875
L 409.408225 84.511274
L 410.224427 82.840685
L 411.04063 80.672802
L 412.264934 76.5607
L 413.489238 71.577336
L 415.529745 62.117603
L 417.570252 52.893725
L 418.794556 48.447892
L 419.610758 46.25207
L 420.426961 44.818287
L 420.835062 44.417133
L 421.243164 44.237502
L 421.651265 44.284125
L 422.059367 44.558679
L 422.467468 45.059677
L 423.283671 46.719109
L 424.099873 49.187858
L 424.916076 52.346568
L 426.14038 58.033992
L 430.221393 78.198321
L 431.445698 82.891204
L 432.670002 86.622447
L 433.894306 89.444555
L 435.11861 91.493273
L 436.342914 92.935139
L 437.567218 93.929853
L 438.791522 94.610257
L 440.423927 95.197014
L 442.464434 95.621771
L 444.913042 95.882342
L 448.585954 96.021814
L 451.442664 96.045232
L 451.442664 96.045232
" clip-path="url(#p4bf487623a)" style="fill: none; stroke: #cc86c1; stroke-width: 1.5625; stroke-linecap: round"/>
   </g>
   <g id="line2d_43">
    <path d="M 382.196884 96.040281
L 385.045728 95.91388
L 386.47015 95.669468
L 387.609688 95.286052
L 388.749226 94.657479
L 389.888763 93.705031
L 390.743417 92.722874
L 391.59807 91.458966
L 392.452723 89.862102
L 393.592261 87.142558
L 394.731799 83.722612
L 396.156221 78.602401
L 399.859719 64.54389
L 400.714372 62.271139
L 401.284141 61.194312
L 401.85391 60.519848
L 402.423678 60.267684
L 402.993447 60.431815
L 403.563216 60.979935
L 404.132985 61.856215
L 404.987638 63.619358
L 407.266714 68.730035
L 407.836483 69.571344
L 408.406252 70.054649
L 408.691136 70.138286
L 408.97602 70.10611
L 409.260905 69.952021
L 409.830674 69.262126
L 410.400443 68.055735
L 410.970211 66.352481
L 411.824865 62.987297
L 412.964402 57.452903
L 415.813247 43.149069
L 416.952785 38.588199
L 417.807438 35.887776
L 418.662091 33.98553
L 419.23186 33.266996
L 419.516744 33.098594
L 419.801629 33.068524
L 420.086513 33.184255
L 420.371398 33.452215
L 420.941167 34.463676
L 421.510935 36.123815
L 422.080704 38.423371
L 422.935358 42.972565
L 424.074895 50.646436
L 427.778393 77.422147
L 428.917931 83.410078
L 429.772584 86.909524
L 430.627237 89.63395
L 431.481891 91.692206
L 432.336544 93.200257
L 433.191197 94.266763
L 434.045851 94.989179
L 434.900504 95.453758
L 436.040042 95.799119
L 437.464464 95.978279
L 438.888886 96.033206
L 438.888886 96.033206
" clip-path="url(#p4bf487623a)" style="fill: none; stroke: #9361ae; stroke-width: 1.5625; stroke-linecap: round"/>
   </g>
   <g id="line2d_44">
    <path d="M 384.403828 96.040694
L 387.339804 95.905184
L 388.807793 95.613736
L 389.982183 95.113162
L 390.862976 94.489785
L 391.743769 93.576996
L 392.624562 92.302172
L 393.505355 90.593596
L 394.386148 88.38457
L 395.266941 85.62175
L 396.441331 81.046868
L 397.90932 74.134382
L 399.964503 64.240438
L 400.845296 60.990217
L 401.432491 59.441325
L 402.019687 58.477656
L 402.313284 58.228442
L 402.606882 58.136313
L 402.900479 58.199592
L 403.194077 58.414134
L 403.781272 59.269025
L 404.368468 60.625241
L 405.249261 63.373195
L 408.478835 74.714776
L 409.359628 76.687404
L 409.946823 77.529469
L 410.534018 77.958886
L 411.121213 77.954313
L 411.708409 77.496205
L 412.295604 76.563088
L 412.882799 75.12996
L 413.469995 73.16957
L 414.350787 69.187692
L 415.23158 63.928495
L 416.405971 55.088314
L 419.929143 25.769641
L 420.516338 22.649549
L 421.103533 20.61431
L 421.397131 20.051315
L 421.690729 19.809358
L 421.984326 19.896551
L 422.277924 20.316421
L 422.571521 21.06778
L 423.158717 23.536678
L 423.745912 27.201669
L 424.626705 34.562693
L 426.094693 49.830516
L 427.856279 68.243609
L 429.03067 78.135794
L 429.911463 83.78621
L 430.792255 87.940242
L 431.673048 90.804971
L 432.553841 92.673475
L 433.434634 93.846128
L 434.315427 94.575762
L 435.489818 95.162328
L 436.957806 95.58821
L 438.719392 95.86928
L 441.068173 96.015811
L 442.829759 96.043116
L 442.829759 96.043116
" clip-path="url(#p4bf487623a)" style="fill: none; stroke: #392f62; stroke-width: 1.5625; stroke-linecap: round"/>
   </g>
   <g id="patch_9">
    <path d="M 359.201959 96.049916
L 462.498041 96.049916
" style="fill: none; stroke: #212529; stroke-width: 1.25; stroke-linejoin: miter; stroke-linecap: square"/>
   </g>
   <g id="text_16">
    <!-- $\rho=0.75$ -->
    <g style="fill: #212529" transform="translate(394.245 9.997564)">
     <text>
      <tspan style="font: italic 10.125px 'STIXNonUnicode'" x="0" y="-0.234375"></tspan>
      <tspan style="font: 10.125px 'STIXGeneral'" x="6.937653 15.404175 20.466675 22.997925 28.060425" y="-0.234375">=𝟢.𝟩𝟧</tspan>
     </text>
    </g>
   </g>
  </g>
  <g id="axes_5">
   <g id="patch_10">
    <path d="M 476.201959 96.049916
L 579.498041 96.049916
L 579.498041 15.997564
L 476.201959 15.997564
z
" style="fill: #ffffff"/>
   </g>
   <g id="matplotlib.axis_9">
    <g id="xtick_13">
     <g id="line2d_45">
      <path d="M 476.201959 96.049916
L 476.201959 15.997564
" clip-path="url(#p28e782fdb9)" style="fill: none"/>
     </g>
     <g id="line2d_46">
      <g>
       <use xlink:href="#mf3b91db6d6" x="476.201959" y="96.049916" style="fill: #212529; stroke: #212529; stroke-width: 1.25"/>
      </g>
     </g>
     <g id="text_17">
      <text style="fill: #212529; font: 9px 'system-ui', '-apple-system', 'Segoe UI', 'Roboto', 'Helvetica Neue', 'Noto Sans', 'Liberation Sans', 'Arial', sans-serif; text-anchor: middle" x="476.201959" y="112.226479" transform="rotate(-0 476.201959 112.226479)">−1</text>
     </g>
    </g>
    <g id="xtick_14">
     <g id="line2d_47">
      <path d="M 527.85 96.049916
L 527.85 15.997564
" clip-path="url(#p28e782fdb9)" style="fill: none"/>
     </g>
     <g id="line2d_48">
      <g>
       <use xlink:href="#mf3b91db6d6" x="527.85" y="96.049916" style="fill: #212529; stroke: #212529; stroke-width: 1.25"/>
      </g>
     </g>
     <g id="text_18">
      <text style="fill: #212529; font: 9px 'system-ui', '-apple-system', 'Segoe UI', 'Roboto', 'Helvetica Neue', 'Noto Sans', 'Liberation Sans', 'Arial', sans-serif; text-anchor: middle" x="527.85" y="112.226479" transform="rotate(-0 527.85 112.226479)">0</text>
     </g>
    </g>
    <g id="xtick_15">
     <g id="line2d_49">
      <path d="M 579.498041 96.049916
L 579.498041 15.997564
" clip-path="url(#p28e782fdb9)" style="fill: none"/>
     </g>
     <g id="line2d_50">
      <g>
       <use xlink:href="#mf3b91db6d6" x="579.498041" y="96.049916" style="fill: #212529; stroke: #212529; stroke-width: 1.25"/>
      </g>
     </g>
     <g id="text_19">
      <text style="fill: #212529; font: 9px 'system-ui', '-apple-system', 'Segoe UI', 'Roboto', 'Helvetica Neue', 'Noto Sans', 'Liberation Sans', 'Arial', sans-serif; text-anchor: middle" x="579.498041" y="112.226479" transform="rotate(-0 579.498041 112.226479)">1</text>
     </g>
    </g>
   </g>
   <g id="matplotlib.axis_10"/>
   <g id="line2d_51">
    <path d="M 494.768156 96.031205
L 497.534512 95.873987
L 499.071376 95.544961
L 499.993494 95.155361
L 500.915613 94.532309
L 501.837732 93.58002
L 502.75985 92.187535
L 503.681969 90.238658
L 504.604087 87.628544
L 505.526206 84.286533
L 506.448324 80.20251
L 507.677816 73.746907
L 511.36629 53.220867
L 512.288409 49.701
L 512.903154 48.053243
L 513.5179 47.024893
L 513.825273 46.750502
L 514.132646 46.636394
L 514.440019 46.680703
L 514.747391 46.879902
L 515.362137 47.721233
L 515.976883 49.103658
L 516.899001 52.026245
L 518.128493 57.04267
L 521.816967 73.307822
L 523.046458 77.43036
L 523.968577 79.761155
L 524.583323 80.909141
L 525.198068 81.713016
L 525.812814 82.160757
L 526.42756 82.244097
L 527.042305 81.95842
L 527.657051 81.30293
L 528.271797 80.281208
L 528.886543 78.902224
L 529.808661 76.200834
L 530.73078 72.825357
L 532.267644 66.139206
L 534.419254 56.562992
L 535.341373 53.297907
L 535.956118 51.653901
L 536.570864 50.536943
L 537.18561 50.013878
L 537.492982 49.98981
L 537.800355 50.128705
L 538.107728 50.431875
L 538.722474 51.527139
L 539.33722 53.24929
L 540.259338 56.879824
L 541.48883 63.192365
L 544.869931 82.000785
L 545.792049 85.955897
L 546.714168 89.109934
L 547.636287 91.48648
L 548.558405 93.181202
L 549.480524 94.326422
L 550.402642 95.060574
L 551.324761 95.507435
L 552.554252 95.823323
L 554.398489 95.99758
L 555.935354 96.036581
L 555.935354 96.036581
" clip-path="url(#p28e782fdb9)" style="fill: none; stroke: #f7d2d4; stroke-width: 1.5625; stroke-linecap: round"/>
   </g>
   <g id="line2d_52">
    <path d="M 494.686652 96.042909
L 498.038345 95.919398
L 499.561841 95.678442
L 500.780639 95.274755
L 501.694736 94.769179
L 502.608834 94.009991
L 503.522932 92.904558
L 504.43703 91.340495
L 505.351128 89.188803
L 506.265226 86.312531
L 507.179324 82.582536
L 508.093422 77.900011
L 509.00752 72.222472
L 510.226317 63.185305
L 512.054513 47.400438
L 513.882709 31.779517
L 514.796807 25.567808
L 515.406205 22.510099
L 516.015604 20.543794
L 516.320303 20.016293
L 516.625002 19.809307
L 516.929702 19.929436
L 517.234401 20.378061
L 517.5391 21.151167
L 518.148499 23.628
L 518.757898 27.224757
L 519.671995 34.263812
L 521.500191 51.099813
L 523.023688 64.240396
L 523.937786 70.666848
L 524.851884 75.707518
L 525.765982 79.291069
L 526.37538 80.884723
L 526.984779 81.879676
L 527.594177 82.327625
L 528.203576 82.294689
L 528.812975 81.856826
L 529.422373 81.093709
L 530.336471 79.505102
L 531.859968 76.189006
L 534.297562 70.753064
L 535.21166 69.25269
L 535.821059 68.603427
L 536.430457 68.314191
L 537.039856 68.434618
L 537.649254 68.988866
L 538.258653 69.971076
L 538.868052 71.34542
L 539.78215 74.002617
L 541.305646 79.317278
L 543.133842 85.573634
L 544.352639 88.969549
L 545.266737 90.981979
L 546.180835 92.545215
L 547.094933 93.709298
L 548.009031 94.542481
L 548.923129 95.116278
L 550.141926 95.589424
L 551.665422 95.88233
L 553.798318 96.019315
L 555.321814 96.042737
L 555.321814 96.042737
" clip-path="url(#p28e782fdb9)" style="fill: none; stroke: #eaacc7; stroke-width: 1.5625; stroke-linecap: round"/>
   </g>
   <g id="line2d_53">
    <path d="M 497.868554 96.034988
L 500.275145 95.909931
L 501.478441 95.685033
L 502.380912 95.35075
L 503.283384 94.784514
L 504.185856 93.88374
L 505.088328 92.537484
L 505.9908 90.64684
L 506.893271 88.152212
L 508.096567 83.912597
L 509.600687 77.565811
L 511.706454 68.74058
L 512.608926 65.723695
L 513.511398 63.414143
L 514.41387 61.820667
L 515.316341 60.827164
L 516.218813 60.23716
L 517.722933 59.621794
L 519.227053 59.154796
L 520.129524 59.112716
L 520.731172 59.30646
L 521.33282 59.747569
L 521.934468 60.476905
L 522.536116 61.506344
L 523.438588 63.550468
L 526.146003 70.373786
L 526.747651 71.253702
L 527.349299 71.678108
L 527.650123 71.702501
L 527.950946 71.597302
L 528.552594 70.999006
L 529.154242 69.906655
L 529.75589 68.374154
L 530.658362 65.422358
L 532.463305 58.33659
L 533.967425 52.687095
L 534.869897 49.940181
L 535.772369 47.93656
L 536.374016 47.113006
L 536.975664 46.765739
L 537.276488 46.786938
L 537.577312 46.945449
L 538.17896 47.69094
L 538.780608 49.022081
L 539.382256 50.933111
L 540.284728 54.799523
L 541.488023 61.393831
L 544.797086 80.720827
L 546.000382 85.896067
L 546.902854 88.848948
L 547.805326 91.077522
L 548.707798 92.700193
L 549.610269 93.847358
L 550.512741 94.638452
L 551.415213 95.17148
L 552.618509 95.60788
L 554.122628 95.881647
L 556.228396 96.01589
L 557.732515 96.041043
L 557.732515 96.041043
" clip-path="url(#p28e782fdb9)" style="fill: none; stroke: #cc86c1; stroke-width: 1.5625; stroke-linecap: round"/>
   </g>
   <g id="line2d_54">
    <path d="M 492.506922 96.04417
L 496.811406 95.92027
L 499.129206 95.622285
L 500.784777 95.181331
L 502.109234 94.608389
L 503.433691 93.755997
L 504.427033 92.880988
L 505.420376 91.765088
L 506.413718 90.3771
L 507.407061 88.685783
L 508.400404 86.652443
L 509.393746 84.226134
L 510.718203 80.287855
L 512.04266 75.521429
L 515.353802 62.705843
L 516.01603 60.85475
L 516.678259 59.514448
L 517.340487 58.752914
L 517.671601 58.59824
L 518.002716 58.593236
L 518.33383 58.733555
L 518.996058 59.420215
L 519.658287 60.578131
L 520.651629 62.970251
L 522.638315 68.762567
L 523.962771 72.382404
L 524.956114 74.579874
L 525.618342 75.691753
L 526.280571 76.45778
L 526.942799 76.826343
L 527.273913 76.846906
L 527.605028 76.7516
L 528.267256 76.197941
L 528.929485 75.144609
L 529.591713 73.589544
L 530.253941 71.551796
L 531.247284 67.685691
L 532.571741 61.39934
L 535.220654 48.195777
L 536.213997 44.385269
L 536.876226 42.545527
L 537.538454 41.387176
L 537.869568 41.087309
L 538.200682 40.982184
L 538.531797 41.075381
L 538.862911 41.368145
L 539.525139 42.545671
L 540.187368 44.478827
L 540.849596 47.098252
L 541.842939 52.094386
L 543.167395 60.083232
L 545.816309 76.508238
L 547.140766 83.153092
L 548.134109 87.064573
L 549.127451 90.051545
L 550.120794 92.21306
L 551.114136 93.699133
L 552.107479 94.671811
L 553.100822 95.27847
L 554.094164 95.638781
L 555.418621 95.886411
L 557.736421 96.024689
L 558.398649 96.03606
L 558.398649 96.03606
" clip-path="url(#p28e782fdb9)" style="fill: none; stroke: #9361ae; stroke-width: 1.5625; stroke-linecap: round"/>
   </g>
   <g id="line2d_55">
    <path d="M 493.560526 96.040877
L 497.374914 95.894651
L 499.45549 95.580294
L 501.189303 95.092132
L 502.923115 94.379629
L 504.656928 93.452687
L 506.390741 92.289337
L 507.777791 91.132685
L 509.164842 89.696974
L 510.551892 87.883333
L 511.938942 85.584088
L 513.325992 82.737298
L 515.059805 78.516189
L 518.180668 70.663984
L 519.220956 68.565145
L 520.261244 66.984314
L 520.954769 66.281288
L 521.648294 65.889607
L 522.341819 65.81867
L 523.035344 66.057447
L 523.728869 66.571152
L 524.769157 67.722293
L 526.849732 70.297056
L 527.543258 70.887179
L 528.236783 71.21131
L 528.930308 71.220712
L 529.623833 70.890823
L 530.317358 70.219935
L 531.010883 69.225707
L 532.051171 67.20206
L 533.438221 63.750396
L 538.63966 49.752923
L 539.679947 47.848175
L 540.373472 46.914185
L 541.066998 46.313703
L 541.760523 46.113809
L 542.107285 46.186875
L 542.454048 46.387513
L 543.147573 47.205156
L 543.841098 48.622519
L 544.534623 50.667895
L 545.228148 53.330981
L 546.268436 58.350207
L 548.002249 68.427009
L 549.736062 78.476279
L 550.776349 83.571393
L 551.816637 87.651137
L 552.856925 90.686613
L 553.55045 92.184114
L 554.243975 93.324246
L 554.9375 94.168936
L 555.977788 95.013101
L 557.018076 95.504405
L 558.405126 95.834721
L 560.485701 96.005058
L 562.566277 96.042559
L 562.566277 96.042559
" clip-path="url(#p28e782fdb9)" style="fill: none; stroke: #392f62; stroke-width: 1.5625; stroke-linecap: round"/>
   </g>
   <g id="patch_11">
    <path d="M 476.201959 96.049916
L 579.498041 96.049916
" style="fill: none; stroke: #212529; stroke-width: 1.25; stroke-linejoin: miter; stroke-linecap: square"/>
   </g>
   <g id="text_20">
    <!-- $\rho=1$ -->
    <g style="fill: #212529" transform="translate(517.573125 9.997564)">
     <text>
      <tspan style="font: italic 10.125px 'STIXNonUnicode'" x="0" y="-0.234375"></tspan>
      <tspan style="font: 10.125px 'STIXGeneral'" x="6.937653 15.404175" y="-0.234375">=𝟣</tspan>
     </text>
    </g>
   </g>
  </g>
  <g id="axes_6">
   <g id="patch_12">
    <path d="M 8.201959 213.049916
L 111.498041 213.049916
L 111.498041 132.997564
L 8.201959 132.997564
z
" style="fill: #ffffff"/>
   </g>
   <g id="matplotlib.axis_11">
    <g id="xtick_16">
     <g id="line2d_56">
      <path d="M 8.201959 213.049916
L 8.201959 132.997564
" clip-path="url(#p03920f0879)" style="fill: none"/>
     </g>
     <g id="line2d_57">
      <g>
       <use xlink:href="#mf3b91db6d6" x="8.201959" y="213.049916" style="fill: #212529; stroke: #212529; stroke-width: 1.25"/>
      </g>
     </g>
     <g id="text_21">
      <text style="fill: #212529; font: 9px 'system-ui', '-apple-system', 'Segoe UI', 'Roboto', 'Helvetica Neue', 'Noto Sans', 'Liberation Sans', 'Arial', sans-serif; text-anchor: middle" x="8.201959" y="229.226479" transform="rotate(-0 8.201959 229.226479)">−1</text>
     </g>
    </g>
    <g id="xtick_17">
     <g id="line2d_58">
      <path d="M 59.85 213.049916
L 59.85 132.997564
" clip-path="url(#p03920f0879)" style="fill: none"/>
     </g>
     <g id="line2d_59">
      <g>
       <use xlink:href="#mf3b91db6d6" x="59.85" y="213.049916" style="fill: #212529; stroke: #212529; stroke-width: 1.25"/>
      </g>
     </g>
     <g id="text_22">
      <text style="fill: #212529; font: 9px 'system-ui', '-apple-system', 'Segoe UI', 'Roboto', 'Helvetica Neue', 'Noto Sans', 'Liberation Sans', 'Arial', sans-serif; text-anchor: middle" x="59.85" y="229.226479" transform="rotate(-0 59.85 229.226479)">0</text>
     </g>
    </g>
    <g id="xtick_18">
     <g id="line2d_60">
      <path d="M 111.498041 213.049916
L 111.498041 132.997564
" clip-path="url(#p03920f0879)" style="fill: none"/>
     </g>
     <g id="line2d_61">
      <g>
       <use xlink:href="#mf3b91db6d6" x="111.498041" y="213.049916" style="fill: #212529; stroke: #212529; stroke-width: 1.25"/>
      </g>
     </g>
     <g id="text_23">
      <text style="fill: #212529; font: 9px 'system-ui', '-apple-system', 'Segoe UI', 'Roboto', 'Helvetica Neue', 'Noto Sans', 'Liberation Sans', 'Arial', sans-serif; text-anchor: middle" x="111.498041" y="229.226479" transform="rotate(-0 111.498041 229.226479)">1</text>
     </g>
    </g>
   </g>
   <g id="matplotlib.axis_12"/>
   <g id="line2d_62">
    <path d="M 18.910544 213.044119
L 23.494081 212.920546
L 25.609559 212.670401
L 27.372458 212.243773
L 28.782777 211.688293
L 30.193096 210.872846
L 31.250835 210.034776
L 32.308574 208.936201
L 33.366313 207.491829
L 34.424052 205.596881
L 35.481792 203.147187
L 36.539531 200.076741
L 37.94985 195.069586
L 41.475647 181.601961
L 42.180807 179.692129
L 42.885966 178.31727
L 43.591126 177.546708
L 43.943705 177.398899
L 44.296285 177.40993
L 44.648865 177.576922
L 45.354024 178.35507
L 46.059184 179.664568
L 47.116923 182.409532
L 48.527242 186.921866
L 50.9953 194.835413
L 52.405619 198.460025
L 53.463358 200.568561
L 54.521098 202.093204
L 55.226257 202.745609
L 55.931417 203.062906
L 56.636576 202.992763
L 57.341735 202.471188
L 58.046895 201.426874
L 58.752054 199.7884
L 59.457214 197.494047
L 60.162373 194.503557
L 61.220113 188.71109
L 62.277852 181.529754
L 66.156229 153.417878
L 66.861388 150.267156
L 67.566548 148.314937
L 67.919128 147.829266
L 68.271707 147.682057
L 68.624287 147.875102
L 68.976867 148.404716
L 69.329447 149.261886
L 70.034606 151.898064
L 70.739766 155.618905
L 71.797505 162.742133
L 76.028462 194.150475
L 77.086201 199.79131
L 78.14394 204.14043
L 79.201679 207.314354
L 79.906839 208.874662
L 80.611998 210.068452
L 81.317158 210.961928
L 82.374897 211.870791
L 83.432636 212.413774
L 84.490375 212.722564
L 86.253274 212.953036
L 89.073912 213.039772
L 89.073912 213.039772
" clip-path="url(#p03920f0879)" style="fill: none; stroke: #f7d2d4; stroke-width: 1.5625; stroke-linecap: round"/>
   </g>
   <g id="line2d_63">
    <path d="M 25.805124 213.030987
L 28.808957 212.870231
L 30.310873 212.608643
L 31.512406 212.227245
L 32.71394 211.623784
L 33.915473 210.717265
L 34.816623 209.771538
L 35.717772 208.524603
L 36.618922 206.889959
L 37.520072 204.767977
L 38.421222 202.062251
L 39.322372 198.706561
L 40.523905 193.231118
L 42.326205 183.573975
L 43.828121 175.843712
L 44.729271 172.261539
L 45.330038 170.582554
L 45.930804 169.584769
L 46.231188 169.360997
L 46.531571 169.325951
L 46.831954 169.480148
L 47.132338 169.821289
L 47.733104 171.041525
L 48.333871 172.915784
L 49.235021 176.716071
L 50.736937 184.55578
L 52.539237 193.910531
L 53.74077 198.936756
L 54.64192 201.79446
L 55.54307 203.792757
L 56.143836 204.626162
L 56.744603 205.044877
L 57.345369 205.031494
L 57.946136 204.564096
L 58.546903 203.61699
L 59.147669 202.162826
L 59.748436 200.176004
L 60.649586 196.1577
L 61.550735 190.889573
L 62.752269 182.098977
L 64.554568 166.571196
L 66.056485 154.19045
L 66.957635 148.416237
L 67.558401 145.666308
L 68.159168 143.976723
L 68.459551 143.563523
L 68.759934 143.449141
L 69.060318 143.637086
L 69.360701 144.126864
L 69.961468 145.989825
L 70.562234 148.955094
L 71.463384 155.151603
L 72.664917 165.629419
L 75.368367 190.034123
L 76.5699 198.312283
L 77.47105 203.030548
L 78.3722 206.538217
L 79.27335 209.007809
L 80.174499 210.655732
L 81.075649 211.698189
L 81.976799 212.323259
L 82.877949 212.678379
L 84.079482 212.909668
L 85.581399 213.013538
L 85.581399 213.013538
" clip-path="url(#p03920f0879)" style="fill: none; stroke: #eaacc7; stroke-width: 1.5625; stroke-linecap: round"/>
   </g>
   <g id="line2d_64">
    <path d="M 26.245035 213.043893
L 30.414029 212.920221
L 32.796312 212.621875
L 34.583024 212.16179
L 35.774165 211.652354
L 36.965307 210.8625
L 37.858663 209.990992
L 38.752019 208.786626
L 39.645375 207.156701
L 40.538731 205.012657
L 41.432087 202.285957
L 42.623228 197.702525
L 43.814369 192.147731
L 47.387793 174.623425
L 48.281149 171.778877
L 48.87672 170.576288
L 49.47229 170.004605
L 49.770076 169.967066
L 50.067861 170.09735
L 50.365646 170.394548
L 50.961217 171.475354
L 51.556788 173.159971
L 52.450144 176.635703
L 53.641285 182.438357
L 55.725782 192.908286
L 56.619138 196.548601
L 57.512494 199.331839
L 58.108065 200.650349
L 58.703636 201.514108
L 59.299206 201.906961
L 59.596992 201.92146
L 59.894777 201.811197
L 60.490348 201.202996
L 61.085918 200.049863
L 61.681489 198.310778
L 62.27706 195.939662
L 63.170416 191.104906
L 64.063772 184.672734
L 65.254913 173.812813
L 68.232766 144.247519
L 68.828337 140.319895
L 69.423908 137.776794
L 69.721693 137.088203
L 70.019478 136.809305
L 70.317264 136.946892
L 70.615049 137.500293
L 70.912834 138.461422
L 71.508405 141.539368
L 72.103976 145.983662
L 72.997332 154.589897
L 76.570756 192.271191
L 77.464112 198.827246
L 78.357468 203.780673
L 79.250824 207.304387
L 80.14418 209.66753
L 80.73975 210.743005
L 81.633106 211.808253
L 82.526462 212.418067
L 83.419818 212.746445
L 84.61096 212.945874
L 85.504316 213.006511
L 85.504316 213.006511
" clip-path="url(#p03920f0879)" style="fill: none; stroke: #cc86c1; stroke-width: 1.5625; stroke-linecap: round"/>
   </g>
   <g id="line2d_65">
    <path d="M 26.130943 213.042509
L 29.747815 212.915427
L 31.556251 212.62064
L 32.761875 212.194133
L 33.666094 211.667321
L 34.570312 210.881774
L 35.47453 209.74695
L 36.378748 208.163588
L 37.282966 206.038431
L 38.187184 203.305953
L 39.392808 198.706034
L 40.899839 191.714853
L 43.612493 178.634981
L 44.818117 174.063801
L 45.722335 171.474488
L 46.626553 169.621074
L 47.229365 168.761634
L 47.832178 168.16784
L 48.43499 167.80871
L 49.037802 167.65905
L 49.640614 167.70338
L 50.243426 167.937411
L 50.846238 168.367004
L 51.44905 169.005016
L 52.353268 170.385906
L 53.257486 172.306822
L 54.161704 174.762031
L 55.367329 178.741554
L 58.984201 191.392184
L 59.587013 192.795409
L 60.189825 193.769203
L 60.792637 194.238566
L 61.094043 194.264666
L 61.395449 194.143832
L 61.696855 193.872063
L 62.299667 192.868656
L 62.90248 191.260529
L 63.806698 187.81438
L 65.012322 181.79052
L 67.122164 170.71064
L 68.026382 167.253245
L 68.629194 165.745112
L 69.232006 164.982611
L 69.533412 164.897398
L 69.834818 165.013046
L 70.136225 165.328914
L 70.739037 166.546216
L 71.341849 168.495817
L 72.246067 172.595545
L 73.451691 179.610183
L 76.465751 198.081719
L 77.671376 203.618703
L 78.575594 206.742854
L 79.479812 209.035807
L 80.38403 210.621806
L 81.288248 211.655802
L 82.192466 212.291116
L 83.096684 212.658881
L 84.302308 212.901834
L 86.110745 213.021442
L 86.110745 213.021442
" clip-path="url(#p03920f0879)" style="fill: none; stroke: #9361ae; stroke-width: 1.5625; stroke-linecap: round"/>
   </g>
   <g id="line2d_66">
    <path d="M 30.668675 213.043192
L 34.462274 212.909177
L 35.92135 212.682203
L 37.088612 212.301393
L 37.964057 211.807352
L 38.839503 211.027113
L 39.714949 209.81949
L 40.29858 208.686554
L 40.88221 207.216301
L 41.757656 204.22637
L 42.633102 200.099776
L 43.508548 194.687313
L 44.675809 185.509048
L 48.177593 154.880659
L 48.761223 151.715342
L 49.344854 149.677527
L 49.636669 149.114339
L 49.928485 148.862306
L 50.2203 148.92033
L 50.512115 149.28213
L 50.803931 149.936498
L 51.387561 152.056003
L 51.971192 155.108599
L 52.846638 160.963757
L 56.056606 184.40727
L 56.932052 189.046937
L 57.807498 192.471155
L 58.391128 194.056197
L 58.974759 195.09016
L 59.558389 195.594247
L 59.850205 195.657768
L 60.433835 195.435334
L 61.017466 194.793282
L 61.601097 193.797974
L 62.476542 191.811754
L 66.561957 181.450741
L 70.06374 174.458215
L 71.231001 172.453072
L 71.814632 171.791081
L 72.398263 171.495436
L 72.690078 171.515852
L 72.981893 171.662476
L 73.565524 172.365479
L 74.149154 173.643506
L 74.732785 175.494622
L 75.608231 179.238096
L 76.775492 185.523539
L 79.110014 198.710749
L 80.277276 203.922573
L 81.152722 206.903228
L 82.028167 209.109846
L 82.903613 210.647893
L 83.779059 211.658417
L 84.654505 212.284631
L 85.529951 212.65072
L 86.697212 212.89579
L 88.739919 213.026922
L 88.739919 213.026922
" clip-path="url(#p03920f0879)" style="fill: none; stroke: #392f62; stroke-width: 1.5625; stroke-linecap: round"/>
   </g>
   <g id="patch_13">
    <path d="M 8.201959 213.049916
L 111.498041 213.049916
" style="fill: none; stroke: #212529; stroke-width: 1.25; stroke-linejoin: miter; stroke-linecap: square"/>
   </g>
   <g id="text_24">
    <!-- $\rho=1.25$ -->
    <g style="fill: #212529" transform="translate(43.245 126.997564)">
     <text>
      <tspan style="font: italic 10.125px 'STIXNonUnicode'" x="0" y="-0.234375"></tspan>
      <tspan style="font: 10.125px 'STIXGeneral'" x="6.937653 15.404175 20.466675 22.997925 28.060425" y="-0.234375">=𝟣.𝟤𝟧</tspan>
     </text>
    </g>
   </g>
  </g>
  <g id="axes_7">
   <g id="patch_14">
    <path d="M 125.201959 213.049916
L 228.498041 213.049916
L 228.498041 132.997564
L 125.201959 132.997564
z
" style="fill: #ffffff"/>
   </g>
   <g id="matplotlib.axis_13">
    <g id="xtick_19">
     <g id="line2d_67">
      <path d="M 125.201959 213.049916
L 125.201959 132.997564
" clip-path="url(#p5d041d29dd)" style="fill: none"/>
     </g>
     <g id="line2d_68">
      <g>
       <use xlink:href="#mf3b91db6d6" x="125.201959" y="213.049916" style="fill: #212529; stroke: #212529; stroke-width: 1.25"/>
      </g>
     </g>
     <g id="text_25">
      <text style="fill: #212529; font: 9px 'system-ui', '-apple-system', 'Segoe UI', 'Roboto', 'Helvetica Neue', 'Noto Sans', 'Liberation Sans', 'Arial', sans-serif; text-anchor: middle" x="125.201959" y="229.226479" transform="rotate(-0 125.201959 229.226479)">−1</text>
     </g>
    </g>
    <g id="xtick_20">
     <g id="line2d_69">
      <path d="M 176.85 213.049916
L 176.85 132.997564
" clip-path="url(#p5d041d29dd)" style="fill: none"/>
     </g>
     <g id="line2d_70">
      <g>
       <use xlink:href="#mf3b91db6d6" x="176.85" y="213.049916" style="fill: #212529; stroke: #212529; stroke-width: 1.25"/>
      </g>
     </g>
     <g id="text_26">
      <text style="fill: #212529; font: 9px 'system-ui', '-apple-system', 'Segoe UI', 'Roboto', 'Helvetica Neue', 'Noto Sans', 'Liberation Sans', 'Arial', sans-serif; text-anchor: middle" x="176.85" y="229.226479" transform="rotate(-0 176.85 229.226479)">0</text>
     </g>
    </g>
    <g id="xtick_21">
     <g id="line2d_71">
      <path d="M 228.498041 213.049916
L 228.498041 132.997564
" clip-path="url(#p5d041d29dd)" style="fill: none"/>
     </g>
     <g id="line2d_72">
      <g>
       <use xlink:href="#mf3b91db6d6" x="228.498041" y="213.049916" style="fill: #212529; stroke: #212529; stroke-width: 1.25"/>
      </g>
     </g>
     <g id="text_27">
      <text style="fill: #212529; font: 9px 'system-ui', '-apple-system', 'Segoe UI', 'Roboto', 'Helvetica Neue', 'Noto Sans', 'Liberation Sans', 'Arial', sans-serif; text-anchor: middle" x="228.498041" y="229.226479" transform="rotate(-0 228.498041 229.226479)">1</text>
     </g>
    </g>
   </g>
   <g id="matplotlib.axis_14"/>
   <g id="line2d_73">
    <path d="M 144.297152 213.037128
L 146.992069 212.906536
L 148.489245 212.613366
L 149.38755 212.257318
L 150.285856 211.681421
L 151.184162 210.797152
L 152.082467 209.506677
L 152.980773 207.716307
L 153.879078 205.356344
L 154.777384 202.403798
L 155.975125 197.6277
L 157.771736 189.302243
L 160.167217 178.175992
L 161.664393 172.237487
L 162.862134 168.469113
L 163.76044 166.430602
L 164.35931 165.521527
L 164.95818 165.00109
L 165.557051 164.871188
L 166.155921 165.10948
L 166.754791 165.670393
L 167.653097 166.975572
L 169.150273 169.803767
L 173.342366 177.928796
L 174.839542 180.532355
L 175.737847 181.785854
L 176.636153 182.689358
L 177.534458 183.2058
L 178.432764 183.366223
L 179.331069 183.257218
L 182.624856 182.450373
L 183.523162 182.583756
L 184.421468 183.001417
L 185.319773 183.720084
L 186.218079 184.722567
L 187.415819 186.440594
L 188.61356 188.548201
L 189.811301 191.076417
L 191.009042 194.090002
L 192.805653 199.384135
L 194.901699 205.542829
L 196.09944 208.342378
L 196.997746 209.939199
L 197.896051 211.108633
L 198.794357 211.90748
L 199.692662 212.416727
L 200.890403 212.787844
L 202.387579 212.975538
L 203.884755 213.032262
L 203.884755 213.032262
" clip-path="url(#p5d041d29dd)" style="fill: none; stroke: #f7d2d4; stroke-width: 1.5625; stroke-linecap: round"/>
   </g>
   <g id="line2d_74">
    <path d="M 138.120762 213.043577
L 142.412389 212.911565
L 144.723264 212.614618
L 146.704015 212.122606
L 148.354641 211.472983
L 149.675141 210.68126
L 150.665517 209.801633
L 151.655892 208.521257
L 152.316142 207.352584
L 152.976392 205.858634
L 153.966768 202.874431
L 154.957143 198.860929
L 155.947518 193.776275
L 157.268019 185.591121
L 160.239145 166.038783
L 161.22952 160.887638
L 162.219896 156.966559
L 162.880146 155.086807
L 163.540396 153.799439
L 164.200646 153.101305
L 164.530772 152.97342
L 164.860897 152.994346
L 165.191022 153.165985
L 165.521147 153.490842
L 166.181397 154.611816
L 166.841647 156.378748
L 167.501898 158.800665
L 168.492273 163.613216
L 169.482648 169.62669
L 173.44415 195.475842
L 174.434525 199.741315
L 175.094775 201.771197
L 175.755026 203.137188
L 176.415276 203.855411
L 176.745401 203.981124
L 177.075526 203.957685
L 177.405651 203.790507
L 178.065901 203.048147
L 178.726152 201.802962
L 179.386402 200.107992
L 180.376777 196.852933
L 181.697278 191.568135
L 184.008154 182.022695
L 184.998529 178.958443
L 185.658779 177.595154
L 186.319029 176.898084
L 186.649154 176.821079
L 186.97928 176.931073
L 187.309405 177.228694
L 187.969655 178.373394
L 188.629905 180.197481
L 189.620281 183.974017
L 190.940781 190.187336
L 192.921532 199.566517
L 193.911907 203.448348
L 194.902282 206.549662
L 195.892658 208.868045
L 196.883033 210.495323
L 197.873409 211.56986
L 198.863784 212.237872
L 199.854159 212.628764
L 201.17466 212.889695
L 203.15541 213.019291
L 203.815661 213.033253
L 203.815661 213.033253
" clip-path="url(#p5d041d29dd)" style="fill: none; stroke: #eaacc7; stroke-width: 1.5625; stroke-linecap: round"/>
   </g>
   <g id="line2d_75">
    <path d="M 135.773015 213.043245
L 139.906154 212.915475
L 142.536333 212.604502
L 146.293733 212.080658
L 150.802612 211.790001
L 151.554092 211.501042
L 152.305572 211.032738
L 153.057052 210.343044
L 153.808532 209.396926
L 154.560011 208.169617
L 155.687231 205.778772
L 156.814451 202.749904
L 158.317411 197.882984
L 162.82629 182.140639
L 163.95351 179.367642
L 164.70499 178.071523
L 165.45647 177.29255
L 165.832209 177.111636
L 166.207949 177.074769
L 166.583689 177.183638
L 166.959429 177.438081
L 167.710909 178.372967
L 168.462389 179.836415
L 169.589609 182.842132
L 173.347008 194.206181
L 174.098488 195.505131
L 174.474228 195.909536
L 174.849968 196.130587
L 175.225708 196.15543
L 175.601448 195.973154
L 175.977188 195.575031
L 176.352928 194.954797
L 177.104407 193.037118
L 177.855887 190.231291
L 178.607367 186.60785
L 179.734587 179.956011
L 182.740507 160.976654
L 183.491986 157.512295
L 184.243466 155.057313
L 184.619206 154.257428
L 184.994946 153.759602
L 185.370686 153.570682
L 185.746426 153.692853
L 186.122166 154.123757
L 186.497906 154.856655
L 187.249386 157.180901
L 188.000866 160.533018
L 189.128085 167.071835
L 191.006785 180.018927
L 192.509745 190.055645
L 193.636965 196.425282
L 194.764184 201.468694
L 195.515664 204.079417
L 196.267144 206.140113
L 197.018624 207.725267
L 197.770104 208.921933
L 198.521584 209.817918
L 199.648804 210.768081
L 200.776023 211.422831
L 202.278983 212.041752
L 204.157683 212.561346
L 206.036382 212.857995
L 208.666562 213.015901
L 210.545262 213.042766
L 210.545262 213.042766
" clip-path="url(#p5d041d29dd)" style="fill: none; stroke: #cc86c1; stroke-width: 1.5625; stroke-linecap: round"/>
   </g>
   <g id="line2d_76">
    <path d="M 146.937972 213.043711
L 150.800349 212.923861
L 153.177197 212.642038
L 154.959833 212.233641
L 156.148256 211.739881
L 157.039574 211.12206
L 157.930892 210.154331
L 158.82221 208.695404
L 159.713528 206.624912
L 160.604846 203.887698
L 161.793269 199.303639
L 165.061435 185.720107
L 165.952752 183.270033
L 166.546964 182.17944
L 167.141176 181.552286
L 167.735388 181.38632
L 168.3296 181.657838
L 168.923812 182.325584
L 169.518024 183.335122
L 170.409342 185.349881
L 171.894871 189.45217
L 173.380401 193.488734
L 174.271719 195.414235
L 174.865931 196.36141
L 175.460143 196.984718
L 176.054354 197.252675
L 176.648566 197.147296
L 177.242778 196.660918
L 177.83699 195.790618
L 178.431202 194.531578
L 179.32252 191.884086
L 180.213838 188.247458
L 181.105155 183.511587
L 181.996473 177.610269
L 183.184897 168.086236
L 185.858851 145.122671
L 186.750168 139.808168
L 187.34438 137.65213
L 187.641486 137.059162
L 187.938592 136.80933
L 188.235698 136.910625
L 188.532804 137.365242
L 188.82991 138.169506
L 189.424122 140.783698
L 190.018334 144.614444
L 190.909652 152.169036
L 192.692287 170.460457
L 194.177817 184.957537
L 195.366241 194.302634
L 196.257558 199.744816
L 197.148876 203.917964
L 198.040194 206.994417
L 198.931512 209.179918
L 199.82283 210.675324
L 200.714148 211.657701
L 201.605465 212.274045
L 202.496783 212.641046
L 203.685207 212.891674
L 205.467843 213.019421
L 206.062054 213.033378
L 206.062054 213.033378
" clip-path="url(#p5d041d29dd)" style="fill: none; stroke: #9361ae; stroke-width: 1.5625; stroke-linecap: round"/>
   </g>
   <g id="line2d_77">
    <path d="M 145.21303 213.034386
L 148.310561 212.887861
L 150.031412 212.590175
L 151.408093 212.109019
L 152.440604 211.532482
L 153.473114 210.702973
L 154.505625 209.537587
L 155.538135 207.920785
L 156.570646 205.696433
L 157.603156 202.677259
L 158.635667 198.68501
L 159.668177 193.624587
L 161.044858 185.389593
L 163.798219 168.027201
L 164.48656 164.772665
L 165.1749 162.390057
L 165.86324 161.021329
L 166.207411 160.741326
L 166.551581 160.733643
L 166.895751 160.993951
L 167.239921 161.513044
L 167.928261 163.268731
L 168.616602 165.84666
L 169.649112 170.81756
L 173.090814 188.725764
L 174.123325 192.634178
L 175.155835 195.491378
L 175.844176 196.806571
L 176.532516 197.66548
L 177.220856 198.088558
L 177.909197 198.098135
L 178.597537 197.715626
L 179.285877 196.959905
L 179.974218 195.846774
L 180.662558 194.389668
L 181.695069 191.588571
L 182.727579 188.107428
L 184.10426 182.631197
L 186.513451 172.666285
L 187.545962 169.429016
L 188.234302 168.006962
L 188.578472 167.568271
L 188.922642 167.328932
L 189.266812 167.29862
L 189.610983 167.483622
L 189.955153 167.886567
L 190.643493 169.337686
L 191.331833 171.596766
L 192.364344 176.243224
L 193.741025 183.891468
L 195.806046 195.463785
L 196.838556 200.249253
L 197.871067 204.065506
L 198.903577 206.918738
L 199.936088 208.93634
L 200.968598 210.300994
L 202.001109 211.197976
L 203.03362 211.78353
L 204.4103 212.272978
L 206.131151 212.633577
L 208.540342 212.901135
L 211.982044 213.03034
L 213.702895 213.044639
L 213.702895 213.044639
" clip-path="url(#p5d041d29dd)" style="fill: none; stroke: #392f62; stroke-width: 1.5625; stroke-linecap: round"/>
   </g>
   <g id="patch_15">
    <path d="M 125.201959 213.049916
L 228.498041 213.049916
" style="fill: none; stroke: #212529; stroke-width: 1.25; stroke-linejoin: miter; stroke-linecap: square"/>
   </g>
   <g id="text_28">
    <!-- $\rho=1.5$ -->
    <g style="fill: #212529" transform="translate(162.77625 126.997564)">
     <text>
      <tspan style="font: italic 10.125px 'STIXNonUnicode'" x="0" y="-0.234375"></tspan>
      <tspan style="font: 10.125px 'STIXGeneral'" x="6.937653 15.404175 20.466675 22.997925" y="-0.234375">=𝟣.𝟧</tspan>
     </text>
    </g>
   </g>
  </g>
  <g id="axes_8">
   <g id="patch_16">
    <path d="M 242.201959 213.049916
L 345.498041 213.049916
L 345.498041 132.997564
L 242.201959 132.997564
z
" style="fill: #ffffff"/>
   </g>
   <g id="matplotlib.axis_15">
    <g id="xtick_22">
     <g id="line2d_78">
      <path d="M 242.201959 213.049916
L 242.201959 132.997564
" clip-path="url(#p229098629d)" style="fill: none"/>
     </g>
     <g id="line2d_79">
      <g>
       <use xlink:href="#mf3b91db6d6" x="242.201959" y="213.049916" style="fill: #212529; stroke: #212529; stroke-width: 1.25"/>
      </g>
     </g>
     <g id="text_29">
      <text style="fill: #212529; font: 9px 'system-ui', '-apple-system', 'Segoe UI', 'Roboto', 'Helvetica Neue', 'Noto Sans', 'Liberation Sans', 'Arial', sans-serif; text-anchor: middle" x="242.201959" y="229.226479" transform="rotate(-0 242.201959 229.226479)">−1</text>
     </g>
    </g>
    <g id="xtick_23">
     <g id="line2d_80">
      <path d="M 293.85 213.049916
L 293.85 132.997564
" clip-path="url(#p229098629d)" style="fill: none"/>
     </g>
     <g id="line2d_81">
      <g>
       <use xlink:href="#mf3b91db6d6" x="293.85" y="213.049916" style="fill: #212529; stroke: #212529; stroke-width: 1.25"/>
      </g>
     </g>
     <g id="text_30">
      <text style="fill: #212529; font: 9px 'system-ui', '-apple-system', 'Segoe UI', 'Roboto', 'Helvetica Neue', 'Noto Sans', 'Liberation Sans', 'Arial', sans-serif; text-anchor: middle" x="293.85" y="229.226479" transform="rotate(-0 293.85 229.226479)">0</text>
     </g>
    </g>
    <g id="xtick_24">
     <g id="line2d_82">
      <path d="M 345.498041 213.049916
L 345.498041 132.997564
" clip-path="url(#p229098629d)" style="fill: none"/>
     </g>
     <g id="line2d_83">
      <g>
       <use xlink:href="#mf3b91db6d6" x="345.498041" y="213.049916" style="fill: #212529; stroke: #212529; stroke-width: 1.25"/>
      </g>
     </g>
     <g id="text_31">
      <text style="fill: #212529; font: 9px 'system-ui', '-apple-system', 'Segoe UI', 'Roboto', 'Helvetica Neue', 'Noto Sans', 'Liberation Sans', 'Arial', sans-serif; text-anchor: middle" x="345.498041" y="229.226479" transform="rotate(-0 345.498041 229.226479)">1</text>
     </g>
    </g>
   </g>
   <g id="matplotlib.axis_16"/>
   <g id="line2d_84">
    <path d="M 263.377124 213.038179
L 265.964466 212.916584
L 267.689361 212.619945
L 269.414256 212.073295
L 274.013976 210.250603
L 274.876423 209.457778
L 275.451388 208.665275
L 276.313835 206.979505
L 277.176283 204.65247
L 278.326213 200.689837
L 280.626073 192.237847
L 281.48852 190.053817
L 282.063485 189.178175
L 282.63845 188.832763
L 282.925933 188.863908
L 283.500897 189.319498
L 284.075862 190.248593
L 284.93831 192.317225
L 287.525652 199.468767
L 288.3881 201.058707
L 288.963065 201.772075
L 289.53803 202.211407
L 290.112995 202.387574
L 290.68796 202.306586
L 291.262924 201.960287
L 291.837889 201.319987
L 292.412854 200.333894
L 292.987819 198.928932
L 293.562784 197.017273
L 294.137749 194.507587
L 295.000197 189.455753
L 295.862644 182.765539
L 297.012574 171.632248
L 299.312434 148.03904
L 300.174881 141.690844
L 300.749846 138.849706
L 301.324811 137.226665
L 301.612294 136.871275
L 301.899776 136.809343
L 302.187259 137.027663
L 302.474741 137.509871
L 303.049706 139.190192
L 303.624671 141.690507
L 304.487119 146.640879
L 305.637049 154.827934
L 307.361943 169.08777
L 309.949286 190.551699
L 311.099216 198.257135
L 311.961663 202.845018
L 312.824111 206.367354
L 313.686558 208.906768
L 314.549006 210.623078
L 315.411453 211.709287
L 316.2739 212.35253
L 317.136348 212.7088
L 318.286278 212.930786
L 320.298655 213.03569
L 320.586138 213.039735
L 320.586138 213.039735
" clip-path="url(#p229098629d)" style="fill: none; stroke: #f7d2d4; stroke-width: 1.5625; stroke-linecap: round"/>
   </g>
   <g id="line2d_85">
    <path d="M 262.281747 213.036209
L 264.956329 212.893305
L 266.293621 212.608049
L 267.296589 212.160955
L 267.965235 211.685396
L 268.633881 211.017243
L 269.302526 210.110964
L 269.971172 208.924855
L 270.974141 206.557721
L 271.977109 203.472387
L 273.314401 198.44552
L 276.323306 186.510693
L 277.660598 182.300878
L 278.997889 178.950745
L 280.335181 176.286993
L 281.338149 174.749764
L 282.006795 174.022441
L 282.675441 173.612483
L 283.344086 173.591998
L 284.012732 174.019962
L 284.681378 174.928475
L 285.350023 176.313425
L 286.352992 179.178718
L 287.690283 183.979153
L 289.696221 191.30609
L 290.699189 194.202846
L 291.367835 195.660235
L 292.03648 196.67412
L 292.705126 197.20347
L 293.039449 197.276277
L 293.373772 197.216817
L 293.708095 197.022505
L 294.37674 196.222195
L 295.045386 194.869089
L 295.714032 192.973159
L 296.717 189.188003
L 298.054292 182.776254
L 300.394552 170.937444
L 301.063198 168.341524
L 301.731843 166.464036
L 302.066166 165.846736
L 302.400489 165.465277
L 302.734812 165.33096
L 303.069135 165.45068
L 303.403457 165.826638
L 303.73778 166.456208
L 304.406426 168.441864
L 305.075072 171.29507
L 306.07804 176.81356
L 309.755592 199.026565
L 310.75856 203.36713
L 311.761529 206.64647
L 312.764497 208.96776
L 313.433143 210.067887
L 314.101789 210.877534
L 315.104757 211.671453
L 316.107726 212.113457
L 317.445017 212.393938
L 320.453923 212.656174
L 326.137411 213.012546
L 328.811994 213.044914
L 328.811994 213.044914
" clip-path="url(#p229098629d)" style="fill: none; stroke: #eaacc7; stroke-width: 1.5625; stroke-linecap: round"/>
   </g>
   <g id="line2d_86">
    <path d="M 251.826583 213.044477
L 256.718792 212.928042
L 258.976735 212.693825
L 260.858354 212.291392
L 262.363649 211.752386
L 263.49262 211.165331
L 264.621592 210.3652
L 265.750563 209.288126
L 266.879535 207.864495
L 268.008506 206.033339
L 269.137477 203.764405
L 270.642772 200.114259
L 274.40601 190.26731
L 275.534982 188.176011
L 276.287629 187.238946
L 277.040277 186.717002
L 277.792924 186.623209
L 278.545572 186.943032
L 279.29822 187.636267
L 280.050867 188.641624
L 281.179838 190.567057
L 284.943076 197.503312
L 286.072048 199.062545
L 287.201019 200.267208
L 288.32999 201.126121
L 289.458962 201.648262
L 290.211609 201.802411
L 290.964257 201.785359
L 291.716905 201.573573
L 292.469552 201.135011
L 293.2222 200.430007
L 293.974847 199.412867
L 294.727495 198.034472
L 295.480142 196.246413
L 296.23279 194.007161
L 297.361761 189.75156
L 298.490733 184.458375
L 300.372352 174.094098
L 301.877647 165.995644
L 302.630294 162.670397
L 303.382942 160.159846
L 304.13559 158.669821
L 304.511913 158.354383
L 304.888237 158.340272
L 305.264561 158.631657
L 305.640885 159.226858
L 306.393532 161.293121
L 307.14618 164.414648
L 308.275151 170.630441
L 312.791037 198.308518
L 313.920008 203.018698
L 315.048979 206.519376
L 315.801627 208.257851
L 316.554275 209.595834
L 317.306922 210.60276
L 318.05957 211.344843
L 319.188541 212.088081
L 320.317512 212.526784
L 321.822808 212.830916
L 324.08075 212.998306
L 326.715017 213.042458
L 326.715017 213.042458
" clip-path="url(#p229098629d)" style="fill: none; stroke: #cc86c1; stroke-width: 1.5625; stroke-linecap: round"/>
   </g>
   <g id="line2d_87">
    <path d="M 259.851851 213.044735
L 264.346445 212.926249
L 266.593742 212.671132
L 268.198954 212.29456
L 269.483124 211.775406
L 270.446251 211.178944
L 271.409379 210.325934
L 272.372506 209.1362
L 273.335633 207.534024
L 274.29876 205.461071
L 275.261888 202.884901
L 276.546057 198.661364
L 277.830227 193.585753
L 279.435439 186.242728
L 282.324821 172.486327
L 283.287948 168.983635
L 283.930033 167.335726
L 284.572118 166.381228
L 284.89316 166.193173
L 285.214203 166.208101
L 285.535245 166.429674
L 285.856287 166.858078
L 286.498372 168.318185
L 287.140457 170.518946
L 288.103584 174.933813
L 290.029839 185.620839
L 291.314009 192.200163
L 292.277136 196.085318
L 292.919221 198.036926
L 293.561306 199.438287
L 294.20339 200.279421
L 294.524433 200.490676
L 294.845475 200.563973
L 295.166518 200.50098
L 295.48756 200.303636
L 296.129645 199.514759
L 296.77173 198.217517
L 297.413815 196.437506
L 298.376942 192.941264
L 299.661111 187.03622
L 302.871536 171.269866
L 303.513621 169.083819
L 304.155705 167.551343
L 304.79779 166.769415
L 305.118833 166.679077
L 305.439875 166.793619
L 305.760917 167.112595
L 306.403002 168.346985
L 307.045087 170.320108
L 308.008214 174.432314
L 309.292384 181.326694
L 311.860723 195.612418
L 313.144893 201.349831
L 314.10802 204.749043
L 315.071148 207.386697
L 316.034275 209.342793
L 316.997402 210.728464
L 317.960529 211.663994
L 318.923657 212.263959
L 319.886784 212.62803
L 321.170954 212.881899
L 323.097208 213.015634
L 323.739293 213.030875
L 323.739293 213.030875
" clip-path="url(#p229098629d)" style="fill: none; stroke: #9361ae; stroke-width: 1.5625; stroke-linecap: round"/>
   </g>
   <g id="line2d_88">
    <path d="M 261.730566 213.042055
L 264.945915 212.929328
L 266.55359 212.69106
L 267.839729 212.280203
L 268.804334 211.757009
L 269.768938 210.961785
L 270.733543 209.792266
L 271.698148 208.128048
L 272.662753 205.844067
L 273.627357 202.834654
L 274.591962 199.041431
L 275.878101 192.787726
L 277.164241 185.35131
L 279.09345 172.670085
L 281.66573 155.43487
L 282.630334 150.129548
L 283.273404 147.367869
L 283.916474 145.41385
L 284.238009 144.781882
L 284.559544 144.397166
L 284.881079 144.268528
L 285.202613 144.401144
L 285.524148 144.796366
L 285.845683 145.451682
L 286.488753 147.513881
L 287.131823 150.496502
L 288.096427 156.387842
L 289.382567 165.96709
L 291.954846 185.783497
L 293.240986 193.909203
L 294.20559 198.758531
L 295.170195 202.478702
L 296.1348 205.106588
L 296.77787 206.293789
L 297.420939 207.066768
L 298.064009 207.460186
L 298.707079 207.508803
L 299.350149 207.246237
L 299.993219 206.704228
L 300.636288 205.912493
L 301.600893 204.318713
L 302.887033 201.595266
L 306.102382 194.208047
L 306.745451 193.206115
L 307.388521 192.544272
L 308.031591 192.276351
L 308.674661 192.430665
L 309.317731 193.006425
L 309.9608 193.973844
L 310.925405 196.033113
L 312.211545 199.495528
L 314.462289 205.649931
L 315.748428 208.394109
L 316.713033 209.937429
L 317.677638 211.063894
L 318.642242 211.839936
L 319.606847 212.346254
L 320.892987 212.732935
L 322.500661 212.947098
L 325.394475 213.040982
L 325.71601 213.043353
L 325.71601 213.043353
" clip-path="url(#p229098629d)" style="fill: none; stroke: #392f62; stroke-width: 1.5625; stroke-linecap: round"/>
   </g>
   <g id="patch_17">
    <path d="M 242.201959 213.049916
L 345.498041 213.049916
" style="fill: none; stroke: #212529; stroke-width: 1.25; stroke-linejoin: miter; stroke-linecap: square"/>
   </g>
   <g id="text_32">
    <!-- $\rho=1.75$ -->
    <g style="fill: #212529" transform="translate(277.245 126.997564)">
     <text>
      <tspan style="font: italic 10.125px 'STIXNonUnicode'" x="0" y="-0.234375"></tspan>
      <tspan style="font: 10.125px 'STIXGeneral'" x="6.937653 15.404175 20.466675 22.997925 28.060425" y="-0.234375">=𝟣.𝟩𝟧</tspan>
     </text>
    </g>
   </g>
  </g>
  <g id="axes_9">
   <g id="patch_18">
    <path d="M 359.201959 213.049916
L 462.498041 213.049916
L 462.498041 132.997564
L 359.201959 132.997564
z
" style="fill: #ffffff"/>
   </g>
   <g id="matplotlib.axis_17">
    <g id="xtick_25">
     <g id="line2d_89">
      <path d="M 359.201959 213.049916
L 359.201959 132.997564
" clip-path="url(#p8581f2bf8c)" style="fill: none"/>
     </g>
     <g id="line2d_90">
      <g>
       <use xlink:href="#mf3b91db6d6" x="359.201959" y="213.049916" style="fill: #212529; stroke: #212529; stroke-width: 1.25"/>
      </g>
     </g>
     <g id="text_33">
      <text style="fill: #212529; font: 9px 'system-ui', '-apple-system', 'Segoe UI', 'Roboto', 'Helvetica Neue', 'Noto Sans', 'Liberation Sans', 'Arial', sans-serif; text-anchor: middle" x="359.201959" y="229.226479" transform="rotate(-0 359.201959 229.226479)">−1</text>
     </g>
    </g>
    <g id="xtick_26">
     <g id="line2d_91">
      <path d="M 410.85 213.049916
L 410.85 132.997564
" clip-path="url(#p8581f2bf8c)" style="fill: none"/>
     </g>
     <g id="line2d_92">
      <g>
       <use xlink:href="#mf3b91db6d6" x="410.85" y="213.049916" style="fill: #212529; stroke: #212529; stroke-width: 1.25"/>
      </g>
     </g>
     <g id="text_34">
      <text style="fill: #212529; font: 9px 'system-ui', '-apple-system', 'Segoe UI', 'Roboto', 'Helvetica Neue', 'Noto Sans', 'Liberation Sans', 'Arial', sans-serif; text-anchor: middle" x="410.85" y="229.226479" transform="rotate(-0 410.85 229.226479)">0</text>
     </g>
    </g>
    <g id="xtick_27">
     <g id="line2d_93">
      <path d="M 462.498041 213.049916
L 462.498041 132.997564
" clip-path="url(#p8581f2bf8c)" style="fill: none"/>
     </g>
     <g id="line2d_94">
      <g>
       <use xlink:href="#mf3b91db6d6" x="462.498041" y="213.049916" style="fill: #212529; stroke: #212529; stroke-width: 1.25"/>
      </g>
     </g>
     <g id="text_35">
      <text style="fill: #212529; font: 9px 'system-ui', '-apple-system', 'Segoe UI', 'Roboto', 'Helvetica Neue', 'Noto Sans', 'Liberation Sans', 'Arial', sans-serif; text-anchor: middle" x="462.498041" y="229.226479" transform="rotate(-0 462.498041 229.226479)">1</text>
     </g>
    </g>
   </g>
   <g id="matplotlib.axis_18"/>
   <g id="line2d_95">
    <path d="M 368.245183 213.045427
L 373.629611 212.915833
L 376.142344 212.626605
L 377.937154 212.175534
L 379.373001 211.54865
L 380.449887 210.847901
L 381.526773 209.887863
L 382.603658 208.614329
L 383.680544 206.98093
L 384.75743 204.955263
L 385.834315 202.526606
L 387.270163 198.706863
L 389.782896 191.077242
L 391.577705 185.927098
L 392.654591 183.370088
L 393.731477 181.332841
L 394.808362 179.800249
L 395.885248 178.68403
L 396.962134 177.883867
L 398.039019 177.357316
L 398.756943 177.183174
L 399.474867 177.197526
L 400.19279 177.455077
L 400.910714 178.011349
L 401.628638 178.909934
L 402.346562 180.170874
L 403.423447 182.70686
L 404.859295 186.967291
L 407.013066 193.565934
L 408.089952 196.156582
L 408.807876 197.426803
L 409.525799 198.272522
L 410.243723 198.66668
L 410.602685 198.691008
L 411.320609 198.396164
L 412.038533 197.656695
L 412.756456 196.501326
L 413.47438 194.97429
L 414.551266 192.126942
L 417.781923 182.732942
L 418.499846 181.25711
L 419.21777 180.251433
L 419.935694 179.787547
L 420.294656 179.77126
L 420.653618 179.900549
L 421.01258 180.173753
L 421.730503 181.134045
L 422.448427 182.596901
L 423.525313 185.553234
L 424.96116 190.400723
L 427.832855 200.439533
L 429.268703 204.585974
L 430.345589 207.091408
L 431.422474 209.054105
L 432.49936 210.506702
L 433.576245 211.518902
L 434.653131 212.180833
L 435.730017 212.585955
L 437.165864 212.867979
L 439.319636 213.014098
L 439.678597 213.023309
L 439.678597 213.023309
" clip-path="url(#p8581f2bf8c)" style="fill: none; stroke: #f7d2d4; stroke-width: 1.5625; stroke-linecap: round"/>
   </g>
   <g id="line2d_96">
    <path d="M 380.158918 213.033131
L 382.794998 212.888916
L 384.259487 212.610441
L 385.431078 212.179663
L 386.602669 211.487123
L 387.774261 210.476191
L 388.945852 209.107444
L 390.117443 207.339408
L 391.289034 205.096744
L 392.460626 202.255856
L 393.632217 198.680852
L 394.803808 194.320687
L 396.854093 185.467218
L 398.025684 180.714852
L 398.904377 177.938032
L 399.490173 176.657177
L 400.075969 175.925678
L 400.368866 175.781916
L 400.661764 175.790358
L 400.954662 175.951271
L 401.540458 176.719865
L 402.126253 178.043966
L 403.004947 180.897728
L 404.176538 185.744721
L 406.226823 194.31043
L 407.105516 197.038398
L 407.691312 198.329033
L 408.277107 199.129192
L 408.570005 199.332177
L 408.862903 199.398853
L 409.155801 199.326909
L 409.448698 199.115189
L 410.034494 198.273813
L 410.62029 196.890067
L 411.206085 194.999749
L 412.084779 191.341179
L 413.25637 185.343978
L 416.771144 166.295096
L 417.942735 161.462931
L 418.821428 158.897884
L 419.407224 157.866842
L 419.700122 157.593356
L 419.99302 157.497528
L 420.285917 157.590211
L 420.578815 157.880513
L 421.164611 159.0786
L 421.750406 161.111322
L 422.336202 163.944162
L 423.214895 169.478352
L 424.679384 180.751146
L 426.436771 193.988673
L 427.608363 200.880403
L 428.487056 204.753362
L 429.365749 207.596243
L 430.244443 209.584135
L 431.123136 210.917312
L 432.00183 211.779308
L 432.880523 212.318165
L 434.052114 212.719197
L 435.516603 212.939901
L 438.152684 213.039346
L 438.445581 213.042025
L 438.445581 213.042025
" clip-path="url(#p8581f2bf8c)" style="fill: none; stroke: #eaacc7; stroke-width: 1.5625; stroke-linecap: round"/>
   </g>
   <g id="line2d_97">
    <path d="M 379.957103 213.026035
L 382.120943 212.861333
L 383.202863 212.59887
L 384.014302 212.238288
L 384.825742 211.666346
L 385.637182 210.808502
L 386.448622 209.586585
L 387.260062 207.925039
L 388.071502 205.755056
L 388.882942 203.014815
L 389.964862 198.372954
L 391.046782 192.470391
L 392.128702 185.170072
L 393.210622 176.424248
L 394.833501 161.224459
L 396.456381 146.42347
L 397.267821 140.867734
L 397.808781 138.358203
L 398.349741 137.010621
L 398.620221 136.809367
L 398.890701 136.933457
L 399.161181 137.384243
L 399.702141 139.245102
L 400.243101 142.29991
L 401.054541 148.745213
L 402.136461 159.584048
L 404.300301 181.721292
L 405.382221 190.35294
L 406.19366 195.341424
L 407.0051 199.106869
L 407.81654 201.790077
L 408.62798 203.56122
L 409.16894 204.315558
L 409.7099 204.776113
L 410.25086 204.974411
L 410.79182 204.93375
L 411.33278 204.6703
L 411.87374 204.195121
L 412.68518 203.104232
L 413.49662 201.5903
L 414.57854 199.015007
L 418.365259 189.212017
L 418.906219 188.4196
L 419.447179 187.944299
L 419.988139 187.826833
L 420.529099 188.094431
L 421.070059 188.75718
L 421.611019 189.805214
L 422.422459 192.025866
L 423.504379 195.881042
L 425.938699 205.131511
L 427.020619 208.234289
L 427.832058 209.943627
L 428.643498 211.158203
L 429.454938 211.963386
L 430.266378 212.461849
L 431.348298 212.813719
L 432.700698 212.985067
L 433.782618 213.029533
L 433.782618 213.029533
" clip-path="url(#p8581f2bf8c)" style="fill: none; stroke: #cc86c1; stroke-width: 1.5625; stroke-linecap: round"/>
   </g>
   <g id="line2d_98">
    <path d="M 383.773038 213.043932
L 387.232836 212.930223
L 388.962735 212.66609
L 390.116001 212.277524
L 390.980951 211.781537
L 391.8459 211.009961
L 392.71085 209.8381
L 393.575799 208.113001
L 394.440749 205.666733
L 395.305698 202.339038
L 396.170648 198.007507
L 397.035597 192.623359
L 398.188863 183.939982
L 401.648661 156.079553
L 402.225294 153.123932
L 402.801927 151.173317
L 403.090243 150.61457
L 403.37856 150.346597
L 403.666876 150.373526
L 403.955193 150.694735
L 404.243509 151.304827
L 404.820142 153.347087
L 405.396775 156.369639
L 406.261725 162.323408
L 409.721523 188.996154
L 410.586472 193.458476
L 411.163105 195.618633
L 411.739738 197.096655
L 412.316371 197.884925
L 412.604688 198.021627
L 412.893004 197.988961
L 413.181321 197.789718
L 413.757954 196.907944
L 414.334587 195.422063
L 415.199536 192.22259
L 416.352802 186.753658
L 417.794385 179.83213
L 418.659334 176.733759
L 419.235967 175.422085
L 419.8126 174.808074
L 420.100917 174.768827
L 420.389233 174.903473
L 420.965866 175.659024
L 421.542499 176.974916
L 422.407449 179.705081
L 427.020513 195.941694
L 429.038728 201.773318
L 430.480311 205.399297
L 431.633577 207.785579
L 432.786842 209.641264
L 433.940108 210.985504
L 435.093374 211.891304
L 436.24664 212.454384
L 437.399906 212.77298
L 439.129805 212.978829
L 441.148021 213.039697
L 441.148021 213.039697
" clip-path="url(#p8581f2bf8c)" style="fill: none; stroke: #9361ae; stroke-width: 1.5625; stroke-linecap: round"/>
   </g>
   <g id="line2d_99">
    <path d="M 380.909966 213.044689
L 385.468598 212.909779
L 387.899869 212.633185
L 389.723322 212.225061
L 390.938957 211.731406
L 391.850684 211.141084
L 392.76241 210.269912
L 393.674137 209.035928
L 394.585863 207.379474
L 395.49759 205.281107
L 396.713225 201.852859
L 398.232769 196.829589
L 401.879675 184.398955
L 402.791401 181.982678
L 403.703128 180.239322
L 404.310946 179.564484
L 404.918763 179.34641
L 405.222672 179.420933
L 405.83049 179.947599
L 406.438307 180.969516
L 407.046125 182.448386
L 407.957851 185.36378
L 411.604757 198.245932
L 412.212575 199.51363
L 412.820393 200.342022
L 413.42821 200.705506
L 413.732119 200.708926
L 414.036028 200.592601
L 414.643846 200.000108
L 415.251663 198.927451
L 415.859481 197.372395
L 416.467299 195.329215
L 417.379025 191.332589
L 418.290752 186.214341
L 419.506387 177.798817
L 422.545475 154.821729
L 423.153293 151.626634
L 423.76111 149.479568
L 424.065019 148.859673
L 424.368928 148.565639
L 424.672837 148.608369
L 424.976746 148.992906
L 425.280655 149.71819
L 425.888472 152.156185
L 426.49629 155.794926
L 427.408016 163.031234
L 431.358831 197.821494
L 432.270558 202.977821
L 433.182284 206.718984
L 434.09401 209.264709
L 434.701828 210.435973
L 435.309646 211.28339
L 436.221372 212.107157
L 437.133099 212.570462
L 438.348734 212.869557
L 440.172187 213.014852
L 441.387822 213.039509
L 441.387822 213.039509
" clip-path="url(#p8581f2bf8c)" style="fill: none; stroke: #392f62; stroke-width: 1.5625; stroke-linecap: round"/>
   </g>
   <g id="patch_19">
    <path d="M 359.201959 213.049916
L 462.498041 213.049916
" style="fill: none; stroke: #212529; stroke-width: 1.25; stroke-linejoin: miter; stroke-linecap: square"/>
   </g>
   <g id="text_36">
    <!-- $\rho=2$ -->
    <g style="fill: #212529" transform="translate(400.573125 126.997564)">
     <text>
      <tspan style="font: italic 10.125px 'STIXNonUnicode'" x="0" y="-0.234375"></tspan>
      <tspan style="font: 10.125px 'STIXGeneral'" x="6.937653 15.404175" y="-0.234375">=𝟤</tspan>
     </text>
    </g>
   </g>
  </g>
  <g id="legend_1">
   <g id="line2d_100">
    <path d="M 488.52 161.976797
L 497.52 161.976797
L 506.52 161.976797
" style="fill: none; stroke: #392f62; stroke-width: 1.5625; stroke-linecap: round"/>
   </g>
   <g id="text_37">
    <!-- $\alpha_{1}$ -->
    <g style="fill: #212529" transform="translate(508.77 165.126797)">
     <text>
      <tspan style="font: italic 9px 'STIXNonUnicode'" x="0" y="-0.828125"></tspan>
      <tspan style="font: 6.3px 'STIXGeneral'" x="5.345369" y="0.3953125000000002">𝟣</tspan>
     </text>
    </g>
   </g>
   <g id="line2d_101">
    <path d="M 488.52 174.676641
L 497.52 174.676641
L 506.52 174.676641
" style="fill: none; stroke: #9361ae; stroke-width: 1.5625; stroke-linecap: round"/>
   </g>
   <g id="text_38">
    <!-- $\alpha_{2}$ -->
    <g style="fill: #212529" transform="translate(508.77 177.826641)">
     <text>
      <tspan style="font: italic 9px 'STIXNonUnicode'" x="0" y="-0.828125"></tspan>
      <tspan style="font: 6.3px 'STIXGeneral'" x="5.345369" y="0.3953125000000002">𝟤</tspan>
     </text>
    </g>
   </g>
   <g id="line2d_102">
    <path d="M 488.52 187.376484
L 497.52 187.376484
L 506.52 187.376484
" style="fill: none; stroke: #cc86c1; stroke-width: 1.5625; stroke-linecap: round"/>
   </g>
   <g id="text_39">
    <!-- $\alpha_{3}$ -->
    <g style="fill: #212529" transform="translate(508.77 190.526484)">
     <text>
      <tspan style="font: italic 9px 'STIXNonUnicode'" x="0" y="-0.828125"></tspan>
      <tspan style="font: 6.3px 'STIXGeneral'" x="5.345369" y="0.3953125000000002">𝟥</tspan>
     </text>
    </g>
   </g>
   <g id="line2d_103">
    <path d="M 535.5 161.976797
L 544.5 161.976797
L 553.5 161.976797
" style="fill: none; stroke: #eaacc7; stroke-width: 1.5625; stroke-linecap: round"/>
   </g>
   <g id="text_40">
    <!-- $\alpha_{4}$ -->
    <g style="fill: #212529" transform="translate(555.75 165.126797)">
     <text>
      <tspan style="font: italic 9px 'STIXNonUnicode'" x="0" y="-0.828125"></tspan>
      <tspan style="font: 6.3px 'STIXGeneral'" x="5.345369" y="0.3953125000000002">𝟦</tspan>
     </text>
    </g>
   </g>
   <g id="line2d_104">
    <path d="M 535.5 174.676641
L 544.5 174.676641
L 553.5 174.676641
" style="fill: none; stroke: #f7d2d4; stroke-width: 1.5625; stroke-linecap: round"/>
   </g>
   <g id="text_41">
    <!-- $\alpha_{5}$ -->
    <g style="fill: #212529" transform="translate(555.75 177.826641)">
     <text>
      <tspan style="font: italic 9px 'STIXNonUnicode'" x="0" y="-0.828125"></tspan>
      <tspan style="font: 6.3px 'STIXGeneral'" x="5.345369" y="0.3953125000000002">𝟧</tspan>
     </text>
    </g>
   </g>
  </g>
 </g>
 <defs>
  <clipPath id="p5a69627919">
   <rect x="8.201959" y="15.997564" width="103.296082" height="80.052352"/>
  </clipPath>
  <clipPath id="pc6c346b708">
   <rect x="125.201959" y="15.997564" width="103.296082" height="80.052352"/>
  </clipPath>
  <clipPath id="pdb10150a02">
   <rect x="242.201959" y="15.997564" width="103.296082" height="80.052352"/>
  </clipPath>
  <clipPath id="p4bf487623a">
   <rect x="359.201959" y="15.997564" width="103.296083" height="80.052352"/>
  </clipPath>
  <clipPath id="p28e782fdb9">
   <rect x="476.201959" y="15.997564" width="103.296083" height="80.052352"/>
  </clipPath>
  <clipPath id="p03920f0879">
   <rect x="8.201959" y="132.997564" width="103.296082" height="80.052352"/>
  </clipPath>
  <clipPath id="p5d041d29dd">
   <rect x="125.201959" y="132.997564" width="103.296082" height="80.052352"/>
  </clipPath>
  <clipPath id="p229098629d">
   <rect x="242.201959" y="132.997564" width="103.296082" height="80.052352"/>
  </clipPath>
  <clipPath id="p8581f2bf8c">
   <rect x="359.201959" y="132.997564" width="103.296083" height="80.052352"/>
  </clipPath>
 </defs>
</svg>
