<?xml version="1.0" encoding="utf-8" standalone="no"?>
<!DOCTYPE svg PUBLIC "-//W3C//DTD SVG 1.1//EN"
  "http://www.w3.org/Graphics/SVG/1.1/DTD/svg11.dtd">
<svg xmlns:xlink="http://www.w3.org/1999/xlink" width="585pt" height="234pt" viewBox="0 0 585 234" xmlns="http://www.w3.org/2000/svg" version="1.1">
 <metadata>
  <rdf:RDF xmlns:dc="http://purl.org/dc/elements/1.1/" xmlns:cc="http://creativecommons.org/ns#" xmlns:rdf="http://www.w3.org/1999/02/22-rdf-syntax-ns#">
   <cc:Work>
    <dc:type rdf:resource="http://purl.org/dc/dcmitype/StillImage"/>
    <dc:date>2023-06-29T14:32:56.630971</dc:date>
    <dc:format>image/svg+xml</dc:format>
    <dc:creator>
     <cc:Agent>
      <dc:title>Matplotlib v3.7.1, https://matplotlib.org/</dc:title>
     </cc:Agent>
    </dc:creator>
   </cc:Work>
  </rdf:RDF>
 </metadata>
 <defs>
  <style type="text/css">*{stroke-linejoin: round; stroke-linecap: butt}</style>
 </defs>
 <g id="figure_1">
  <g id="patch_1">
   <path d="M 0 234
L 585 234
L 585 0
L 0 0
z
" style="fill: #212529"/>
  </g>
  <g id="axes_1">
   <g id="patch_2">
    <path d="M 8.201959 96.049916
L 111.498041 96.049916
L 111.498041 15.997564
L 8.201959 15.997564
z
" style="fill: #212529"/>
   </g>
   <g id="matplotlib.axis_1">
    <g id="xtick_1">
     <g id="line2d_1">
      <path d="M 8.201959 96.049916
L 8.201959 15.997564
" clip-path="url(#p2a63700774)" style="fill: none"/>
     </g>
     <g id="line2d_2">
      <defs>
       <path id="m7255cf9f16" d="M 0 0
L 0 6.25
" style="stroke: #adb5bd; stroke-width: 1.25"/>
      </defs>
      <g>
       <use xlink:href="#m7255cf9f16" x="8.201959" y="96.049916" style="fill: #adb5bd; stroke: #adb5bd; stroke-width: 1.25"/>
      </g>
     </g>
     <g id="text_1">
      <text style="fill: #adb5bd; font: 9px 'system-ui', '-apple-system', 'Segoe UI', 'Roboto', 'Helvetica Neue', 'Noto Sans', 'Liberation Sans', 'Arial', sans-serif; text-anchor: middle" x="8.201959" y="112.226479" transform="rotate(-0 8.201959 112.226479)">−1</text>
     </g>
    </g>
    <g id="xtick_2">
     <g id="line2d_3">
      <path d="M 59.85 96.049916
L 59.85 15.997564
" clip-path="url(#p2a63700774)" style="fill: none"/>
     </g>
     <g id="line2d_4">
      <g>
       <use xlink:href="#m7255cf9f16" x="59.85" y="96.049916" style="fill: #adb5bd; stroke: #adb5bd; stroke-width: 1.25"/>
      </g>
     </g>
     <g id="text_2">
      <text style="fill: #adb5bd; font: 9px 'system-ui', '-apple-system', 'Segoe UI', 'Roboto', 'Helvetica Neue', 'Noto Sans', 'Liberation Sans', 'Arial', sans-serif; text-anchor: middle" x="59.85" y="112.226479" transform="rotate(-0 59.85 112.226479)">0</text>
     </g>
    </g>
    <g id="xtick_3">
     <g id="line2d_5">
      <path d="M 111.498041 96.049916
L 111.498041 15.997564
" clip-path="url(#p2a63700774)" style="fill: none"/>
     </g>
     <g id="line2d_6">
      <g>
       <use xlink:href="#m7255cf9f16" x="111.498041" y="96.049916" style="fill: #adb5bd; stroke: #adb5bd; stroke-width: 1.25"/>
      </g>
     </g>
     <g id="text_3">
      <text style="fill: #adb5bd; font: 9px 'system-ui', '-apple-system', 'Segoe UI', 'Roboto', 'Helvetica Neue', 'Noto Sans', 'Liberation Sans', 'Arial', sans-serif; text-anchor: middle" x="111.498041" y="112.226479" transform="rotate(-0 111.498041 112.226479)">1</text>
     </g>
    </g>
   </g>
   <g id="matplotlib.axis_2"/>
   <g id="line2d_7">
    <path d="M 41.769533 95.881949
L 42.634343 95.605579
L 43.282949 95.195685
L 43.931556 94.510507
L 44.580163 93.447832
L 45.22877 91.920721
L 46.093579 89.106448
L 47.174591 84.579679
L 48.904209 77.205525
L 49.769018 74.599793
L 50.417625 73.376925
L 50.850029 72.922157
L 51.282434 72.744153
L 51.714838 72.821673
L 52.147243 73.12166
L 52.79585 73.874256
L 53.876861 75.180029
L 54.309266 75.325719
L 54.525468 75.232862
L 54.957873 74.602253
L 55.390277 73.238686
L 55.822682 71.008887
L 56.471289 65.909465
L 57.119896 58.863318
L 59.281918 32.50091
L 59.714323 29.418005
L 60.146728 27.774925
L 60.36293 27.534138
L 60.579132 27.686428
L 60.795334 28.226286
L 61.227739 30.409297
L 61.660143 33.898628
L 62.30875 40.974617
L 64.470773 67.17063
L 65.11938 72.297416
L 65.551785 74.556286
L 65.984189 75.877568
L 66.200391 76.203187
L 66.416594 76.321368
L 66.632796 76.248017
L 67.065201 75.603996
L 67.713807 73.739694
L 69.227223 68.77009
L 69.659628 68.013417
L 70.092033 67.770006
L 70.308235 67.853239
L 70.740639 68.422264
L 71.173044 69.477492
L 71.821651 71.737064
L 73.551269 78.20249
L 74.199876 79.573151
L 74.63228 80.030073
L 75.064685 80.17268
L 75.713292 80.008085
L 76.578101 79.736518
L 77.010506 79.848594
L 77.44291 80.240285
L 77.875315 80.948293
L 78.523922 82.579144
L 79.388731 85.510053
L 80.902147 90.822045
L 81.766956 93.063637
L 82.415563 94.232657
L 83.064169 95.014593
L 83.712776 95.497742
L 84.577585 95.834406
L 84.793788 95.882674
L 84.793788 95.882674
" clip-path="url(#p2a63700774)" style="fill: none; stroke: #392f62; stroke-width: 1.5625; stroke-linecap: round"/>
   </g>
   <g id="line2d_8">
    <path d="M 34.891089 95.886407
L 35.788461 95.616826
L 36.461489 95.21295
L 37.134518 94.527819
L 37.807546 93.443087
L 38.480575 91.841584
L 39.153603 89.639363
L 40.050975 85.761837
L 41.397032 78.602789
L 42.518746 72.86815
L 43.191775 70.221015
L 43.864804 68.459742
L 44.313489 67.818423
L 44.762175 67.585374
L 45.210861 67.714285
L 45.659547 68.140527
L 46.332575 69.1808
L 47.454289 71.497028
L 48.800347 74.83904
L 49.922061 78.29388
L 52.16549 85.686192
L 52.614175 86.523658
L 53.062861 86.860467
L 53.287204 86.800517
L 53.511547 86.567639
L 53.960232 85.526305
L 54.408918 83.63615
L 54.857604 80.82529
L 55.530632 74.825997
L 56.428004 63.763854
L 59.120118 26.011884
L 59.568804 22.390134
L 60.01749 20.281034
L 60.241833 19.835064
L 60.466175 19.803968
L 60.690518 20.186332
L 61.139204 22.153473
L 61.58789 25.600768
L 62.260918 33.049305
L 63.382633 49.022055
L 64.72869 68.053835
L 65.626061 77.704403
L 66.29909 82.693784
L 66.747776 84.92381
L 67.196461 86.331455
L 67.645147 87.001886
L 67.86949 87.094641
L 68.093833 87.04661
L 68.542519 86.597083
L 69.215547 85.315702
L 70.561604 82.417175
L 71.01029 81.834358
L 71.458976 81.596345
L 71.907661 81.742096
L 72.356347 82.271351
L 72.805033 83.147476
L 73.478062 84.962028
L 75.945833 92.373384
L 76.618862 93.70769
L 77.29189 94.650576
L 77.964919 95.265908
L 78.86229 95.722233
L 79.535319 95.89188
L 79.535319 95.89188
" clip-path="url(#p2a63700774)" style="fill: none; stroke: #9361ae; stroke-width: 1.5625; stroke-linecap: round"/>
   </g>
   <g id="line2d_9">
    <path d="M 38.885183 95.91864
L 40.361803 95.65784
L 41.5431 95.196508
L 42.429072 94.604531
L 43.315044 93.716554
L 44.201016 92.457659
L 45.086988 90.772537
L 45.972961 88.645329
L 47.154257 85.200467
L 50.99347 73.168759
L 51.879442 71.203834
L 52.765414 69.748304
L 53.651386 68.8
L 54.242034 68.435679
L 54.832683 68.274663
L 55.423331 68.310035
L 56.013979 68.53787
L 56.604627 68.955945
L 57.490599 69.931335
L 58.376571 71.291952
L 59.557868 73.560083
L 62.215784 78.849017
L 63.101756 80.147351
L 63.987729 81.091905
L 64.873701 81.699332
L 65.759673 82.013579
L 66.645645 82.066297
L 67.531617 81.846508
L 68.41759 81.294135
L 69.008238 80.698118
L 69.89421 79.405313
L 70.780182 77.613284
L 71.961478 74.577711
L 74.028747 68.963943
L 74.914719 67.207069
L 75.505367 66.43889
L 76.096015 66.034023
L 76.686664 65.991983
L 77.277312 66.280697
L 77.86796 66.840965
L 78.753932 68.016744
L 80.821201 70.917397
L 82.002497 72.073466
L 84.365089 74.059434
L 85.251062 75.274105
L 86.137034 76.951216
L 87.31833 79.871786
L 91.157543 90.435405
L 92.043515 92.159744
L 92.929487 93.479902
L 93.815459 94.431675
L 94.701432 95.079046
L 95.587404 95.495058
L 96.7687 95.806001
L 97.654672 95.925551
L 97.654672 95.925551
" clip-path="url(#p2a63700774)" style="fill: none; stroke: #cc86c1; stroke-width: 1.5625; stroke-linecap: round"/>
   </g>
   <g id="line2d_10">
    <path d="M 38.5634 95.889602
L 39.746927 95.622119
L 40.634573 95.218763
L 41.522218 94.531439
L 42.409864 93.44069
L 43.29751 91.831797
L 44.185155 89.631701
L 45.072801 86.852384
L 46.55221 81.345378
L 48.03162 75.929804
L 48.919265 73.372278
L 49.806911 71.60471
L 50.398675 70.876745
L 50.990439 70.456032
L 51.878084 70.203888
L 53.061612 69.959504
L 53.653376 69.609244
L 54.245139 68.978601
L 54.836903 68.008779
L 55.428667 66.678306
L 56.316312 64.056597
L 57.795722 58.673228
L 58.979249 54.612534
L 59.571013 53.08589
L 60.162777 52.085973
L 60.458659 51.818762
L 60.754541 51.72031
L 61.050423 51.796913
L 61.346304 52.051424
L 61.938068 53.087499
L 62.529832 54.779153
L 63.417478 58.308827
L 66.96806 74.338289
L 67.855706 76.882735
L 68.743351 78.707743
L 69.630997 79.981827
L 70.518643 80.873607
L 71.406288 81.498681
L 72.589816 82.022798
L 74.365107 82.437965
L 75.548635 82.849937
L 76.43628 83.447206
L 77.323926 84.355723
L 78.803335 86.352697
L 79.986863 87.868455
L 80.874509 88.601516
L 81.466272 88.803881
L 82.058036 88.754836
L 82.6498 88.466522
L 83.537446 87.679099
L 85.608619 85.501349
L 86.200382 85.165974
L 86.792146 85.076191
L 87.38391 85.259066
L 87.975674 85.713604
L 88.863319 86.839117
L 90.046847 88.879199
L 92.11802 92.515115
L 93.005666 93.700541
L 93.893311 94.584209
L 94.780957 95.191614
L 95.964485 95.66887
L 97.443894 95.932053
L 97.443894 95.932053
" clip-path="url(#p2a63700774)" style="fill: none; stroke: #eaacc7; stroke-width: 1.5625; stroke-linecap: round"/>
   </g>
   <g id="line2d_11">
    <path d="M 58.62945 95.888881
L 59.511312 95.626862
L 60.172709 95.240372
L 60.834106 94.597281
L 61.495503 93.604351
L 62.1569 92.183602
L 63.038762 89.575471
L 64.14109 85.364721
L 66.786678 73.863821
L 67.889006 68.102973
L 68.991334 60.939932
L 70.314128 52.364429
L 70.975525 49.629058
L 71.416456 48.829033
L 71.636922 48.77774
L 71.857387 48.96401
L 72.298319 50.026004
L 72.73925 51.906136
L 73.400647 55.811585
L 74.723441 64.162667
L 75.384837 66.913743
L 75.825769 67.851719
L 76.046234 68.029457
L 76.2667 68.012336
L 76.487166 67.804136
L 76.928097 66.844114
L 77.369028 65.232622
L 78.030425 61.853168
L 80.235081 48.971674
L 80.676013 47.522562
L 81.116944 46.840285
L 81.337409 46.814254
L 81.557875 47.004154
L 81.998806 48.020281
L 82.439738 49.817699
L 83.101134 53.65761
L 85.526256 69.624338
L 86.408119 73.585698
L 87.730913 78.232894
L 89.274172 83.003143
L 89.935569 84.533193
L 90.3765 85.210137
L 90.817431 85.552171
L 91.258363 85.541471
L 91.699294 85.197918
L 92.360691 84.195384
L 93.90395 81.465545
L 94.344881 81.110057
L 94.785813 81.101707
L 95.226744 81.470958
L 95.667675 82.207917
L 96.329072 83.893334
L 97.651866 88.310356
L 98.754194 91.690754
L 99.636056 93.63179
L 100.297453 94.609269
L 100.95885 95.245725
L 101.620247 95.629306
L 102.50211 95.889747
L 102.50211 95.889747
" clip-path="url(#p2a63700774)" style="fill: none; stroke: #f7d2d4; stroke-width: 1.5625; stroke-linecap: round"/>
   </g>
   <g id="patch_3">
    <path d="M 8.201959 96.049916
L 111.498041 96.049916
" style="fill: none; stroke: #adb5bd; stroke-width: 1.25; stroke-linejoin: miter; stroke-linecap: square"/>
   </g>
   <g id="text_4">
    <!-- $\rho=0.1$ -->
    <g style="fill: #adb5bd" transform="translate(45.77625 9.997564)">
     <text>
      <tspan style="font: italic 10.125px 'STIXNonUnicode'" x="0" y="-0.234375"></tspan>
      <tspan style="font: 10.125px 'STIXGeneral'" x="6.937653 15.404175 20.466675 22.997925" y="-0.234375">=𝟢.𝟣</tspan>
     </text>
    </g>
   </g>
  </g>
  <g id="axes_2">
   <g id="patch_4">
    <path d="M 125.201959 96.049916
L 228.498041 96.049916
L 228.498041 15.997564
L 125.201959 15.997564
z
" style="fill: #212529"/>
   </g>
   <g id="matplotlib.axis_3">
    <g id="xtick_4">
     <g id="line2d_12">
      <path d="M 125.201959 96.049916
L 125.201959 15.997564
" clip-path="url(#pdce80d8675)" style="fill: none"/>
     </g>
     <g id="line2d_13">
      <g>
       <use xlink:href="#m7255cf9f16" x="125.201959" y="96.049916" style="fill: #adb5bd; stroke: #adb5bd; stroke-width: 1.25"/>
      </g>
     </g>
     <g id="text_5">
      <text style="fill: #adb5bd; font: 9px 'system-ui', '-apple-system', 'Segoe UI', 'Roboto', 'Helvetica Neue', 'Noto Sans', 'Liberation Sans', 'Arial', sans-serif; text-anchor: middle" x="125.201959" y="112.226479" transform="rotate(-0 125.201959 112.226479)">−1</text>
     </g>
    </g>
    <g id="xtick_5">
     <g id="line2d_14">
      <path d="M 176.85 96.049916
L 176.85 15.997564
" clip-path="url(#pdce80d8675)" style="fill: none"/>
     </g>
     <g id="line2d_15">
      <g>
       <use xlink:href="#m7255cf9f16" x="176.85" y="96.049916" style="fill: #adb5bd; stroke: #adb5bd; stroke-width: 1.25"/>
      </g>
     </g>
     <g id="text_6">
      <text style="fill: #adb5bd; font: 9px 'system-ui', '-apple-system', 'Segoe UI', 'Roboto', 'Helvetica Neue', 'Noto Sans', 'Liberation Sans', 'Arial', sans-serif; text-anchor: middle" x="176.85" y="112.226479" transform="rotate(-0 176.85 112.226479)">0</text>
     </g>
    </g>
    <g id="xtick_6">
     <g id="line2d_16">
      <path d="M 228.498041 96.049916
L 228.498041 15.997564
" clip-path="url(#pdce80d8675)" style="fill: none"/>
     </g>
     <g id="line2d_17">
      <g>
       <use xlink:href="#m7255cf9f16" x="228.498041" y="96.049916" style="fill: #adb5bd; stroke: #adb5bd; stroke-width: 1.25"/>
      </g>
     </g>
     <g id="text_7">
      <text style="fill: #adb5bd; font: 9px 'system-ui', '-apple-system', 'Segoe UI', 'Roboto', 'Helvetica Neue', 'Noto Sans', 'Liberation Sans', 'Arial', sans-serif; text-anchor: middle" x="228.498041" y="112.226479" transform="rotate(-0 228.498041 112.226479)">1</text>
     </g>
    </g>
   </g>
   <g id="matplotlib.axis_4"/>
   <g id="line2d_18">
    <path d="M 156.643651 95.858433
L 157.31373 95.57102
L 157.81629 95.156089
L 158.318849 94.469976
L 158.821409 93.405022
L 159.323969 91.85655
L 159.994048 88.926105
L 160.831648 83.988578
L 162.339327 74.775226
L 162.841886 72.990975
L 163.176926 72.442279
L 163.344446 72.3783
L 163.511966 72.456952
L 163.847006 73.033944
L 164.182045 74.132321
L 164.684605 76.583694
L 165.689724 83.003515
L 166.694844 89.0136
L 167.364923 91.916891
L 168.035003 93.841262
L 168.537562 94.744283
L 169.040122 95.295559
L 169.542681 95.58329
L 170.045241 95.662642
L 170.547801 95.543365
L 171.05036 95.181955
L 171.55292 94.477232
L 172.05548 93.271578
L 172.558039 91.363146
L 173.060599 88.535017
L 173.730679 83.029208
L 174.400758 75.434188
L 175.573397 58.655187
L 176.746036 42.864235
L 177.416116 36.806059
L 177.918676 34.129453
L 178.253715 33.217984
L 178.588755 32.947654
L 178.756275 33.032971
L 179.091315 33.60317
L 179.426354 34.65487
L 179.928914 37.022688
L 180.598994 41.45285
L 181.436593 48.654579
L 183.279312 67.403509
L 184.451951 78.168469
L 185.45707 85.41189
L 186.29467 89.824366
L 186.964749 92.306137
L 187.634829 93.970073
L 188.304908 94.988644
L 188.974988 95.55462
L 189.645067 95.83912
L 189.980107 95.917158
L 189.980107 95.917158
" clip-path="url(#pdce80d8675)" style="fill: none; stroke: #392f62; stroke-width: 1.5625; stroke-linecap: round"/>
   </g>
   <g id="line2d_19">
    <path d="M 163.644559 95.863956
L 164.150175 95.549774
L 164.529388 95.078338
L 164.9086 94.28373
L 165.287812 93.043512
L 165.793429 90.524501
L 166.425449 85.941806
L 168.195107 71.788382
L 168.700724 69.878254
L 168.953532 69.460433
L 169.20634 69.403856
L 169.459148 69.706711
L 169.838361 70.823754
L 170.343977 73.461236
L 171.228806 80.006974
L 171.860827 84.095999
L 172.240039 85.394092
L 172.492847 85.581108
L 172.745655 85.165576
L 172.998464 84.132807
L 173.377676 81.466099
L 173.883293 76.0672
L 174.641717 64.961617
L 175.779354 44.193613
L 176.790587 26.837828
L 177.296204 21.551103
L 177.675416 19.892333
L 177.80182 19.806908
L 177.928224 19.951533
L 178.181033 20.901029
L 178.560245 23.805322
L 179.065861 29.842956
L 179.95069 43.957696
L 181.593944 71.285952
L 182.09956 76.563151
L 182.478773 78.798958
L 182.731581 79.49069
L 182.984389 79.642611
L 183.237197 79.392533
L 184.24843 77.827236
L 184.501239 78.055739
L 184.754047 78.700724
L 185.133259 80.419117
L 185.76528 84.648913
L 186.776513 91.363266
L 187.282129 93.539596
L 187.787746 94.857745
L 188.293362 95.547979
L 188.798979 95.86257
L 188.798979 95.86257
" clip-path="url(#pdce80d8675)" style="fill: none; stroke: #9361ae; stroke-width: 1.5625; stroke-linecap: round"/>
   </g>
   <g id="line2d_20">
    <path d="M 167.842377 95.90623
L 168.905136 95.665497
L 169.702205 95.299953
L 170.499274 94.671289
L 171.296343 93.66106
L 172.093413 92.146242
L 172.890482 90.030553
L 173.687551 87.285163
L 174.75031 82.796507
L 176.875828 73.315486
L 177.672897 70.673287
L 178.204277 69.433795
L 178.735656 68.661871
L 179.267036 68.361604
L 179.798415 68.504076
L 180.329795 69.033082
L 181.126864 70.384938
L 182.189623 72.795138
L 184.315141 77.783576
L 185.3779 79.829636
L 186.174969 81.04147
L 186.972039 81.859402
L 187.503418 82.107796
L 188.034798 82.055027
L 188.566177 81.649685
L 189.097557 80.854399
L 189.628936 79.656687
L 190.426005 77.164056
L 191.754454 71.877016
L 192.817213 67.925648
L 193.348593 66.501498
L 193.879972 65.636299
L 194.145662 65.444727
L 194.411352 65.42425
L 194.677041 65.578309
L 195.208421 66.405916
L 195.7398 67.884999
L 196.53687 71.113959
L 197.865318 78.019111
L 199.459457 86.054425
L 200.256526 89.184813
L 201.053595 91.559164
L 201.850665 93.207682
L 202.647734 94.223775
L 203.179113 94.603801
L 203.710493 94.779913
L 204.241872 94.775188
L 204.773252 94.607211
L 205.570321 94.07877
L 206.36739 93.258659
L 207.430149 91.826799
L 209.289978 89.193527
L 210.087047 88.428067
L 210.618426 88.147292
L 211.149806 88.07879
L 211.681185 88.228241
L 212.212565 88.583554
L 213.009634 89.437269
L 214.338083 91.344235
L 215.932221 93.557946
L 216.99498 94.628815
L 218.057739 95.324119
L 219.120498 95.717934
L 220.448947 95.942976
L 220.714637 95.966401
L 220.714637 95.966401
" clip-path="url(#pdce80d8675)" style="fill: none; stroke: #cc86c1; stroke-width: 1.5625; stroke-linecap: round"/>
   </g>
   <g id="line2d_21">
    <path d="M 169.369873 95.860949
L 169.979125 95.610049
L 170.588378 95.101454
L 171.045318 94.444211
L 171.502257 93.444075
L 171.959197 91.994335
L 172.56845 89.190283
L 173.177703 85.254388
L 173.939269 78.809871
L 176.071653 59.128053
L 176.528593 56.643107
L 176.985533 55.322223
L 177.290159 55.130963
L 177.594785 55.48561
L 177.899412 56.354073
L 178.356351 58.494935
L 179.117917 63.597469
L 180.488736 73.030945
L 181.097989 75.579439
L 181.554929 76.516176
L 181.859555 76.695422
L 182.164181 76.56845
L 182.621121 75.949325
L 183.99194 73.599564
L 184.296566 73.457707
L 184.601193 73.555424
L 184.905819 73.899768
L 185.362759 74.836419
L 186.276638 77.570783
L 186.885891 79.183552
L 187.34283 79.791445
L 187.647457 79.770165
L 187.952083 79.344773
L 188.256709 78.484293
L 188.713649 76.368078
L 189.322902 72.163128
L 191.6076 54.268841
L 191.912226 53.38133
L 192.216853 53.144682
L 192.369166 53.280673
L 192.673792 54.062706
L 193.130732 56.4495
L 193.739985 61.519983
L 194.95849 74.742419
L 195.872369 83.758427
L 196.633935 89.198727
L 197.243188 92.101853
L 197.852441 93.939195
L 198.461694 95.003544
L 199.070946 95.569114
L 199.680199 95.845215
L 199.680199 95.845215
" clip-path="url(#pdce80d8675)" style="fill: none; stroke: #eaacc7; stroke-width: 1.5625; stroke-linecap: round"/>
   </g>
   <g id="line2d_22">
    <path d="M 157.858688 95.99378
L 160.698827 95.795303
L 162.727498 95.419226
L 164.350435 94.872791
L 165.973371 94.038745
L 167.596308 92.897336
L 169.624978 91.130831
L 172.465117 88.586581
L 174.088054 87.470022
L 175.305256 86.910281
L 176.522458 86.601143
L 177.739661 86.502543
L 182.202736 86.470394
L 183.419938 86.176125
L 185.042875 85.53074
L 189.50595 83.530602
L 191.128887 83.14425
L 192.751823 82.980885
L 194.37476 83.015106
L 195.997696 83.268025
L 197.620633 83.796588
L 199.243569 84.615421
L 203.300911 86.926718
L 204.518113 87.249703
L 205.735315 87.261701
L 206.952518 86.97218
L 208.575454 86.244344
L 212.227062 84.421152
L 213.849998 83.924578
L 215.472935 83.648231
L 217.501605 83.552676
L 219.124542 83.716715
L 220.341744 84.056267
L 221.558946 84.644067
L 222.776149 85.5103
L 223.993351 86.640583
L 226.022022 88.923315
L 228.862161 92.134937
L 230.485097 93.579407
L 231.7023 94.399905
L 232.919502 95.00247
L 234.542438 95.522308
L 236.165375 95.807529
L 238.59978 95.986496
L 238.59978 95.986496
" clip-path="url(#pdce80d8675)" style="fill: none; stroke: #f7d2d4; stroke-width: 1.5625; stroke-linecap: round"/>
   </g>
   <g id="patch_5">
    <path d="M 125.201959 96.049916
L 228.498041 96.049916
" style="fill: none; stroke: #adb5bd; stroke-width: 1.25; stroke-linejoin: miter; stroke-linecap: square"/>
   </g>
   <g id="text_8">
    <!-- $\rho=0.25$ -->
    <g style="fill: #adb5bd" transform="translate(160.245 9.997564)">
     <text>
      <tspan style="font: italic 10.125px 'STIXNonUnicode'" x="0" y="-0.234375"></tspan>
      <tspan style="font: 10.125px 'STIXGeneral'" x="6.937653 15.404175 20.466675 22.997925 28.060425" y="-0.234375">=𝟢.𝟤𝟧</tspan>
     </text>
    </g>
   </g>
  </g>
  <g id="axes_3">
   <g id="patch_6">
    <path d="M 242.201959 96.049916
L 345.498041 96.049916
L 345.498041 15.997564
L 242.201959 15.997564
z
" style="fill: #212529"/>
   </g>
   <g id="matplotlib.axis_5">
    <g id="xtick_7">
     <g id="line2d_23">
      <path d="M 242.201959 96.049916
L 242.201959 15.997564
" clip-path="url(#p2a7b66fc10)" style="fill: none"/>
     </g>
     <g id="line2d_24">
      <g>
       <use xlink:href="#m7255cf9f16" x="242.201959" y="96.049916" style="fill: #adb5bd; stroke: #adb5bd; stroke-width: 1.25"/>
      </g>
     </g>
     <g id="text_9">
      <text style="fill: #adb5bd; font: 9px 'system-ui', '-apple-system', 'Segoe UI', 'Roboto', 'Helvetica Neue', 'Noto Sans', 'Liberation Sans', 'Arial', sans-serif; text-anchor: middle" x="242.201959" y="112.226479" transform="rotate(-0 242.201959 112.226479)">−1</text>
     </g>
    </g>
    <g id="xtick_8">
     <g id="line2d_25">
      <path d="M 293.85 96.049916
L 293.85 15.997564
" clip-path="url(#p2a7b66fc10)" style="fill: none"/>
     </g>
     <g id="line2d_26">
      <g>
       <use xlink:href="#m7255cf9f16" x="293.85" y="96.049916" style="fill: #adb5bd; stroke: #adb5bd; stroke-width: 1.25"/>
      </g>
     </g>
     <g id="text_10">
      <text style="fill: #adb5bd; font: 9px 'system-ui', '-apple-system', 'Segoe UI', 'Roboto', 'Helvetica Neue', 'Noto Sans', 'Liberation Sans', 'Arial', sans-serif; text-anchor: middle" x="293.85" y="112.226479" transform="rotate(-0 293.85 112.226479)">0</text>
     </g>
    </g>
    <g id="xtick_9">
     <g id="line2d_27">
      <path d="M 345.498041 96.049916
L 345.498041 15.997564
" clip-path="url(#p2a7b66fc10)" style="fill: none"/>
     </g>
     <g id="line2d_28">
      <g>
       <use xlink:href="#m7255cf9f16" x="345.498041" y="96.049916" style="fill: #adb5bd; stroke: #adb5bd; stroke-width: 1.25"/>
      </g>
     </g>
     <g id="text_11">
      <text style="fill: #adb5bd; font: 9px 'system-ui', '-apple-system', 'Segoe UI', 'Roboto', 'Helvetica Neue', 'Noto Sans', 'Liberation Sans', 'Arial', sans-serif; text-anchor: middle" x="345.498041" y="112.226479" transform="rotate(-0 345.498041 112.226479)">1</text>
     </g>
    </g>
   </g>
   <g id="matplotlib.axis_6"/>
   <g id="line2d_29">
    <path d="M 285.249863 95.92296
L 285.964647 95.713932
L 286.500734 95.392212
L 287.036822 94.82457
L 287.572909 93.876421
L 288.108997 92.378227
L 288.645084 90.141181
L 289.181172 86.989726
L 289.895955 81.185642
L 290.789434 71.567814
L 292.576393 51.361171
L 293.11248 47.684305
L 293.469872 46.346841
L 293.648568 46.042083
L 293.827264 45.984555
L 294.00596 46.17286
L 294.363351 47.26266
L 294.720743 49.22866
L 295.256831 53.527757
L 296.15031 62.869848
L 297.579876 77.851825
L 298.473356 84.717672
L 299.188139 88.365952
L 299.724227 90.047675
L 300.081618 90.702547
L 300.43901 91.016169
L 300.796402 91.021628
L 301.153793 90.757087
L 301.689881 89.949267
L 302.404664 88.360266
L 304.012927 84.5668
L 304.72771 83.506987
L 305.263798 83.123977
L 305.621189 83.080135
L 305.978581 83.206932
L 306.514669 83.706747
L 307.050756 84.543653
L 307.944235 86.484216
L 309.373802 89.715663
L 309.90989 90.494509
L 310.445977 90.868597
L 310.803369 90.877844
L 311.160761 90.706263
L 311.696848 90.171829
L 313.483806 87.96503
L 313.841198 87.828091
L 314.19859 87.872573
L 314.555982 88.103651
L 315.092069 88.772271
L 315.806852 90.107467
L 317.593811 93.72875
L 318.308594 94.710877
L 319.023378 95.350678
L 319.738161 95.719398
L 320.63164 95.937309
L 320.810336 95.960806
L 320.810336 95.960806
" clip-path="url(#p2a7b66fc10)" style="fill: none; stroke: #392f62; stroke-width: 1.5625; stroke-linecap: round"/>
   </g>
   <g id="line2d_30">
    <path d="M 289.618517 95.759482
L 289.931165 95.436595
L 290.243813 94.835281
L 290.556461 93.793161
L 290.973325 91.377931
L 291.390189 87.389922
L 291.911269 79.936308
L 294.204021 42.352803
L 296.079909 19.961067
L 296.184125 19.806894
L 296.288341 19.927978
L 296.496773 21.057944
L 296.809421 25.069447
L 297.226285 34.411148
L 298.997956 81.652544
L 299.41482 85.524086
L 299.623252 86.224937
L 299.727468 86.316003
L 299.831684 86.257682
L 300.040116 85.770647
L 300.45698 83.895697
L 301.082276 81.245745
L 301.290708 80.922005
L 301.49914 80.997124
L 301.707572 81.479858
L 302.02022 82.888109
L 302.645516 87.151296
L 303.375028 91.646438
L 303.791892 92.919225
L 304.000324 93.104303
L 304.208756 92.978604
L 304.417188 92.54553
L 304.729836 91.350302
L 305.250916 88.186226
L 306.188859 82.054648
L 306.501507 81.104909
L 306.709939 80.989484
L 306.918371 81.305855
L 307.231019 82.522535
L 307.752099 85.911128
L 308.690043 92.226583
L 309.211123 94.323832
L 309.627987 95.247969
L 310.044851 95.718092
L 310.357499 95.89126
L 310.357499 95.89126
" clip-path="url(#p2a7b66fc10)" style="fill: none; stroke: #9361ae; stroke-width: 1.5625; stroke-linecap: round"/>
   </g>
   <g id="line2d_31">
    <path d="M 284.816857 95.930699
L 285.484261 95.669043
L 286.018183 95.19667
L 286.552106 94.335794
L 287.086029 92.961643
L 287.753433 90.517269
L 289.088241 85.31665
L 289.488683 84.506671
L 289.755644 84.286282
L 290.022606 84.316041
L 290.423048 84.7451
L 291.624375 86.503552
L 291.891336 86.513559
L 292.158298 86.291296
L 292.55874 85.53647
L 293.092663 83.926333
L 294.560951 78.35299
L 295.228355 75.066982
L 295.762278 71.320261
L 296.429682 64.81452
L 298.031451 47.8506
L 298.298412 46.643881
L 298.565374 46.340953
L 298.698854 46.554699
L 298.965816 47.727387
L 299.366258 51.2532
L 299.900181 58.525787
L 301.234989 78.461728
L 301.768912 83.028994
L 302.169354 84.565479
L 302.436315 84.746581
L 302.703277 84.338833
L 303.103719 82.830225
L 303.637642 79.676697
L 305.239411 69.409621
L 305.639853 68.141031
L 305.906815 67.850602
L 306.040295 67.891504
L 306.307257 68.363008
L 306.574218 69.354921
L 306.974661 71.745845
L 307.642064 77.468753
L 308.843391 88.242243
L 309.510795 92.199393
L 310.044718 94.108241
L 310.578641 95.170216
L 311.112564 95.692066
L 311.379525 95.830748
L 311.379525 95.830748
" clip-path="url(#p2a7b66fc10)" style="fill: none; stroke: #cc86c1; stroke-width: 1.5625; stroke-linecap: round"/>
   </g>
   <g id="line2d_32">
    <path d="M 286.45604 95.89895
L 287.226828 95.67078
L 287.804919 95.337323
L 288.38301 94.776899
L 288.961101 93.887515
L 289.539192 92.55568
L 290.117283 90.675373
L 290.888071 87.20067
L 291.851557 81.379346
L 294.356618 64.952574
L 294.934709 62.664869
L 295.320103 61.694366
L 295.705497 61.192953
L 296.090891 61.162129
L 296.476285 61.588043
L 296.861679 62.444288
L 297.439771 64.453538
L 298.210559 68.233444
L 299.559438 76.525784
L 300.908317 84.425909
L 301.679105 87.726069
L 302.257196 89.370965
L 302.64259 90.040367
L 303.027985 90.367736
L 303.413379 90.365394
L 303.798773 90.055631
L 304.184167 89.469531
L 304.762258 88.158605
L 305.725743 85.221277
L 307.267319 80.410694
L 308.038107 78.791622
L 308.616198 78.154607
L 309.001593 78.038284
L 309.386987 78.173506
L 309.772381 78.552534
L 310.350472 79.534847
L 311.12126 81.439555
L 313.240927 87.126131
L 313.819018 88.048363
L 314.397109 88.556028
L 314.975201 88.697257
L 315.745989 88.525214
L 316.709474 88.269974
L 317.287565 88.355951
L 317.865656 88.723848
L 318.443747 89.3778
L 319.407232 90.927669
L 321.141506 93.831981
L 321.912294 94.736895
L 322.683082 95.342549
L 323.45387 95.703173
L 324.417355 95.925393
L 324.802749 95.970595
L 324.802749 95.970595
" clip-path="url(#p2a7b66fc10)" style="fill: none; stroke: #eaacc7; stroke-width: 1.5625; stroke-linecap: round"/>
   </g>
   <g id="line2d_33">
    <path d="M 291.391854 95.993492
L 293.457791 95.78557
L 294.638327 95.490879
L 295.818863 94.97506
L 296.999399 94.167281
L 298.179935 93.03866
L 299.655604 91.2611
L 302.016676 88.35342
L 302.902078 87.550517
L 303.787479 87.022669
L 304.672881 86.79569
L 305.558283 86.849476
L 306.443685 87.123008
L 308.214489 87.979627
L 309.985292 88.764561
L 312.936632 89.722869
L 314.707435 90.219321
L 315.592837 90.259784
L 316.183105 90.122539
L 316.773373 89.807847
L 317.363641 89.284217
L 317.953909 88.533137
L 318.839311 86.982883
L 320.019846 84.2783
L 322.085784 79.230606
L 322.971186 77.64829
L 323.561454 76.958073
L 324.151722 76.601637
L 324.741989 76.586606
L 325.332257 76.895043
L 325.922525 77.486247
L 326.807927 78.772559
L 330.0544 84.127991
L 330.939802 85.029629
L 331.825204 85.573707
L 332.710606 85.789122
L 333.596008 85.741657
L 335.071677 85.34873
L 336.252213 85.08453
L 337.137615 85.115176
L 338.023017 85.451193
L 338.908419 86.135248
L 339.793821 87.145848
L 340.974356 88.855782
L 343.335428 92.429084
L 344.515964 93.809029
L 345.696499 94.787034
L 346.877035 95.402647
L 348.057571 95.748506
L 349.533241 95.948723
L 350.123509 95.987249
L 350.123509 95.987249
" clip-path="url(#p2a7b66fc10)" style="fill: none; stroke: #f7d2d4; stroke-width: 1.5625; stroke-linecap: round"/>
   </g>
   <g id="patch_7">
    <path d="M 242.201959 96.049916
L 345.498041 96.049916
" style="fill: none; stroke: #adb5bd; stroke-width: 1.25; stroke-linejoin: miter; stroke-linecap: square"/>
   </g>
   <g id="text_12">
    <!-- $\rho=0.5$ -->
    <g style="fill: #adb5bd" transform="translate(279.77625 9.997564)">
     <text>
      <tspan style="font: italic 10.125px 'STIXNonUnicode'" x="0" y="-0.234375"></tspan>
      <tspan style="font: 10.125px 'STIXGeneral'" x="6.937653 15.404175 20.466675 22.997925" y="-0.234375">=𝟢.𝟧</tspan>
     </text>
    </g>
   </g>
  </g>
  <g id="axes_4">
   <g id="patch_8">
    <path d="M 359.201959 96.049916
L 462.498041 96.049916
L 462.498041 15.997564
L 359.201959 15.997564
z
" style="fill: #212529"/>
   </g>
   <g id="matplotlib.axis_7">
    <g id="xtick_10">
     <g id="line2d_34">
      <path d="M 359.201959 96.049916
L 359.201959 15.997564
" clip-path="url(#p313d543b22)" style="fill: none"/>
     </g>
     <g id="line2d_35">
      <g>
       <use xlink:href="#m7255cf9f16" x="359.201959" y="96.049916" style="fill: #adb5bd; stroke: #adb5bd; stroke-width: 1.25"/>
      </g>
     </g>
     <g id="text_13">
      <text style="fill: #adb5bd; font: 9px 'system-ui', '-apple-system', 'Segoe UI', 'Roboto', 'Helvetica Neue', 'Noto Sans', 'Liberation Sans', 'Arial', sans-serif; text-anchor: middle" x="359.201959" y="112.226479" transform="rotate(-0 359.201959 112.226479)">−1</text>
     </g>
    </g>
    <g id="xtick_11">
     <g id="line2d_36">
      <path d="M 410.85 96.049916
L 410.85 15.997564
" clip-path="url(#p313d543b22)" style="fill: none"/>
     </g>
     <g id="line2d_37">
      <g>
       <use xlink:href="#m7255cf9f16" x="410.85" y="96.049916" style="fill: #adb5bd; stroke: #adb5bd; stroke-width: 1.25"/>
      </g>
     </g>
     <g id="text_14">
      <text style="fill: #adb5bd; font: 9px 'system-ui', '-apple-system', 'Segoe UI', 'Roboto', 'Helvetica Neue', 'Noto Sans', 'Liberation Sans', 'Arial', sans-serif; text-anchor: middle" x="410.85" y="112.226479" transform="rotate(-0 410.85 112.226479)">0</text>
     </g>
    </g>
    <g id="xtick_12">
     <g id="line2d_38">
      <path d="M 462.498041 96.049916
L 462.498041 15.997564
" clip-path="url(#p313d543b22)" style="fill: none"/>
     </g>
     <g id="line2d_39">
      <g>
       <use xlink:href="#m7255cf9f16" x="462.498041" y="96.049916" style="fill: #adb5bd; stroke: #adb5bd; stroke-width: 1.25"/>
      </g>
     </g>
     <g id="text_15">
      <text style="fill: #adb5bd; font: 9px 'system-ui', '-apple-system', 'Segoe UI', 'Roboto', 'Helvetica Neue', 'Noto Sans', 'Liberation Sans', 'Arial', sans-serif; text-anchor: middle" x="462.498041" y="112.226479" transform="rotate(-0 462.498041 112.226479)">1</text>
     </g>
    </g>
   </g>
   <g id="matplotlib.axis_8"/>
   <g id="line2d_40">
    <path d="M 397.399194 95.931284
L 397.915949 95.68758
L 398.303515 95.294992
L 398.691081 94.6104
L 399.207836 93.084327
L 399.853779 90.184721
L 400.758099 85.972363
L 401.145665 85.085909
L 401.404043 85.009086
L 401.66242 85.361029
L 402.049986 86.592706
L 402.825118 90.374601
L 403.60025 93.659985
L 404.117004 94.944862
L 404.633759 95.602642
L 405.150513 95.850866
L 405.667268 95.819825
L 406.054834 95.590494
L 406.4424 95.071402
L 406.829966 94.06642
L 407.217532 92.287057
L 407.605098 89.366202
L 407.992664 84.903003
L 408.509418 75.976102
L 409.155362 59.885769
L 410.447248 25.018603
L 410.834814 20.311162
L 410.964003 19.809081
L 411.093191 19.874188
L 411.351569 21.69613
L 411.739134 28.285132
L 412.385078 46.102881
L 413.418587 75.207461
L 413.935342 84.757148
L 414.452096 90.602855
L 414.839662 93.109735
L 415.227228 94.500769
L 415.614794 95.128943
L 415.873171 95.2378
L 416.131549 95.139667
L 416.519115 94.623826
L 416.90668 93.651751
L 417.423435 91.648641
L 418.84451 85.375001
L 419.102887 85.012653
L 419.361265 85.078635
L 419.619642 85.56532
L 420.007208 86.952304
L 421.68666 94.2829
L 422.203415 95.286267
L 422.72017 95.767987
L 423.107736 95.929501
L 423.107736 95.929501
" clip-path="url(#p313d543b22)" style="fill: none; stroke: #392f62; stroke-width: 1.5625; stroke-linecap: round"/>
   </g>
   <g id="line2d_41">
    <path d="M 406.30488 95.713308
L 406.65145 95.316069
L 406.99802 94.546292
L 407.34459 93.153842
L 407.69116 90.805282
L 408.03773 87.11744
L 408.499823 79.526213
L 409.07744 65.400432
L 410.579243 24.750127
L 410.925813 21.348526
L 411.041336 21.04286
L 411.156859 21.150977
L 411.387906 22.552607
L 411.734476 27.232471
L 412.312092 39.406888
L 413.351802 61.923644
L 414.044942 72.137525
L 414.853605 80.403947
L 415.777792 87.747827
L 416.470932 91.822009
L 417.048548 94.00592
L 417.510642 95.033224
L 417.972735 95.595983
L 418.550351 95.908013
L 419.359015 96.028043
L 420.860818 95.980882
L 421.553957 95.747178
L 422.016051 95.345497
L 422.478144 94.588124
L 422.940237 93.344656
L 423.517854 91.079115
L 424.673087 86.238356
L 425.019657 85.58539
L 425.250704 85.510117
L 425.48175 85.733903
L 425.82832 86.582773
L 426.405937 88.939455
L 427.445646 93.344112
L 428.023263 94.818532
L 428.485356 95.473253
L 428.94745 95.809083
L 429.29402 95.933858
L 429.29402 95.933858
" clip-path="url(#p313d543b22)" style="fill: none; stroke: #9361ae; stroke-width: 1.5625; stroke-linecap: round"/>
   </g>
   <g id="line2d_42">
    <path d="M 402.517116 95.931608
L 403.540212 95.699923
L 404.358689 95.290506
L 404.972546 94.763884
L 405.586404 93.97078
L 406.200261 92.840702
L 407.018738 90.722519
L 407.837215 87.90281
L 410.701883 77.091725
L 411.111121 76.319404
L 411.520359 75.917831
L 411.929598 75.90471
L 412.338836 76.272621
L 412.748074 76.98932
L 413.361932 78.594682
L 414.589647 82.748234
L 415.612743 85.879815
L 416.2266 87.198336
L 416.840458 87.992731
L 417.249696 88.233065
L 417.658934 88.26173
L 418.068173 88.105392
L 418.68203 87.594137
L 419.500507 86.575673
L 421.342079 84.151746
L 421.955937 83.65742
L 422.569794 83.45593
L 422.979032 83.507463
L 423.59289 83.868794
L 424.206747 84.533446
L 425.434462 86.356717
L 426.252939 87.458061
L 426.866796 87.971739
L 427.276035 88.107071
L 427.685273 88.060243
L 428.094511 87.833247
L 428.708369 87.193753
L 429.731465 85.619157
L 430.95918 83.7654
L 431.573037 83.188769
L 432.186894 82.970559
L 432.596133 83.042344
L 433.005371 83.286838
L 433.619229 83.953587
L 434.437705 85.303984
L 435.66542 87.920119
L 437.506993 91.853865
L 438.530088 93.52059
L 439.348565 94.489207
L 440.167042 95.154623
L 440.985518 95.573824
L 442.008614 95.856251
L 443.236329 95.994161
L 443.236329 95.994161
" clip-path="url(#p313d543b22)" style="fill: none; stroke: #cc86c1; stroke-width: 1.5625; stroke-linecap: round"/>
   </g>
   <g id="line2d_43">
    <path d="M 397.79155 95.989837
L 399.275684 95.765818
L 400.123761 95.453037
L 400.971838 94.920952
L 401.819915 94.124949
L 402.880011 92.793734
L 406.484338 87.649571
L 407.120396 86.285141
L 407.756454 84.391477
L 408.392512 81.849579
L 409.240588 77.517174
L 410.936742 68.291425
L 411.5728 66.056362
L 411.996839 65.28232
L 412.208858 65.137695
L 412.420877 65.160177
L 412.632896 65.350049
L 413.056935 66.217971
L 413.480973 67.685632
L 414.117031 70.798052
L 415.389146 78.712265
L 416.661262 86.165679
L 417.509339 89.88528
L 418.145396 91.901254
L 418.781454 93.293177
L 419.417512 94.130508
L 419.84155 94.414999
L 420.265589 94.49977
L 420.689627 94.396484
L 421.113666 94.113326
L 421.749724 93.366464
L 422.385781 92.263148
L 423.445877 89.829437
L 424.930012 86.300334
L 425.56607 85.258658
L 425.990108 84.833728
L 426.414147 84.64538
L 426.838185 84.687872
L 427.262224 84.934882
L 427.898281 85.591194
L 430.018474 88.162378
L 431.07857 88.927379
L 432.562705 89.954131
L 433.410782 90.837591
L 434.894916 92.80349
L 436.167032 94.341933
L 437.015109 95.071223
L 437.863186 95.544931
L 438.923282 95.859551
L 439.983378 95.989102
L 439.983378 95.989102
" clip-path="url(#p313d543b22)" style="fill: none; stroke: #eaacc7; stroke-width: 1.5625; stroke-linecap: round"/>
   </g>
   <g id="line2d_44">
    <path d="M 399.756619 96.016963
L 403.143187 95.832256
L 405.400899 95.471388
L 407.282325 94.948691
L 410.292608 93.806563
L 412.55032 93.056854
L 414.055461 92.778291
L 415.936887 92.696649
L 420.076026 92.68016
L 421.957452 92.345436
L 423.838879 91.769198
L 425.720306 90.981064
L 427.601732 89.946512
L 429.483159 88.64689
L 432.493441 86.500292
L 433.622297 85.952556
L 434.751153 85.680463
L 435.880009 85.730998
L 437.008865 86.107214
L 438.137721 86.769564
L 439.642862 87.969072
L 443.02943 90.882794
L 444.158286 91.592737
L 445.287142 92.055385
L 446.415998 92.234383
L 447.544854 92.120362
L 448.67371 91.730317
L 449.802566 91.103883
L 451.307707 90.001125
L 455.07056 87.023459
L 456.199416 86.428303
L 457.328272 86.126512
L 458.080843 86.119949
L 458.833413 86.280948
L 459.585984 86.609466
L 460.71484 87.391817
L 461.843696 88.45353
L 467.11169 93.865649
L 468.240546 94.601233
L 469.745687 95.277615
L 471.250829 95.675221
L 473.132255 95.917204
L 474.637397 95.997986
L 474.637397 95.997986
" clip-path="url(#p313d543b22)" style="fill: none; stroke: #f7d2d4; stroke-width: 1.5625; stroke-linecap: round"/>
   </g>
   <g id="patch_9">
    <path d="M 359.201959 96.049916
L 462.498041 96.049916
" style="fill: none; stroke: #adb5bd; stroke-width: 1.25; stroke-linejoin: miter; stroke-linecap: square"/>
   </g>
   <g id="text_16">
    <!-- $\rho=0.75$ -->
    <g style="fill: #adb5bd" transform="translate(394.245 9.997564)">
     <text>
      <tspan style="font: italic 10.125px 'STIXNonUnicode'" x="0" y="-0.234375"></tspan>
      <tspan style="font: 10.125px 'STIXGeneral'" x="6.937653 15.404175 20.466675 22.997925 28.060425" y="-0.234375">=𝟢.𝟩𝟧</tspan>
     </text>
    </g>
   </g>
  </g>
  <g id="axes_5">
   <g id="patch_10">
    <path d="M 476.201959 96.049916
L 579.498041 96.049916
L 579.498041 15.997564
L 476.201959 15.997564
z
" style="fill: #212529"/>
   </g>
   <g id="matplotlib.axis_9">
    <g id="xtick_13">
     <g id="line2d_45">
      <path d="M 476.201959 96.049916
L 476.201959 15.997564
" clip-path="url(#p61888b6cb4)" style="fill: none"/>
     </g>
     <g id="line2d_46">
      <g>
       <use xlink:href="#m7255cf9f16" x="476.201959" y="96.049916" style="fill: #adb5bd; stroke: #adb5bd; stroke-width: 1.25"/>
      </g>
     </g>
     <g id="text_17">
      <text style="fill: #adb5bd; font: 9px 'system-ui', '-apple-system', 'Segoe UI', 'Roboto', 'Helvetica Neue', 'Noto Sans', 'Liberation Sans', 'Arial', sans-serif; text-anchor: middle" x="476.201959" y="112.226479" transform="rotate(-0 476.201959 112.226479)">−1</text>
     </g>
    </g>
    <g id="xtick_14">
     <g id="line2d_47">
      <path d="M 527.85 96.049916
L 527.85 15.997564
" clip-path="url(#p61888b6cb4)" style="fill: none"/>
     </g>
     <g id="line2d_48">
      <g>
       <use xlink:href="#m7255cf9f16" x="527.85" y="96.049916" style="fill: #adb5bd; stroke: #adb5bd; stroke-width: 1.25"/>
      </g>
     </g>
     <g id="text_18">
      <text style="fill: #adb5bd; font: 9px 'system-ui', '-apple-system', 'Segoe UI', 'Roboto', 'Helvetica Neue', 'Noto Sans', 'Liberation Sans', 'Arial', sans-serif; text-anchor: middle" x="527.85" y="112.226479" transform="rotate(-0 527.85 112.226479)">0</text>
     </g>
    </g>
    <g id="xtick_15">
     <g id="line2d_49">
      <path d="M 579.498041 96.049916
L 579.498041 15.997564
" clip-path="url(#p61888b6cb4)" style="fill: none"/>
     </g>
     <g id="line2d_50">
      <g>
       <use xlink:href="#m7255cf9f16" x="579.498041" y="96.049916" style="fill: #adb5bd; stroke: #adb5bd; stroke-width: 1.25"/>
      </g>
     </g>
     <g id="text_19">
      <text style="fill: #adb5bd; font: 9px 'system-ui', '-apple-system', 'Segoe UI', 'Roboto', 'Helvetica Neue', 'Noto Sans', 'Liberation Sans', 'Arial', sans-serif; text-anchor: middle" x="579.498041" y="112.226479" transform="rotate(-0 579.498041 112.226479)">1</text>
     </g>
    </g>
   </g>
   <g id="matplotlib.axis_10"/>
   <g id="line2d_51">
    <path d="M 520.32595 95.891099
L 521.030149 95.58672
L 521.558297 95.08386
L 522.086446 94.147769
L 522.614594 92.512898
L 523.142743 89.837239
L 523.670891 85.740898
L 524.19904 79.889321
L 524.903238 69.115806
L 525.959535 48.146188
L 527.015832 28.298713
L 527.543981 22.104706
L 527.89608 20.10546
L 528.072129 19.809564
L 528.248179 19.991352
L 528.424228 20.645826
L 528.776328 23.30869
L 529.304476 30.243213
L 530.184724 46.717241
L 531.41707 70.295685
L 532.121268 80.374126
L 532.825467 87.32228
L 533.353615 90.743546
L 533.881764 92.982443
L 534.409912 94.365347
L 534.938061 95.17206
L 535.466209 95.616418
L 536.170408 95.894703
L 537.226705 96.022474
L 540.395596 96.049051
L 543.036339 95.954659
L 543.916587 95.730444
L 544.620785 95.313899
L 545.148933 94.776673
L 545.853131 93.66658
L 546.557329 92.087805
L 548.493874 87.355279
L 548.845973 86.941551
L 549.198072 86.78703
L 549.550171 86.905224
L 549.90227 87.285787
L 550.430419 88.272014
L 551.486716 91.035632
L 552.543013 93.574733
L 553.247211 94.717037
L 553.951409 95.412472
L 554.655607 95.779171
L 555.359806 95.947788
L 555.359806 95.947788
" clip-path="url(#p61888b6cb4)" style="fill: none; stroke: #392f62; stroke-width: 1.5625; stroke-linecap: round"/>
   </g>
   <g id="line2d_52">
    <path d="M 507.133217 95.966215
L 508.323876 95.717751
L 509.038271 95.375666
L 509.752667 94.798196
L 510.467062 93.924649
L 511.41959 92.30338
L 513.324644 88.818318
L 513.800908 88.33118
L 514.277171 88.131787
L 514.753435 88.24328
L 515.229698 88.652645
L 515.944094 89.715888
L 518.563544 94.345994
L 519.277939 95.008842
L 519.992335 95.300331
L 520.468598 95.26819
L 520.944862 95.016355
L 521.421125 94.482242
L 521.897389 93.572177
L 522.373653 92.162556
L 522.849916 90.108371
L 523.32618 87.260898
L 524.040575 81.243717
L 524.754971 73.040102
L 525.94563 56.012894
L 526.898157 43.113097
L 527.374421 38.432007
L 527.850684 35.600844
L 528.088816 34.983626
L 528.326948 34.927302
L 528.56508 35.434336
L 528.803211 36.491641
L 529.279475 40.130996
L 529.99387 48.610098
L 532.375189 81.146405
L 533.089584 87.290558
L 533.803979 91.323317
L 534.280243 93.062669
L 534.756507 94.232578
L 535.23277 94.985715
L 535.947166 95.605955
L 536.661561 95.879679
L 537.85222 96.018486
L 539.995406 95.976064
L 541.186065 95.752783
L 541.900461 95.438901
L 542.614856 94.900615
L 543.329252 94.072756
L 544.281779 92.502915
L 546.186833 88.95951
L 546.663097 88.415354
L 547.139361 88.149293
L 547.615624 88.192083
L 548.091888 88.53873
L 548.806283 89.533633
L 550.235074 92.298102
L 551.187601 93.920682
L 551.901997 94.795429
L 552.616392 95.373945
L 553.330788 95.716789
L 554.283315 95.93706
L 554.521447 95.965925
L 554.521447 95.965925
" clip-path="url(#p61888b6cb4)" style="fill: none; stroke: #9361ae; stroke-width: 1.5625; stroke-linecap: round"/>
   </g>
   <g id="line2d_53">
    <path d="M 522.41772 95.799824
L 522.999283 95.397421
L 523.435455 94.800118
L 523.871627 93.794021
L 524.307799 92.212536
L 524.743971 89.897824
L 525.325533 85.519841
L 526.197877 76.65408
L 527.215612 66.392126
L 527.651784 63.49149
L 528.087956 61.935399
L 528.378737 61.62133
L 528.669518 61.77721
L 529.10569 62.557585
L 529.687253 63.700132
L 529.978034 63.979279
L 530.268815 63.953598
L 530.559597 63.622743
L 531.141159 62.359154
L 531.722722 61.209386
L 532.013503 61.040527
L 532.304284 61.278413
L 532.595066 61.958836
L 533.031238 63.742685
L 533.903582 68.792295
L 534.630535 72.463832
L 535.066707 73.813076
L 535.502879 74.455504
L 535.79366 74.546105
L 536.084441 74.431944
L 536.666004 73.853121
L 537.392957 73.133887
L 537.829129 73.038744
L 538.11991 73.208215
L 538.410692 73.601881
L 538.846864 74.654307
L 539.428426 76.920467
L 540.15538 80.839252
L 541.609286 88.887147
L 542.190849 90.833211
L 542.627021 91.533446
L 542.917802 91.626776
L 543.208583 91.437124
L 543.644755 90.691001
L 544.226318 89.097059
L 545.244052 86.20301
L 545.680224 85.540662
L 545.971006 85.418269
L 546.261787 85.570693
L 546.552568 85.988684
L 546.98874 87.041968
L 547.861084 90.012373
L 548.878818 93.251243
L 549.460381 94.49147
L 550.041944 95.269586
L 550.623506 95.698589
L 551.35046 95.938333
L 551.35046 95.938333
" clip-path="url(#p61888b6cb4)" style="fill: none; stroke: #cc86c1; stroke-width: 1.5625; stroke-linecap: round"/>
   </g>
   <g id="line2d_54">
    <path d="M 522.610985 95.766095
L 523.061816 95.467831
L 523.512647 94.923974
L 523.963478 93.995228
L 524.414309 92.511351
L 524.86514 90.295973
L 525.466248 85.976495
L 526.217633 78.388337
L 528.171233 56.7571
L 528.622064 53.90542
L 529.072895 52.262188
L 529.373449 51.769066
L 529.674003 51.671787
L 529.974557 51.885497
L 530.425388 52.618825
L 531.026496 54.092695
L 531.777881 56.59645
L 532.529266 60.09709
L 533.430927 65.733685
L 534.933697 75.421739
L 535.685082 78.727238
L 536.436467 80.93029
L 537.187852 82.420458
L 537.78896 83.221577
L 538.390068 83.668554
L 538.991175 83.83035
L 539.74256 84.018311
L 540.193391 84.386665
L 540.644222 85.084125
L 541.24533 86.54245
L 543.048654 91.467803
L 543.499485 91.892534
L 543.800038 91.877987
L 544.100592 91.62585
L 544.551423 90.848091
L 545.302808 88.849544
L 546.20447 86.519181
L 546.655301 85.900637
L 546.955855 85.795622
L 547.256409 85.953929
L 547.556963 86.365827
L 548.007794 87.389229
L 548.909456 90.251461
L 549.961394 93.360455
L 550.562502 94.550417
L 551.16361 95.297671
L 551.764718 95.710367
L 552.516103 95.941628
L 552.516103 95.941628
" clip-path="url(#p61888b6cb4)" style="fill: none; stroke: #eaacc7; stroke-width: 1.5625; stroke-linecap: round"/>
   </g>
   <g id="line2d_55">
    <path d="M 516.788199 95.974779
L 519.109633 95.781527
L 521.04416 95.387561
L 522.591783 94.819192
L 524.139405 93.963424
L 525.687027 92.822472
L 529.942988 89.373578
L 531.103705 88.832457
L 531.877516 88.662146
L 532.651327 88.658968
L 533.425138 88.822973
L 534.585855 89.354802
L 535.746571 90.15598
L 540.776343 94.024583
L 541.93706 94.521855
L 543.097777 94.793179
L 544.258493 94.843956
L 545.41921 94.691914
L 546.966832 94.220117
L 548.90136 93.315994
L 557.800188 88.430613
L 559.734716 87.039466
L 561.669243 85.328671
L 566.31211 80.987847
L 567.472827 80.255508
L 568.633543 79.808265
L 569.79426 79.678324
L 570.954977 79.861538
L 572.115693 80.321792
L 573.27641 81.004745
L 574.824032 82.16918
L 576.75856 83.919617
L 578.693088 85.945646
L 582.175238 90.018174
L 584.109765 92.118026
L 585.657388 93.488454
L 586 93.744559
L 586 93.744559
" clip-path="url(#p61888b6cb4)" style="fill: none; stroke: #f7d2d4; stroke-width: 1.5625; stroke-linecap: round"/>
   </g>
   <g id="patch_11">
    <path d="M 476.201959 96.049916
L 579.498041 96.049916
" style="fill: none; stroke: #adb5bd; stroke-width: 1.25; stroke-linejoin: miter; stroke-linecap: square"/>
   </g>
   <g id="text_20">
    <!-- $\rho=1$ -->
    <g style="fill: #adb5bd" transform="translate(517.573125 9.997564)">
     <text>
      <tspan style="font: italic 10.125px 'STIXNonUnicode'" x="0" y="-0.234375"></tspan>
      <tspan style="font: 10.125px 'STIXGeneral'" x="6.937653 15.404175" y="-0.234375">=𝟣</tspan>
     </text>
    </g>
   </g>
  </g>
  <g id="axes_6">
   <g id="patch_12">
    <path d="M 8.201959 213.049916
L 111.498041 213.049916
L 111.498041 132.997564
L 8.201959 132.997564
z
" style="fill: #212529"/>
   </g>
   <g id="matplotlib.axis_11">
    <g id="xtick_16">
     <g id="line2d_56">
      <path d="M 8.201959 213.049916
L 8.201959 132.997564
" clip-path="url(#pd098d0995d)" style="fill: none"/>
     </g>
     <g id="line2d_57">
      <g>
       <use xlink:href="#m7255cf9f16" x="8.201959" y="213.049916" style="fill: #adb5bd; stroke: #adb5bd; stroke-width: 1.25"/>
      </g>
     </g>
     <g id="text_21">
      <text style="fill: #adb5bd; font: 9px 'system-ui', '-apple-system', 'Segoe UI', 'Roboto', 'Helvetica Neue', 'Noto Sans', 'Liberation Sans', 'Arial', sans-serif; text-anchor: middle" x="8.201959" y="229.226479" transform="rotate(-0 8.201959 229.226479)">−1</text>
     </g>
    </g>
    <g id="xtick_17">
     <g id="line2d_58">
      <path d="M 59.85 213.049916
L 59.85 132.997564
" clip-path="url(#pd098d0995d)" style="fill: none"/>
     </g>
     <g id="line2d_59">
      <g>
       <use xlink:href="#m7255cf9f16" x="59.85" y="213.049916" style="fill: #adb5bd; stroke: #adb5bd; stroke-width: 1.25"/>
      </g>
     </g>
     <g id="text_22">
      <text style="fill: #adb5bd; font: 9px 'system-ui', '-apple-system', 'Segoe UI', 'Roboto', 'Helvetica Neue', 'Noto Sans', 'Liberation Sans', 'Arial', sans-serif; text-anchor: middle" x="59.85" y="229.226479" transform="rotate(-0 59.85 229.226479)">0</text>
     </g>
    </g>
    <g id="xtick_18">
     <g id="line2d_60">
      <path d="M 111.498041 213.049916
L 111.498041 132.997564
" clip-path="url(#pd098d0995d)" style="fill: none"/>
     </g>
     <g id="line2d_61">
      <g>
       <use xlink:href="#m7255cf9f16" x="111.498041" y="213.049916" style="fill: #adb5bd; stroke: #adb5bd; stroke-width: 1.25"/>
      </g>
     </g>
     <g id="text_23">
      <text style="fill: #adb5bd; font: 9px 'system-ui', '-apple-system', 'Segoe UI', 'Roboto', 'Helvetica Neue', 'Noto Sans', 'Liberation Sans', 'Arial', sans-serif; text-anchor: middle" x="111.498041" y="229.226479" transform="rotate(-0 111.498041 229.226479)">1</text>
     </g>
    </g>
   </g>
   <g id="matplotlib.axis_12"/>
   <g id="line2d_62">
    <path d="M 35.972114 212.99125
L 37.57003 212.80302
L 38.635308 212.49747
L 39.700585 211.955912
L 40.765863 211.132566
L 42.363779 209.511869
L 43.695375 208.271197
L 44.494334 207.827606
L 45.026972 207.716608
L 45.559611 207.766809
L 46.358569 208.129932
L 47.157527 208.768712
L 50.08704 211.419221
L 50.885998 211.700795
L 51.418637 211.68681
L 51.951276 211.47551
L 52.483914 211.030248
L 53.016553 210.309147
L 53.549192 209.267657
L 54.34815 207.015415
L 55.147108 203.861476
L 56.212385 198.336442
L 58.875579 183.106232
L 59.408218 181.141911
L 59.940856 179.903671
L 60.207176 179.58393
L 60.473495 179.470886
L 60.739815 179.565035
L 61.006134 179.863027
L 61.538773 181.03899
L 62.071411 182.903844
L 62.870369 186.687783
L 66.332521 204.889928
L 67.131479 207.60931
L 67.930437 209.599044
L 68.729395 210.957196
L 69.528353 211.808308
L 70.327312 212.267351
L 71.12627 212.416158
L 71.925228 212.293172
L 72.724186 211.896464
L 73.523144 211.199653
L 74.322102 210.179114
L 75.387379 208.345738
L 77.784254 203.733216
L 78.583212 202.811885
L 79.11585 202.544864
L 79.648489 202.586274
L 80.181128 202.932489
L 80.713767 203.553515
L 81.512725 204.882118
L 84.442238 210.397493
L 85.241196 211.38035
L 86.040154 212.067117
L 86.839112 212.508906
L 87.904389 212.830035
L 88.969667 212.970611
L 88.969667 212.970611
" clip-path="url(#pd098d0995d)" style="fill: none; stroke: #392f62; stroke-width: 1.5625; stroke-linecap: round"/>
   </g>
   <g id="line2d_63">
    <path d="M 24.576543 212.990205
L 26.287786 212.767963
L 27.428615 212.387876
L 28.284236 211.908106
L 29.425065 210.969684
L 32.562344 207.922838
L 33.132759 207.680351
L 33.703173 207.626575
L 34.273587 207.767249
L 35.129209 208.305118
L 36.270038 209.427969
L 38.266488 211.456978
L 39.407317 212.23377
L 40.548146 212.688197
L 41.974182 212.943231
L 44.25584 213.040231
L 48.533948 212.981909
L 49.959984 212.754602
L 50.815605 212.401309
L 51.38602 211.995834
L 51.956434 211.389119
L 52.526848 210.512738
L 53.097263 209.291529
L 53.667677 207.651421
L 54.523299 204.278704
L 55.378921 199.757531
L 56.519749 192.299918
L 58.230993 181.049187
L 58.801407 178.321288
L 59.371821 176.511238
L 59.657029 175.99961
L 59.942236 175.764128
L 60.227443 175.806634
L 60.51265 176.121988
L 61.083065 177.517622
L 61.653479 179.787048
L 62.509101 184.311391
L 64.790758 197.165394
L 65.64638 200.765586
L 66.502001 203.456981
L 67.357623 205.313374
L 67.928037 206.145045
L 68.498452 206.697877
L 69.068866 207.016565
L 69.924488 207.171967
L 72.206146 207.195543
L 73.061767 207.570406
L 73.917389 208.240233
L 75.343425 209.762098
L 76.769461 211.241506
L 77.91029 212.09539
L 79.051118 212.613746
L 80.191947 212.877451
L 81.332776 212.990918
L 81.332776 212.990918
" clip-path="url(#pd098d0995d)" style="fill: none; stroke: #9361ae; stroke-width: 1.5625; stroke-linecap: round"/>
   </g>
   <g id="line2d_64">
    <path d="M 47.894219 212.971288
L 48.978503 212.756564
L 49.701359 212.427554
L 50.424214 211.855396
L 51.14707 210.974487
L 52.050639 209.443282
L 54.39992 205.116798
L 56.387773 202.246835
L 56.929915 200.901837
L 57.65277 198.454905
L 59.640623 191.100173
L 60.002051 190.455592
L 60.363479 190.190421
L 60.724907 190.312901
L 61.086335 190.79801
L 61.628476 192.082719
L 62.532046 195.052096
L 63.616329 198.528608
L 64.339185 200.202479
L 64.881327 201.011219
L 65.423469 201.407759
L 65.784896 201.432584
L 66.146324 201.260433
L 66.688466 200.635773
L 67.230608 199.60925
L 68.134177 197.304025
L 69.218461 194.623502
L 69.760602 193.802465
L 70.12203 193.551976
L 70.483458 193.559008
L 70.844886 193.81571
L 71.387028 194.597159
L 73.555594 198.471203
L 73.917022 198.664926
L 74.27845 198.683668
L 74.820592 198.471838
L 75.724161 198.022436
L 76.085589 198.020319
L 76.447017 198.210729
L 76.808445 198.629046
L 77.350586 199.702398
L 78.073442 201.845157
L 80.422723 209.661997
L 81.145579 211.131923
L 81.868434 212.063539
L 82.59129 212.589318
L 83.494859 212.894776
L 83.856287 212.953709
L 83.856287 212.953709
" clip-path="url(#pd098d0995d)" style="fill: none; stroke: #cc86c1; stroke-width: 1.5625; stroke-linecap: round"/>
   </g>
   <g id="line2d_65">
    <path d="M 56.089579 212.821598
L 56.355864 212.447307
L 56.622148 211.631371
L 56.888433 210.067298
L 57.221288 206.581904
L 57.620715 199.840349
L 58.619281 177.222407
L 59.551277 157.697293
L 59.817561 155.167136
L 59.950703 154.904805
L 60.083846 155.335092
L 60.283559 157.153621
L 60.749557 164.609462
L 61.282125 171.959399
L 61.54841 173.355531
L 61.681552 173.360449
L 61.814694 172.875781
L 62.014408 171.170189
L 62.280692 166.915132
L 62.680119 156.410831
L 63.34583 138.135992
L 63.545543 136.809414
L 63.678685 137.771354
L 63.878398 142.114348
L 64.211254 155.871586
L 65.143249 198.544393
L 65.476105 204.197267
L 65.675818 204.865156
L 65.808961 204.383238
L 66.075245 201.783886
L 66.874098 192.414848
L 67.00724 192.198242
L 67.140383 192.578074
L 67.340096 194.188323
L 67.739523 199.891956
L 68.405234 209.016331
L 68.80466 211.650806
L 69.137516 212.575984
L 69.337229 212.823087
L 69.337229 212.823087
" clip-path="url(#pd098d0995d)" style="fill: none; stroke: #eaacc7; stroke-width: 1.5625; stroke-linecap: round"/>
   </g>
   <g id="line2d_66">
    <path d="M 48.557743 213.014966
L 52.045067 212.834969
L 54.36995 212.488301
L 56.307352 211.972155
L 58.244755 211.23029
L 60.957118 209.921525
L 66.769326 206.813358
L 71.031611 204.402315
L 72.194052 203.977401
L 73.356494 203.790994
L 74.518935 203.896614
L 75.681377 204.311347
L 76.843818 205.009602
L 78.39374 206.26545
L 81.881065 209.318959
L 83.043506 210.073671
L 84.205948 210.588778
L 85.368389 210.836203
L 86.53083 210.811013
L 87.693272 210.528024
L 88.855713 210.017896
L 90.405635 209.058389
L 92.730518 207.257115
L 97.380284 203.532485
L 99.705167 201.995562
L 101.255089 201.217026
L 102.41753 200.823648
L 103.579972 200.639316
L 104.742413 200.699941
L 105.904855 201.028422
L 107.067296 201.628432
L 108.229738 202.480962
L 109.77966 203.93555
L 112.879504 207.337806
L 114.816906 209.301266
L 116.366828 210.575102
L 117.91675 211.531946
L 119.466672 212.187594
L 121.016594 212.597426
L 122.953996 212.869768
L 125.66636 213.010111
L 125.66636 213.010111
" clip-path="url(#pd098d0995d)" style="fill: none; stroke: #f7d2d4; stroke-width: 1.5625; stroke-linecap: round"/>
   </g>
   <g id="patch_13">
    <path d="M 8.201959 213.049916
L 111.498041 213.049916
" style="fill: none; stroke: #adb5bd; stroke-width: 1.25; stroke-linejoin: miter; stroke-linecap: square"/>
   </g>
   <g id="text_24">
    <!-- $\rho=1.25$ -->
    <g style="fill: #adb5bd" transform="translate(43.245 126.997564)">
     <text>
      <tspan style="font: italic 10.125px 'STIXNonUnicode'" x="0" y="-0.234375"></tspan>
      <tspan style="font: 10.125px 'STIXGeneral'" x="6.937653 15.404175 20.466675 22.997925 28.060425" y="-0.234375">=𝟣.𝟤𝟧</tspan>
     </text>
    </g>
   </g>
  </g>
  <g id="axes_7">
   <g id="patch_14">
    <path d="M 125.201959 213.049916
L 228.498041 213.049916
L 228.498041 132.997564
L 125.201959 132.997564
z
" style="fill: #212529"/>
   </g>
   <g id="matplotlib.axis_13">
    <g id="xtick_19">
     <g id="line2d_67">
      <path d="M 125.201959 213.049916
L 125.201959 132.997564
" clip-path="url(#p17fae5741d)" style="fill: none"/>
     </g>
     <g id="line2d_68">
      <g>
       <use xlink:href="#m7255cf9f16" x="125.201959" y="213.049916" style="fill: #adb5bd; stroke: #adb5bd; stroke-width: 1.25"/>
      </g>
     </g>
     <g id="text_25">
      <text style="fill: #adb5bd; font: 9px 'system-ui', '-apple-system', 'Segoe UI', 'Roboto', 'Helvetica Neue', 'Noto Sans', 'Liberation Sans', 'Arial', sans-serif; text-anchor: middle" x="125.201959" y="229.226479" transform="rotate(-0 125.201959 229.226479)">−1</text>
     </g>
    </g>
    <g id="xtick_20">
     <g id="line2d_69">
      <path d="M 176.85 213.049916
L 176.85 132.997564
" clip-path="url(#p17fae5741d)" style="fill: none"/>
     </g>
     <g id="line2d_70">
      <g>
       <use xlink:href="#m7255cf9f16" x="176.85" y="213.049916" style="fill: #adb5bd; stroke: #adb5bd; stroke-width: 1.25"/>
      </g>
     </g>
     <g id="text_26">
      <text style="fill: #adb5bd; font: 9px 'system-ui', '-apple-system', 'Segoe UI', 'Roboto', 'Helvetica Neue', 'Noto Sans', 'Liberation Sans', 'Arial', sans-serif; text-anchor: middle" x="176.85" y="229.226479" transform="rotate(-0 176.85 229.226479)">0</text>
     </g>
    </g>
    <g id="xtick_21">
     <g id="line2d_71">
      <path d="M 228.498041 213.049916
L 228.498041 132.997564
" clip-path="url(#p17fae5741d)" style="fill: none"/>
     </g>
     <g id="line2d_72">
      <g>
       <use xlink:href="#m7255cf9f16" x="228.498041" y="213.049916" style="fill: #adb5bd; stroke: #adb5bd; stroke-width: 1.25"/>
      </g>
     </g>
     <g id="text_27">
      <text style="fill: #adb5bd; font: 9px 'system-ui', '-apple-system', 'Segoe UI', 'Roboto', 'Helvetica Neue', 'Noto Sans', 'Liberation Sans', 'Arial', sans-serif; text-anchor: middle" x="228.498041" y="229.226479" transform="rotate(-0 228.498041 229.226479)">1</text>
     </g>
    </g>
   </g>
   <g id="matplotlib.axis_14"/>
   <g id="line2d_73">
    <path d="M 171.328018 212.935747
L 171.818463 212.687724
L 172.210819 212.228135
L 172.603176 211.343514
L 172.995532 209.790274
L 173.387889 207.283456
L 173.878334 202.362316
L 174.36878 194.987974
L 174.957314 182.576555
L 176.52674 145.836698
L 176.821007 143.788719
L 176.919096 143.746176
L 177.115274 144.646434
L 177.409542 148.334556
L 177.899987 159.23385
L 179.077056 187.55189
L 179.567502 193.965383
L 180.057947 197.790496
L 181.823551 208.177066
L 182.313996 209.978788
L 182.608264 210.464462
L 182.804442 210.514213
L 183.00062 210.340026
L 183.294887 209.663545
L 183.687244 208.038631
L 184.275778 204.434259
L 185.354758 197.621493
L 185.845204 195.922039
L 186.139471 195.514236
L 186.335649 195.506034
L 186.531827 195.709174
L 186.826095 196.405617
L 187.218451 198.027731
L 187.806986 201.624435
L 188.984055 209.178626
L 189.4745 211.110816
L 189.964946 212.214568
L 190.455391 212.741383
L 190.847748 212.925583
L 190.847748 212.925583
" clip-path="url(#p17fae5741d)" style="fill: none; stroke: #392f62; stroke-width: 1.5625; stroke-linecap: round"/>
   </g>
   <g id="line2d_74">
    <path d="M 172.202583 212.799346
L 172.522805 212.503047
L 172.843028 211.923629
L 173.16325 210.860695
L 173.483472 209.033232
L 173.803695 206.092527
L 174.230658 199.813359
L 174.764362 187.413545
L 175.618288 159.863714
L 176.258732 142.212652
L 176.578955 137.704626
L 176.792436 136.807602
L 176.899177 137.009891
L 177.112659 138.665486
L 177.432881 143.908467
L 177.966585 157.501277
L 179.033992 185.687092
L 179.674437 196.615444
L 180.208141 201.941653
L 180.635104 204.038069
L 180.955326 204.532866
L 181.168808 204.448537
L 181.48903 203.886047
L 182.342956 202.004609
L 182.556438 201.903777
L 182.76992 202.056294
L 183.090142 202.769876
L 183.517105 204.470433
L 184.904735 210.780045
L 185.438439 211.994216
L 185.865402 212.417834
L 186.185624 212.461467
L 186.505847 212.277776
L 186.826069 211.84748
L 187.253032 210.833062
L 187.786736 208.805953
L 189.281107 202.370753
L 189.494588 202.132898
L 189.70807 202.192232
L 189.921551 202.543935
L 190.241774 203.552405
L 190.882218 206.602247
L 191.736145 210.431415
L 192.269848 211.857312
L 192.696812 212.488159
L 193.230515 212.862099
L 193.443997 212.934431
L 193.443997 212.934431
" clip-path="url(#p17fae5741d)" style="fill: none; stroke: #9361ae; stroke-width: 1.5625; stroke-linecap: round"/>
   </g>
   <g id="line2d_75">
    <path d="M 167.714133 212.992293
L 169.297647 212.79493
L 170.428729 212.414482
L 171.333594 211.84091
L 172.012243 211.186306
L 172.917109 209.939547
L 173.821974 208.219856
L 174.953055 205.460626
L 177.667651 198.358698
L 178.3463 197.200473
L 179.024949 196.520603
L 179.477382 196.356944
L 179.929815 196.423951
L 180.382247 196.706802
L 181.060896 197.476152
L 181.965761 198.945866
L 184.227925 202.823556
L 185.13279 203.886411
L 186.037655 204.593993
L 186.942521 205.010512
L 188.073602 205.247987
L 189.657116 205.28753
L 192.371712 205.072158
L 194.181443 204.735229
L 195.312524 204.3309
L 196.443606 203.696909
L 197.800904 202.623211
L 199.836851 200.953737
L 200.5155 200.65679
L 201.194149 200.616014
L 201.872798 200.882345
L 202.551447 201.474112
L 203.230096 202.372124
L 204.134961 203.946875
L 207.30199 209.959844
L 208.206855 211.119946
L 209.11172 211.933249
L 210.016585 212.452498
L 211.147667 212.805655
L 212.504965 212.979338
L 212.731181 212.993558
L 212.731181 212.993558
" clip-path="url(#p17fae5741d)" style="fill: none; stroke: #cc86c1; stroke-width: 1.5625; stroke-linecap: round"/>
   </g>
   <g id="line2d_76">
    <path d="M 167.922495 212.967817
L 169.183184 212.749154
L 170.023643 212.401022
L 170.653988 211.951329
L 171.284332 211.267616
L 171.914677 210.277952
L 172.545021 208.915199
L 173.385481 206.441059
L 174.22594 203.221674
L 175.696744 196.431209
L 176.957433 190.964
L 177.587778 188.961997
L 178.218122 187.705016
L 178.638352 187.337572
L 179.058581 187.360211
L 179.478811 187.763196
L 179.899041 188.518413
L 180.529385 190.210812
L 181.579959 194.002269
L 183.260878 200.275074
L 184.101338 202.681673
L 184.941797 204.450862
L 185.782256 205.712725
L 187.042945 207.12301
L 189.564323 209.590852
L 190.404783 210.116259
L 191.035127 210.276454
L 191.665472 210.191089
L 192.295816 209.844195
L 192.926161 209.24497
L 193.76662 208.112965
L 195.237424 205.602831
L 196.708228 203.182531
L 197.548687 202.168441
L 198.179032 201.685426
L 198.809376 201.487005
L 199.439721 201.599511
L 200.070065 202.029332
L 200.70041 202.758251
L 201.540869 204.114627
L 203.221788 207.46561
L 204.482477 209.764986
L 205.533051 211.185457
L 206.373511 211.960483
L 207.21397 212.460289
L 208.264544 212.804637
L 209.735348 212.991581
L 209.735348 212.991581
" clip-path="url(#p17fae5741d)" style="fill: none; stroke: #eaacc7; stroke-width: 1.5625; stroke-linecap: round"/>
   </g>
   <g id="line2d_77">
    <path d="M 175.997559 212.989464
L 177.849156 212.786603
L 179.083554 212.44367
L 180.009353 212.000884
L 180.935151 211.350688
L 181.860949 210.473101
L 183.095347 208.996781
L 185.255544 206.270202
L 186.181342 205.444908
L 186.798541 205.109667
L 187.41574 204.965459
L 188.032939 205.005431
L 188.958737 205.344009
L 191.427533 206.538849
L 192.044732 206.575174
L 192.661931 206.419117
L 193.27913 206.05641
L 194.204928 205.140991
L 195.130727 203.868363
L 197.908122 199.773341
L 198.525321 199.216228
L 199.14252 198.896486
L 199.759719 198.830645
L 200.376918 199.008941
L 200.994117 199.39446
L 202.228515 200.52579
L 203.462913 201.593949
L 204.080112 201.920333
L 204.697311 202.052473
L 205.314509 201.988725
L 206.240308 201.605259
L 207.783305 200.808876
L 208.400504 200.686592
L 209.017703 200.7843
L 209.634902 201.140187
L 210.252101 201.760858
L 211.177899 203.128372
L 212.720897 206.081634
L 214.263894 208.951837
L 215.189693 210.306182
L 216.115491 211.303982
L 217.04129 211.9558
L 217.967088 212.305103
L 218.892886 212.401221
L 219.818685 212.284287
L 221.053083 211.848383
L 222.287481 211.162789
L 225.064876 209.471013
L 225.990674 209.169557
L 226.916473 209.116307
L 227.842271 209.32186
L 228.76807 209.746691
L 230.619666 210.930887
L 232.471263 212.011473
L 233.705661 212.494132
L 235.248659 212.834903
L 237.100255 212.996173
L 237.408855 213.008363
L 237.408855 213.008363
" clip-path="url(#p17fae5741d)" style="fill: none; stroke: #f7d2d4; stroke-width: 1.5625; stroke-linecap: round"/>
   </g>
   <g id="patch_15">
    <path d="M 125.201959 213.049916
L 228.498041 213.049916
" style="fill: none; stroke: #adb5bd; stroke-width: 1.25; stroke-linejoin: miter; stroke-linecap: square"/>
   </g>
   <g id="text_28">
    <!-- $\rho=1.5$ -->
    <g style="fill: #adb5bd" transform="translate(162.77625 126.997564)">
     <text>
      <tspan style="font: italic 10.125px 'STIXNonUnicode'" x="0" y="-0.234375"></tspan>
      <tspan style="font: 10.125px 'STIXGeneral'" x="6.937653 15.404175 20.466675 22.997925" y="-0.234375">=𝟣.𝟧</tspan>
     </text>
    </g>
   </g>
  </g>
  <g id="axes_8">
   <g id="patch_16">
    <path d="M 242.201959 213.049916
L 345.498041 213.049916
L 345.498041 132.997564
L 242.201959 132.997564
z
" style="fill: #212529"/>
   </g>
   <g id="matplotlib.axis_15">
    <g id="xtick_22">
     <g id="line2d_78">
      <path d="M 242.201959 213.049916
L 242.201959 132.997564
" clip-path="url(#pb1e941bd5c)" style="fill: none"/>
     </g>
     <g id="line2d_79">
      <g>
       <use xlink:href="#m7255cf9f16" x="242.201959" y="213.049916" style="fill: #adb5bd; stroke: #adb5bd; stroke-width: 1.25"/>
      </g>
     </g>
     <g id="text_29">
      <text style="fill: #adb5bd; font: 9px 'system-ui', '-apple-system', 'Segoe UI', 'Roboto', 'Helvetica Neue', 'Noto Sans', 'Liberation Sans', 'Arial', sans-serif; text-anchor: middle" x="242.201959" y="229.226479" transform="rotate(-0 242.201959 229.226479)">−1</text>
     </g>
    </g>
    <g id="xtick_23">
     <g id="line2d_80">
      <path d="M 293.85 213.049916
L 293.85 132.997564
" clip-path="url(#pb1e941bd5c)" style="fill: none"/>
     </g>
     <g id="line2d_81">
      <g>
       <use xlink:href="#m7255cf9f16" x="293.85" y="213.049916" style="fill: #adb5bd; stroke: #adb5bd; stroke-width: 1.25"/>
      </g>
     </g>
     <g id="text_30">
      <text style="fill: #adb5bd; font: 9px 'system-ui', '-apple-system', 'Segoe UI', 'Roboto', 'Helvetica Neue', 'Noto Sans', 'Liberation Sans', 'Arial', sans-serif; text-anchor: middle" x="293.85" y="229.226479" transform="rotate(-0 293.85 229.226479)">0</text>
     </g>
    </g>
    <g id="xtick_24">
     <g id="line2d_82">
      <path d="M 345.498041 213.049916
L 345.498041 132.997564
" clip-path="url(#pb1e941bd5c)" style="fill: none"/>
     </g>
     <g id="line2d_83">
      <g>
       <use xlink:href="#m7255cf9f16" x="345.498041" y="213.049916" style="fill: #adb5bd; stroke: #adb5bd; stroke-width: 1.25"/>
      </g>
     </g>
     <g id="text_31">
      <text style="fill: #adb5bd; font: 9px 'system-ui', '-apple-system', 'Segoe UI', 'Roboto', 'Helvetica Neue', 'Noto Sans', 'Liberation Sans', 'Arial', sans-serif; text-anchor: middle" x="345.498041" y="229.226479" transform="rotate(-0 345.498041 229.226479)">1</text>
     </g>
    </g>
   </g>
   <g id="matplotlib.axis_16"/>
   <g id="line2d_84">
    <path d="M 291.559491 212.815428
L 291.790434 212.377014
L 292.021376 211.321083
L 292.252319 209.06854
L 292.540997 203.345047
L 292.887411 190.31971
L 294.042124 136.809566
L 294.09986 136.945048
L 294.215331 138.503268
L 294.446274 146.23869
L 294.965895 175.627087
L 295.485516 200.008181
L 295.83193 208.154661
L 296.178344 211.593145
L 296.467022 212.608109
L 296.755701 212.936925
L 297.15985 213.037407
L 298.660978 213.026676
L 299.122863 212.851645
L 299.411541 212.45374
L 299.70022 211.558275
L 300.046633 209.532336
L 300.912668 203.613724
L 301.02814 203.55139
L 301.143611 203.765732
L 301.374554 204.929043
L 302.471531 212.18741
L 302.817945 212.805146
L 303.048888 212.958667
L 303.048888 212.958667
" clip-path="url(#pb1e941bd5c)" style="fill: none; stroke: #392f62; stroke-width: 1.5625; stroke-linecap: round"/>
   </g>
   <g id="line2d_85">
    <path d="M 289.477254 212.888208
L 289.905624 212.590121
L 290.226902 212.113009
L 290.54818 211.254985
L 290.869458 209.816845
L 291.297829 206.612628
L 291.726199 201.563867
L 292.368755 190.756915
L 293.225496 176.190687
L 293.546774 173.210302
L 293.760959 172.444865
L 293.868052 172.450844
L 294.082237 173.223544
L 294.403515 176.082791
L 294.938978 183.835303
L 295.902811 198.235008
L 296.545367 204.405531
L 297.187923 208.212133
L 297.830479 210.596767
L 298.365942 211.824496
L 298.901405 212.521857
L 299.436868 212.856696
L 300.186516 213.014493
L 302.007091 213.047495
L 303.506388 212.932031
L 304.041851 212.706533
L 304.577314 212.213238
L 305.112777 211.344626
L 306.826259 208.034572
L 307.147537 208.04093
L 307.468815 208.358707
L 307.897185 209.160278
L 309.28939 212.088937
L 309.824853 212.642905
L 310.360316 212.905718
L 310.788686 212.994631
L 310.788686 212.994631
" clip-path="url(#pb1e941bd5c)" style="fill: none; stroke: #9361ae; stroke-width: 1.5625; stroke-linecap: round"/>
   </g>
   <g id="line2d_86">
    <path d="M 284.334937 212.97406
L 285.647678 212.763756
L 286.522839 212.427599
L 287.398 211.808489
L 288.054371 211.08059
L 288.710742 210.073135
L 289.585902 208.25826
L 290.679854 205.341999
L 292.430175 200.512929
L 293.086546 199.245765
L 293.524127 198.706261
L 293.961707 198.449032
L 294.399287 198.48815
L 294.836868 198.819654
L 295.274448 199.422112
L 295.930819 200.750452
L 297.02477 203.663558
L 298.556302 207.807584
L 299.431463 209.652214
L 300.306624 210.971219
L 300.962994 211.628873
L 301.619365 212.038981
L 302.275736 212.241629
L 303.150897 212.255447
L 304.026058 212.050162
L 305.338799 211.493632
L 307.745491 210.432945
L 309.058233 210.123736
L 310.589764 209.997584
L 312.558877 210.059881
L 319.778954 210.783118
L 321.091695 211.295386
L 323.935968 212.509916
L 325.4675 212.854063
L 327.436612 213.014246
L 327.874193 213.026935
L 327.874193 213.026935
" clip-path="url(#pb1e941bd5c)" style="fill: none; stroke: #cc86c1; stroke-width: 1.5625; stroke-linecap: round"/>
   </g>
   <g id="line2d_87">
    <path d="M 288.016377 212.991924
L 288.857037 212.81255
L 289.417477 212.505107
L 289.977917 211.901954
L 290.398247 211.150436
L 290.958687 209.593836
L 291.519127 207.258469
L 292.219677 203.200107
L 294.181217 190.557927
L 294.601548 189.327378
L 294.881768 189.038273
L 295.161988 189.186425
L 295.442208 189.753372
L 295.862538 191.292374
L 296.563088 195.133249
L 298.244408 205.047398
L 298.944958 207.969086
L 299.645508 210.049571
L 300.346058 211.422795
L 301.046608 212.244652
L 301.747158 212.662735
L 302.447709 212.790086
L 303.148259 212.67913
L 303.848809 212.32368
L 304.549359 211.706326
L 305.670239 210.327302
L 306.651009 209.214571
L 307.351559 208.73914
L 308.052109 208.534697
L 309.172989 208.500161
L 310.013649 208.663244
L 310.7142 209.0602
L 311.41475 209.752394
L 313.65651 212.304288
L 314.35706 212.704507
L 315.19772 212.937422
L 315.89827 213.012513
L 315.89827 213.012513
" clip-path="url(#pb1e941bd5c)" style="fill: none; stroke: #eaacc7; stroke-width: 1.5625; stroke-linecap: round"/>
   </g>
   <g id="line2d_88">
    <path d="M 285.532463 213.036056
L 290.401665 212.896515
L 293.398097 212.595474
L 296.394529 212.041226
L 302.012839 210.887165
L 304.260163 210.745276
L 306.507488 210.845109
L 320.74054 212.199525
L 324.486081 212.659657
L 326.733405 212.747708
L 328.606175 212.645583
L 330.478945 212.322811
L 331.977161 211.855371
L 333.475377 211.16238
L 334.973593 210.229337
L 336.846363 208.777324
L 340.217349 206.078348
L 341.341011 205.450102
L 342.464673 205.088342
L 343.588336 205.040353
L 344.711998 205.316838
L 345.83566 205.888809
L 347.333876 206.997472
L 352.203078 210.985919
L 353.701294 211.7933
L 355.19951 212.342623
L 357.07228 212.741275
L 359.319604 212.952991
L 360.068712 212.986595
L 360.068712 212.986595
" clip-path="url(#pb1e941bd5c)" style="fill: none; stroke: #f7d2d4; stroke-width: 1.5625; stroke-linecap: round"/>
   </g>
   <g id="patch_17">
    <path d="M 242.201959 213.049916
L 345.498041 213.049916
" style="fill: none; stroke: #adb5bd; stroke-width: 1.25; stroke-linejoin: miter; stroke-linecap: square"/>
   </g>
   <g id="text_32">
    <!-- $\rho=1.75$ -->
    <g style="fill: #adb5bd" transform="translate(277.245 126.997564)">
     <text>
      <tspan style="font: italic 10.125px 'STIXNonUnicode'" x="0" y="-0.234375"></tspan>
      <tspan style="font: 10.125px 'STIXGeneral'" x="6.937653 15.404175 20.466675 22.997925 28.060425" y="-0.234375">=𝟣.𝟩𝟧</tspan>
     </text>
    </g>
   </g>
  </g>
  <g id="axes_9">
   <g id="patch_18">
    <path d="M 359.201959 213.049916
L 462.498041 213.049916
L 462.498041 132.997564
L 359.201959 132.997564
z
" style="fill: #212529"/>
   </g>
   <g id="matplotlib.axis_17">
    <g id="xtick_25">
     <g id="line2d_89">
      <path d="M 359.201959 213.049916
L 359.201959 132.997564
" clip-path="url(#p327517ab7f)" style="fill: none"/>
     </g>
     <g id="line2d_90">
      <g>
       <use xlink:href="#m7255cf9f16" x="359.201959" y="213.049916" style="fill: #adb5bd; stroke: #adb5bd; stroke-width: 1.25"/>
      </g>
     </g>
     <g id="text_33">
      <text style="fill: #adb5bd; font: 9px 'system-ui', '-apple-system', 'Segoe UI', 'Roboto', 'Helvetica Neue', 'Noto Sans', 'Liberation Sans', 'Arial', sans-serif; text-anchor: middle" x="359.201959" y="229.226479" transform="rotate(-0 359.201959 229.226479)">−1</text>
     </g>
    </g>
    <g id="xtick_26">
     <g id="line2d_91">
      <path d="M 410.85 213.049916
L 410.85 132.997564
" clip-path="url(#p327517ab7f)" style="fill: none"/>
     </g>
     <g id="line2d_92">
      <g>
       <use xlink:href="#m7255cf9f16" x="410.85" y="213.049916" style="fill: #adb5bd; stroke: #adb5bd; stroke-width: 1.25"/>
      </g>
     </g>
     <g id="text_34">
      <text style="fill: #adb5bd; font: 9px 'system-ui', '-apple-system', 'Segoe UI', 'Roboto', 'Helvetica Neue', 'Noto Sans', 'Liberation Sans', 'Arial', sans-serif; text-anchor: middle" x="410.85" y="229.226479" transform="rotate(-0 410.85 229.226479)">0</text>
     </g>
    </g>
    <g id="xtick_27">
     <g id="line2d_93">
      <path d="M 462.498041 213.049916
L 462.498041 132.997564
" clip-path="url(#p327517ab7f)" style="fill: none"/>
     </g>
     <g id="line2d_94">
      <g>
       <use xlink:href="#m7255cf9f16" x="462.498041" y="213.049916" style="fill: #adb5bd; stroke: #adb5bd; stroke-width: 1.25"/>
      </g>
     </g>
     <g id="text_35">
      <text style="fill: #adb5bd; font: 9px 'system-ui', '-apple-system', 'Segoe UI', 'Roboto', 'Helvetica Neue', 'Noto Sans', 'Liberation Sans', 'Arial', sans-serif; text-anchor: middle" x="462.498041" y="229.226479" transform="rotate(-0 462.498041 229.226479)">1</text>
     </g>
    </g>
   </g>
   <g id="matplotlib.axis_18"/>
   <g id="line2d_95">
    <path d="M 408.733534 212.950801
L 408.866578 212.657867
L 409.026231 211.525823
L 409.212492 208.084204
L 409.664842 198.156698
L 409.691451 198.233341
L 409.904321 199.63239
L 409.957538 199.237478
L 410.063974 196.191571
L 410.276844 180.433089
L 410.649367 154.5332
L 410.702585 153.983299
L 410.755802 154.17681
L 410.915455 157.308695
L 411.154934 160.785622
L 411.287978 161.513204
L 411.394413 163.88096
L 411.580675 175.406194
L 412.086242 209.983282
L 412.299112 212.457321
L 412.35233 212.53757
L 412.405547 212.473928
L 412.511982 211.905599
L 412.671635 209.644157
L 413.150593 198.560252
L 413.23042 199.105189
L 413.416681 203.706451
L 413.789204 211.913751
L 414.002075 212.893982
L 414.028683 212.93303
L 414.028683 212.93303
" clip-path="url(#p327517ab7f)" style="fill: none; stroke: #392f62; stroke-width: 1.5625; stroke-linecap: round"/>
   </g>
   <g id="line2d_96">
    <path d="M 406.643252 212.961927
L 406.843998 212.687747
L 407.044745 211.888347
L 407.28564 209.666287
L 407.887878 202.873249
L 407.968176 203.103013
L 408.128773 204.619636
L 408.81131 212.347024
L 409.052205 212.901455
L 409.2931 213.009318
L 409.533996 212.883054
L 409.694593 212.475511
L 409.855189 211.320556
L 410.015786 208.538047
L 410.216532 200.792484
L 410.497577 178.624981
L 410.979367 137.539732
L 411.059666 136.808864
L 411.139964 138.71664
L 411.34071 153.248011
L 411.942948 204.947238
L 412.223993 211.359718
L 412.424739 212.207658
L 412.505037 212.093677
L 412.665634 211.250891
L 412.906529 208.536971
L 413.38832 202.89754
L 413.428469 202.869981
L 413.468618 202.943804
L 413.589066 203.737302
L 413.91026 208.225049
L 414.271603 211.977612
L 414.552647 212.859654
L 414.632946 212.943809
L 414.632946 212.943809
" clip-path="url(#p327517ab7f)" style="fill: none; stroke: #9361ae; stroke-width: 1.5625; stroke-linecap: round"/>
   </g>
   <g id="line2d_97">
    <path d="M 407.451307 212.99019
L 407.94141 212.795077
L 408.268144 212.453116
L 408.594879 211.774544
L 408.921614 210.559618
L 409.330033 207.977179
L 409.820136 203.100255
L 411.045392 189.597097
L 411.290443 188.660678
L 411.453811 188.555099
L 411.617178 188.844031
L 411.862229 189.917747
L 412.352332 193.579484
L 413.986007 206.972477
L 414.557793 210.10907
L 415.047895 211.674286
L 415.37463 212.156554
L 415.619682 212.260464
L 415.864733 212.169302
L 416.191468 211.783346
L 416.68157 210.787839
L 417.498408 209.144711
L 417.825143 208.943309
L 418.070194 209.020473
L 418.478613 209.446831
L 419.050399 210.009698
L 419.377134 210.004251
L 419.703869 209.731502
L 420.439023 208.970008
L 420.684074 208.964693
L 420.929125 209.159897
L 421.337544 209.873468
L 422.5628 212.382859
L 423.052902 212.81167
L 423.624689 212.996466
L 423.706372 213.007842
L 423.706372 213.007842
" clip-path="url(#p327517ab7f)" style="fill: none; stroke: #cc86c1; stroke-width: 1.5625; stroke-linecap: round"/>
   </g>
   <g id="line2d_98">
    <path d="M 405.185907 212.976098
L 406.007855 212.781654
L 406.692812 212.369852
L 407.240777 211.747453
L 407.788743 210.754845
L 408.4737 208.901957
L 409.43264 205.386368
L 410.391579 201.989199
L 410.939545 200.820771
L 411.213528 200.564539
L 411.48751 200.549372
L 411.761493 200.774996
L 412.172467 201.530702
L 412.720433 203.15285
L 414.775304 210.032959
L 415.323269 210.98295
L 415.734243 211.35775
L 416.145217 211.464071
L 416.556192 211.334973
L 417.104157 210.87383
L 419.159028 208.640804
L 419.570002 208.551478
L 419.980976 208.642446
L 420.528942 208.984869
L 422.035847 210.111693
L 422.583812 210.246603
L 423.268769 210.171805
L 425.460632 209.663032
L 426.145588 209.783409
L 426.967537 210.182086
L 427.926476 210.93451
L 429.570373 212.279411
L 430.529313 212.741616
L 431.488252 212.954462
L 432.447192 213.027173
L 432.447192 213.027173
" clip-path="url(#p327517ab7f)" style="fill: none; stroke: #eaacc7; stroke-width: 1.5625; stroke-linecap: round"/>
   </g>
   <g id="line2d_99">
    <path d="M 426.211769 213.034858
L 429.117887 212.878359
L 430.906267 212.565976
L 436.047861 211.428881
L 438.953979 211.086294
L 442.307192 210.426617
L 443.424929 210.538217
L 444.542667 210.880733
L 447.89588 212.093961
L 449.013618 212.1724
L 450.354903 212.008402
L 452.590378 211.438929
L 454.155211 210.899017
L 455.272949 210.258919
L 456.167139 209.480712
L 457.284876 208.169591
L 459.296804 205.703363
L 459.967447 205.222403
L 460.63809 205.058706
L 461.085185 205.144629
L 461.755827 205.559833
L 462.42647 206.271638
L 463.544207 207.873331
L 465.332588 210.483902
L 466.226778 211.456399
L 467.120968 212.140062
L 468.015158 212.572384
L 469.132896 212.860489
L 470.697729 213.008365
L 470.697729 213.008365
" clip-path="url(#p327517ab7f)" style="fill: none; stroke: #f7d2d4; stroke-width: 1.5625; stroke-linecap: round"/>
   </g>
   <g id="patch_19">
    <path d="M 359.201959 213.049916
L 462.498041 213.049916
" style="fill: none; stroke: #adb5bd; stroke-width: 1.25; stroke-linejoin: miter; stroke-linecap: square"/>
   </g>
   <g id="text_36">
    <!-- $\rho=2$ -->
    <g style="fill: #adb5bd" transform="translate(400.573125 126.997564)">
     <text>
      <tspan style="font: italic 10.125px 'STIXNonUnicode'" x="0" y="-0.234375"></tspan>
      <tspan style="font: 10.125px 'STIXGeneral'" x="6.937653 15.404175" y="-0.234375">=𝟤</tspan>
     </text>
    </g>
   </g>
  </g>
  <g id="legend_1">
   <g id="line2d_100">
    <path d="M 488.52 161.976797
L 497.52 161.976797
L 506.52 161.976797
" style="fill: none; stroke: #f7d2d4; stroke-width: 1.5625; stroke-linecap: round"/>
   </g>
   <g id="text_37">
    <!-- $\alpha_{1}$ -->
    <g style="fill: #adb5bd" transform="translate(508.77 165.126797)">
     <text>
      <tspan style="font: italic 9px 'STIXNonUnicode'" x="0" y="-0.828125"></tspan>
      <tspan style="font: 6.3px 'STIXGeneral'" x="5.345369" y="0.3953125000000002">𝟣</tspan>
     </text>
    </g>
   </g>
   <g id="line2d_101">
    <path d="M 488.52 174.676641
L 497.52 174.676641
L 506.52 174.676641
" style="fill: none; stroke: #eaacc7; stroke-width: 1.5625; stroke-linecap: round"/>
   </g>
   <g id="text_38">
    <!-- $\alpha_{2}$ -->
    <g style="fill: #adb5bd" transform="translate(508.77 177.826641)">
     <text>
      <tspan style="font: italic 9px 'STIXNonUnicode'" x="0" y="-0.828125"></tspan>
      <tspan style="font: 6.3px 'STIXGeneral'" x="5.345369" y="0.3953125000000002">𝟤</tspan>
     </text>
    </g>
   </g>
   <g id="line2d_102">
    <path d="M 488.52 187.376484
L 497.52 187.376484
L 506.52 187.376484
" style="fill: none; stroke: #cc86c1; stroke-width: 1.5625; stroke-linecap: round"/>
   </g>
   <g id="text_39">
    <!-- $\alpha_{3}$ -->
    <g style="fill: #adb5bd" transform="translate(508.77 190.526484)">
     <text>
      <tspan style="font: italic 9px 'STIXNonUnicode'" x="0" y="-0.828125"></tspan>
      <tspan style="font: 6.3px 'STIXGeneral'" x="5.345369" y="0.3953125000000002">𝟥</tspan>
     </text>
    </g>
   </g>
   <g id="line2d_103">
    <path d="M 535.5 161.976797
L 544.5 161.976797
L 553.5 161.976797
" style="fill: none; stroke: #9361ae; stroke-width: 1.5625; stroke-linecap: round"/>
   </g>
   <g id="text_40">
    <!-- $\alpha_{4}$ -->
    <g style="fill: #adb5bd" transform="translate(555.75 165.126797)">
     <text>
      <tspan style="font: italic 9px 'STIXNonUnicode'" x="0" y="-0.828125"></tspan>
      <tspan style="font: 6.3px 'STIXGeneral'" x="5.345369" y="0.3953125000000002">𝟦</tspan>
     </text>
    </g>
   </g>
   <g id="line2d_104">
    <path d="M 535.5 174.676641
L 544.5 174.676641
L 553.5 174.676641
" style="fill: none; stroke: #392f62; stroke-width: 1.5625; stroke-linecap: round"/>
   </g>
   <g id="text_41">
    <!-- $\alpha_{5}$ -->
    <g style="fill: #adb5bd" transform="translate(555.75 177.826641)">
     <text>
      <tspan style="font: italic 9px 'STIXNonUnicode'" x="0" y="-0.828125"></tspan>
      <tspan style="font: 6.3px 'STIXGeneral'" x="5.345369" y="0.3953125000000002">𝟧</tspan>
     </text>
    </g>
   </g>
  </g>
 </g>
 <defs>
  <clipPath id="p2a63700774">
   <rect x="8.201959" y="15.997564" width="103.296082" height="80.052352"/>
  </clipPath>
  <clipPath id="pdce80d8675">
   <rect x="125.201959" y="15.997564" width="103.296082" height="80.052352"/>
  </clipPath>
  <clipPath id="p2a7b66fc10">
   <rect x="242.201959" y="15.997564" width="103.296082" height="80.052352"/>
  </clipPath>
  <clipPath id="p313d543b22">
   <rect x="359.201959" y="15.997564" width="103.296083" height="80.052352"/>
  </clipPath>
  <clipPath id="p61888b6cb4">
   <rect x="476.201959" y="15.997564" width="103.296083" height="80.052352"/>
  </clipPath>
  <clipPath id="pd098d0995d">
   <rect x="8.201959" y="132.997564" width="103.296082" height="80.052352"/>
  </clipPath>
  <clipPath id="p17fae5741d">
   <rect x="125.201959" y="132.997564" width="103.296082" height="80.052352"/>
  </clipPath>
  <clipPath id="pb1e941bd5c">
   <rect x="242.201959" y="132.997564" width="103.296082" height="80.052352"/>
  </clipPath>
  <clipPath id="p327517ab7f">
   <rect x="359.201959" y="132.997564" width="103.296083" height="80.052352"/>
  </clipPath>
 </defs>
</svg>
