<?xml version="1.0" encoding="utf-8" standalone="no"?>
<!DOCTYPE svg PUBLIC "-//W3C//DTD SVG 1.1//EN"
  "http://www.w3.org/Graphics/SVG/1.1/DTD/svg11.dtd">
<svg xmlns:xlink="http://www.w3.org/1999/xlink" width="561.6pt" height="224.64pt" viewBox="0 0 561.6 224.64" xmlns="http://www.w3.org/2000/svg" version="1.1">
 <metadata>
  <rdf:RDF xmlns:dc="http://purl.org/dc/elements/1.1/" xmlns:cc="http://creativecommons.org/ns#" xmlns:rdf="http://www.w3.org/1999/02/22-rdf-syntax-ns#">
   <cc:Work>
    <dc:type rdf:resource="http://purl.org/dc/dcmitype/StillImage"/>
    <dc:date>2023-02-27T11:22:02.763480</dc:date>
    <dc:format>image/svg+xml</dc:format>
    <dc:creator>
     <cc:Agent>
      <dc:title>Matplotlib v3.6.2, https://matplotlib.org/</dc:title>
     </cc:Agent>
    </dc:creator>
   </cc:Work>
  </rdf:RDF>
 </metadata>
 <defs>
  <style type="text/css">*{stroke-linejoin: round; stroke-linecap: butt}</style>
 </defs>
 <g id="figure_1">
  <g id="patch_1">
   <path d="M 0 224.64
L 561.6 224.64
L 561.6 0
L 0 0
L 0 224.64
z
" style="fill: none"/>
  </g>
  <g id="axes_1">
   <g id="patch_2">
    <path d="M 9.51324 91.29376
L 106.77126 91.29376
L 106.77126 16.34424
L 9.51324 16.34424
L 9.51324 91.29376
z
" style="fill: none"/>
   </g>
   <g id="matplotlib.axis_1">
    <g id="xtick_1">
     <g id="line2d_1">
      <path d="M 9.51324 91.29376
L 9.51324 16.34424
" clip-path="url(#p3ed012dd59)" style="fill: none"/>
     </g>
     <g id="line2d_2">
      <defs>
       <path id="m665f781226" d="M 0 0
L 0 6
" style="stroke: #262626; stroke-width: 1.2"/>
      </defs>
      <g>
       <use xlink:href="#m665f781226" x="9.51324" y="91.29376" style="fill: #262626; stroke: #262626; stroke-width: 1.2"/>
      </g>
     </g>
     <g id="text_1">
      <!-- −1 -->
      <g style="fill: #262626" transform="translate(3.00024 107.45676) scale(0.096 -0.096)">
       <defs>
        <path id="LMSans8-Regular-2212" d="M 4902 1600
C 4902 1747 4762 1747 4672 1747
L 608 1747
C 518 1747 378 1747 378 1600
C 378 1453 518 1453 608 1453
L 4672 1453
C 4762 1453 4902 1453 4902 1600
z
" transform="scale(0.015625)"/>
        <path id="LMSans8-Regular-31" d="M 2906 0
L 2906 403
L 2054 403
L 2054 4333
L 1914 4333
C 1498 3949 973 3923 589 3910
L 589 3507
C 838 3514 1158 3526 1478 3654
L 1478 403
L 627 403
L 627 0
L 2906 0
z
" transform="scale(0.015625)"/>
       </defs>
       <use xlink:href="#LMSans8-Regular-2212"/>
       <use xlink:href="#LMSans8-Regular-31" x="82.599991"/>
      </g>
     </g>
    </g>
    <g id="xtick_2">
     <g id="line2d_3">
      <path d="M 58.14225 91.29376
L 58.14225 16.34424
" clip-path="url(#p3ed012dd59)" style="fill: none"/>
     </g>
     <g id="line2d_4">
      <g>
       <use xlink:href="#m665f781226" x="58.14225" y="91.29376" style="fill: #262626; stroke: #262626; stroke-width: 1.2"/>
      </g>
     </g>
     <g id="text_2">
      <!-- 0 -->
      <g style="fill: #262626" transform="translate(55.59375 107.45676) scale(0.096 -0.096)">
       <defs>
        <path id="LMSans8-Regular-30" d="M 3123 2080
C 3123 2387 3123 3136 2822 3661
C 2496 4237 2003 4333 1696 4333
C 1408 4333 909 4243 589 3693
C 282 3181 269 2483 269 2080
C 269 1606 294 1024 563 538
C 845 19 1318 -134 1696 -134
C 2336 -134 2688 237 2880 640
C 3104 1094 3123 1683 3123 2080
z
M 2566 2163
C 2566 1741 2566 1261 2413 851
C 2234 390 1907 288 1696 288
C 1427 288 1120 442 960 902
C 832 1293 826 1696 826 2163
C 826 2752 826 3910 1696 3910
C 2566 3910 2566 2752 2566 2163
z
" transform="scale(0.015625)"/>
       </defs>
       <use xlink:href="#LMSans8-Regular-30"/>
      </g>
     </g>
    </g>
    <g id="xtick_3">
     <g id="line2d_5">
      <path d="M 106.77126 91.29376
L 106.77126 16.34424
" clip-path="url(#p3ed012dd59)" style="fill: none"/>
     </g>
     <g id="line2d_6">
      <g>
       <use xlink:href="#m665f781226" x="106.77126" y="91.29376" style="fill: #262626; stroke: #262626; stroke-width: 1.2"/>
      </g>
     </g>
     <g id="text_3">
      <!-- 1 -->
      <g style="fill: #262626" transform="translate(104.22276 107.45676) scale(0.096 -0.096)">
       <use xlink:href="#LMSans8-Regular-31"/>
      </g>
     </g>
    </g>
   </g>
   <g id="matplotlib.axis_2"/>
   <g id="line2d_7">
    <path d="M 41.118658 91.136499
L 41.932916 90.877746
L 42.543609 90.49398
L 43.154302 89.852478
L 43.764995 88.857542
L 44.375688 87.427775
L 45.189946 84.792894
L 46.207768 80.554678
L 47.836283 73.65058
L 48.650541 71.210947
L 49.261234 70.066029
L 49.668363 69.640249
L 50.075492 69.473592
L 50.482621 69.54617
L 50.88975 69.827035
L 51.500443 70.531658
L 52.518265 71.754196
L 52.925394 71.8906
L 53.128958 71.803662
L 53.536087 71.21325
L 53.943216 69.936602
L 54.350344 67.848938
L 54.961038 63.074572
L 55.775295 53.964868
L 57.607375 31.795602
L 58.014504 28.909212
L 58.421633 27.370869
L 58.625197 27.14543
L 58.828761 27.288013
L 59.032326 27.793458
L 59.439455 29.837316
L 60.050148 35.119554
L 60.864406 44.842871
L 62.289356 62.256105
L 62.90005 67.666587
L 63.510743 71.170213
L 63.917872 72.407272
L 64.325 72.822782
L 64.528565 72.754106
L 64.935694 72.151138
L 65.546387 70.405674
L 66.971338 65.75285
L 67.378467 65.04441
L 67.785595 64.816515
L 67.98916 64.894443
L 68.396289 65.427197
L 68.803417 66.41516
L 69.414111 68.530699
L 71.042626 74.583995
L 71.653319 75.867284
L 72.060448 76.295081
L 72.467577 76.428598
L 73.07827 76.274494
L 73.892528 76.020238
L 74.299656 76.125169
L 74.706785 76.491893
L 75.113914 77.15477
L 75.724607 78.681664
L 76.742429 82.172631
L 77.963816 86.399133
L 78.778073 88.497837
L 79.388767 89.592339
L 79.99946 90.324432
L 80.610153 90.776784
L 81.424411 91.091988
L 81.627975 91.137178
L 81.627975 91.137178
" clip-path="url(#p3ed012dd59)" style="fill: none; stroke: #f7d2d4; stroke-width: 1.5; stroke-linecap: round"/>
   </g>
   <g id="line2d_8">
    <path d="M 34.642286 91.140673
L 35.487202 90.888276
L 36.12089 90.510145
L 36.754577 89.868687
L 37.388264 88.8531
L 38.021952 87.353682
L 38.655639 85.291839
L 39.500556 81.661481
L 40.97916 73.813411
L 42.035306 68.681554
L 42.668993 66.463128
L 43.30268 65.112487
L 43.725139 64.707168
L 44.147597 64.665132
L 44.570055 64.933263
L 45.203743 65.77349
L 46.048659 67.385656
L 47.316034 70.318459
L 48.37218 73.296422
L 49.850784 78.37629
L 50.6957 81.061428
L 51.329388 82.374741
L 51.751846 82.69008
L 51.963075 82.633952
L 52.174304 82.415918
L 52.596763 81.440963
L 53.019221 79.671293
L 53.441679 77.039607
L 54.075367 71.422732
L 54.920283 61.06573
L 57.455033 25.720211
L 57.877491 22.329324
L 58.299949 20.354666
L 58.511178 19.937123
L 58.722408 19.90801
L 58.933637 20.266001
L 59.356095 22.107749
L 59.778553 25.3353
L 60.412241 32.30904
L 61.468386 47.263628
L 62.735761 65.082252
L 63.580678 74.117658
L 64.214365 78.788997
L 64.848053 81.627744
L 65.270511 82.588896
L 65.692969 82.909327
L 65.904198 82.864357
L 66.326657 82.443485
L 66.960344 81.243784
L 68.227719 78.53002
L 68.650177 77.984354
L 69.072635 77.761513
L 69.495094 77.897973
L 69.917552 78.393491
L 70.551239 79.727207
L 71.396156 82.237751
L 72.87476 86.807587
L 73.719677 88.726954
L 74.353364 89.727058
L 74.987051 90.396987
L 75.831968 90.908091
L 76.676884 91.145798
L 76.676884 91.145798
" clip-path="url(#p3ed012dd59)" style="fill: none; stroke: #eaacc7; stroke-width: 1.5; stroke-linecap: round"/>
   </g>
   <g id="line2d_9">
    <path d="M 38.402909 91.170851
L 39.793215 90.926677
L 40.90546 90.494751
L 41.739644 89.940509
L 42.573827 89.109135
L 43.408011 87.930486
L 44.242194 86.352781
L 45.354439 83.610148
L 46.744745 79.347074
L 49.247296 71.342028
L 50.359541 68.592811
L 51.193725 67.069323
L 52.027908 66.025482
L 52.584031 65.585999
L 53.140153 65.34106
L 53.696276 65.282868
L 54.252398 65.406395
L 54.808521 65.709014
L 55.642704 66.493292
L 56.476888 67.652838
L 57.589133 69.673939
L 60.647806 75.630221
L 61.48199 76.736611
L 62.316173 77.512007
L 63.150357 77.984462
L 63.984541 78.195322
L 64.818724 78.163185
L 65.652908 77.861773
L 66.487092 77.222931
L 67.321275 76.165727
L 68.155459 74.641867
L 69.267704 71.948943
L 71.770255 65.31941
L 72.604438 63.888499
L 73.160561 63.337513
L 73.716683 63.130262
L 74.272806 63.25122
L 74.828928 63.656905
L 75.663112 64.652238
L 78.165663 68.071449
L 79.277907 69.064928
L 80.946275 70.408564
L 81.780458 71.417693
L 82.614642 72.839408
L 83.448826 74.698941
L 84.839132 78.52259
L 87.063621 84.75416
L 88.175866 87.155983
L 89.01005 88.516275
L 89.844234 89.516592
L 90.678417 90.210193
L 91.512601 90.66437
L 92.624846 91.011004
L 93.73709 91.177322
L 93.73709 91.177322
" clip-path="url(#p3ed012dd59)" style="fill: none; stroke: #cc86c1; stroke-width: 1.5; stroke-linecap: round"/>
   </g>
   <g id="line2d_10">
    <path d="M 38.099935 91.143664
L 39.214281 90.893232
L 40.05004 90.515588
L 40.885799 89.872076
L 41.721559 88.850856
L 42.557318 87.344519
L 43.393077 85.284666
L 44.507423 81.712306
L 47.571873 70.783597
L 48.407633 68.871783
L 48.964806 68.026192
L 49.521978 67.496701
L 50.079151 67.217922
L 52.307843 66.538513
L 52.865015 65.94807
L 53.422188 65.040068
L 54.257948 63.048791
L 55.093707 60.39415
L 57.600985 51.729051
L 58.158157 50.53154
L 58.71533 49.882062
L 58.993917 49.789886
L 59.272503 49.861606
L 59.55109 50.099894
L 60.108262 51.069926
L 60.665435 52.653747
L 61.501194 55.958427
L 64.844232 70.966112
L 65.679991 73.348366
L 66.51575 75.057041
L 67.351509 76.24991
L 68.187269 77.084844
L 69.301614 77.820649
L 70.41596 78.242846
L 72.923238 78.935196
L 73.758997 79.494393
L 74.594756 80.344998
L 75.987688 82.214677
L 77.102034 83.633815
L 77.937793 84.320148
L 78.494966 84.509614
L 79.052139 84.463695
L 79.609312 84.193759
L 80.445071 83.45653
L 82.395176 81.417597
L 82.952349 81.103601
L 83.509522 81.01954
L 84.066695 81.190758
L 84.623867 81.616322
L 85.459627 82.670091
L 86.573972 84.580131
L 88.524077 87.98428
L 89.638423 89.400978
L 90.474182 90.137571
L 91.309942 90.630851
L 92.424287 91.007629
L 93.538633 91.18341
L 93.538633 91.18341
" clip-path="url(#p3ed012dd59)" style="fill: none; stroke: #9361ae; stroke-width: 1.5; stroke-linecap: round"/>
   </g>
   <g id="line2d_11">
    <path d="M 56.993046 91.14299
L 57.82336 90.897673
L 58.446096 90.535819
L 59.068831 89.933721
L 59.691567 89.004085
L 60.314302 87.673899
L 61.144617 85.23202
L 62.182509 81.289679
L 64.673452 70.521888
L 65.711345 65.128258
L 66.749237 58.421815
L 67.994709 50.392947
L 68.617444 47.831939
L 69.032601 47.082909
L 69.24018 47.034886
L 69.447758 47.209283
L 69.862915 48.203581
L 70.278073 49.963867
L 71.108387 54.986722
L 72.146279 61.439122
L 72.769015 64.014834
L 73.184172 64.89302
L 73.391751 65.059428
L 73.599329 65.043399
L 73.806908 64.84847
L 74.222065 63.949643
L 74.637222 62.440874
L 75.259958 59.276839
L 77.335743 47.216458
L 77.7509 45.859719
L 78.166057 45.220932
L 78.373636 45.19656
L 78.581214 45.374356
L 78.996371 46.325711
L 79.411529 48.008554
L 80.034264 51.603695
L 82.525207 67.57802
L 83.355521 71.052048
L 84.808571 75.958085
L 86.054042 79.609797
L 86.676778 80.864955
L 87.091935 81.346085
L 87.507092 81.501151
L 87.922249 81.330692
L 88.337406 80.871562
L 88.960142 79.804886
L 89.998034 77.908388
L 90.413191 77.435261
L 90.828348 77.259012
L 91.243506 77.426781
L 91.658663 77.948065
L 92.281398 79.324904
L 93.111712 81.914844
L 94.772341 87.212467
L 95.602655 89.029774
L 96.225391 89.944945
L 96.848126 90.540831
L 97.67844 90.981035
L 98.301176 91.143801
L 98.301176 91.143801
" clip-path="url(#p3ed012dd59)" style="fill: none; stroke: #392f62; stroke-width: 1.5; stroke-linecap: round"/>
   </g>
   <g id="patch_3">
    <path d="M 9.51324 91.29376
L 106.77126 91.29376
" style="fill: none; stroke: #262626; stroke-width: 1.2; stroke-linejoin: miter; stroke-linecap: square"/>
   </g>
   <g id="text_4">
    <!-- $\rho=0.1$ -->
    <g style="fill: #262626" transform="translate(43.13025 10.34424) scale(0.108 -0.108)">
     <defs>
      <path id="STIXNonUnicode-Italic-e1e8" d="M 38 -838
L 435 755
Q 576 1338 723 1709
Q 870 2080 1126 2381
Q 1619 2957 2304 2957
Q 2726 2957 2995 2669
Q 3264 2381 3264 1933
Q 3264 1171 2669 550
Q 2074 -70 1421 -70
Q 1062 -70 794 160
L 550 -813
Q 461 -1171 301 -1382
L -211 -1382
Q -32 -1120 38 -838
z
M 2726 1798
Q 2726 2118 2553 2310
Q 2381 2502 2099 2502
Q 1773 2502 1498 2176
Q 1331 1984 1216 1693
Q 1101 1402 947 781
Q 1094 384 1504 384
Q 1997 384 2361 819
Q 2726 1254 2726 1798
z
" transform="scale(0.015625)"/>
      <path id="STIXGeneral-Regular-3d" d="M 4077 2048
L 307 2048
L 307 2470
L 4077 2470
L 4077 2048
z
M 4077 768
L 307 768
L 307 1190
L 4077 1190
L 4077 768
z
" transform="scale(0.015625)"/>
      <path id="STIXGeneral-Regular-1d7e2" d="M 3053 2112
Q 3053 1523 2915 1046
Q 2778 570 2438 240
Q 2099 -90 1600 -90
Q 1203 -90 912 108
Q 621 307 461 643
Q 301 979 224 1353
Q 147 1728 147 2150
Q 147 2746 294 3222
Q 442 3699 787 4012
Q 1133 4326 1626 4326
Q 2253 4326 2653 3708
Q 3053 3091 3053 2112
z
M 2547 2112
Q 2547 2893 2288 3382
Q 2029 3872 1613 3872
Q 1139 3872 896 3376
Q 653 2880 653 2138
Q 653 1805 701 1507
Q 749 1210 854 944
Q 960 678 1152 521
Q 1344 365 1600 365
Q 1926 365 2147 627
Q 2368 890 2457 1270
Q 2547 1651 2547 2112
z
" transform="scale(0.015625)"/>
      <path id="STIXGeneral-Regular-2e" d="M 1158 275
Q 1158 134 1052 32
Q 947 -70 800 -70
Q 653 -70 550 32
Q 448 134 448 281
Q 448 429 553 534
Q 659 640 806 640
Q 947 640 1052 531
Q 1158 422 1158 275
z
" transform="scale(0.015625)"/>
      <path id="STIXGeneral-Regular-1d7e3" d="M 1933 0
L 1427 0
L 1427 3648
Q 1286 3584 1008 3440
Q 730 3296 691 3277
L 691 3744
L 1843 4333
L 1933 4301
L 1933 0
z
" transform="scale(0.015625)"/>
     </defs>
     <use xlink:href="#STIXNonUnicode-Italic-e1e8" transform="translate(0 0.296875)"/>
     <use xlink:href="#STIXGeneral-Regular-3d" transform="translate(68.519992 0.296875)"/>
     <use xlink:href="#STIXGeneral-Regular-1d7e2" transform="translate(152.139975 0.296875)"/>
     <use xlink:href="#STIXGeneral-Regular-2e" transform="translate(202.13996 0.296875)"/>
     <use xlink:href="#STIXGeneral-Regular-1d7e3" transform="translate(227.139944 0.296875)"/>
    </g>
   </g>
  </g>
  <g id="axes_2">
   <g id="patch_4">
    <path d="M 121.83324 91.29376
L 219.09126 91.29376
L 219.09126 16.34424
L 121.83324 16.34424
L 121.83324 91.29376
z
" style="fill: none"/>
   </g>
   <g id="matplotlib.axis_3">
    <g id="xtick_4">
     <g id="line2d_12">
      <path d="M 121.83324 91.29376
L 121.83324 16.34424
" clip-path="url(#p8968f51964)" style="fill: none"/>
     </g>
     <g id="line2d_13">
      <g>
       <use xlink:href="#m665f781226" x="121.83324" y="91.29376" style="fill: #262626; stroke: #262626; stroke-width: 1.2"/>
      </g>
     </g>
     <g id="text_5">
      <!-- −1 -->
      <g style="fill: #262626" transform="translate(115.32024 107.45676) scale(0.096 -0.096)">
       <use xlink:href="#LMSans8-Regular-2212"/>
       <use xlink:href="#LMSans8-Regular-31" x="82.599991"/>
      </g>
     </g>
    </g>
    <g id="xtick_5">
     <g id="line2d_14">
      <path d="M 170.46225 91.29376
L 170.46225 16.34424
" clip-path="url(#p8968f51964)" style="fill: none"/>
     </g>
     <g id="line2d_15">
      <g>
       <use xlink:href="#m665f781226" x="170.46225" y="91.29376" style="fill: #262626; stroke: #262626; stroke-width: 1.2"/>
      </g>
     </g>
     <g id="text_6">
      <!-- 0 -->
      <g style="fill: #262626" transform="translate(167.91375 107.45676) scale(0.096 -0.096)">
       <use xlink:href="#LMSans8-Regular-30"/>
      </g>
     </g>
    </g>
    <g id="xtick_6">
     <g id="line2d_16">
      <path d="M 219.09126 91.29376
L 219.09126 16.34424
" clip-path="url(#p8968f51964)" style="fill: none"/>
     </g>
     <g id="line2d_17">
      <g>
       <use xlink:href="#m665f781226" x="219.09126" y="91.29376" style="fill: #262626; stroke: #262626; stroke-width: 1.2"/>
      </g>
     </g>
     <g id="text_7">
      <!-- 1 -->
      <g style="fill: #262626" transform="translate(216.54276 107.45676) scale(0.096 -0.096)">
       <use xlink:href="#LMSans8-Regular-31"/>
      </g>
     </g>
    </g>
   </g>
   <g id="matplotlib.axis_4"/>
   <g id="line2d_18">
    <path d="M 151.437041 91.114483
L 152.067952 90.84539
L 152.541135 90.456908
L 153.014318 89.814531
L 153.487501 88.817461
L 153.960684 87.367695
L 154.591595 84.624046
L 155.380233 80.001256
L 156.799783 71.375197
L 157.272966 69.704681
L 157.588421 69.190961
L 157.746149 69.13106
L 157.903876 69.204699
L 158.219332 69.74491
L 158.692515 71.449351
L 159.323426 74.954564
L 161.05843 85.474293
L 161.689341 87.956362
L 162.320252 89.55017
L 162.951162 90.446444
L 163.424345 90.790522
L 163.897528 90.926553
L 164.370711 90.878814
L 164.843894 90.623822
L 165.317078 90.085063
L 165.790261 89.131936
L 166.263444 87.587115
L 166.736627 85.248037
L 167.20981 81.926466
L 167.840721 75.782405
L 168.629359 65.577734
L 170.364363 41.49833
L 170.995274 35.826325
L 171.468457 33.320336
L 171.783913 32.466967
L 172.099368 32.213868
L 172.257096 32.293747
L 172.572551 32.827599
L 173.045734 34.457792
L 173.676645 37.945621
L 174.465283 44.046171
L 175.569377 54.777384
L 177.462109 73.240818
L 178.408475 80.339083
L 179.197114 84.750761
L 179.828025 87.284782
L 180.458935 89.020646
L 181.089846 90.108415
L 181.720757 90.727896
L 182.351668 91.047261
L 182.824851 91.169465
L 182.824851 91.169465
" clip-path="url(#p8968f51964)" style="fill: none; stroke: #f7d2d4; stroke-width: 1.5; stroke-linecap: round"/>
   </g>
   <g id="line2d_19">
    <path d="M 158.028719 91.119653
L 158.50478 90.825499
L 158.861826 90.384114
L 159.218872 89.640157
L 159.694933 87.981181
L 160.170994 85.375752
L 160.885086 79.793907
L 162.075239 69.952457
L 162.5513 67.519028
L 162.908346 66.55247
L 163.146377 66.330492
L 163.384407 66.446105
L 163.622438 66.896614
L 163.979484 68.184141
L 164.455545 70.9252
L 166.002744 81.030724
L 166.240775 81.473197
L 166.35979 81.492272
L 166.597821 81.103228
L 166.835851 80.136291
L 167.192897 77.639569
L 167.668958 72.584816
L 168.38305 62.187144
L 169.454188 42.742969
L 170.40631 26.493506
L 170.882371 21.543775
L 171.239417 19.990742
L 171.358433 19.910762
L 171.477448 20.046168
L 171.715479 20.93514
L 172.072524 23.654302
L 172.548586 29.307076
L 173.381693 42.52209
L 174.928892 68.108342
L 175.404953 73.049153
L 175.761999 75.142442
L 176.000029 75.79008
L 176.23806 75.932317
L 176.476091 75.698179
L 177.428213 74.232661
L 177.666244 74.446598
L 177.904274 75.050469
L 178.26132 76.659326
L 178.856397 80.619499
L 179.808519 86.905854
L 180.403596 89.32053
L 180.879657 90.384444
L 181.355718 90.922269
L 181.712764 91.118356
L 181.712764 91.118356
" clip-path="url(#p8968f51964)" style="fill: none; stroke: #eaacc7; stroke-width: 1.5; stroke-linecap: round"/>
   </g>
   <g id="line2d_20">
    <path d="M 161.981158 91.159233
L 162.981794 90.933845
L 163.732272 90.591602
L 164.482749 90.003012
L 165.233226 89.057178
L 165.983704 87.638921
L 166.734181 85.658094
L 167.484659 83.087704
L 168.485295 78.885172
L 170.736727 69.096662
L 171.487205 66.901287
L 171.987523 65.957166
L 172.487841 65.456782
L 172.98816 65.388058
L 173.488478 65.710277
L 173.988796 66.360958
L 174.739274 67.786849
L 176.490388 71.941833
L 177.991342 75.198801
L 178.991979 76.898651
L 179.742456 77.80199
L 180.242775 78.156082
L 180.743093 78.254101
L 181.243411 78.045083
L 181.74373 77.486183
L 182.244048 76.552838
L 182.994525 74.467722
L 183.995162 70.712884
L 185.496117 64.962237
L 185.996435 63.628867
L 186.496753 62.818819
L 186.746912 62.639458
L 186.997071 62.620286
L 187.247231 62.764525
L 187.747549 63.539378
L 188.247867 64.924179
L 188.998345 67.947312
L 190.24914 74.412305
L 191.750095 81.935418
L 192.750732 85.686291
L 193.501209 87.675668
L 194.251686 89.010511
L 195.002164 89.787354
L 195.502482 90.044654
L 196.0028 90.122526
L 196.503119 90.039897
L 197.253596 89.64575
L 198.004074 88.963627
L 199.00471 87.699173
L 201.256142 84.598088
L 202.00662 84.002453
L 202.506938 83.837243
L 203.007256 83.875523
L 203.507575 84.114236
L 204.258052 84.802318
L 205.258689 86.14031
L 207.259962 88.960637
L 208.260598 89.963245
L 209.261235 90.614227
L 210.261871 90.98294
L 211.512667 91.193637
L 211.762826 91.215568
L 211.762826 91.215568
" clip-path="url(#p8968f51964)" style="fill: none; stroke: #cc86c1; stroke-width: 1.5; stroke-linecap: round"/>
   </g>
   <g id="line2d_21">
    <path d="M 163.419366 91.116838
L 164.136415 90.791133
L 164.710055 90.230399
L 165.140284 89.518809
L 165.570514 88.453309
L 166.144154 86.310355
L 166.717793 83.164762
L 167.434843 77.734309
L 168.582122 66.673566
L 169.585991 57.715278
L 170.159631 54.398886
L 170.58986 53.1622
L 170.87668 52.983132
L 171.1635 53.315173
L 171.45032 54.128276
L 171.880549 56.132672
L 172.597599 60.909952
L 173.888288 69.742102
L 174.461927 72.128147
L 174.892157 73.005173
L 175.178977 73.172993
L 175.465797 73.054114
L 175.896026 72.474455
L 177.186715 70.274476
L 177.473535 70.141661
L 177.760355 70.233149
L 178.047175 70.555544
L 178.477404 71.432489
L 179.337864 73.992554
L 179.911503 75.50252
L 180.341733 76.071664
L 180.628553 76.05174
L 180.915373 75.653464
L 181.202192 74.847834
L 181.632422 72.866515
L 182.206062 68.929604
L 184.35721 52.175965
L 184.64403 51.345027
L 184.93085 51.123464
L 185.074259 51.250786
L 185.361079 51.98297
L 185.791309 54.21762
L 186.364948 58.964892
L 187.512228 71.344481
L 188.516097 80.960441
L 189.233146 85.665747
L 189.806786 88.110637
L 190.380425 89.623741
L 190.954065 90.481399
L 191.527705 90.927524
L 191.957934 91.102107
L 191.957934 91.102107
" clip-path="url(#p8968f51964)" style="fill: none; stroke: #9361ae; stroke-width: 1.5; stroke-linecap: round"/>
   </g>
   <g id="line2d_22">
    <path d="M 152.581055 91.241202
L 155.255177 91.055377
L 157.165264 90.703272
L 158.693333 90.191669
L 160.221403 89.410788
L 161.749472 88.342137
L 163.659559 86.688236
L 166.715698 84.012333
L 167.86175 83.26078
L 169.007802 82.736718
L 170.153854 82.447286
L 171.681924 82.35571
L 175.12008 82.378952
L 176.266132 82.160088
L 177.794202 81.616439
L 182.760428 79.460915
L 184.288497 79.154242
L 185.816567 79.048643
L 187.344636 79.127922
L 188.872706 79.424243
L 190.400775 79.989285
L 191.928845 80.813468
L 194.984984 82.59398
L 196.131036 82.984685
L 197.277088 83.095084
L 198.42314 82.913344
L 199.569192 82.487731
L 201.861296 81.291567
L 203.771383 80.406257
L 205.299453 79.941336
L 206.827522 79.682604
L 208.737609 79.59314
L 210.265678 79.746723
L 211.41173 80.06463
L 212.557783 80.614962
L 213.703835 81.425977
L 214.849887 82.484212
L 216.759974 84.621434
L 219.434095 87.628336
L 220.962165 88.98073
L 222.108217 89.748926
L 223.254269 90.313082
L 224.782338 90.799783
L 226.692425 91.10961
L 228.602512 91.234382
L 228.602512 91.234382
" clip-path="url(#p8968f51964)" style="fill: none; stroke: #392f62; stroke-width: 1.5; stroke-linecap: round"/>
   </g>
   <g id="patch_5">
    <path d="M 121.83324 91.29376
L 219.09126 91.29376
" style="fill: none; stroke: #262626; stroke-width: 1.2; stroke-linejoin: miter; stroke-linecap: square"/>
   </g>
   <g id="text_8">
    <!-- $\rho=0.25$ -->
    <g style="fill: #262626" transform="translate(152.75025 10.34424) scale(0.108 -0.108)">
     <defs>
      <path id="STIXGeneral-Regular-1d7e4" d="M 3002 454
L 2816 0
L 224 0
L 224 134
L 1344 1504
L 1344 1498
L 1702 1933
Q 1952 2234 2054 2365
Q 2157 2496 2253 2685
Q 2349 2874 2349 3040
Q 2349 3437 2134 3654
Q 1920 3872 1549 3872
Q 1254 3872 1008 3629
Q 762 3386 698 2938
L 237 3046
Q 339 3616 716 3971
Q 1094 4326 1594 4326
Q 2150 4326 2502 3980
Q 2854 3635 2854 3142
Q 2854 2784 2720 2525
Q 2586 2266 2157 1728
L 1133 454
L 3002 454
z
" transform="scale(0.015625)"/>
      <path id="STIXGeneral-Regular-1d7e7" d="M 2931 4326
L 2726 3872
L 1594 3872
L 1184 3059
Q 1914 2957 2384 2544
Q 2854 2131 2854 1446
Q 2854 813 2422 361
Q 1990 -90 1344 -90
Q 640 -90 230 358
L 531 717
Q 858 365 1312 365
Q 1786 365 2067 688
Q 2349 1011 2349 1446
Q 2349 1920 1926 2253
Q 1498 2605 602 2605
L 512 2714
L 1254 4326
L 2931 4326
z
" transform="scale(0.015625)"/>
     </defs>
     <use xlink:href="#STIXNonUnicode-Italic-e1e8" transform="translate(0 0.40625)"/>
     <use xlink:href="#STIXGeneral-Regular-3d" transform="translate(68.519992 0.40625)"/>
     <use xlink:href="#STIXGeneral-Regular-1d7e2" transform="translate(152.139975 0.40625)"/>
     <use xlink:href="#STIXGeneral-Regular-2e" transform="translate(202.13996 0.40625)"/>
     <use xlink:href="#STIXGeneral-Regular-1d7e4" transform="translate(227.139944 0.40625)"/>
     <use xlink:href="#STIXGeneral-Regular-1d7e7" transform="translate(277.139929 0.40625)"/>
    </g>
   </g>
  </g>
  <g id="axes_3">
   <g id="patch_6">
    <path d="M 234.15324 91.29376
L 331.41126 91.29376
L 331.41126 16.34424
L 234.15324 16.34424
L 234.15324 91.29376
z
" style="fill: none"/>
   </g>
   <g id="matplotlib.axis_5">
    <g id="xtick_7">
     <g id="line2d_23">
      <path d="M 234.15324 91.29376
L 234.15324 16.34424
" clip-path="url(#p5bc46a219c)" style="fill: none"/>
     </g>
     <g id="line2d_24">
      <g>
       <use xlink:href="#m665f781226" x="234.15324" y="91.29376" style="fill: #262626; stroke: #262626; stroke-width: 1.2"/>
      </g>
     </g>
     <g id="text_9">
      <!-- −1 -->
      <g style="fill: #262626" transform="translate(227.64024 107.45676) scale(0.096 -0.096)">
       <use xlink:href="#LMSans8-Regular-2212"/>
       <use xlink:href="#LMSans8-Regular-31" x="82.599991"/>
      </g>
     </g>
    </g>
    <g id="xtick_8">
     <g id="line2d_25">
      <path d="M 282.78225 91.29376
L 282.78225 16.34424
" clip-path="url(#p5bc46a219c)" style="fill: none"/>
     </g>
     <g id="line2d_26">
      <g>
       <use xlink:href="#m665f781226" x="282.78225" y="91.29376" style="fill: #262626; stroke: #262626; stroke-width: 1.2"/>
      </g>
     </g>
     <g id="text_10">
      <!-- 0 -->
      <g style="fill: #262626" transform="translate(280.23375 107.45676) scale(0.096 -0.096)">
       <use xlink:href="#LMSans8-Regular-30"/>
      </g>
     </g>
    </g>
    <g id="xtick_9">
     <g id="line2d_27">
      <path d="M 331.41126 91.29376
L 331.41126 16.34424
" clip-path="url(#p5bc46a219c)" style="fill: none"/>
     </g>
     <g id="line2d_28">
      <g>
       <use xlink:href="#m665f781226" x="331.41126" y="91.29376" style="fill: #262626; stroke: #262626; stroke-width: 1.2"/>
      </g>
     </g>
     <g id="text_11">
      <!-- 1 -->
      <g style="fill: #262626" transform="translate(328.86276 107.45676) scale(0.096 -0.096)">
       <use xlink:href="#LMSans8-Regular-31"/>
      </g>
     </g>
    </g>
   </g>
   <g id="matplotlib.axis_6"/>
   <g id="line2d_29">
    <path d="M 274.684825 91.174897
L 275.526077 90.898076
L 276.030828 90.531891
L 276.535579 89.897447
L 277.04033 88.857046
L 277.545081 87.243583
L 278.049832 84.880218
L 278.722834 80.311983
L 279.395835 74.029526
L 280.573588 60.236511
L 281.58309 49.45364
L 282.087841 46.011151
L 282.424342 44.758942
L 282.592592 44.47361
L 282.760843 44.419749
L 282.929093 44.596052
L 283.265594 45.616383
L 283.602095 47.457063
L 284.106846 51.48212
L 285.116348 62.097433
L 286.294101 74.255682
L 287.135352 80.683875
L 287.808354 84.099599
L 288.313105 85.674124
L 288.817856 86.47218
L 289.154357 86.617379
L 289.490858 86.491338
L 289.827358 86.132098
L 290.332109 85.249561
L 291.341612 82.827608
L 292.351114 80.54262
L 293.024115 79.550364
L 293.528866 79.191767
L 293.865367 79.150721
L 294.201868 79.269435
L 294.706619 79.73739
L 295.21137 80.520949
L 296.052622 82.337813
L 297.398625 85.363275
L 297.903376 86.092475
L 298.408127 86.442718
L 298.744628 86.451374
L 299.249379 86.154204
L 299.92238 85.341994
L 301.100133 83.846287
L 301.604884 83.596024
L 301.941385 83.637671
L 302.277885 83.854019
L 302.782637 84.480019
L 303.455638 85.730105
L 305.138142 89.120553
L 305.811143 90.040076
L 306.484145 90.639093
L 307.157146 90.98431
L 308.166648 91.21033
L 308.166648 91.21033
" clip-path="url(#p5bc46a219c)" style="fill: none; stroke: #f7d2d4; stroke-width: 1.5; stroke-linecap: round"/>
   </g>
   <g id="line2d_30">
    <path d="M 278.798114 91.021839
L 279.190611 90.567498
L 279.484983 89.8858
L 279.779356 88.7326
L 280.171852 86.137229
L 280.564349 81.99208
L 281.153094 72.800937
L 282.72308 45.996049
L 284.783688 20.437662
L 284.979936 19.910749
L 285.07806 20.024114
L 285.274308 21.082053
L 285.568681 24.837847
L 285.961177 33.584074
L 287.629288 77.814129
L 288.021785 81.438885
L 288.218033 82.095061
L 288.414281 82.125719
L 288.61053 81.669729
L 289.003026 79.914296
L 289.591771 77.433261
L 289.788019 77.130158
L 289.984268 77.200488
L 290.180516 77.652451
L 290.474888 78.970935
L 291.161758 83.665806
L 291.750502 87.170976
L 292.142999 88.36263
L 292.339247 88.535911
L 292.535496 88.418225
L 292.829868 87.705403
L 293.222365 85.845255
L 294.694227 77.301402
L 294.890475 77.193335
L 295.086724 77.48954
L 295.381096 78.628664
L 295.871717 81.801255
L 296.754834 87.71414
L 297.245455 89.677703
L 297.637952 90.542932
L 298.030448 90.983087
L 298.324821 91.145217
L 298.324821 91.145217
" clip-path="url(#p5bc46a219c)" style="fill: none; stroke: #eaacc7; stroke-width: 1.5; stroke-linecap: round"/>
   </g>
   <g id="line2d_31">
    <path d="M 274.27713 91.182142
L 274.905521 90.937165
L 275.408234 90.494903
L 275.910947 89.688902
L 276.41366 88.402344
L 277.042052 86.113784
L 278.298834 81.244672
L 278.675869 80.486324
L 278.927226 80.279984
L 279.178582 80.307845
L 279.555617 80.709554
L 280.686721 82.355917
L 280.938078 82.365286
L 281.189434 82.157191
L 281.566469 81.450479
L 282.069182 79.942978
L 283.451643 74.724901
L 284.080035 71.648355
L 284.582748 68.140464
L 285.211139 62.049423
L 286.719278 46.166846
L 286.970635 45.037047
L 287.221991 44.753429
L 287.34767 44.95355
L 287.599026 46.051487
L 287.976061 49.352551
L 288.478774 56.161557
L 289.861235 76.14425
L 290.363948 79.748636
L 290.615305 80.541383
L 290.866661 80.710941
L 291.118018 80.329184
L 291.495053 78.91674
L 292.123444 75.112293
L 293.380227 66.92416
L 293.757262 65.463047
L 294.008618 64.971469
L 294.259975 64.930268
L 294.511331 65.371717
L 294.888366 66.94026
L 295.391079 70.498518
L 297.401931 87.08617
L 297.904645 89.114787
L 298.407358 90.279692
L 298.910071 90.869968
L 299.287106 91.088563
L 299.287106 91.088563
" clip-path="url(#p5bc46a219c)" style="fill: none; stroke: #cc86c1; stroke-width: 1.5; stroke-linecap: round"/>
   </g>
   <g id="line2d_32">
    <path d="M 275.820496 91.152417
L 276.727661 90.853207
L 277.271961 90.479662
L 277.81626 89.863705
L 278.36056 88.904843
L 278.904859 87.496739
L 279.449158 85.547851
L 280.174891 82.031981
L 281.082057 76.326795
L 283.077821 63.081097
L 283.622121 60.650854
L 284.16642 59.128159
L 284.529286 58.658708
L 284.892152 58.629849
L 285.255019 59.028613
L 285.617885 59.830279
L 286.162184 61.711451
L 286.887917 65.250413
L 288.157949 73.014168
L 289.427981 80.41071
L 290.153713 83.500506
L 290.698013 85.040549
L 291.242312 85.860072
L 291.605178 86.010175
L 291.968045 85.86092
L 292.330911 85.437433
L 292.87521 84.361577
L 293.600943 82.324576
L 295.596707 76.204775
L 296.141007 75.135573
L 296.685306 74.539163
L 297.048172 74.430256
L 297.411039 74.556858
L 297.773905 74.911725
L 298.318204 75.831422
L 299.043937 77.614717
L 301.039701 82.93881
L 301.584001 83.802255
L 302.1283 84.27756
L 302.672599 84.409787
L 303.398332 84.24871
L 304.305498 84.00974
L 304.849797 84.090237
L 305.394096 84.434682
L 305.938396 85.046949
L 306.845561 86.498024
L 308.47846 89.217204
L 309.385625 90.231204
L 310.111358 90.734677
L 311.018524 91.074381
L 311.925689 91.219495
L 311.925689 91.219495
" clip-path="url(#p5bc46a219c)" style="fill: none; stroke: #9361ae; stroke-width: 1.5; stroke-linecap: round"/>
   </g>
   <g id="line2d_33">
    <path d="M 280.467792 91.240933
L 282.412968 91.046264
L 283.802379 90.671947
L 284.913907 90.125989
L 286.025436 89.294785
L 287.136965 88.166813
L 288.804258 86.091749
L 290.471551 84.087867
L 291.305198 83.336144
L 292.138845 82.841943
L 292.972491 82.629432
L 293.806138 82.67979
L 294.917667 83.053263
L 298.808018 84.758173
L 302.698368 85.871738
L 303.532015 85.827046
L 304.087779 85.619739
L 304.643544 85.230331
L 305.199308 84.634837
L 306.032955 83.338854
L 306.866601 81.605532
L 309.923306 74.496596
L 310.47907 73.704347
L 311.034834 73.21196
L 311.590599 73.038701
L 312.146363 73.179575
L 312.702128 73.606649
L 313.535774 74.677091
L 314.925185 77.074322
L 316.314596 79.389874
L 317.148243 80.45031
L 317.98189 81.182418
L 318.815536 81.584349
L 319.649183 81.695671
L 320.482829 81.587827
L 322.983769 81.00985
L 323.817416 81.125987
L 324.651062 81.54765
L 325.484709 82.295232
L 326.596238 83.722405
L 330.208707 88.907602
L 331.320235 89.916971
L 332.431764 90.571092
L 333.543293 90.949045
L 334.932704 91.174464
L 335.766351 91.235087
L 335.766351 91.235087
" clip-path="url(#p5bc46a219c)" style="fill: none; stroke: #392f62; stroke-width: 1.5; stroke-linecap: round"/>
   </g>
   <g id="patch_7">
    <path d="M 234.15324 91.29376
L 331.41126 91.29376
" style="fill: none; stroke: #262626; stroke-width: 1.2; stroke-linejoin: miter; stroke-linecap: square"/>
   </g>
   <g id="text_12">
    <!-- $\rho=0.5$ -->
    <g style="fill: #262626" transform="translate(267.77025 10.34424) scale(0.108 -0.108)">
     <use xlink:href="#STIXNonUnicode-Italic-e1e8" transform="translate(0 0.40625)"/>
     <use xlink:href="#STIXGeneral-Regular-3d" transform="translate(68.519992 0.40625)"/>
     <use xlink:href="#STIXGeneral-Regular-1d7e2" transform="translate(152.139975 0.40625)"/>
     <use xlink:href="#STIXGeneral-Regular-2e" transform="translate(202.13996 0.40625)"/>
     <use xlink:href="#STIXGeneral-Regular-1d7e7" transform="translate(227.139944 0.40625)"/>
    </g>
   </g>
  </g>
  <g id="axes_4">
   <g id="patch_8">
    <path d="M 346.47324 91.29376
L 443.73126 91.29376
L 443.73126 16.34424
L 346.47324 16.34424
L 346.47324 91.29376
z
" style="fill: none"/>
   </g>
   <g id="matplotlib.axis_7">
    <g id="xtick_10">
     <g id="line2d_34">
      <path d="M 346.47324 91.29376
L 346.47324 16.34424
" clip-path="url(#p3758901b62)" style="fill: none"/>
     </g>
     <g id="line2d_35">
      <g>
       <use xlink:href="#m665f781226" x="346.47324" y="91.29376" style="fill: #262626; stroke: #262626; stroke-width: 1.2"/>
      </g>
     </g>
     <g id="text_13">
      <!-- −1 -->
      <g style="fill: #262626" transform="translate(339.96024 107.45676) scale(0.096 -0.096)">
       <use xlink:href="#LMSans8-Regular-2212"/>
       <use xlink:href="#LMSans8-Regular-31" x="82.599991"/>
      </g>
     </g>
    </g>
    <g id="xtick_11">
     <g id="line2d_36">
      <path d="M 395.10225 91.29376
L 395.10225 16.34424
" clip-path="url(#p3758901b62)" style="fill: none"/>
     </g>
     <g id="line2d_37">
      <g>
       <use xlink:href="#m665f781226" x="395.10225" y="91.29376" style="fill: #262626; stroke: #262626; stroke-width: 1.2"/>
      </g>
     </g>
     <g id="text_14">
      <!-- 0 -->
      <g style="fill: #262626" transform="translate(392.55375 107.45676) scale(0.096 -0.096)">
       <use xlink:href="#LMSans8-Regular-30"/>
      </g>
     </g>
    </g>
    <g id="xtick_12">
     <g id="line2d_38">
      <path d="M 443.73126 91.29376
L 443.73126 16.34424
" clip-path="url(#p3758901b62)" style="fill: none"/>
     </g>
     <g id="line2d_39">
      <g>
       <use xlink:href="#m665f781226" x="443.73126" y="91.29376" style="fill: #262626; stroke: #262626; stroke-width: 1.2"/>
      </g>
     </g>
     <g id="text_15">
      <!-- 1 -->
      <g style="fill: #262626" transform="translate(441.18276 107.45676) scale(0.096 -0.096)">
       <use xlink:href="#LMSans8-Regular-31"/>
      </g>
     </g>
    </g>
   </g>
   <g id="matplotlib.axis_8"/>
   <g id="line2d_40">
    <path d="M 382.437697 91.18269
L 382.924245 90.95452
L 383.289156 90.586957
L 383.654068 89.946004
L 384.140616 88.517208
L 384.748801 85.802434
L 385.600261 81.858587
L 385.965172 81.028639
L 386.208446 80.956713
L 386.45172 81.286222
L 386.816631 82.439387
L 387.546454 85.98021
L 388.276276 89.056172
L 388.762824 90.259146
L 389.249373 90.874997
L 389.735921 91.107398
L 390.222469 91.078335
L 390.58738 90.863623
L 390.952291 90.37762
L 391.317203 89.436699
L 391.682114 87.770759
L 392.047025 85.036091
L 392.533573 79.083744
L 393.020122 69.874962
L 393.749944 50.364033
L 394.601403 27.141485
L 394.966315 21.370833
L 395.209589 19.912796
L 395.331226 19.973753
L 395.5745 21.679558
L 395.939411 27.848553
L 396.547596 44.530533
L 397.520693 71.77988
L 398.128878 82.386849
L 398.615426 87.117055
L 398.980338 89.072521
L 399.345249 90.105931
L 399.71016 90.508012
L 399.953434 90.510677
L 400.196708 90.326655
L 400.56162 89.703744
L 401.048168 88.199669
L 401.656353 85.39338
L 402.507813 81.60879
L 402.872724 80.960053
L 403.115998 81.021829
L 403.359272 81.477491
L 403.724183 82.776063
L 405.305465 89.63938
L 405.792013 90.578788
L 406.278562 91.029802
L 406.643473 91.18102
L 406.643473 91.18102
" clip-path="url(#p3758901b62)" style="fill: none; stroke: #f7d2d4; stroke-width: 1.5; stroke-linecap: round"/>
   </g>
   <g id="line2d_41">
    <path d="M 390.82281 90.978609
L 391.149122 90.606691
L 391.475433 89.885983
L 391.801745 88.582292
L 392.128056 86.383439
L 392.563139 81.441096
L 392.998221 73.553083
L 393.542073 59.464821
L 394.738549 26.338615
L 395.064861 22.031691
L 395.282402 21.06793
L 395.391172 21.169155
L 395.608713 22.48144
L 395.935025 26.862992
L 396.478877 38.261367
L 397.566583 61.20541
L 398.219206 70.175914
L 398.980599 77.594177
L 399.850764 84.251861
L 400.503387 87.827652
L 401.047239 89.670545
L 401.482321 90.507658
L 401.917403 90.952264
L 402.461256 91.190612
L 403.33142 91.281068
L 404.636666 91.209666
L 405.180519 91.010319
L 405.615601 90.634243
L 406.050683 89.925148
L 406.485765 88.760943
L 407.029618 86.639816
L 408.117323 82.107625
L 408.443635 81.496281
L 408.661176 81.425806
L 408.878717 81.635327
L 409.205028 82.430088
L 409.748881 84.636545
L 410.727816 88.760434
L 411.271668 90.140869
L 411.70675 90.753856
L 412.250603 91.115711
L 412.468144 91.1851
L 412.468144 91.1851
" clip-path="url(#p3758901b62)" style="fill: none; stroke: #eaacc7; stroke-width: 1.5; stroke-linecap: round"/>
   </g>
   <g id="line2d_42">
    <path d="M 387.256456 91.182993
L 388.219748 90.966076
L 388.990382 90.582757
L 389.568357 90.089704
L 390.146332 89.347155
L 390.724307 88.289113
L 391.49494 86.30595
L 392.265574 83.66598
L 394.962791 73.544033
L 395.540766 72.587992
L 395.926083 72.393239
L 396.311399 72.561682
L 396.696716 73.074569
L 397.274691 74.394879
L 398.237983 77.505413
L 399.393933 81.260386
L 400.164567 83.006412
L 400.742542 83.75017
L 401.127858 83.975183
L 401.513175 84.002022
L 401.898492 83.855649
L 402.476467 83.376983
L 403.439759 82.155185
L 404.981026 80.154023
L 405.559001 79.691207
L 406.136976 79.50256
L 406.714951 79.628765
L 407.292926 80.068245
L 408.06356 81.043048
L 409.797485 83.444889
L 410.37546 83.814771
L 410.760777 83.856821
L 411.146093 83.727555
L 411.724068 83.23475
L 412.494702 82.158873
L 414.035969 79.792304
L 414.613944 79.25243
L 415.191919 79.048129
L 415.577236 79.115338
L 416.155211 79.516646
L 416.733186 80.243462
L 417.503819 81.607695
L 419.045086 84.978909
L 420.393695 87.71371
L 421.356987 89.180898
L 422.12762 90.0132
L 422.898254 90.572784
L 423.861545 90.978055
L 425.017496 91.194221
L 425.595471 91.241558
L 425.595471 91.241558
" clip-path="url(#p3758901b62)" style="fill: none; stroke: #cc86c1; stroke-width: 1.5; stroke-linecap: round"/>
   </g>
   <g id="line2d_43">
    <path d="M 382.807117 91.23751
L 384.204499 91.027771
L 385.202628 90.631937
L 386.001131 90.074205
L 386.799635 89.266847
L 387.99739 87.685254
L 391.191404 83.047733
L 391.790282 81.623054
L 392.38916 79.654848
L 393.187663 76.078325
L 395.583174 63.786693
L 395.982425 62.776107
L 396.381677 62.351997
L 396.581303 62.373047
L 396.780929 62.550815
L 397.180181 63.363413
L 397.579433 64.73752
L 398.17831 67.651542
L 399.376065 75.061275
L 400.573821 82.039581
L 401.372324 85.52208
L 401.971202 87.409549
L 402.570079 88.712745
L 403.168957 89.496702
L 403.568209 89.763058
L 403.967461 89.842426
L 404.366712 89.745723
L 404.96559 89.28687
L 405.564468 88.471948
L 406.362971 86.902315
L 408.958108 81.190377
L 409.556985 80.676537
L 409.956237 80.610183
L 410.355489 80.749888
L 410.954366 81.269523
L 412.351748 83.061135
L 413.349877 84.07793
L 414.547632 84.865818
L 415.545762 85.586543
L 416.543891 86.656012
L 419.338653 90.067388
L 420.137157 90.626841
L 421.135286 91.025179
L 422.333042 91.221271
L 422.532667 91.236823
L 422.532667 91.236823
" clip-path="url(#p3758901b62)" style="fill: none; stroke: #9361ae; stroke-width: 1.5; stroke-linecap: round"/>
   </g>
   <g id="line2d_44">
    <path d="M 384.657321 91.262907
L 387.84593 91.089974
L 389.97167 90.752109
L 391.74312 90.262731
L 394.577439 89.193406
L 396.703179 88.491486
L 398.120339 88.230681
L 399.891789 88.154243
L 403.788978 88.138804
L 405.560428 87.825417
L 407.331878 87.285911
L 409.103328 86.548015
L 410.874778 85.579409
L 413.000517 84.098599
L 415.480547 82.352864
L 416.543417 81.840043
L 417.606287 81.585294
L 418.669157 81.632608
L 419.732026 81.984842
L 420.794896 82.604971
L 422.212056 83.728018
L 425.400666 86.456009
L 426.463536 87.120698
L 427.526406 87.553855
L 428.589275 87.721443
L 429.652145 87.61469
L 430.715015 87.249508
L 431.777885 86.663005
L 433.195045 85.630541
L 436.737944 82.842683
L 437.800814 82.285464
L 438.863684 82.00291
L 439.572264 81.996765
L 440.280844 82.147502
L 441.343714 82.665121
L 442.406584 83.494322
L 443.823744 84.940482
L 447.012353 88.365833
L 448.429513 89.499986
L 449.846673 90.291774
L 451.263833 90.784113
L 453.035282 91.102158
L 455.161022 91.24514
L 455.161022 91.24514
" clip-path="url(#p3758901b62)" style="fill: none; stroke: #392f62; stroke-width: 1.5; stroke-linecap: round"/>
   </g>
   <g id="patch_9">
    <path d="M 346.47324 91.29376
L 443.73126 91.29376
" style="fill: none; stroke: #262626; stroke-width: 1.2; stroke-linejoin: miter; stroke-linecap: square"/>
   </g>
   <g id="text_16">
    <!-- $\rho=0.75$ -->
    <g style="fill: #262626" transform="translate(377.39025 10.34424) scale(0.108 -0.108)">
     <defs>
      <path id="STIXGeneral-Regular-1d7e9" d="M 2886 4109
L 1472 -51
L 947 -51
L 2266 3782
L 243 3782
L 442 4237
L 2886 4237
L 2886 4109
z
" transform="scale(0.015625)"/>
     </defs>
     <use xlink:href="#STIXNonUnicode-Italic-e1e8" transform="translate(0 0.40625)"/>
     <use xlink:href="#STIXGeneral-Regular-3d" transform="translate(68.519992 0.40625)"/>
     <use xlink:href="#STIXGeneral-Regular-1d7e2" transform="translate(152.139975 0.40625)"/>
     <use xlink:href="#STIXGeneral-Regular-2e" transform="translate(202.13996 0.40625)"/>
     <use xlink:href="#STIXGeneral-Regular-1d7e9" transform="translate(227.139944 0.40625)"/>
     <use xlink:href="#STIXGeneral-Regular-1d7e7" transform="translate(277.139929 0.40625)"/>
    </g>
   </g>
  </g>
  <g id="axes_5">
   <g id="patch_10">
    <path d="M 458.79324 91.29376
L 556.05126 91.29376
L 556.05126 16.34424
L 458.79324 16.34424
L 458.79324 91.29376
z
" style="fill: none"/>
   </g>
   <g id="matplotlib.axis_9">
    <g id="xtick_13">
     <g id="line2d_45">
      <path d="M 458.79324 91.29376
L 458.79324 16.34424
" clip-path="url(#p8c32ca4277)" style="fill: none"/>
     </g>
     <g id="line2d_46">
      <g>
       <use xlink:href="#m665f781226" x="458.79324" y="91.29376" style="fill: #262626; stroke: #262626; stroke-width: 1.2"/>
      </g>
     </g>
     <g id="text_17">
      <!-- −1 -->
      <g style="fill: #262626" transform="translate(452.28024 107.45676) scale(0.096 -0.096)">
       <use xlink:href="#LMSans8-Regular-2212"/>
       <use xlink:href="#LMSans8-Regular-31" x="82.599991"/>
      </g>
     </g>
    </g>
    <g id="xtick_14">
     <g id="line2d_47">
      <path d="M 507.42225 91.29376
L 507.42225 16.34424
" clip-path="url(#p8c32ca4277)" style="fill: none"/>
     </g>
     <g id="line2d_48">
      <g>
       <use xlink:href="#m665f781226" x="507.42225" y="91.29376" style="fill: #262626; stroke: #262626; stroke-width: 1.2"/>
      </g>
     </g>
     <g id="text_18">
      <!-- 0 -->
      <g style="fill: #262626" transform="translate(504.87375 107.45676) scale(0.096 -0.096)">
       <use xlink:href="#LMSans8-Regular-30"/>
      </g>
     </g>
    </g>
    <g id="xtick_15">
     <g id="line2d_49">
      <path d="M 556.05126 91.29376
L 556.05126 16.34424
" clip-path="url(#p8c32ca4277)" style="fill: none"/>
     </g>
     <g id="line2d_50">
      <g>
       <use xlink:href="#m665f781226" x="556.05126" y="91.29376" style="fill: #262626; stroke: #262626; stroke-width: 1.2"/>
      </g>
     </g>
     <g id="text_19">
      <!-- 1 -->
      <g style="fill: #262626" transform="translate(553.50276 107.45676) scale(0.096 -0.096)">
       <use xlink:href="#LMSans8-Regular-31"/>
      </g>
     </g>
    </g>
   </g>
   <g id="matplotlib.axis_10"/>
   <g id="line2d_51">
    <path d="M 500.338011 91.145066
L 501.001046 90.860089
L 501.498322 90.389284
L 501.995598 89.512862
L 502.492874 87.982205
L 502.990151 85.477102
L 503.487427 81.641877
L 503.984703 76.163301
L 504.647738 66.076529
L 505.64229 46.443592
L 506.636843 27.861268
L 507.134119 22.06209
L 507.465636 20.190284
L 507.631395 19.913249
L 507.797154 20.083449
L 507.962913 20.696204
L 508.29443 23.189328
L 508.791706 29.681819
L 509.6205 45.105731
L 510.94657 69.815883
L 511.609605 78.51
L 512.27264 84.332651
L 512.769916 87.131751
L 513.267192 88.928338
L 513.764468 90.017066
L 514.261745 90.640177
L 514.924779 91.047843
L 515.753573 91.230835
L 517.411161 91.291241
L 521.720888 91.204575
L 522.549681 90.994652
L 523.212716 90.604659
L 523.875751 89.883803
L 524.538786 88.731657
L 525.36758 86.719009
L 526.69365 83.428364
L 527.190926 82.765995
L 527.522443 82.621324
L 527.853961 82.731984
L 528.185478 83.088289
L 528.682755 84.01165
L 529.677307 86.599105
L 530.671859 88.976354
L 531.334894 90.045843
L 531.997929 90.696949
L 532.660964 91.040273
L 533.323999 91.198142
L 533.323999 91.198142
" clip-path="url(#p8c32ca4277)" style="fill: none; stroke: #f7d2d4; stroke-width: 1.5; stroke-linecap: round"/>
   </g>
   <g id="line2d_52">
    <path d="M 487.916444 91.215394
L 489.037505 90.982768
L 489.710141 90.662489
L 490.382777 90.121829
L 491.055413 89.303965
L 491.952262 87.786041
L 493.745958 84.52313
L 494.194382 84.067045
L 494.642806 83.880362
L 495.091231 83.984748
L 495.539655 84.368018
L 496.212291 85.363486
L 498.678624 89.698452
L 499.35126 90.319048
L 500.023896 90.591956
L 500.47232 90.561864
L 500.920744 90.326082
L 501.369168 89.826015
L 501.817593 88.973961
L 502.266017 87.654195
L 502.714441 85.730951
L 503.387077 81.415159
L 504.059713 75.091578
L 504.956561 63.666134
L 506.750258 39.348597
L 507.198682 35.784232
L 507.647106 34.12006
L 507.871318 34.067326
L 508.09553 34.54204
L 508.543955 37.010763
L 508.992379 41.267294
L 509.665015 50.025362
L 511.458711 74.948416
L 512.131348 81.409962
L 512.803984 85.806186
L 513.47662 88.496931
L 513.925044 89.592266
L 514.373468 90.297395
L 515.046104 90.878099
L 515.718741 91.134375
L 516.839801 91.264333
L 518.85771 91.224616
L 519.97877 91.015568
L 520.651406 90.721694
L 521.324042 90.217719
L 521.996678 89.442631
L 522.893527 87.972857
L 524.687223 84.655322
L 525.135647 84.145853
L 525.584072 83.896751
L 526.032496 83.936814
L 526.48092 84.261365
L 527.153556 85.192849
L 528.498828 87.7811
L 529.395677 89.300251
L 530.068313 90.119239
L 530.740949 90.660878
L 531.637797 91.052243
L 532.534646 91.215123
L 532.534646 91.215123
" clip-path="url(#p8c32ca4277)" style="fill: none; stroke: #eaacc7; stroke-width: 1.5; stroke-linecap: round"/>
   </g>
   <g id="line2d_53">
    <path d="M 502.307508 91.059609
L 502.855076 90.682857
L 503.265752 90.123628
L 503.676428 89.181663
L 504.087104 87.700988
L 504.634672 84.640429
L 505.18224 80.200013
L 506.277376 68.688457
L 506.961836 62.489659
L 507.372512 60.182298
L 507.646296 59.353827
L 507.92008 59.059779
L 508.193864 59.205723
L 508.60454 59.936354
L 509.289 61.169876
L 509.562784 61.292611
L 509.836568 61.121738
L 510.247244 60.399213
L 511.068596 58.674094
L 511.34238 58.515998
L 511.616164 58.738721
L 511.889948 59.375771
L 512.300624 61.045911
L 513.258868 66.560837
L 513.943328 69.707694
L 514.354004 70.745104
L 514.627788 71.075855
L 514.901572 71.160681
L 515.312248 70.947548
L 516.681168 69.739949
L 516.954952 69.804124
L 517.228736 70.064655
L 517.639412 70.874407
L 518.050088 72.212572
L 518.597656 74.746332
L 520.787928 86.051627
L 521.198604 86.917115
L 521.472388 87.143212
L 521.746172 87.095475
L 522.019956 86.795059
L 522.430632 85.949567
L 523.388875 83.111298
L 523.936443 81.813295
L 524.347119 81.365248
L 524.620903 81.379045
L 524.894687 81.648472
L 525.305363 82.485246
L 525.989823 84.660858
L 527.221851 88.673484
L 527.906311 90.054078
L 528.453879 90.689313
L 529.001447 91.028756
L 529.549015 91.18929
L 529.549015 91.18929
" clip-path="url(#p8c32ca4277)" style="fill: none; stroke: #cc86c1; stroke-width: 1.5; stroke-linecap: round"/>
   </g>
   <g id="line2d_54">
    <path d="M 502.489476 91.028031
L 503.055447 90.610305
L 503.479925 89.997202
L 503.904403 88.973056
L 504.328881 87.373085
L 504.894852 84.076115
L 505.460823 79.270612
L 506.309779 69.729179
L 507.441721 56.904937
L 508.007691 52.597606
L 508.43217 50.690069
L 508.856648 49.835535
L 509.139633 49.744456
L 509.422618 49.944544
L 509.847096 50.631127
L 510.413067 52.011047
L 511.120531 54.355203
L 511.827994 57.632699
L 512.67695 62.909997
L 514.091877 71.980499
L 514.799341 75.075293
L 515.506804 77.137914
L 516.214268 78.533094
L 516.921731 79.418753
L 517.487702 79.758478
L 518.902629 80.228196
L 519.327107 80.772116
L 519.893078 82.004793
L 521.873975 87.190188
L 522.156961 87.401385
L 522.439946 87.387765
L 522.722931 87.1517
L 523.147409 86.423519
L 523.854873 84.552366
L 524.703829 82.370549
L 525.128307 81.791433
L 525.411293 81.693113
L 525.694278 81.841328
L 526.118756 82.500722
L 526.684727 84.010607
L 528.382639 89.096252
L 528.94861 90.100474
L 529.514581 90.710731
L 530.080551 91.037449
L 530.646522 91.192375
L 530.646522 91.192375
" clip-path="url(#p8c32ca4277)" style="fill: none; stroke: #9361ae; stroke-width: 1.5; stroke-linecap: round"/>
   </g>
   <g id="line2d_55">
    <path d="M 497.007055 91.223412
L 499.557081 90.98925
L 501.014238 90.673626
L 502.471396 90.141486
L 503.928554 89.340269
L 505.385711 88.272045
L 509.392895 85.042996
L 510.485763 84.536368
L 511.214342 84.376913
L 511.94292 84.373938
L 512.671499 84.527488
L 513.764367 85.025417
L 514.857236 85.775525
L 519.592998 89.397529
L 520.685866 89.863103
L 521.778734 90.117132
L 522.871602 90.164672
L 523.964471 90.022322
L 525.421628 89.580599
L 527.243075 88.734108
L 535.621731 84.160139
L 537.443178 82.857669
L 539.264625 81.255926
L 543.636098 77.191802
L 544.728966 76.506146
L 545.821835 76.087412
L 546.914703 75.965753
L 548.007571 76.137288
L 549.100439 76.568204
L 550.557597 77.457958
L 552.379044 78.920605
L 554.200491 80.665926
L 556.386227 83.076697
L 560.393411 87.612503
L 561.850568 88.895575
L 562.6 89.429466
L 562.6 89.429466
" clip-path="url(#p8c32ca4277)" style="fill: none; stroke: #392f62; stroke-width: 1.5; stroke-linecap: round"/>
   </g>
   <g id="patch_11">
    <path d="M 458.79324 91.29376
L 556.05126 91.29376
" style="fill: none; stroke: #262626; stroke-width: 1.2; stroke-linejoin: miter; stroke-linecap: square"/>
   </g>
   <g id="text_20">
    <!-- $\rho=1$ -->
    <g style="fill: #262626" transform="translate(496.46025 10.34424) scale(0.108 -0.108)">
     <use xlink:href="#STIXNonUnicode-Italic-e1e8" transform="translate(0 0.296875)"/>
     <use xlink:href="#STIXGeneral-Regular-3d" transform="translate(68.519992 0.296875)"/>
     <use xlink:href="#STIXGeneral-Regular-1d7e3" transform="translate(152.139975 0.296875)"/>
    </g>
   </g>
  </g>
  <g id="axes_6">
   <g id="patch_12">
    <path d="M 9.51324 203.61376
L 106.77126 203.61376
L 106.77126 128.66424
L 9.51324 128.66424
L 9.51324 203.61376
z
" style="fill: none"/>
   </g>
   <g id="matplotlib.axis_11">
    <g id="xtick_16">
     <g id="line2d_56">
      <path d="M 9.51324 203.61376
L 9.51324 128.66424
" clip-path="url(#pe21158717b)" style="fill: none"/>
     </g>
     <g id="line2d_57">
      <g>
       <use xlink:href="#m665f781226" x="9.51324" y="203.61376" style="fill: #262626; stroke: #262626; stroke-width: 1.2"/>
      </g>
     </g>
     <g id="text_21">
      <!-- −1 -->
      <g style="fill: #262626" transform="translate(3.00024 219.77676) scale(0.096 -0.096)">
       <use xlink:href="#LMSans8-Regular-2212"/>
       <use xlink:href="#LMSans8-Regular-31" x="82.599991"/>
      </g>
     </g>
    </g>
    <g id="xtick_17">
     <g id="line2d_58">
      <path d="M 58.14225 203.61376
L 58.14225 128.66424
" clip-path="url(#pe21158717b)" style="fill: none"/>
     </g>
     <g id="line2d_59">
      <g>
       <use xlink:href="#m665f781226" x="58.14225" y="203.61376" style="fill: #262626; stroke: #262626; stroke-width: 1.2"/>
      </g>
     </g>
     <g id="text_22">
      <!-- 0 -->
      <g style="fill: #262626" transform="translate(55.59375 219.77676) scale(0.096 -0.096)">
       <use xlink:href="#LMSans8-Regular-30"/>
      </g>
     </g>
    </g>
    <g id="xtick_18">
     <g id="line2d_60">
      <path d="M 106.77126 203.61376
L 106.77126 128.66424
" clip-path="url(#pe21158717b)" style="fill: none"/>
     </g>
     <g id="line2d_61">
      <g>
       <use xlink:href="#m665f781226" x="106.77126" y="203.61376" style="fill: #262626; stroke: #262626; stroke-width: 1.2"/>
      </g>
     </g>
     <g id="text_23">
      <!-- 1 -->
      <g style="fill: #262626" transform="translate(104.22276 219.77676) scale(0.096 -0.096)">
       <use xlink:href="#LMSans8-Regular-31"/>
      </g>
     </g>
    </g>
   </g>
   <g id="matplotlib.axis_12"/>
   <g id="line2d_62">
    <path d="M 35.66012 203.558833
L 37.164632 203.382602
L 38.16764 203.096529
L 39.170648 202.589491
L 40.173655 201.818628
L 41.678167 200.301241
L 42.931927 199.139654
L 43.684183 198.724339
L 44.436439 198.625009
L 45.188694 198.860838
L 45.94095 199.383805
L 47.445462 200.85973
L 48.44847 201.759762
L 49.200725 202.208301
L 49.952981 202.365246
L 50.454485 202.263738
L 50.955989 201.961005
L 51.457493 201.420141
L 51.958997 200.60023
L 52.460501 199.459998
L 53.212757 197.074866
L 53.965012 193.84
L 54.96802 188.373892
L 56.974036 176.716487
L 57.726292 173.739689
L 58.227796 172.580378
L 58.478547 172.281019
L 58.729299 172.175181
L 58.980051 172.263329
L 59.230803 172.542325
L 59.732307 173.643328
L 60.233811 175.389309
L 60.986067 178.932047
L 64.245842 195.973919
L 64.998098 198.519958
L 65.750354 200.382859
L 66.50261 201.654437
L 67.254866 202.451296
L 68.007121 202.881078
L 68.759377 203.0204
L 69.511633 202.905254
L 70.263889 202.533833
L 71.016145 201.881439
L 71.768401 200.925953
L 72.771408 199.209444
L 75.278928 194.545322
L 75.780432 194.028339
L 76.281936 193.778339
L 76.78344 193.817109
L 77.284943 194.141254
L 77.786447 194.722695
L 78.538703 195.966608
L 81.296975 201.130412
L 82.04923 202.050618
L 82.801486 202.693608
L 83.804494 203.204777
L 84.807502 203.452426
L 85.559758 203.53951
L 85.559758 203.53951
" clip-path="url(#pe21158717b)" style="fill: none; stroke: #f7d2d4; stroke-width: 1.5; stroke-linecap: round"/>
   </g>
   <g id="line2d_63">
    <path d="M 24.930665 203.557855
L 26.541879 203.34978
L 27.616022 202.993921
L 28.690165 202.354773
L 29.764308 201.401696
L 32.181129 198.986466
L 32.986737 198.586471
L 33.523808 198.536123
L 34.060879 198.667829
L 34.866487 199.171413
L 35.940629 200.222689
L 37.82038 202.122362
L 38.894522 202.849638
L 39.968665 203.275098
L 41.311344 203.513876
L 43.45963 203.604692
L 47.487665 203.550088
L 48.830344 203.33727
L 49.635951 203.006497
L 50.441558 202.370195
L 50.97863 201.684448
L 51.515701 200.711454
L 52.052773 199.380209
L 52.85838 196.574193
L 53.663987 192.694685
L 54.73813 186.028633
L 56.61788 173.652875
L 57.154951 171.098863
L 57.692023 169.404192
L 57.960559 168.925176
L 58.229094 168.704706
L 58.49763 168.744502
L 58.766166 169.039754
L 59.303237 170.346425
L 59.840309 172.47119
L 60.645916 176.707135
L 62.794201 188.741776
L 63.599809 192.112478
L 64.405416 194.632314
L 65.211023 196.370374
L 66.01663 197.437984
L 66.553702 197.840344
L 67.359309 198.09299
L 68.433452 198.069183
L 69.507594 198.077117
L 70.313202 198.334511
L 71.118809 198.874104
L 72.192952 199.937104
L 74.072702 201.920624
L 75.146845 202.720079
L 76.220987 203.205393
L 77.29513 203.452289
L 78.369273 203.558522
L 78.369273 203.558522
" clip-path="url(#pe21158717b)" style="fill: none; stroke: #eaacc7; stroke-width: 1.5; stroke-linecap: round"/>
   </g>
   <g id="line2d_64">
    <path d="M 46.885332 203.540144
L 47.906235 203.339107
L 48.586837 203.03107
L 49.267438 202.495383
L 49.94804 201.670626
L 50.798793 200.237026
L 53.010749 196.186328
L 54.882404 193.499307
L 55.563006 191.730752
L 56.413758 188.597561
L 57.604811 183.982865
L 58.115263 182.718759
L 58.455564 182.289908
L 58.795865 182.224149
L 59.136166 182.513324
L 59.476467 183.11987
L 59.986918 184.487814
L 62.198874 191.250897
L 62.709326 192.131907
L 63.219777 192.634115
L 63.560078 192.748204
L 63.900379 192.679542
L 64.24068 192.425879
L 64.751131 191.709077
L 65.431733 190.223392
L 67.133238 186.055177
L 67.643689 185.446189
L 67.98399 185.3318
L 68.324291 185.457518
L 68.664592 185.80536
L 69.175043 186.655627
L 70.706398 189.607375
L 71.216849 190.07683
L 71.55715 190.173284
L 72.067601 190.052247
L 73.258655 189.523538
L 73.598956 189.606239
L 73.939256 189.888416
L 74.449708 190.727944
L 74.960159 192.040675
L 75.810912 194.930222
L 77.172115 199.54646
L 77.852717 201.198383
L 78.533319 202.310389
L 79.213921 202.975015
L 79.894523 203.329586
L 80.745275 203.523686
L 80.745275 203.523686
" clip-path="url(#pe21158717b)" style="fill: none; stroke: #cc86c1; stroke-width: 1.5; stroke-linecap: round"/>
   </g>
   <g id="line2d_65">
    <path d="M 54.601641 203.399996
L 54.85236 203.049563
L 55.103079 202.285638
L 55.353798 200.821265
L 55.667197 197.558043
L 56.105955 189.974158
L 58.111707 149.420641
L 58.237067 149.175032
L 58.362426 149.577891
L 58.550466 151.280501
L 58.989224 158.261079
L 59.490662 165.142504
L 59.741381 166.449641
L 59.866741 166.454246
L 59.9921 166.000472
L 60.180139 164.403601
L 60.493538 159.081174
L 60.932297 146.628556
L 61.433735 133.475125
L 61.621774 132.233108
L 61.747133 133.13373
L 61.935173 137.199887
L 62.248572 150.080187
L 63.126088 190.032872
L 63.439487 195.325412
L 63.627526 195.950727
L 63.752886 195.499527
L 64.003605 193.065868
L 64.755762 184.294047
L 64.881122 184.091249
L 65.006481 184.446868
L 65.19452 185.954474
L 65.633279 192.303867
L 66.197397 199.83729
L 66.573475 202.303834
L 66.886874 203.170038
L 67.074913 203.40139
L 67.074913 203.40139
" clip-path="url(#pe21158717b)" style="fill: none; stroke: #9361ae; stroke-width: 1.5; stroke-linecap: round"/>
   </g>
   <g id="line2d_66">
    <path d="M 47.510069 203.581038
L 50.793546 203.412514
L 52.98253 203.087944
L 54.806684 202.6047
L 56.630838 201.910123
L 59.184653 200.684784
L 64.657114 197.774743
L 69.035082 195.364087
L 70.129575 195.033521
L 71.224067 194.946032
L 72.318559 195.141553
L 73.413051 195.622957
L 74.507543 196.353269
L 76.331697 197.921432
L 78.885512 200.120628
L 79.980004 200.827231
L 81.074497 201.309504
L 82.168989 201.541157
L 83.263481 201.517573
L 84.357973 201.252622
L 85.452465 200.775012
L 86.911788 199.876667
L 89.100773 198.190213
L 93.478741 194.703005
L 95.667726 193.264051
L 97.127049 192.535142
L 98.586372 192.085731
L 99.680864 191.986321
L 100.775356 192.125083
L 101.869848 192.517995
L 102.96434 193.161625
L 104.423663 194.3635
L 106.247817 196.248319
L 109.531293 199.763039
L 110.990616 201.025801
L 112.449939 201.996419
L 113.909262 202.676948
L 115.368585 203.11222
L 117.192739 203.408869
L 119.746554 203.566776
L 120.111385 203.576492
L 120.111385 203.576492
" clip-path="url(#pe21158717b)" style="fill: none; stroke: #392f62; stroke-width: 1.5; stroke-linecap: round"/>
   </g>
   <g id="patch_13">
    <path d="M 9.51324 203.61376
L 106.77126 203.61376
" style="fill: none; stroke: #262626; stroke-width: 1.2; stroke-linejoin: miter; stroke-linecap: square"/>
   </g>
   <g id="text_24">
    <!-- $\rho=1.25$ -->
    <g style="fill: #262626" transform="translate(40.43025 122.66424) scale(0.108 -0.108)">
     <use xlink:href="#STIXNonUnicode-Italic-e1e8" transform="translate(0 0.296875)"/>
     <use xlink:href="#STIXGeneral-Regular-3d" transform="translate(68.519992 0.296875)"/>
     <use xlink:href="#STIXGeneral-Regular-1d7e3" transform="translate(152.139975 0.296875)"/>
     <use xlink:href="#STIXGeneral-Regular-2e" transform="translate(202.13996 0.296875)"/>
     <use xlink:href="#STIXGeneral-Regular-1d7e4" transform="translate(227.139944 0.296875)"/>
     <use xlink:href="#STIXGeneral-Regular-1d7e7" transform="translate(277.139929 0.296875)"/>
    </g>
   </g>
  </g>
  <g id="axes_7">
   <g id="patch_14">
    <path d="M 121.83324 203.61376
L 219.09126 203.61376
L 219.09126 128.66424
L 121.83324 128.66424
L 121.83324 203.61376
z
" style="fill: none"/>
   </g>
   <g id="matplotlib.axis_13">
    <g id="xtick_19">
     <g id="line2d_67">
      <path d="M 121.83324 203.61376
L 121.83324 128.66424
" clip-path="url(#p0bf489df2d)" style="fill: none"/>
     </g>
     <g id="line2d_68">
      <g>
       <use xlink:href="#m665f781226" x="121.83324" y="203.61376" style="fill: #262626; stroke: #262626; stroke-width: 1.2"/>
      </g>
     </g>
     <g id="text_25">
      <!-- −1 -->
      <g style="fill: #262626" transform="translate(115.32024 219.77676) scale(0.096 -0.096)">
       <use xlink:href="#LMSans8-Regular-2212"/>
       <use xlink:href="#LMSans8-Regular-31" x="82.599991"/>
      </g>
     </g>
    </g>
    <g id="xtick_20">
     <g id="line2d_69">
      <path d="M 170.46225 203.61376
L 170.46225 128.66424
" clip-path="url(#p0bf489df2d)" style="fill: none"/>
     </g>
     <g id="line2d_70">
      <g>
       <use xlink:href="#m665f781226" x="170.46225" y="203.61376" style="fill: #262626; stroke: #262626; stroke-width: 1.2"/>
      </g>
     </g>
     <g id="text_26">
      <!-- 0 -->
      <g style="fill: #262626" transform="translate(167.91375 219.77676) scale(0.096 -0.096)">
       <use xlink:href="#LMSans8-Regular-30"/>
      </g>
     </g>
    </g>
    <g id="xtick_21">
     <g id="line2d_71">
      <path d="M 219.09126 203.61376
L 219.09126 128.66424
" clip-path="url(#p0bf489df2d)" style="fill: none"/>
     </g>
     <g id="line2d_72">
      <g>
       <use xlink:href="#m665f781226" x="219.09126" y="203.61376" style="fill: #262626; stroke: #262626; stroke-width: 1.2"/>
      </g>
     </g>
     <g id="text_27">
      <!-- 1 -->
      <g style="fill: #262626" transform="translate(216.54276 219.77676) scale(0.096 -0.096)">
       <use xlink:href="#LMSans8-Regular-31"/>
      </g>
     </g>
    </g>
   </g>
   <g id="matplotlib.axis_14"/>
   <g id="line2d_73">
    <path d="M 165.263049 203.506868
L 165.724826 203.274655
L 166.094248 202.844362
L 166.463669 202.01613
L 166.833091 200.561899
L 167.202513 198.214876
L 167.66429 193.607426
L 168.126067 186.703152
L 168.680199 175.082883
L 170.157886 140.68496
L 170.434952 138.767527
L 170.527307 138.727695
L 170.712018 139.570568
L 170.989084 143.023596
L 171.450861 153.228128
L 172.559126 179.741072
L 173.020903 185.745745
L 173.575035 189.89815
L 175.329788 199.852294
L 175.69921 200.940053
L 175.976276 201.242518
L 176.160987 201.184379
L 176.438053 200.705258
L 176.807474 199.368939
L 177.361607 196.169706
L 178.562227 188.760019
L 178.931649 187.577677
L 179.208715 187.195869
L 179.393426 187.18819
L 179.578136 187.37838
L 179.855203 188.03043
L 180.224624 189.549144
L 180.778757 192.916581
L 181.887022 199.98924
L 182.441154 202.06087
L 182.902931 202.964935
L 183.364708 203.381439
L 183.641774 203.497352
L 183.641774 203.497352
" clip-path="url(#p0bf489df2d)" style="fill: none; stroke: #f7d2d4; stroke-width: 1.5; stroke-linecap: round"/>
   </g>
   <g id="line2d_74">
    <path d="M 166.086493 203.379162
L 166.488498 202.958124
L 166.790002 202.289278
L 167.091506 201.088388
L 167.39301 199.068453
L 167.795016 194.513861
L 168.197021 187.160117
L 168.699528 173.701287
L 170.006046 135.510463
L 170.30755 132.447574
L 170.408051 132.231412
L 170.508552 132.420806
L 170.709555 133.970868
L 171.011059 138.879641
L 171.614067 154.47215
L 172.51858 177.995143
L 173.121588 188.226882
L 173.624094 193.213578
L 174.0261 195.176361
L 174.327604 195.639618
L 174.528607 195.560664
L 174.830111 195.034029
L 175.634122 193.272521
L 175.835124 193.178117
L 176.036127 193.320911
L 176.337631 193.989007
L 176.739636 195.581165
L 178.046154 201.488579
L 178.548661 202.625354
L 178.950666 203.021969
L 179.25217 203.062821
L 179.553674 202.890839
L 179.855178 202.487972
L 180.257184 201.538216
L 180.759691 199.640322
L 182.16671 193.615326
L 182.367712 193.392633
L 182.568715 193.448184
L 182.769718 193.777469
L 183.071222 194.721655
L 183.67423 197.577089
L 184.478241 201.162172
L 184.980748 202.497177
L 185.483254 203.18546
L 185.985761 203.475397
L 186.086263 203.505636
L 186.086263 203.505636
" clip-path="url(#p0bf489df2d)" style="fill: none; stroke: #eaacc7; stroke-width: 1.5; stroke-linecap: round"/>
   </g>
   <g id="line2d_75">
    <path d="M 161.860411 203.55981
L 163.351362 203.375027
L 164.416328 203.018831
L 165.2683 202.48182
L 166.120272 201.616894
L 166.972245 200.341161
L 167.824217 198.620956
L 168.889182 195.934993
L 171.019113 190.305628
L 171.871086 188.774618
L 172.510065 188.138086
L 172.936051 187.98486
L 173.362037 188.047595
L 173.788023 188.312416
L 174.427003 189.032725
L 175.278975 190.408754
L 177.408906 194.039265
L 178.260878 195.034371
L 179.112851 195.696848
L 179.964823 196.086817
L 181.029788 196.309155
L 182.52074 196.346176
L 185.076657 196.144533
L 186.780602 195.829082
L 188.05856 195.350546
L 189.123526 194.709694
L 190.401484 193.66327
L 192.105429 192.288636
L 192.744408 192.010617
L 193.383388 191.97244
L 194.022367 192.221794
L 194.661346 192.77584
L 195.300325 193.616609
L 196.365291 195.50363
L 198.921208 200.397231
L 199.77318 201.56671
L 200.625153 202.406265
L 201.477125 202.95487
L 202.54209 203.337494
L 203.820049 203.531436
L 204.246035 203.560994
L 204.246035 203.560994
" clip-path="url(#p0bf489df2d)" style="fill: none; stroke: #cc86c1; stroke-width: 1.5; stroke-linecap: round"/>
   </g>
   <g id="line2d_76">
    <path d="M 162.056593 203.536894
L 163.24359 203.332169
L 164.034921 203.006228
L 164.826252 202.399458
L 165.41975 201.671354
L 166.013249 200.634729
L 166.80458 198.674823
L 167.595911 196.000425
L 168.585075 191.784905
L 170.563403 182.935682
L 171.156902 181.061293
L 171.7504 179.884437
L 172.146066 179.540415
L 172.541731 179.561611
L 172.937397 179.938908
L 173.333062 180.645985
L 173.926561 182.230505
L 174.915725 185.78028
L 176.498387 191.653233
L 177.289718 193.906427
L 178.08105 195.562841
L 178.872381 196.744268
L 180.059378 198.064657
L 182.433371 200.375189
L 183.224702 200.867105
L 183.818201 201.017089
L 184.411699 200.937165
L 185.005198 200.612383
L 185.598696 200.051355
L 186.390027 198.991508
L 187.774857 196.641379
L 189.159686 194.375358
L 189.951018 193.42591
L 190.544516 192.973684
L 191.138014 192.787911
L 191.731513 192.893246
L 192.325011 193.295669
L 192.91851 193.978124
L 193.709841 195.248039
L 195.292503 198.385418
L 196.4795 200.538223
L 197.468664 201.868148
L 198.259995 202.593771
L 199.051326 203.061718
L 200.04049 203.384115
L 201.42532 203.559144
L 201.42532 203.559144
" clip-path="url(#p0bf489df2d)" style="fill: none; stroke: #9361ae; stroke-width: 1.5; stroke-linecap: round"/>
   </g>
   <g id="line2d_77">
    <path d="M 169.659638 203.557161
L 171.403002 203.367232
L 172.565244 203.046158
L 173.727487 202.451806
L 174.599168 201.772555
L 175.761411 200.5436
L 178.957578 196.714111
L 179.82926 196.179652
L 180.410381 196.044636
L 180.991502 196.08206
L 181.863184 196.399056
L 184.187669 197.517733
L 184.76879 197.551742
L 185.349911 197.405632
L 185.931033 197.066046
L 186.802714 196.208979
L 187.964957 194.571324
L 189.998881 191.516924
L 190.870563 190.661882
L 191.451684 190.362521
L 192.032806 190.300877
L 192.613927 190.467808
L 193.485609 191.064845
L 195.810094 193.062201
L 196.391215 193.279071
L 196.972336 193.309238
L 197.844018 193.045012
L 199.877942 192.07333
L 200.459064 192.055609
L 201.040185 192.265292
L 201.621306 192.723545
L 202.492988 193.850717
L 203.655231 195.938486
L 205.689155 199.776908
L 206.560837 201.044921
L 207.432519 201.979118
L 208.3042 202.589387
L 209.175882 202.916423
L 210.047564 203.006415
L 210.919246 202.896935
L 212.081489 202.488817
L 213.534292 201.662324
L 215.858777 200.26299
L 216.730458 199.98075
L 217.60214 199.930893
L 218.473822 200.123344
L 219.636065 200.687445
L 223.413353 202.891761
L 224.866156 203.312749
L 226.60952 203.531454
L 227.481201 203.574856
L 227.481201 203.574856
" clip-path="url(#p0bf489df2d)" style="fill: none; stroke: #392f62; stroke-width: 1.5; stroke-linecap: round"/>
   </g>
   <g id="patch_15">
    <path d="M 121.83324 203.61376
L 219.09126 203.61376
" style="fill: none; stroke: #262626; stroke-width: 1.2; stroke-linejoin: miter; stroke-linecap: square"/>
   </g>
   <g id="text_28">
    <!-- $\rho=1.5$ -->
    <g style="fill: #262626" transform="translate(155.45025 122.66424) scale(0.108 -0.108)">
     <use xlink:href="#STIXNonUnicode-Italic-e1e8" transform="translate(0 0.296875)"/>
     <use xlink:href="#STIXGeneral-Regular-3d" transform="translate(68.519992 0.296875)"/>
     <use xlink:href="#STIXGeneral-Regular-1d7e3" transform="translate(152.139975 0.296875)"/>
     <use xlink:href="#STIXGeneral-Regular-2e" transform="translate(202.13996 0.296875)"/>
     <use xlink:href="#STIXGeneral-Regular-1d7e7" transform="translate(227.139944 0.296875)"/>
    </g>
   </g>
  </g>
  <g id="axes_8">
   <g id="patch_16">
    <path d="M 234.15324 203.61376
L 331.41126 203.61376
L 331.41126 128.66424
L 234.15324 128.66424
L 234.15324 203.61376
z
" style="fill: none"/>
   </g>
   <g id="matplotlib.axis_15">
    <g id="xtick_22">
     <g id="line2d_78">
      <path d="M 234.15324 203.61376
L 234.15324 128.66424
" clip-path="url(#pdc2b023846)" style="fill: none"/>
     </g>
     <g id="line2d_79">
      <g>
       <use xlink:href="#m665f781226" x="234.15324" y="203.61376" style="fill: #262626; stroke: #262626; stroke-width: 1.2"/>
      </g>
     </g>
     <g id="text_29">
      <!-- −1 -->
      <g style="fill: #262626" transform="translate(227.64024 219.77676) scale(0.096 -0.096)">
       <use xlink:href="#LMSans8-Regular-2212"/>
       <use xlink:href="#LMSans8-Regular-31" x="82.599991"/>
      </g>
     </g>
    </g>
    <g id="xtick_23">
     <g id="line2d_80">
      <path d="M 282.78225 203.61376
L 282.78225 128.66424
" clip-path="url(#pdc2b023846)" style="fill: none"/>
     </g>
     <g id="line2d_81">
      <g>
       <use xlink:href="#m665f781226" x="282.78225" y="203.61376" style="fill: #262626; stroke: #262626; stroke-width: 1.2"/>
      </g>
     </g>
     <g id="text_30">
      <!-- 0 -->
      <g style="fill: #262626" transform="translate(280.23375 219.77676) scale(0.096 -0.096)">
       <use xlink:href="#LMSans8-Regular-30"/>
      </g>
     </g>
    </g>
    <g id="xtick_24">
     <g id="line2d_82">
      <path d="M 331.41126 203.61376
L 331.41126 128.66424
" clip-path="url(#pdc2b023846)" style="fill: none"/>
     </g>
     <g id="line2d_83">
      <g>
       <use xlink:href="#m665f781226" x="331.41126" y="203.61376" style="fill: #262626; stroke: #262626; stroke-width: 1.2"/>
      </g>
     </g>
     <g id="text_31">
      <!-- 1 -->
      <g style="fill: #262626" transform="translate(328.86276 219.77676) scale(0.096 -0.096)">
       <use xlink:href="#LMSans8-Regular-31"/>
      </g>
     </g>
    </g>
   </g>
   <g id="matplotlib.axis_16"/>
   <g id="line2d_84">
    <path d="M 280.62563 203.394219
L 280.843073 202.983751
L 281.060516 201.995129
L 281.27796 199.886171
L 281.549764 194.527515
L 281.875928 182.332461
L 282.963144 132.233251
L 283.017505 132.360097
L 283.126226 133.81899
L 283.34367 141.061328
L 283.887277 171.696237
L 284.376524 193.07855
L 284.702689 199.807127
L 285.028854 202.524821
L 285.300658 203.29449
L 285.626823 203.555343
L 286.224791 203.612399
L 287.583811 203.525965
L 287.855615 203.318993
L 288.127419 202.790259
L 288.399223 201.699397
L 288.779748 199.034207
L 289.377717 194.90468
L 289.540799 194.720705
L 289.649521 194.921384
L 289.866964 196.010541
L 290.95418 202.946996
L 291.280344 203.432705
L 291.443427 203.528328
L 291.443427 203.528328
" clip-path="url(#pdc2b023846)" style="fill: none; stroke: #f7d2d4; stroke-width: 1.5; stroke-linecap: round"/>
   </g>
   <g id="line2d_85">
    <path d="M 278.665108 203.462359
L 279.068439 203.183273
L 279.370937 202.736575
L 279.673435 201.933244
L 279.975933 200.586776
L 280.379263 197.586808
L 280.782594 192.859874
L 281.387589 182.741797
L 282.194251 169.104074
L 282.496749 166.31367
L 282.698414 165.597025
L 282.799246 165.602622
L 283.000912 166.326068
L 283.30341 169.003055
L 283.807573 176.261394
L 284.815899 190.902024
L 285.420895 196.239177
L 286.025891 199.532606
L 286.630887 201.593239
L 287.13505 202.63206
L 287.639213 203.203952
L 288.143376 203.468798
L 288.950037 203.594579
L 291.168356 203.595449
L 292.075849 203.440823
L 292.580012 203.144741
L 293.084176 202.54973
L 293.689172 201.367199
L 294.697498 199.204841
L 294.999996 198.918112
L 295.302494 198.924065
L 295.604992 199.221586
L 296.109155 200.200211
L 297.218314 202.568016
L 297.722477 203.154746
L 298.22664 203.445226
L 298.730803 203.561998
L 298.730803 203.561998
" clip-path="url(#pdc2b023846)" style="fill: none; stroke: #eaacc7; stroke-width: 1.5; stroke-linecap: round"/>
   </g>
   <g id="line2d_86">
    <path d="M 273.82338 203.542739
L 275.059386 203.345841
L 275.883391 203.031111
L 276.707395 202.451466
L 277.325398 201.769966
L 278.149402 200.449274
L 278.973407 198.627442
L 280.209413 195.203119
L 281.44542 191.875926
L 282.063423 190.689536
L 282.475425 190.184422
L 282.887427 189.94359
L 283.299429 189.980214
L 283.711432 190.290587
L 284.329435 191.221555
L 285.153439 193.124096
L 287.831453 200.046049
L 288.655458 201.40492
L 289.479462 202.283299
L 290.097465 202.667266
L 290.921469 202.883442
L 291.745474 202.838351
L 292.775479 202.526447
L 296.895501 200.908096
L 298.337508 200.762434
L 300.191518 200.797988
L 306.989554 201.432473
L 308.22556 201.879305
L 311.315576 203.16908
L 312.757584 203.458594
L 314.611594 203.586879
L 314.817595 203.592244
L 314.817595 203.592244
" clip-path="url(#pdc2b023846)" style="fill: none; stroke: #cc86c1; stroke-width: 1.5; stroke-linecap: round"/>
   </g>
   <g id="line2d_87">
    <path d="M 277.289625 203.559464
L 278.081145 203.391524
L 278.608825 203.103679
L 279.136505 202.538973
L 279.664186 201.532178
L 280.191866 199.903855
L 280.719546 197.522611
L 281.379146 193.512023
L 282.962186 183.12175
L 283.357947 181.691062
L 283.621787 181.216724
L 283.885627 181.151418
L 284.149467 181.489783
L 284.545227 182.686008
L 285.072907 185.274916
L 287.315548 197.862124
L 287.975148 200.112954
L 288.634748 201.646238
L 289.294348 202.604725
L 289.953948 203.132211
L 290.613549 203.350885
L 291.273149 203.334397
L 291.932749 203.096002
L 292.592349 202.615802
L 293.383869 201.742077
L 294.96691 199.91084
L 295.62651 199.522006
L 296.41803 199.356986
L 297.47339 199.380495
L 298.132991 199.559363
L 298.792591 199.986868
L 299.584111 200.845433
L 301.167151 202.70287
L 301.958672 203.232017
L 302.750192 203.484852
L 303.541712 203.578741
L 303.541712 203.578741
" clip-path="url(#pdc2b023846)" style="fill: none; stroke: #9361ae; stroke-width: 1.5; stroke-linecap: round"/>
   </g>
   <g id="line2d_88">
    <path d="M 274.950905 203.600783
L 279.888143 203.446579
L 282.709422 203.136321
L 285.530701 202.590773
L 290.115279 201.634871
L 292.231239 201.460872
L 294.347198 201.521862
L 306.337633 202.565887
L 312.332851 203.29572
L 314.44881 203.313445
L 316.212109 203.142813
L 317.975409 202.738699
L 319.386048 202.198919
L 320.796688 201.437316
L 322.559987 200.185173
L 326.791905 196.866686
L 327.849885 196.354954
L 328.907864 196.110808
L 329.965844 196.167876
L 331.023824 196.523742
L 332.081803 197.139554
L 333.492443 198.244458
L 337.019041 201.208732
L 338.429681 202.091098
L 339.84032 202.722372
L 341.25096 203.131407
L 343.014259 203.413417
L 345.130218 203.554475
L 345.130218 203.554475
" clip-path="url(#pdc2b023846)" style="fill: none; stroke: #392f62; stroke-width: 1.5; stroke-linecap: round"/>
   </g>
   <g id="patch_17">
    <path d="M 234.15324 203.61376
L 331.41126 203.61376
" style="fill: none; stroke: #262626; stroke-width: 1.2; stroke-linejoin: miter; stroke-linecap: square"/>
   </g>
   <g id="text_32">
    <!-- $\rho=1.75$ -->
    <g style="fill: #262626" transform="translate(265.07025 122.66424) scale(0.108 -0.108)">
     <use xlink:href="#STIXNonUnicode-Italic-e1e8" transform="translate(0 0.296875)"/>
     <use xlink:href="#STIXGeneral-Regular-3d" transform="translate(68.519992 0.296875)"/>
     <use xlink:href="#STIXGeneral-Regular-1d7e3" transform="translate(152.139975 0.296875)"/>
     <use xlink:href="#STIXGeneral-Regular-2e" transform="translate(202.13996 0.296875)"/>
     <use xlink:href="#STIXGeneral-Regular-1d7e9" transform="translate(227.139944 0.296875)"/>
     <use xlink:href="#STIXGeneral-Regular-1d7e7" transform="translate(277.139929 0.296875)"/>
    </g>
   </g>
  </g>
  <g id="axes_9">
   <g id="patch_18">
    <path d="M 346.47324 203.61376
L 443.73126 203.61376
L 443.73126 128.66424
L 346.47324 128.66424
L 346.47324 203.61376
z
" style="fill: none"/>
   </g>
   <g id="matplotlib.axis_17">
    <g id="xtick_25">
     <g id="line2d_89">
      <path d="M 346.47324 203.61376
L 346.47324 128.66424
" clip-path="url(#p1cb92db9cf)" style="fill: none"/>
     </g>
     <g id="line2d_90">
      <g>
       <use xlink:href="#m665f781226" x="346.47324" y="203.61376" style="fill: #262626; stroke: #262626; stroke-width: 1.2"/>
      </g>
     </g>
     <g id="text_33">
      <!-- −1 -->
      <g style="fill: #262626" transform="translate(339.96024 219.77676) scale(0.096 -0.096)">
       <use xlink:href="#LMSans8-Regular-2212"/>
       <use xlink:href="#LMSans8-Regular-31" x="82.599991"/>
      </g>
     </g>
    </g>
    <g id="xtick_26">
     <g id="line2d_91">
      <path d="M 395.10225 203.61376
L 395.10225 128.66424
" clip-path="url(#p1cb92db9cf)" style="fill: none"/>
     </g>
     <g id="line2d_92">
      <g>
       <use xlink:href="#m665f781226" x="395.10225" y="203.61376" style="fill: #262626; stroke: #262626; stroke-width: 1.2"/>
      </g>
     </g>
     <g id="text_34">
      <!-- 0 -->
      <g style="fill: #262626" transform="translate(392.55375 219.77676) scale(0.096 -0.096)">
       <use xlink:href="#LMSans8-Regular-30"/>
      </g>
     </g>
    </g>
    <g id="xtick_27">
     <g id="line2d_93">
      <path d="M 443.73126 203.61376
L 443.73126 128.66424
" clip-path="url(#p1cb92db9cf)" style="fill: none"/>
     </g>
     <g id="line2d_94">
      <g>
       <use xlink:href="#m665f781226" x="443.73126" y="203.61376" style="fill: #262626; stroke: #262626; stroke-width: 1.2"/>
      </g>
     </g>
     <g id="text_35">
      <!-- 1 -->
      <g style="fill: #262626" transform="translate(441.18276 219.77676) scale(0.096 -0.096)">
       <use xlink:href="#LMSans8-Regular-31"/>
      </g>
     </g>
    </g>
   </g>
   <g id="matplotlib.axis_18"/>
   <g id="line2d_95">
    <path d="M 393.1095 203.520963
L 393.234767 203.246701
L 393.385087 202.186818
L 393.560461 198.96458
L 393.986369 189.669891
L 394.011422 189.741647
L 394.21185 191.051517
L 394.261956 190.681778
L 394.36217 187.830028
L 394.562597 173.07605
L 394.913345 148.827115
L 394.963452 148.312266
L 395.013558 148.493443
L 395.163879 151.42569
L 395.414413 154.776214
L 395.514626 155.362188
L 395.61484 157.579014
L 395.790214 168.369588
L 396.266228 200.742604
L 396.466656 203.058939
L 396.516763 203.134073
L 396.566869 203.074487
L 396.692136 202.311343
L 396.86751 199.29936
L 397.268365 190.04772
L 397.318471 190.272007
L 397.443738 192.659451
L 397.919753 202.930844
L 398.095127 203.504325
L 398.095127 203.504325
" clip-path="url(#p1cb92db9cf)" style="fill: none; stroke: #f7d2d4; stroke-width: 1.5; stroke-linecap: round"/>
   </g>
   <g id="line2d_96">
    <path d="M 391.141403 203.53138
L 391.330415 203.274677
L 391.519427 202.526233
L 391.746241 200.445816
L 392.313276 194.085791
L 392.38888 194.300909
L 392.577892 196.227242
L 393.144927 202.788864
L 393.409543 203.474762
L 393.67416 203.573411
L 393.863171 203.457534
L 394.014381 203.075969
L 394.16559 201.994636
L 394.354602 198.363112
L 394.581416 187.515553
L 394.921637 155.535172
L 395.224055 132.916873
L 395.29966 132.232593
L 395.337462 132.821796
L 395.488672 140.890931
L 396.282521 200.432353
L 396.509335 202.715934
L 396.584939 202.825191
L 396.622742 202.79693
L 396.736149 202.417962
L 396.92516 200.847544
L 397.529998 194.082731
L 397.5678 194.151849
L 397.681207 194.894766
L 398.021428 199.63581
L 398.361649 202.805693
L 398.626265 203.480066
L 398.664068 203.514416
L 398.664068 203.514416
" clip-path="url(#p1cb92db9cf)" style="fill: none; stroke: #eaacc7; stroke-width: 1.5; stroke-linecap: round"/>
   </g>
   <g id="line2d_97">
    <path d="M 391.902224 203.557841
L 392.363678 203.375165
L 392.671314 203.055002
L 392.97895 202.419685
L 393.286586 201.282203
L 393.671131 198.864377
L 394.132585 194.298327
L 395.28622 181.65591
L 395.516947 180.779182
L 395.670765 180.680332
L 395.824583 180.950847
L 396.05531 181.956121
L 396.516765 185.384445
L 398.131854 198.415797
L 398.670217 201.174077
L 399.131671 202.475704
L 399.439307 202.831367
L 399.670034 202.865452
L 399.97767 202.641153
L 400.362215 202.005279
L 401.51585 199.821161
L 401.746577 199.773976
L 402.054213 199.971834
L 402.900212 200.792093
L 403.207848 200.718668
L 403.592393 200.322408
L 404.130756 199.79392
L 404.361483 199.788944
L 404.669119 200.072978
L 405.130574 200.988968
L 405.976573 202.777756
L 406.438027 203.291159
L 406.97639 203.534547
L 407.207117 203.574368
L 407.207117 203.574368
" clip-path="url(#p1cb92db9cf)" style="fill: none; stroke: #cc86c1; stroke-width: 1.5; stroke-linecap: round"/>
   </g>
   <g id="line2d_98">
    <path d="M 389.769245 203.544647
L 390.543147 203.362598
L 391.188066 202.977046
L 391.704001 202.39432
L 392.219935 201.464985
L 392.864854 199.730207
L 393.76774 196.438714
L 394.670626 193.258093
L 395.186561 192.164145
L 395.573512 191.88864
L 395.831479 191.988017
L 396.21843 192.544806
L 396.734365 193.920272
L 397.895218 198.142824
L 398.66912 200.490937
L 399.185055 201.502014
L 399.70099 202.029458
L 400.087941 202.129002
L 400.474892 202.008133
L 400.990827 201.576385
L 403.054566 199.438394
L 403.441517 199.412621
L 403.957452 199.62397
L 404.860338 200.353219
L 405.63424 200.86283
L 406.279159 200.992817
L 407.053061 200.845271
L 408.600865 200.445874
L 409.374767 200.518557
L 410.14867 200.849115
L 411.051556 201.521162
L 412.857327 202.971049
L 413.760213 203.365719
L 414.792083 203.552823
L 415.437001 203.592467
L 415.437001 203.592467
" clip-path="url(#p1cb92db9cf)" style="fill: none; stroke: #9361ae; stroke-width: 1.5; stroke-linecap: round"/>
   </g>
   <g id="line2d_99">
    <path d="M 409.566063 203.599661
L 412.302307 203.453138
L 414.19663 203.110367
L 418.406236 202.135447
L 421.984401 201.679984
L 424.510165 201.164914
L 425.562566 201.222335
L 426.614968 201.50501
L 430.193133 202.75019
L 431.245534 202.782714
L 432.508416 202.594893
L 434.823699 201.981092
L 436.086581 201.502695
L 437.138983 200.841377
L 437.980904 200.051954
L 439.243786 198.49235
L 440.506668 196.940024
L 441.138109 196.405153
L 441.769549 196.14711
L 442.40099 196.212385
L 443.032431 196.601123
L 443.663872 197.267554
L 444.716274 198.767149
L 446.400116 201.211313
L 447.452518 202.306598
L 448.294439 202.882944
L 449.34684 203.299953
L 450.609722 203.518194
L 451.451643 203.574858
L 451.451643 203.574858
" clip-path="url(#p1cb92db9cf)" style="fill: none; stroke: #392f62; stroke-width: 1.5; stroke-linecap: round"/>
   </g>
   <g id="patch_19">
    <path d="M 346.47324 203.61376
L 443.73126 203.61376
" style="fill: none; stroke: #262626; stroke-width: 1.2; stroke-linejoin: miter; stroke-linecap: square"/>
   </g>
   <g id="text_36">
    <!-- $\rho=2$ -->
    <g style="fill: #262626" transform="translate(384.14025 122.66424) scale(0.108 -0.108)">
     <use xlink:href="#STIXNonUnicode-Italic-e1e8" transform="translate(0 0.40625)"/>
     <use xlink:href="#STIXGeneral-Regular-3d" transform="translate(68.519992 0.40625)"/>
     <use xlink:href="#STIXGeneral-Regular-1d7e4" transform="translate(152.139975 0.40625)"/>
    </g>
   </g>
  </g>
  <g id="legend_1">
   <g id="line2d_100">
    <path d="M 464.928 154.1655
L 474.528 154.1655
L 484.128 154.1655
" style="fill: none; stroke: #392f62; stroke-width: 1.5; stroke-linecap: round"/>
   </g>
   <g id="text_37">
    <!-- $\alpha_{1}$ -->
    <g style="fill: #262626" transform="translate(486.528 157.5255) scale(0.096 -0.096)">
     <defs>
      <path id="STIXNonUnicode-Italic-e1d8" d="M 3942 2899
L 2918 1427
Q 2931 781 2982 570
Q 3021 390 3270 390
L 3245 294
L 2989 -64
Q 2650 -64 2528 105
Q 2406 275 2381 595
Q 1882 -64 1184 -64
Q 774 -64 537 214
Q 301 493 301 960
Q 301 1709 800 2336
Q 1299 2963 1946 2963
Q 2739 2963 2880 2176
L 3392 2899
L 3942 2899
z
M 2406 1715
Q 2406 2093 2236 2301
Q 2067 2509 1811 2509
Q 1478 2509 1145 2109
Q 813 1709 813 1062
Q 813 749 953 569
Q 1094 390 1318 390
Q 1587 390 1878 652
Q 2170 915 2381 1434
Q 2406 1568 2406 1715
z
" transform="scale(0.015625)"/>
     </defs>
     <use xlink:href="#STIXNonUnicode-Italic-e1d8" transform="translate(0 0.703125)"/>
     <use xlink:href="#STIXGeneral-Regular-1d7e3" transform="translate(59.392686 -12.885937) scale(0.7)"/>
    </g>
   </g>
   <g id="line2d_101">
    <path d="M 464.928 167.5485
L 474.528 167.5485
L 484.128 167.5485
" style="fill: none; stroke: #9361ae; stroke-width: 1.5; stroke-linecap: round"/>
   </g>
   <g id="text_38">
    <!-- $\alpha_{2}$ -->
    <g style="fill: #262626" transform="translate(486.528 170.9085) scale(0.096 -0.096)">
     <use xlink:href="#STIXNonUnicode-Italic-e1d8" transform="translate(0 0.703125)"/>
     <use xlink:href="#STIXGeneral-Regular-1d7e4" transform="translate(59.392686 -12.885937) scale(0.7)"/>
    </g>
   </g>
   <g id="line2d_102">
    <path d="M 464.928 180.9315
L 474.528 180.9315
L 484.128 180.9315
" style="fill: none; stroke: #cc86c1; stroke-width: 1.5; stroke-linecap: round"/>
   </g>
   <g id="text_39">
    <!-- $\alpha_{3}$ -->
    <g style="fill: #262626" transform="translate(486.528 184.2915) scale(0.096 -0.096)">
     <defs>
      <path id="STIXGeneral-Regular-1d7e5" d="M 723 3149
L 269 3258
Q 410 3757 736 4041
Q 1062 4326 1555 4326
Q 2010 4326 2317 4038
Q 2624 3750 2624 3322
Q 2624 2752 2074 2368
Q 2432 2240 2627 1942
Q 2822 1645 2822 1344
Q 2822 723 2419 320
Q 2010 -90 1312 -90
Q 608 -90 198 358
L 499 717
Q 826 365 1280 365
Q 1754 365 2022 595
Q 2317 845 2317 1222
Q 2317 1555 2077 1779
Q 1837 2003 1421 2061
L 1011 2061
L 1011 2195
L 1318 2522
Q 1606 2522 1862 2742
Q 2118 2963 2118 3277
Q 2118 3546 1948 3709
Q 1779 3872 1536 3872
Q 1280 3872 1059 3689
Q 838 3507 723 3149
z
" transform="scale(0.015625)"/>
     </defs>
     <use xlink:href="#STIXNonUnicode-Italic-e1d8" transform="translate(0 0.703125)"/>
     <use xlink:href="#STIXGeneral-Regular-1d7e5" transform="translate(59.392686 -12.885937) scale(0.7)"/>
    </g>
   </g>
   <g id="line2d_103">
    <path d="M 515.04 154.1655
L 524.64 154.1655
L 534.24 154.1655
" style="fill: none; stroke: #eaacc7; stroke-width: 1.5; stroke-linecap: round"/>
   </g>
   <g id="text_40">
    <!-- $\alpha_{4}$ -->
    <g style="fill: #262626" transform="translate(536.64 157.5255) scale(0.096 -0.096)">
     <defs>
      <path id="STIXGeneral-Regular-1d7e6" d="M 3130 1510
L 2918 1056
L 2387 1056
L 2387 0
L 1882 0
L 1882 1056
L 70 1056
L 70 1491
L 2067 4326
L 2387 4326
L 2387 1510
L 3130 1510
z
M 1882 1510
L 1882 3264
L 640 1510
L 1882 1510
z
" transform="scale(0.015625)"/>
     </defs>
     <use xlink:href="#STIXNonUnicode-Italic-e1d8" transform="translate(0 0.703125)"/>
     <use xlink:href="#STIXGeneral-Regular-1d7e6" transform="translate(59.392686 -12.885937) scale(0.7)"/>
    </g>
   </g>
   <g id="line2d_104">
    <path d="M 515.04 167.5485
L 524.64 167.5485
L 534.24 167.5485
" style="fill: none; stroke: #f7d2d4; stroke-width: 1.5; stroke-linecap: round"/>
   </g>
   <g id="text_41">
    <!-- $\alpha_{5}$ -->
    <g style="fill: #262626" transform="translate(536.64 170.9085) scale(0.096 -0.096)">
     <use xlink:href="#STIXNonUnicode-Italic-e1d8" transform="translate(0 0.703125)"/>
     <use xlink:href="#STIXGeneral-Regular-1d7e7" transform="translate(59.392686 -12.885937) scale(0.7)"/>
    </g>
   </g>
  </g>
 </g>
 <defs>
  <clipPath id="p3ed012dd59">
   <rect x="9.51324" y="16.34424" width="97.25802" height="74.94952"/>
  </clipPath>
  <clipPath id="p8968f51964">
   <rect x="121.83324" y="16.34424" width="97.25802" height="74.94952"/>
  </clipPath>
  <clipPath id="p5bc46a219c">
   <rect x="234.15324" y="16.34424" width="97.25802" height="74.94952"/>
  </clipPath>
  <clipPath id="p3758901b62">
   <rect x="346.47324" y="16.34424" width="97.25802" height="74.94952"/>
  </clipPath>
  <clipPath id="p8c32ca4277">
   <rect x="458.79324" y="16.34424" width="97.25802" height="74.94952"/>
  </clipPath>
  <clipPath id="pe21158717b">
   <rect x="9.51324" y="128.66424" width="97.25802" height="74.94952"/>
  </clipPath>
  <clipPath id="p0bf489df2d">
   <rect x="121.83324" y="128.66424" width="97.25802" height="74.94952"/>
  </clipPath>
  <clipPath id="pdc2b023846">
   <rect x="234.15324" y="128.66424" width="97.25802" height="74.94952"/>
  </clipPath>
  <clipPath id="p1cb92db9cf">
   <rect x="346.47324" y="128.66424" width="97.25802" height="74.94952"/>
  </clipPath>
 </defs>
</svg>
