<?xml version="1.0" encoding="utf-8" standalone="no"?>
<!DOCTYPE svg PUBLIC "-//W3C//DTD SVG 1.1//EN"
  "http://www.w3.org/Graphics/SVG/1.1/DTD/svg11.dtd">
<svg xmlns:xlink="http://www.w3.org/1999/xlink" width="194.4pt" height="155.52pt" viewBox="0 0 194.4 155.52" xmlns="http://www.w3.org/2000/svg" version="1.1">
 <metadata>
  <rdf:RDF xmlns:dc="http://purl.org/dc/elements/1.1/" xmlns:cc="http://creativecommons.org/ns#" xmlns:rdf="http://www.w3.org/1999/02/22-rdf-syntax-ns#">
   <cc:Work>
    <dc:type rdf:resource="http://purl.org/dc/dcmitype/StillImage"/>
    <dc:date>2023-03-15T16:08:24.043552</dc:date>
    <dc:format>image/svg+xml</dc:format>
    <dc:creator>
     <cc:Agent>
      <dc:title>Matplotlib v3.6.2, https://matplotlib.org/</dc:title>
     </cc:Agent>
    </dc:creator>
   </cc:Work>
  </rdf:RDF>
 </metadata>
 <defs>
  <style type="text/css">*{stroke-linejoin: round; stroke-linecap: butt}</style>
 </defs>
 <g id="figure_1">
  <g id="patch_1">
   <path d="M 0 155.52
L 194.4 155.52
L 194.4 0
L 0 0
L 0 155.52
z
" style="fill: none"/>
  </g>
  <g id="axes_1">
   <g id="patch_2">
    <path d="M 26.88824 114.68056
L 191.39976 114.68056
L 191.39976 3.00024
L 26.88824 3.00024
L 26.88824 114.68056
z
" style="fill: none"/>
   </g>
   <g id="matplotlib.axis_1">
    <g id="xtick_1">
     <g id="text_1">
      <!-- Correctly -->
      <g style="fill: #262626" transform="translate(35.073077 130.94856) scale(0.096 -0.096)">
       <defs>
        <path id="LMSans8-Regular-43" d="M 3987 294
L 3949 781
C 3750 653 3546 525 3322 454
C 3098 384 2867 378 2637 378
C 2208 378 1811 589 1530 915
C 1222 1280 1075 1747 1075 2221
C 1075 2701 1222 3162 1530 3526
C 1811 3853 2208 4064 2637 4064
C 2842 4064 3046 4045 3245 3987
C 3450 3923 3635 3821 3814 3706
L 3917 4288
C 3712 4358 3501 4422 3283 4461
C 3072 4499 2854 4512 2637 4512
C 2048 4512 1485 4262 1075 3840
C 659 3405 429 2822 429 2221
C 429 1619 659 1037 1075 602
C 1485 179 2048 -64 2637 -64
C 2874 -64 3110 -58 3341 0
C 3571 64 3782 173 3987 294
z
" transform="scale(0.015625)"/>
        <path id="LMSans8-Regular-6f" d="M 3200 1402
C 3200 2246 2528 2938 1696 2938
C 864 2938 192 2240 192 1402
C 192 589 870 -64 1696 -64
C 2528 -64 3200 589 3200 1402
z
M 2643 1472
C 2643 742 2189 378 1696 378
C 1190 378 749 749 749 1472
C 749 2195 1222 2515 1696 2515
C 2176 2515 2643 2182 2643 1472
z
" transform="scale(0.015625)"/>
        <path id="LMSans8-Regular-72" d="M 2221 2432
L 2221 2906
C 1683 2899 1293 2637 1037 2298
L 1037 2886
L 544 2886
L 544 0
L 1082 0
L 1082 1363
C 1082 2054 1658 2426 2221 2432
z
" transform="scale(0.015625)"/>
        <path id="LMSans8-Regular-65" d="M 2816 1402
C 2816 1696 2784 2125 2534 2490
C 2304 2816 1920 2938 1606 2938
C 826 2938 224 2253 224 1440
C 224 621 864 -64 1709 -64
C 2080 -64 2464 45 2790 243
L 2752 698
C 2394 442 1990 358 1715 358
C 1158 358 736 813 717 1402
L 2816 1402
z
M 2426 1786
L 762 1786
C 909 2298 1286 2515 1606 2515
C 1888 2515 2304 2381 2426 1786
z
" transform="scale(0.015625)"/>
        <path id="LMSans8-Regular-63" d="M 2822 230
L 2784 698
C 2464 493 2118 378 1722 378
C 1133 378 787 851 787 1427
C 787 1920 1043 2496 1741 2496
C 2176 2496 2381 2406 2707 2202
L 2790 2662
C 2406 2854 2240 2938 1741 2938
C 781 2938 230 2163 230 1421
C 230 640 845 -64 1715 -64
C 2163 -64 2547 70 2822 230
z
" transform="scale(0.015625)"/>
        <path id="LMSans8-Regular-74" d="M 2266 173
L 2157 582
C 1946 429 1722 378 1542 378
C 1274 378 1203 640 1203 934
L 1203 2438
L 2150 2438
L 2150 2842
L 1203 2842
L 1203 3654
L 710 3654
L 710 2842
L 128 2842
L 128 2438
L 691 2438
L 691 819
C 691 390 800 -64 1261 -64
C 1722 -64 2074 83 2266 173
z
" transform="scale(0.015625)"/>
        <path id="LMSans8-Regular-6c" d="M 1075 0
L 1075 4442
L 538 4442
L 538 0
L 1075 0
z
" transform="scale(0.015625)"/>
        <path id="LMSans8-Regular-79" d="M 3034 2842
L 2515 2842
C 1997 1619 1638 794 1613 403
C 1600 582 1485 902 1370 1203
C 1267 1459 1165 1715 1050 1965
L 646 2842
L 96 2842
L 1421 0
L 1178 -563
C 1043 -832 954 -922 781 -922
C 755 -922 518 -922 243 -806
L 282 -1254
C 339 -1267 576 -1306 774 -1306
C 1030 -1306 1261 -1210 1530 -595
L 3034 2842
z
" transform="scale(0.015625)"/>
       </defs>
       <use xlink:href="#LMSans8-Regular-43"/>
       <use xlink:href="#LMSans8-Regular-6f" x="67.899994"/>
       <use xlink:href="#LMSans8-Regular-72" x="120.999985"/>
       <use xlink:href="#LMSans8-Regular-72" x="157.299973"/>
       <use xlink:href="#LMSans8-Regular-65" x="193.59996"/>
       <use xlink:href="#LMSans8-Regular-63" x="240.799957"/>
       <use xlink:href="#LMSans8-Regular-74" x="287.999954"/>
       <use xlink:href="#LMSans8-Regular-6c" x="326.399948"/>
       <use xlink:href="#LMSans8-Regular-79" x="351.699936"/>
      </g>
      <!-- classified -->
      <g style="fill: #262626" transform="translate(35.581577 140.90316) scale(0.096 -0.096)">
       <defs>
        <path id="LMSans8-Regular-61" d="M 2790 0
L 2790 1843
C 2790 2496 2291 2938 1658 2938
C 1254 2938 947 2854 589 2662
L 627 2195
C 838 2336 1152 2528 1658 2528
C 1939 2528 2234 2317 2234 1837
L 2234 1581
C 1286 1549 352 1350 352 755
C 352 435 570 -64 1133 -64
C 1408 -64 1914 -6 2253 243
L 2253 0
L 2790 0
z
M 2234 909
C 2234 781 2234 614 2010 480
C 1805 365 1555 358 1485 358
C 1133 358 864 518 864 762
C 864 1171 1946 1210 2234 1222
L 2234 909
z
" transform="scale(0.015625)"/>
        <path id="LMSans8-Regular-73" d="M 2451 832
C 2451 947 2438 1197 2170 1440
C 1933 1651 1702 1696 1395 1754
C 1018 1824 723 1882 723 2163
C 723 2528 1190 2528 1286 2528
C 1651 2528 1933 2451 2253 2285
L 2336 2739
C 1901 2918 1581 2938 1350 2938
C 1190 2938 224 2938 224 2086
C 224 1786 390 1619 474 1542
C 698 1318 966 1267 1306 1203
C 1606 1146 1952 1082 1952 774
C 1952 371 1421 371 1331 371
C 922 371 538 518 282 698
L 192 218
C 410 109 800 -64 1331 -64
C 1619 -64 1901 -19 2138 154
C 2374 333 2451 614 2451 832
z
" transform="scale(0.015625)"/>
        <path id="LMSans8-Regular-69" d="M 1075 0
L 1075 2842
L 538 2842
L 538 0
L 1075 0
z
M 1133 3584
L 1133 4230
L 486 4230
L 486 3584
L 1133 3584
z
" transform="scale(0.015625)"/>
        <path id="LMSans8-Regular-66" d="M 2355 3974
L 2355 4442
C 2189 4480 1990 4506 1818 4506
C 1158 4506 678 4032 678 3398
L 678 2842
L 186 2842
L 186 2438
L 678 2438
L 678 0
L 1216 0
L 1216 2438
L 1946 2438
L 1946 2842
L 1197 2842
L 1197 3578
C 1197 4019 1600 4083 1811 4083
C 1946 4083 2118 4064 2355 3974
z
" transform="scale(0.015625)"/>
        <path id="LMSans8-Regular-64" d="M 2963 0
L 2963 4442
L 2426 4442
L 2426 2566
C 2016 2867 1600 2906 1414 2906
C 742 2906 230 2234 230 1421
C 230 608 736 -64 1395 -64
C 1792 -64 2163 115 2406 333
L 2406 0
L 2963 0
z
M 2406 794
C 2246 531 2003 358 1696 358
C 1248 358 787 672 787 1414
C 787 2214 1331 2483 1766 2483
C 2022 2483 2240 2374 2406 2157
L 2406 794
z
" transform="scale(0.015625)"/>
       </defs>
       <use xlink:href="#LMSans8-Regular-63"/>
       <use xlink:href="#LMSans8-Regular-6c" x="47.199997"/>
       <use xlink:href="#LMSans8-Regular-61" x="72.499985"/>
       <use xlink:href="#LMSans8-Regular-73" x="123.499969"/>
       <use xlink:href="#LMSans8-Regular-73" x="164.199966"/>
       <use xlink:href="#LMSans8-Regular-69" x="204.899963"/>
       <use xlink:href="#LMSans8-Regular-66" x="230.199951"/>
       <use xlink:href="#LMSans8-Regular-69" x="262.699936"/>
       <use xlink:href="#LMSans8-Regular-65" x="287.999924"/>
       <use xlink:href="#LMSans8-Regular-64" x="335.199921"/>
      </g>
     </g>
    </g>
    <g id="xtick_2">
     <g id="text_2">
      <!-- Incorrectly -->
      <g style="fill: #262626" transform="translate(86.8525 130.84356) scale(0.096 -0.096)">
       <defs>
        <path id="LMSans8-Regular-49" d="M 1267 0
L 1267 4442
L 621 4442
L 621 0
L 1267 0
z
" transform="scale(0.015625)"/>
        <path id="LMSans8-Regular-6e" d="M 2976 0
L 2976 1894
C 2976 2394 2829 2906 2042 2906
C 1677 2906 1325 2758 1043 2419
L 1043 2886
L 531 2886
L 531 0
L 1088 0
L 1088 1555
C 1088 1978 1267 2483 1760 2483
C 2419 2483 2419 2035 2419 1850
L 2419 0
L 2976 0
z
" transform="scale(0.015625)"/>
       </defs>
       <use xlink:href="#LMSans8-Regular-49"/>
       <use xlink:href="#LMSans8-Regular-6e" x="29.499985"/>
       <use xlink:href="#LMSans8-Regular-63" x="84.399979"/>
       <use xlink:href="#LMSans8-Regular-6f" x="131.599976"/>
       <use xlink:href="#LMSans8-Regular-72" x="184.699966"/>
       <use xlink:href="#LMSans8-Regular-72" x="220.999954"/>
       <use xlink:href="#LMSans8-Regular-65" x="257.299942"/>
       <use xlink:href="#LMSans8-Regular-63" x="304.499939"/>
       <use xlink:href="#LMSans8-Regular-74" x="351.699936"/>
       <use xlink:href="#LMSans8-Regular-6c" x="390.09993"/>
       <use xlink:href="#LMSans8-Regular-79" x="415.399918"/>
      </g>
      <!-- classified -->
      <g style="fill: #262626" transform="translate(90.41875 140.79816) scale(0.096 -0.096)">
       <use xlink:href="#LMSans8-Regular-63"/>
       <use xlink:href="#LMSans8-Regular-6c" x="47.199997"/>
       <use xlink:href="#LMSans8-Regular-61" x="72.499985"/>
       <use xlink:href="#LMSans8-Regular-73" x="123.499969"/>
       <use xlink:href="#LMSans8-Regular-73" x="164.199966"/>
       <use xlink:href="#LMSans8-Regular-69" x="204.899963"/>
       <use xlink:href="#LMSans8-Regular-66" x="230.199951"/>
       <use xlink:href="#LMSans8-Regular-69" x="262.699936"/>
       <use xlink:href="#LMSans8-Regular-65" x="287.999924"/>
       <use xlink:href="#LMSans8-Regular-64" x="335.199921"/>
      </g>
      <!-- as a NN -->
      <g style="fill: #262626" transform="translate(91.69525 150.65676) scale(0.096 -0.096)">
       <defs>
        <path id="LMSans8-Regular-20" transform="scale(0.015625)"/>
        <path id="LMSans8-Regular-4e" d="M 4154 0
L 4154 4442
L 3616 4442
L 3616 506
L 3610 506
L 1510 4442
L 640 4442
L 640 0
L 1178 0
L 1178 3936
L 1184 3936
L 3283 0
L 4154 0
z
" transform="scale(0.015625)"/>
       </defs>
       <use xlink:href="#LMSans8-Regular-61"/>
       <use xlink:href="#LMSans8-Regular-73" x="50.999985"/>
       <use xlink:href="#LMSans8-Regular-20" x="91.699982"/>
       <use xlink:href="#LMSans8-Regular-61" x="127.099976"/>
       <use xlink:href="#LMSans8-Regular-20" x="178.09996"/>
       <use xlink:href="#LMSans8-Regular-4e" x="213.499954"/>
       <use xlink:href="#LMSans8-Regular-4e" x="288.499939"/>
      </g>
     </g>
    </g>
    <g id="xtick_3">
     <g id="text_3">
      <!-- Incorrectly -->
      <g style="fill: #262626" transform="translate(141.689673 130.84356) scale(0.096 -0.096)">
       <use xlink:href="#LMSans8-Regular-49"/>
       <use xlink:href="#LMSans8-Regular-6e" x="29.499985"/>
       <use xlink:href="#LMSans8-Regular-63" x="84.399979"/>
       <use xlink:href="#LMSans8-Regular-6f" x="131.599976"/>
       <use xlink:href="#LMSans8-Regular-72" x="184.699966"/>
       <use xlink:href="#LMSans8-Regular-72" x="220.999954"/>
       <use xlink:href="#LMSans8-Regular-65" x="257.299942"/>
       <use xlink:href="#LMSans8-Regular-63" x="304.499939"/>
       <use xlink:href="#LMSans8-Regular-74" x="351.699936"/>
       <use xlink:href="#LMSans8-Regular-6c" x="390.09993"/>
       <use xlink:href="#LMSans8-Regular-79" x="415.399918"/>
      </g>
      <!-- classified as -->
      <g style="fill: #262626" transform="translate(139.154673 140.79816) scale(0.096 -0.096)">
       <use xlink:href="#LMSans8-Regular-63"/>
       <use xlink:href="#LMSans8-Regular-6c" x="47.199997"/>
       <use xlink:href="#LMSans8-Regular-61" x="72.499985"/>
       <use xlink:href="#LMSans8-Regular-73" x="123.499969"/>
       <use xlink:href="#LMSans8-Regular-73" x="164.199966"/>
       <use xlink:href="#LMSans8-Regular-69" x="204.899963"/>
       <use xlink:href="#LMSans8-Regular-66" x="230.199951"/>
       <use xlink:href="#LMSans8-Regular-69" x="262.699936"/>
       <use xlink:href="#LMSans8-Regular-65" x="287.999924"/>
       <use xlink:href="#LMSans8-Regular-64" x="335.199921"/>
       <use xlink:href="#LMSans8-Regular-20" x="390.099915"/>
       <use xlink:href="#LMSans8-Regular-61" x="425.499908"/>
       <use xlink:href="#LMSans8-Regular-73" x="476.499893"/>
      </g>
      <!-- a non-NN -->
      <g style="fill: #262626" transform="translate(143.114673 150.65676) scale(0.096 -0.096)">
       <defs>
        <path id="LMSans8-Regular-2d" d="M 1882 1222
L 1882 1626
L 77 1626
L 77 1222
L 1882 1222
z
" transform="scale(0.015625)"/>
       </defs>
       <use xlink:href="#LMSans8-Regular-61"/>
       <use xlink:href="#LMSans8-Regular-20" x="50.999985"/>
       <use xlink:href="#LMSans8-Regular-6e" x="86.399979"/>
       <use xlink:href="#LMSans8-Regular-6f" x="141.299973"/>
       <use xlink:href="#LMSans8-Regular-6e" x="194.399963"/>
       <use xlink:href="#LMSans8-Regular-2d" x="249.299957"/>
       <use xlink:href="#LMSans8-Regular-4e" x="284.699951"/>
       <use xlink:href="#LMSans8-Regular-4e" x="359.699936"/>
      </g>
     </g>
    </g>
   </g>
   <g id="matplotlib.axis_2">
    <g id="ytick_1">
     <g id="line2d_1">
      <path d="M 26.88824 114.68056
L 191.39976 114.68056
" clip-path="url(#p2ff171d3ea)" style="fill: none; stroke: #cccccc; stroke-width: 0.9; stroke-linecap: round"/>
     </g>
     <g id="line2d_2"/>
     <g id="text_4">
      <!-- 0 -->
      <g style="fill: #262626" transform="translate(18.29124 118.01206) scale(0.096 -0.096)">
       <defs>
        <path id="LMSans8-Regular-30" d="M 3123 2080
C 3123 2387 3123 3136 2822 3661
C 2496 4237 2003 4333 1696 4333
C 1408 4333 909 4243 589 3693
C 282 3181 269 2483 269 2080
C 269 1606 294 1024 563 538
C 845 19 1318 -134 1696 -134
C 2336 -134 2688 237 2880 640
C 3104 1094 3123 1683 3123 2080
z
M 2566 2163
C 2566 1741 2566 1261 2413 851
C 2234 390 1907 288 1696 288
C 1427 288 1120 442 960 902
C 832 1293 826 1696 826 2163
C 826 2752 826 3910 1696 3910
C 2566 3910 2566 2752 2566 2163
z
" transform="scale(0.015625)"/>
       </defs>
       <use xlink:href="#LMSans8-Regular-30"/>
      </g>
     </g>
    </g>
    <g id="ytick_2">
     <g id="line2d_3">
      <path d="M 26.88824 82.996851
L 191.39976 82.996851
" clip-path="url(#p2ff171d3ea)" style="fill: none; stroke: #cccccc; stroke-width: 0.9; stroke-linecap: round"/>
     </g>
     <g id="line2d_4"/>
     <g id="text_5">
      <!-- 1000 -->
      <g style="fill: #262626" transform="translate(3.00024 86.328351) scale(0.096 -0.096)">
       <defs>
        <path id="LMSans8-Regular-31" d="M 2906 0
L 2906 403
L 2054 403
L 2054 4333
L 1914 4333
C 1498 3949 973 3923 589 3910
L 589 3507
C 838 3514 1158 3526 1478 3654
L 1478 403
L 627 403
L 627 0
L 2906 0
z
" transform="scale(0.015625)"/>
       </defs>
       <use xlink:href="#LMSans8-Regular-31"/>
       <use xlink:href="#LMSans8-Regular-30" x="53.099991"/>
       <use xlink:href="#LMSans8-Regular-30" x="106.199982"/>
       <use xlink:href="#LMSans8-Regular-30" x="159.299973"/>
      </g>
     </g>
    </g>
    <g id="ytick_3">
     <g id="line2d_5">
      <path d="M 26.88824 51.313143
L 191.39976 51.313143
" clip-path="url(#p2ff171d3ea)" style="fill: none; stroke: #cccccc; stroke-width: 0.9; stroke-linecap: round"/>
     </g>
     <g id="line2d_6"/>
     <g id="text_6">
      <!-- 2000 -->
      <g style="fill: #262626" transform="translate(3.00024 54.644643) scale(0.096 -0.096)">
       <defs>
        <path id="LMSans8-Regular-32" d="M 3053 0
L 3053 493
L 1811 493
C 1734 493 1658 486 1581 486
L 851 486
L 1843 1363
C 1958 1466 2272 1702 2394 1805
C 2675 2061 3053 2394 3053 2950
C 3053 3674 2515 4333 1600 4333
C 922 4333 499 3968 282 3315
L 582 2938
C 730 3475 954 3891 1510 3891
C 2048 3891 2458 3514 2458 2938
C 2458 2406 2144 2106 1760 1741
C 1632 1613 1286 1325 1152 1197
C 966 1030 525 602 339 442
L 339 0
L 3053 0
z
" transform="scale(0.015625)"/>
       </defs>
       <use xlink:href="#LMSans8-Regular-32"/>
       <use xlink:href="#LMSans8-Regular-30" x="53.099991"/>
       <use xlink:href="#LMSans8-Regular-30" x="106.199982"/>
       <use xlink:href="#LMSans8-Regular-30" x="159.299973"/>
      </g>
     </g>
    </g>
    <g id="ytick_4">
     <g id="line2d_7">
      <path d="M 26.88824 19.629434
L 191.39976 19.629434
" clip-path="url(#p2ff171d3ea)" style="fill: none; stroke: #cccccc; stroke-width: 0.9; stroke-linecap: round"/>
     </g>
     <g id="line2d_8"/>
     <g id="text_7">
      <!-- 3000 -->
      <g style="fill: #262626" transform="translate(3.00024 22.960934) scale(0.096 -0.096)">
       <defs>
        <path id="LMSans8-Regular-33" d="M 3110 1165
C 3110 1690 2688 2112 2182 2259
C 2669 2509 2918 2938 2918 3354
C 2918 3898 2362 4333 1677 4333
C 1114 4333 646 4038 378 3654
L 640 3283
C 902 3795 1363 3936 1670 3936
C 2048 3936 2330 3718 2330 3354
C 2330 3014 2099 2598 1613 2515
C 1581 2509 1555 2509 1133 2477
L 1133 2054
L 1632 2054
C 2240 2054 2464 1574 2464 1171
C 2464 672 2157 288 1658 288
C 1203 288 685 506 365 915
L 282 499
C 653 83 1171 -134 1670 -134
C 2509 -134 3110 493 3110 1165
z
" transform="scale(0.015625)"/>
       </defs>
       <use xlink:href="#LMSans8-Regular-33"/>
       <use xlink:href="#LMSans8-Regular-30" x="53.099991"/>
       <use xlink:href="#LMSans8-Regular-30" x="106.199982"/>
       <use xlink:href="#LMSans8-Regular-30" x="159.299973"/>
      </g>
     </g>
    </g>
   </g>
   <g id="patch_3">
    <path d="M 32.371957 114.68056
L 76.241696 114.68056
L 76.241696 55.717178
L 32.371957 55.717178
z
" clip-path="url(#p2ff171d3ea)" style="fill: #148a6a; stroke: #ffffff; stroke-width: 0.9; stroke-linejoin: miter"/>
   </g>
   <g id="patch_4">
    <path d="M 87.209131 114.68056
L 131.078869 114.68056
L 131.078869 64.556933
L 87.209131 64.556933
z
" clip-path="url(#p2ff171d3ea)" style="fill: #68afd7; stroke: #ffffff; stroke-width: 0.9; stroke-linejoin: miter"/>
   </g>
   <g id="patch_5">
    <path d="M 142.046304 114.68056
L 185.916043 114.68056
L 185.916043 8.31835
L 142.046304 8.31835
z
" clip-path="url(#p2ff171d3ea)" style="fill: #c9941d; stroke: #ffffff; stroke-width: 0.9; stroke-linejoin: miter"/>
   </g>
   <g id="patch_6">
    <path d="M 26.88824 114.68056
L 191.39976 114.68056
" style="fill: none; stroke: #262626; stroke-width: 1.2; stroke-linejoin: miter; stroke-linecap: square"/>
   </g>
  </g>
 </g>
 <defs>
  <clipPath id="p2ff171d3ea">
   <rect x="26.88824" y="3.00024" width="164.51152" height="111.68032"/>
  </clipPath>
 </defs>
</svg>
