<?xml version="1.0" encoding="utf-8" standalone="no"?>
<!DOCTYPE svg PUBLIC "-//W3C//DTD SVG 1.1//EN"
  "http://www.w3.org/Graphics/SVG/1.1/DTD/svg11.dtd">
<svg xmlns:xlink="http://www.w3.org/1999/xlink" width="288pt" height="162pt" viewBox="0 0 288 162" xmlns="http://www.w3.org/2000/svg" version="1.1">
 <metadata>
  <rdf:RDF xmlns:dc="http://purl.org/dc/elements/1.1/" xmlns:cc="http://creativecommons.org/ns#" xmlns:rdf="http://www.w3.org/1999/02/22-rdf-syntax-ns#">
   <cc:Work>
    <dc:type rdf:resource="http://purl.org/dc/dcmitype/StillImage"/>
    <dc:date>2023-02-11T13:21:49.782075</dc:date>
    <dc:format>image/svg+xml</dc:format>
    <dc:creator>
     <cc:Agent>
      <dc:title>Matplotlib v3.6.2, https://matplotlib.org/</dc:title>
     </cc:Agent>
    </dc:creator>
   </cc:Work>
  </rdf:RDF>
 </metadata>
 <defs>
  <style type="text/css">*{stroke-linejoin: round; stroke-linecap: butt}</style>
 </defs>
 <g id="figure_1">
  <g id="patch_1">
   <path d="M 0 162
L 288 162
L 288 0
L 0 0
z
" style="fill: #ffffff"/>
  </g>
  <g id="axes_1">
   <g id="patch_2">
    <path d="M 30.25149 129.826385
L 284.99976 129.826385
L 284.99976 4.900212
L 30.25149 4.900212
z
" style="fill: #ffffff"/>
   </g>
   <g id="matplotlib.axis_1">
    <g id="xtick_1">
     <g id="line2d_1">
      <defs>
       <path id="ma0959a23c6" d="M 0 0
L 0 4.8
" style="stroke: #262626"/>
      </defs>
      <g>
       <use xlink:href="#ma0959a23c6" x="42.988904" y="129.826385" style="fill: #262626; stroke: #262626"/>
      </g>
     </g>
     <g id="text_1">
      <!-- 1 -->
      <g style="fill: #262626" transform="translate(40.801966 144.39226) scale(0.088 -0.088)">
       <defs>
        <path id="SourceSansPro-Regular-31" d="M 506 0
L 2810 0
L 2810 442
L 1971 442
L 1971 4083
L 1562 4083
C 1338 3949 1069 3846 691 3782
L 691 3437
L 1440 3437
L 1440 442
L 506 442
L 506 0
z
" transform="scale(0.015625)"/>
       </defs>
       <use xlink:href="#SourceSansPro-Regular-31"/>
      </g>
     </g>
    </g>
    <g id="xtick_2">
     <g id="line2d_2">
      <g>
       <use xlink:href="#ma0959a23c6" x="68.463731" y="129.826385" style="fill: #262626; stroke: #262626"/>
      </g>
     </g>
     <g id="text_2">
      <!-- 2 -->
      <g style="fill: #262626" transform="translate(66.276793 144.39226) scale(0.088 -0.088)">
       <defs>
        <path id="SourceSansPro-Regular-32" d="M 256 0
L 2893 0
L 2893 454
L 1670 454
C 1459 454 1210 442 986 422
C 1978 1434 2694 2170 2694 2963
C 2694 3680 2221 4160 1466 4160
C 941 4160 576 3910 237 3526
L 538 3238
C 768 3507 1062 3725 1402 3725
C 1920 3725 2176 3398 2176 2931
C 2176 2272 1472 1517 256 326
L 256 0
z
" transform="scale(0.015625)"/>
       </defs>
       <use xlink:href="#SourceSansPro-Regular-32"/>
      </g>
     </g>
    </g>
    <g id="xtick_3">
     <g id="line2d_3">
      <g>
       <use xlink:href="#ma0959a23c6" x="93.938558" y="129.826385" style="fill: #262626; stroke: #262626"/>
      </g>
     </g>
     <g id="text_3">
      <!-- 3 -->
      <g style="fill: #262626" transform="translate(91.75162 144.39226) scale(0.088 -0.088)">
       <defs>
        <path id="SourceSansPro-Regular-33" d="M 1510 -77
C 2259 -77 2861 365 2861 1088
C 2861 1651 2470 2010 1978 2125
L 1978 2150
C 2419 2317 2714 2630 2714 3123
C 2714 3782 2202 4160 1491 4160
C 1011 4160 634 3942 320 3648
L 602 3315
C 845 3552 1133 3725 1472 3725
C 1907 3725 2176 3475 2176 3085
C 2176 2656 1882 2323 1018 2323
L 1018 1920
C 1990 1920 2323 1594 2323 1107
C 2323 653 1971 365 1478 365
C 998 365 678 589 435 845
L 166 499
C 442 198 858 -77 1510 -77
z
" transform="scale(0.015625)"/>
       </defs>
       <use xlink:href="#SourceSansPro-Regular-33"/>
      </g>
     </g>
    </g>
    <g id="xtick_4">
     <g id="line2d_4">
      <g>
       <use xlink:href="#ma0959a23c6" x="119.413385" y="129.826385" style="fill: #262626; stroke: #262626"/>
      </g>
     </g>
     <g id="text_4">
      <!-- 4 -->
      <g style="fill: #262626" transform="translate(117.226447 144.39226) scale(0.088 -0.088)">
       <defs>
        <path id="SourceSansPro-Regular-34" d="M 666 1549
L 1619 2938
C 1734 3142 1850 3322 1952 3514
L 1978 3514
C 1965 3296 1946 2944 1946 2733
L 1946 1549
L 666 1549
z
M 1946 0
L 2445 0
L 2445 1126
L 3002 1126
L 3002 1549
L 2445 1549
L 2445 4083
L 1856 4083
L 109 1478
L 109 1126
L 1946 1126
L 1946 0
z
" transform="scale(0.015625)"/>
       </defs>
       <use xlink:href="#SourceSansPro-Regular-34"/>
      </g>
     </g>
    </g>
    <g id="xtick_5">
     <g id="line2d_5">
      <g>
       <use xlink:href="#ma0959a23c6" x="144.888212" y="129.826385" style="fill: #262626; stroke: #262626"/>
      </g>
     </g>
     <g id="text_5">
      <!-- 5 -->
      <g style="fill: #262626" transform="translate(142.701274 144.39226) scale(0.088 -0.088)">
       <defs>
        <path id="SourceSansPro-Regular-35" d="M 1498 -77
C 2208 -77 2874 422 2874 1306
C 2874 2189 2304 2586 1613 2586
C 1363 2586 1178 2522 986 2419
L 1094 3622
L 2675 3622
L 2675 4083
L 627 4083
L 493 2118
L 774 1939
C 1018 2099 1190 2182 1472 2182
C 1997 2182 2336 1856 2336 1293
C 2336 723 1946 365 1446 365
C 966 365 659 589 416 832
L 160 480
C 442 198 845 -77 1498 -77
z
" transform="scale(0.015625)"/>
       </defs>
       <use xlink:href="#SourceSansPro-Regular-35"/>
      </g>
     </g>
    </g>
    <g id="xtick_6">
     <g id="line2d_6">
      <g>
       <use xlink:href="#ma0959a23c6" x="170.363039" y="129.826385" style="fill: #262626; stroke: #262626"/>
      </g>
     </g>
     <g id="text_6">
      <!-- 6 -->
      <g style="fill: #262626" transform="translate(168.176101 144.39226) scale(0.088 -0.088)">
       <defs>
        <path id="SourceSansPro-Regular-36" d="M 1670 2099
C 2176 2099 2426 1766 2426 1235
C 2426 698 2118 339 1715 339
C 1203 339 890 762 819 1555
C 1075 1939 1408 2099 1670 2099
z
M 1715 -77
C 2374 -77 2925 454 2925 1235
C 2925 2074 2470 2496 1760 2496
C 1427 2496 1062 2291 806 1971
C 826 3270 1312 3718 1882 3718
C 2138 3718 2394 3590 2554 3392
L 2848 3725
C 2624 3974 2304 4160 1862 4160
C 1050 4160 307 3526 307 1888
C 307 576 915 -77 1715 -77
z
" transform="scale(0.015625)"/>
       </defs>
       <use xlink:href="#SourceSansPro-Regular-36"/>
      </g>
     </g>
    </g>
    <g id="xtick_7">
     <g id="line2d_7">
      <g>
       <use xlink:href="#ma0959a23c6" x="195.837866" y="129.826385" style="fill: #262626; stroke: #262626"/>
      </g>
     </g>
     <g id="text_7">
      <!-- 7 -->
      <g style="fill: #262626" transform="translate(193.650928 144.39226) scale(0.088 -0.088)">
       <defs>
        <path id="SourceSansPro-Regular-37" d="M 1094 0
L 1638 0
C 1709 1594 1933 2515 2912 3757
L 2912 4083
L 282 4083
L 282 3622
L 2317 3622
C 1491 2496 1165 1536 1094 0
z
" transform="scale(0.015625)"/>
       </defs>
       <use xlink:href="#SourceSansPro-Regular-37"/>
      </g>
     </g>
    </g>
    <g id="xtick_8">
     <g id="line2d_8">
      <g>
       <use xlink:href="#ma0959a23c6" x="221.312693" y="129.826385" style="fill: #262626; stroke: #262626"/>
      </g>
     </g>
     <g id="text_8">
      <!-- 8 -->
      <g style="fill: #262626" transform="translate(219.125755 144.39226) scale(0.088 -0.088)">
       <defs>
        <path id="SourceSansPro-Regular-38" d="M 1600 -77
C 2394 -77 2918 403 2918 1011
C 2918 1562 2573 1850 2208 2061
L 2208 2086
C 2464 2278 2771 2643 2771 3072
C 2771 3706 2330 4160 1619 4160
C 960 4160 461 3738 461 3110
C 461 2682 730 2381 1030 2170
L 1030 2144
C 646 1939 262 1574 262 1043
C 262 397 832 -77 1600 -77
z
M 1888 2227
C 1395 2419 947 2624 947 3110
C 947 3507 1229 3763 1606 3763
C 2054 3763 2317 3443 2317 3046
C 2317 2746 2163 2470 1888 2227
z
M 1613 320
C 1114 320 742 646 742 1094
C 742 1466 986 1766 1306 1978
C 1894 1741 2413 1555 2413 1030
C 2413 608 2086 320 1613 320
z
" transform="scale(0.015625)"/>
       </defs>
       <use xlink:href="#SourceSansPro-Regular-38"/>
      </g>
     </g>
    </g>
    <g id="xtick_9">
     <g id="line2d_9">
      <g>
       <use xlink:href="#ma0959a23c6" x="246.78752" y="129.826385" style="fill: #262626; stroke: #262626"/>
      </g>
     </g>
     <g id="text_9">
      <!-- 9 -->
      <g style="fill: #262626" transform="translate(244.600582 144.39226) scale(0.088 -0.088)">
       <defs>
        <path id="SourceSansPro-Regular-39" d="M 755 2848
C 755 3386 1062 3738 1459 3738
C 1978 3738 2291 3315 2355 2522
C 2099 2144 1773 1984 1504 1984
C 1005 1984 755 2317 755 2848
z
M 1312 -77
C 2131 -77 2874 557 2874 2195
C 2874 3507 2266 4160 1459 4160
C 806 4160 256 3629 256 2848
C 256 2010 710 1587 1414 1587
C 1747 1587 2112 1779 2368 2099
C 2342 806 1869 365 1293 365
C 1037 365 787 493 621 685
L 326 352
C 550 109 877 -77 1312 -77
z
" transform="scale(0.015625)"/>
       </defs>
       <use xlink:href="#SourceSansPro-Regular-39"/>
      </g>
     </g>
    </g>
    <g id="xtick_10">
     <g id="line2d_10">
      <g>
       <use xlink:href="#ma0959a23c6" x="272.262347" y="129.826385" style="fill: #262626; stroke: #262626"/>
      </g>
     </g>
     <g id="text_10">
      <!-- 10 -->
      <g style="fill: #262626" transform="translate(267.888472 144.39226) scale(0.088 -0.088)">
       <defs>
        <path id="SourceSansPro-Regular-30" d="M 1594 -77
C 2406 -77 2899 685 2899 2054
C 2899 3424 2406 4160 1594 4160
C 774 4160 282 3424 282 2054
C 282 685 774 -77 1594 -77
z
M 1594 352
C 1120 352 800 858 800 2054
C 800 3251 1120 3731 1594 3731
C 2067 3731 2387 3251 2387 2054
C 2387 858 2067 352 1594 352
z
" transform="scale(0.015625)"/>
       </defs>
       <use xlink:href="#SourceSansPro-Regular-31"/>
       <use xlink:href="#SourceSansPro-Regular-30" x="49.699997"/>
      </g>
     </g>
    </g>
    <g id="text_11">
     <!-- $k$ -->
     <g style="fill: #262626" transform="translate(155.225625 157.03176) scale(0.096 -0.096)">
      <defs>
       <path id="SourceSansPro-Regular-6b" d="M 525 0
L 1050 0
L 1050 819
L 1626 1491
L 2534 0
L 3110 0
L 1939 1856
L 2976 3110
L 2381 3110
L 1069 1485
L 1050 1485
L 1050 4557
L 525 4557
L 525 0
z
" transform="scale(0.015625)"/>
      </defs>
      <use xlink:href="#SourceSansPro-Regular-6b" transform="translate(0 0.796875)"/>
     </g>
    </g>
   </g>
   <g id="matplotlib.axis_2">
    <g id="ytick_1">
     <g id="line2d_11">
      <path d="M 30.25149 105.088529
L 284.99976 105.088529
" clip-path="url(#p111910871b)" style="fill: none; stroke: #cccccc; stroke-width: 0.8; stroke-linecap: round"/>
     </g>
     <g id="line2d_12"/>
     <g id="text_12">
      <!-- 0.2 -->
      <g style="fill: #262626" transform="translate(15.80374 108.221466) scale(0.088 -0.088)">
       <defs>
        <path id="SourceSansPro-Regular-2e" d="M 800 -77
C 1011 -77 1184 90 1184 326
C 1184 570 1011 736 800 736
C 589 736 416 570 416 326
C 416 90 589 -77 800 -77
z
" transform="scale(0.015625)"/>
       </defs>
       <use xlink:href="#SourceSansPro-Regular-30"/>
       <use xlink:href="#SourceSansPro-Regular-2e" x="49.699997"/>
       <use xlink:href="#SourceSansPro-Regular-32" x="74.699982"/>
      </g>
     </g>
    </g>
    <g id="ytick_2">
     <g id="line2d_13">
      <path d="M 30.25149 80.350673
L 284.99976 80.350673
" clip-path="url(#p111910871b)" style="fill: none; stroke: #cccccc; stroke-width: 0.8; stroke-linecap: round"/>
     </g>
     <g id="line2d_14"/>
     <g id="text_13">
      <!-- 0.4 -->
      <g style="fill: #262626" transform="translate(15.80374 83.48361) scale(0.088 -0.088)">
       <use xlink:href="#SourceSansPro-Regular-30"/>
       <use xlink:href="#SourceSansPro-Regular-2e" x="49.699997"/>
       <use xlink:href="#SourceSansPro-Regular-34" x="74.699982"/>
      </g>
     </g>
    </g>
    <g id="ytick_3">
     <g id="line2d_15">
      <path d="M 30.25149 55.612817
L 284.99976 55.612817
" clip-path="url(#p111910871b)" style="fill: none; stroke: #cccccc; stroke-width: 0.8; stroke-linecap: round"/>
     </g>
     <g id="line2d_16"/>
     <g id="text_14">
      <!-- 0.6 -->
      <g style="fill: #262626" transform="translate(15.80374 58.745754) scale(0.088 -0.088)">
       <use xlink:href="#SourceSansPro-Regular-30"/>
       <use xlink:href="#SourceSansPro-Regular-2e" x="49.699997"/>
       <use xlink:href="#SourceSansPro-Regular-36" x="74.699982"/>
      </g>
     </g>
    </g>
    <g id="ytick_4">
     <g id="line2d_17">
      <path d="M 30.25149 30.874961
L 284.99976 30.874961
" clip-path="url(#p111910871b)" style="fill: none; stroke: #cccccc; stroke-width: 0.8; stroke-linecap: round"/>
     </g>
     <g id="line2d_18"/>
     <g id="text_15">
      <!-- 0.8 -->
      <g style="fill: #262626" transform="translate(15.80374 34.007898) scale(0.088 -0.088)">
       <use xlink:href="#SourceSansPro-Regular-30"/>
       <use xlink:href="#SourceSansPro-Regular-2e" x="49.699997"/>
       <use xlink:href="#SourceSansPro-Regular-38" x="74.699982"/>
      </g>
     </g>
    </g>
    <g id="ytick_5">
     <g id="line2d_19">
      <path d="M 30.25149 6.137105
L 284.99976 6.137105
" clip-path="url(#p111910871b)" style="fill: none; stroke: #cccccc; stroke-width: 0.8; stroke-linecap: round"/>
     </g>
     <g id="line2d_20"/>
     <g id="text_16">
      <!-- 1.0 -->
      <g style="fill: #262626" transform="translate(15.80374 9.270042) scale(0.088 -0.088)">
       <use xlink:href="#SourceSansPro-Regular-31"/>
       <use xlink:href="#SourceSansPro-Regular-2e" x="49.699997"/>
       <use xlink:href="#SourceSansPro-Regular-30" x="74.699982"/>
      </g>
     </g>
    </g>
    <g id="text_17">
     <!-- Accuracy -->
     <g style="fill: #262626" transform="translate(9.79674 85.487798) rotate(-90) scale(0.096 -0.096)">
      <defs>
       <path id="SourceSansPro-Regular-41" d="M 1306 2342
C 1453 2810 1587 3270 1715 3757
L 1741 3757
C 1875 3270 2010 2810 2163 2342
L 2362 1709
L 1107 1709
L 1306 2342
z
M 19 0
L 563 0
L 966 1274
L 2496 1274
L 2893 0
L 3462 0
L 2048 4198
L 1434 4198
L 19 0
z
" transform="scale(0.015625)"/>
       <path id="SourceSansPro-Regular-63" d="M 1754 -77
C 2125 -77 2477 64 2758 320
L 2528 659
C 2342 493 2086 365 1798 365
C 1229 365 845 838 845 1549
C 845 2266 1254 2746 1818 2746
C 2067 2746 2266 2650 2438 2490
L 2701 2822
C 2483 3027 2202 3187 1792 3187
C 992 3187 294 2592 294 1549
C 294 518 928 -77 1754 -77
z
" transform="scale(0.015625)"/>
       <path id="SourceSansPro-Regular-75" d="M 1434 -77
C 1862 -77 2170 147 2458 486
L 2477 486
L 2522 0
L 2957 0
L 2957 3110
L 2426 3110
L 2426 909
C 2138 544 1914 384 1600 384
C 1190 384 1011 634 1011 1210
L 1011 3110
L 480 3110
L 480 1139
C 480 346 774 -77 1434 -77
z
" transform="scale(0.015625)"/>
       <path id="SourceSansPro-Regular-72" d="M 525 0
L 1056 0
L 1056 1997
C 1267 2522 1581 2707 1843 2707
C 1965 2707 2035 2694 2125 2669
L 2240 3123
C 2144 3168 2048 3187 1907 3187
C 1562 3187 1242 2938 1024 2547
L 1005 2547
L 960 3110
L 525 3110
L 525 0
z
" transform="scale(0.015625)"/>
       <path id="SourceSansPro-Regular-61" d="M 1242 -77
C 1632 -77 1971 122 2266 371
L 2285 371
L 2336 0
L 2771 0
L 2771 1914
C 2771 2682 2445 3187 1690 3187
C 1190 3187 755 2976 467 2784
L 672 2426
C 915 2586 1242 2746 1600 2746
C 2106 2746 2234 2368 2240 1978
C 909 1830 333 1498 333 806
C 333 243 723 -77 1242 -77
z
M 1389 358
C 1088 358 851 493 851 838
C 851 1242 1190 1478 2240 1600
L 2240 755
C 1939 493 1690 358 1389 358
z
" transform="scale(0.015625)"/>
       <path id="SourceSansPro-Regular-79" d="M 582 -1338
C 1203 -1338 1530 -870 1747 -256
L 2918 3110
L 2400 3110
L 1843 1395
C 1760 1120 1670 800 1587 518
L 1562 518
C 1459 806 1357 1126 1254 1395
L 627 3110
L 77 3110
L 1325 -6
L 1254 -237
C 1126 -621 902 -896 557 -896
C 480 -896 403 -883 326 -858
L 211 -1274
C 314 -1312 435 -1338 582 -1338
z
" transform="scale(0.015625)"/>
      </defs>
      <use xlink:href="#SourceSansPro-Regular-41"/>
      <use xlink:href="#SourceSansPro-Regular-63" x="54.399994"/>
      <use xlink:href="#SourceSansPro-Regular-63" x="99.999985"/>
      <use xlink:href="#SourceSansPro-Regular-75" x="145.599976"/>
      <use xlink:href="#SourceSansPro-Regular-72" x="199.999969"/>
      <use xlink:href="#SourceSansPro-Regular-61" x="234.799957"/>
      <use xlink:href="#SourceSansPro-Regular-63" x="285.199951"/>
      <use xlink:href="#SourceSansPro-Regular-79" x="330.799942"/>
     </g>
    </g>
   </g>
   <g id="line2d_21">
    <path d="M 37.893938 86.855245
L 63.368765 81.657574
L 88.843592 72.754914
L 114.318419 72.101835
L 139.793246 71.650122
L 165.268073 71.292659
L 190.7429 71.295381
L 216.217727 71.098962
L 241.692554 70.903038
L 267.167381 70.610884
" clip-path="url(#p111910871b)" style="fill: none; stroke: #000000; stroke-width: 2.16; stroke-linecap: round"/>
   </g>
   <g id="line2d_22">
    <path d="M 37.893938 95.682207
L 37.893938 78.028283
" clip-path="url(#p111910871b)" style="fill: none; stroke: #000000; stroke-width: 2.16; stroke-linecap: round"/>
   </g>
   <g id="line2d_23">
    <path d="M 63.368765 88.909934
L 63.368765 74.733132
" clip-path="url(#p111910871b)" style="fill: none; stroke: #000000; stroke-width: 2.16; stroke-linecap: round"/>
   </g>
   <g id="line2d_24">
    <path d="M 88.843592 73.027068
L 88.843592 72.479817
" clip-path="url(#p111910871b)" style="fill: none; stroke: #000000; stroke-width: 2.16; stroke-linecap: round"/>
   </g>
   <g id="line2d_25">
    <path d="M 114.318419 72.436717
L 114.318419 71.736883
" clip-path="url(#p111910871b)" style="fill: none; stroke: #000000; stroke-width: 2.16; stroke-linecap: round"/>
   </g>
   <g id="line2d_26">
    <path d="M 139.793246 71.925027
L 139.793246 71.387146
" clip-path="url(#p111910871b)" style="fill: none; stroke: #000000; stroke-width: 2.16; stroke-linecap: round"/>
   </g>
   <g id="line2d_27">
    <path d="M 165.268073 71.735009
L 165.268073 70.902018
" clip-path="url(#p111910871b)" style="fill: none; stroke: #000000; stroke-width: 2.16; stroke-linecap: round"/>
   </g>
   <g id="line2d_28">
    <path d="M 190.7429 71.595129
L 190.7429 70.989361
" clip-path="url(#p111910871b)" style="fill: none; stroke: #000000; stroke-width: 2.16; stroke-linecap: round"/>
   </g>
   <g id="line2d_29">
    <path d="M 216.217727 71.363948
L 216.217727 70.858318
" clip-path="url(#p111910871b)" style="fill: none; stroke: #000000; stroke-width: 2.16; stroke-linecap: round"/>
   </g>
   <g id="line2d_30">
    <path d="M 241.692554 71.202917
L 241.692554 70.588274
" clip-path="url(#p111910871b)" style="fill: none; stroke: #000000; stroke-width: 2.16; stroke-linecap: round"/>
   </g>
   <g id="line2d_31">
    <path d="M 267.167381 70.861578
L 267.167381 70.38747
" clip-path="url(#p111910871b)" style="fill: none; stroke: #000000; stroke-width: 2.16; stroke-linecap: round"/>
   </g>
   <g id="PathCollection_1">
    <defs>
     <path id="m5c949fccf2" d="M -2.707159 2.707159
L 2.707159 -2.707159
M -2.707159 -2.707159
L 2.707159 2.707159
" style="stroke: #000000; stroke-width: 1.62"/>
    </defs>
    <g clip-path="url(#p111910871b)">
     <use xlink:href="#m5c949fccf2" x="37.893938" y="86.855245" style="stroke: #000000; stroke-width: 1.62"/>
     <use xlink:href="#m5c949fccf2" x="63.368765" y="81.657574" style="stroke: #000000; stroke-width: 1.62"/>
     <use xlink:href="#m5c949fccf2" x="88.843592" y="72.754914" style="stroke: #000000; stroke-width: 1.62"/>
     <use xlink:href="#m5c949fccf2" x="114.318419" y="72.101835" style="stroke: #000000; stroke-width: 1.62"/>
     <use xlink:href="#m5c949fccf2" x="139.793246" y="71.650122" style="stroke: #000000; stroke-width: 1.62"/>
     <use xlink:href="#m5c949fccf2" x="165.268073" y="71.292659" style="stroke: #000000; stroke-width: 1.62"/>
     <use xlink:href="#m5c949fccf2" x="190.7429" y="71.295381" style="stroke: #000000; stroke-width: 1.62"/>
     <use xlink:href="#m5c949fccf2" x="216.217727" y="71.098962" style="stroke: #000000; stroke-width: 1.62"/>
     <use xlink:href="#m5c949fccf2" x="241.692554" y="70.903038" style="stroke: #000000; stroke-width: 1.62"/>
     <use xlink:href="#m5c949fccf2" x="267.167381" y="70.610884" style="stroke: #000000; stroke-width: 1.62"/>
    </g>
   </g>
   <g id="line2d_32">
    <path d="M 30.25149 129.826385
L 284.99976 129.826385
" clip-path="url(#p111910871b)" style="fill: none; stroke: #000000; stroke-width: 1.2; stroke-linecap: round"/>
   </g>
   <g id="line2d_33">
    <path d="M 41.290582 94.363941
L 66.765409 71.457777
L 92.240236 76.696382
L 117.715063 77.544018
L 143.18989 76.338047
L 168.664717 76.625443
L 194.139544 76.081574
L 219.614371 75.903316
L 245.089198 77.096553
L 270.564025 76.852813
" clip-path="url(#p111910871b)" style="fill: none; stroke: #e69f00; stroke-width: 2.16; stroke-linecap: round"/>
   </g>
   <g id="line2d_34">
    <path d="M 41.290582 114.920008
L 41.290582 73.973399
" clip-path="url(#p111910871b)" style="fill: none; stroke: #e69f00; stroke-width: 2.16; stroke-linecap: round"/>
   </g>
   <g id="line2d_35">
    <path d="M 66.765409 76.264106
L 66.765409 65.829642
" clip-path="url(#p111910871b)" style="fill: none; stroke: #e69f00; stroke-width: 2.16; stroke-linecap: round"/>
   </g>
   <g id="line2d_36">
    <path d="M 92.240236 78.373736
L 92.240236 75.112023
" clip-path="url(#p111910871b)" style="fill: none; stroke: #e69f00; stroke-width: 2.16; stroke-linecap: round"/>
   </g>
   <g id="line2d_37">
    <path d="M 117.715063 79.232149
L 117.715063 75.916003
" clip-path="url(#p111910871b)" style="fill: none; stroke: #e69f00; stroke-width: 2.16; stroke-linecap: round"/>
   </g>
   <g id="line2d_38">
    <path d="M 143.18989 77.464302
L 143.18989 75.268499
" clip-path="url(#p111910871b)" style="fill: none; stroke: #e69f00; stroke-width: 2.16; stroke-linecap: round"/>
   </g>
   <g id="line2d_39">
    <path d="M 168.664717 77.89153
L 168.664717 75.340939
" clip-path="url(#p111910871b)" style="fill: none; stroke: #e69f00; stroke-width: 2.16; stroke-linecap: round"/>
   </g>
   <g id="line2d_40">
    <path d="M 194.139544 77.585899
L 194.139544 74.77506
" clip-path="url(#p111910871b)" style="fill: none; stroke: #e69f00; stroke-width: 2.16; stroke-linecap: round"/>
   </g>
   <g id="line2d_41">
    <path d="M 219.614371 76.987234
L 219.614371 74.837223
" clip-path="url(#p111910871b)" style="fill: none; stroke: #e69f00; stroke-width: 2.16; stroke-linecap: round"/>
   </g>
   <g id="line2d_42">
    <path d="M 245.089198 78.722749
L 245.089198 75.509693
" clip-path="url(#p111910871b)" style="fill: none; stroke: #e69f00; stroke-width: 2.16; stroke-linecap: round"/>
   </g>
   <g id="line2d_43">
    <path d="M 270.564025 77.613229
L 270.564025 76.13064
" clip-path="url(#p111910871b)" style="fill: none; stroke: #e69f00; stroke-width: 2.16; stroke-linecap: round"/>
   </g>
   <g id="PathCollection_2">
    <defs>
     <path id="mabe453eed3" d="M 0 1.353579
C 0.358973 1.353579 0.703293 1.210958 0.957125 0.957125
C 1.210958 0.703293 1.353579 0.358973 1.353579 0
C 1.353579 -0.358973 1.210958 -0.703293 0.957125 -0.957125
C 0.703293 -1.210958 0.358973 -1.353579 0 -1.353579
C -0.358973 -1.353579 -0.703293 -1.210958 -0.957125 -0.957125
C -1.210958 -0.703293 -1.353579 -0.358973 -1.353579 0
C -1.353579 0.358973 -1.210958 0.703293 -0.957125 0.957125
C -0.703293 1.210958 -0.358973 1.353579 0 1.353579
z
" style="stroke: #e69f00; stroke-width: 1.62"/>
    </defs>
    <g clip-path="url(#p111910871b)">
     <use xlink:href="#mabe453eed3" x="41.290582" y="94.363941" style="fill: #e69f00; stroke: #e69f00; stroke-width: 1.62"/>
     <use xlink:href="#mabe453eed3" x="66.765409" y="71.457777" style="fill: #e69f00; stroke: #e69f00; stroke-width: 1.62"/>
     <use xlink:href="#mabe453eed3" x="92.240236" y="76.696382" style="fill: #e69f00; stroke: #e69f00; stroke-width: 1.62"/>
     <use xlink:href="#mabe453eed3" x="117.715063" y="77.544018" style="fill: #e69f00; stroke: #e69f00; stroke-width: 1.62"/>
     <use xlink:href="#mabe453eed3" x="143.18989" y="76.338047" style="fill: #e69f00; stroke: #e69f00; stroke-width: 1.62"/>
     <use xlink:href="#mabe453eed3" x="168.664717" y="76.625443" style="fill: #e69f00; stroke: #e69f00; stroke-width: 1.62"/>
     <use xlink:href="#mabe453eed3" x="194.139544" y="76.081574" style="fill: #e69f00; stroke: #e69f00; stroke-width: 1.62"/>
     <use xlink:href="#mabe453eed3" x="219.614371" y="75.903316" style="fill: #e69f00; stroke: #e69f00; stroke-width: 1.62"/>
     <use xlink:href="#mabe453eed3" x="245.089198" y="77.096553" style="fill: #e69f00; stroke: #e69f00; stroke-width: 1.62"/>
     <use xlink:href="#mabe453eed3" x="270.564025" y="76.852813" style="fill: #e69f00; stroke: #e69f00; stroke-width: 1.62"/>
    </g>
   </g>
   <g id="patch_3">
    <path d="M 30.25149 129.826385
L 284.99976 129.826385
" style="fill: none; stroke: #262626; stroke-linejoin: miter; stroke-linecap: square"/>
   </g>
   <g id="line2d_44">
    <path d="M 44.687225 93.416806
L 70.162052 91.652103
L 95.636879 81.239996
L 121.111706 80.314005
L 146.586533 80.009817
L 172.06136 79.485623
L 197.536187 79.555859
L 223.011014 79.428297
L 248.485841 78.954714
L 273.960668 78.588553
" clip-path="url(#p111910871b)" style="fill: none; stroke: #56b4e9; stroke-width: 2.16; stroke-linecap: round"/>
   </g>
   <g id="line2d_45">
    <path d="M 44.687225 106.292886
L 44.687225 80.41936
" clip-path="url(#p111910871b)" style="fill: none; stroke: #56b4e9; stroke-width: 2.16; stroke-linecap: round"/>
   </g>
   <g id="line2d_46">
    <path d="M 70.162052 100.366039
L 70.162052 83.461536
" clip-path="url(#p111910871b)" style="fill: none; stroke: #56b4e9; stroke-width: 2.16; stroke-linecap: round"/>
   </g>
   <g id="line2d_47">
    <path d="M 95.636879 81.651902
L 95.636879 80.737931
" clip-path="url(#p111910871b)" style="fill: none; stroke: #56b4e9; stroke-width: 2.16; stroke-linecap: round"/>
   </g>
   <g id="line2d_48">
    <path d="M 121.111706 81.002908
L 121.111706 79.567583
" clip-path="url(#p111910871b)" style="fill: none; stroke: #56b4e9; stroke-width: 2.16; stroke-linecap: round"/>
   </g>
   <g id="line2d_49">
    <path d="M 146.586533 80.439605
L 146.586533 79.619899
" clip-path="url(#p111910871b)" style="fill: none; stroke: #56b4e9; stroke-width: 2.16; stroke-linecap: round"/>
   </g>
   <g id="line2d_50">
    <path d="M 172.06136 80.323095
L 172.06136 78.774409
" clip-path="url(#p111910871b)" style="fill: none; stroke: #56b4e9; stroke-width: 2.16; stroke-linecap: round"/>
   </g>
   <g id="line2d_51">
    <path d="M 197.536187 80.166159
L 197.536187 79.017191
" clip-path="url(#p111910871b)" style="fill: none; stroke: #56b4e9; stroke-width: 2.16; stroke-linecap: round"/>
   </g>
   <g id="line2d_52">
    <path d="M 223.011014 79.864695
L 223.011014 79.000019
" clip-path="url(#p111910871b)" style="fill: none; stroke: #56b4e9; stroke-width: 2.16; stroke-linecap: round"/>
   </g>
   <g id="line2d_53">
    <path d="M 248.485841 79.551857
L 248.485841 78.332885
" clip-path="url(#p111910871b)" style="fill: none; stroke: #56b4e9; stroke-width: 2.16; stroke-linecap: round"/>
   </g>
   <g id="line2d_54">
    <path d="M 273.960668 79.035822
L 273.960668 78.225942
" clip-path="url(#p111910871b)" style="fill: none; stroke: #56b4e9; stroke-width: 2.16; stroke-linecap: round"/>
   </g>
   <g id="PathCollection_3">
    <defs>
     <path id="m5aeb3baad7" d="M -0 3.8285
L 2.2971 0
L 0 -3.8285
L -2.2971 -0
z
" style="stroke: #56b4e9; stroke-width: 1.62"/>
    </defs>
    <g clip-path="url(#p111910871b)">
     <use xlink:href="#m5aeb3baad7" x="44.687225" y="93.416806" style="fill: #56b4e9; stroke: #56b4e9; stroke-width: 1.62"/>
     <use xlink:href="#m5aeb3baad7" x="70.162052" y="91.652103" style="fill: #56b4e9; stroke: #56b4e9; stroke-width: 1.62"/>
     <use xlink:href="#m5aeb3baad7" x="95.636879" y="81.239996" style="fill: #56b4e9; stroke: #56b4e9; stroke-width: 1.62"/>
     <use xlink:href="#m5aeb3baad7" x="121.111706" y="80.314005" style="fill: #56b4e9; stroke: #56b4e9; stroke-width: 1.62"/>
     <use xlink:href="#m5aeb3baad7" x="146.586533" y="80.009817" style="fill: #56b4e9; stroke: #56b4e9; stroke-width: 1.62"/>
     <use xlink:href="#m5aeb3baad7" x="172.06136" y="79.485623" style="fill: #56b4e9; stroke: #56b4e9; stroke-width: 1.62"/>
     <use xlink:href="#m5aeb3baad7" x="197.536187" y="79.555859" style="fill: #56b4e9; stroke: #56b4e9; stroke-width: 1.62"/>
     <use xlink:href="#m5aeb3baad7" x="223.011014" y="79.428297" style="fill: #56b4e9; stroke: #56b4e9; stroke-width: 1.62"/>
     <use xlink:href="#m5aeb3baad7" x="248.485841" y="78.954714" style="fill: #56b4e9; stroke: #56b4e9; stroke-width: 1.62"/>
     <use xlink:href="#m5aeb3baad7" x="273.960668" y="78.588553" style="fill: #56b4e9; stroke: #56b4e9; stroke-width: 1.62"/>
    </g>
   </g>
   <g id="line2d_55">
    <path d="M 48.083869 76.039218
L 73.558696 72.825867
L 99.033523 60.805839
L 124.50835 59.962182
L 149.983177 59.593363
L 175.458004 59.215548
L 200.932831 59.32735
L 226.407658 59.038849
L 251.882485 58.69766
L 277.357312 58.48048
" clip-path="url(#p111910871b)" style="fill: none; stroke: #009e73; stroke-width: 2.16; stroke-linecap: round"/>
   </g>
   <g id="line2d_56">
    <path d="M 48.083869 90.056908
L 48.083869 62.021528
" clip-path="url(#p111910871b)" style="fill: none; stroke: #009e73; stroke-width: 2.16; stroke-linecap: round"/>
   </g>
   <g id="line2d_57">
    <path d="M 73.558696 82.865437
L 73.558696 63.841704
" clip-path="url(#p111910871b)" style="fill: none; stroke: #009e73; stroke-width: 2.16; stroke-linecap: round"/>
   </g>
   <g id="line2d_58">
    <path d="M 99.033523 61.086646
L 99.033523 60.413776
" clip-path="url(#p111910871b)" style="fill: none; stroke: #009e73; stroke-width: 2.16; stroke-linecap: round"/>
   </g>
   <g id="line2d_59">
    <path d="M 124.50835 60.515555
L 124.50835 59.399235
" clip-path="url(#p111910871b)" style="fill: none; stroke: #009e73; stroke-width: 2.16; stroke-linecap: round"/>
   </g>
   <g id="line2d_60">
    <path d="M 149.983177 59.95513
L 149.983177 59.275738
" clip-path="url(#p111910871b)" style="fill: none; stroke: #009e73; stroke-width: 2.16; stroke-linecap: round"/>
   </g>
   <g id="line2d_61">
    <path d="M 175.458004 59.91065
L 175.458004 58.63718
" clip-path="url(#p111910871b)" style="fill: none; stroke: #009e73; stroke-width: 2.16; stroke-linecap: round"/>
   </g>
   <g id="line2d_62">
    <path d="M 200.932831 59.840243
L 200.932831 58.83126
" clip-path="url(#p111910871b)" style="fill: none; stroke: #009e73; stroke-width: 2.16; stroke-linecap: round"/>
   </g>
   <g id="line2d_63">
    <path d="M 226.407658 59.430157
L 226.407658 58.66036
" clip-path="url(#p111910871b)" style="fill: none; stroke: #009e73; stroke-width: 2.16; stroke-linecap: round"/>
   </g>
   <g id="line2d_64">
    <path d="M 251.882485 59.242856
L 251.882485 58.165426
" clip-path="url(#p111910871b)" style="fill: none; stroke: #009e73; stroke-width: 2.16; stroke-linecap: round"/>
   </g>
   <g id="line2d_65">
    <path d="M 277.357312 58.770283
L 277.357312 58.194517
" clip-path="url(#p111910871b)" style="fill: none; stroke: #009e73; stroke-width: 2.16; stroke-linecap: round"/>
   </g>
   <g id="PathCollection_4">
    <defs>
     <path id="mdd5aef9b99" d="M 0 -2.707159
L -0.607795 -0.836558
L -2.574661 -0.836558
L -0.983433 0.319537
L -1.591228 2.190137
L -0 1.034043
L 1.591228 2.190137
L 0.983433 0.319537
L 2.574661 -0.836558
L 0.607795 -0.836558
z
" style="stroke: #009e73; stroke-width: 1.62"/>
    </defs>
    <g clip-path="url(#p111910871b)">
     <use xlink:href="#mdd5aef9b99" x="48.083869" y="76.039218" style="fill: #009e73; stroke: #009e73; stroke-width: 1.62"/>
     <use xlink:href="#mdd5aef9b99" x="73.558696" y="72.825867" style="fill: #009e73; stroke: #009e73; stroke-width: 1.62"/>
     <use xlink:href="#mdd5aef9b99" x="99.033523" y="60.805839" style="fill: #009e73; stroke: #009e73; stroke-width: 1.62"/>
     <use xlink:href="#mdd5aef9b99" x="124.50835" y="59.962182" style="fill: #009e73; stroke: #009e73; stroke-width: 1.62"/>
     <use xlink:href="#mdd5aef9b99" x="149.983177" y="59.593363" style="fill: #009e73; stroke: #009e73; stroke-width: 1.62"/>
     <use xlink:href="#mdd5aef9b99" x="175.458004" y="59.215548" style="fill: #009e73; stroke: #009e73; stroke-width: 1.62"/>
     <use xlink:href="#mdd5aef9b99" x="200.932831" y="59.32735" style="fill: #009e73; stroke: #009e73; stroke-width: 1.62"/>
     <use xlink:href="#mdd5aef9b99" x="226.407658" y="59.038849" style="fill: #009e73; stroke: #009e73; stroke-width: 1.62"/>
     <use xlink:href="#mdd5aef9b99" x="251.882485" y="58.69766" style="fill: #009e73; stroke: #009e73; stroke-width: 1.62"/>
     <use xlink:href="#mdd5aef9b99" x="277.357312" y="58.48048" style="fill: #009e73; stroke: #009e73; stroke-width: 1.62"/>
    </g>
   </g>
  </g>
  <g id="legend_1">
   <g id="PathCollection_5">
    <g>
     <use xlink:href="#m5c949fccf2" x="55.69025" y="19.343063" style="stroke: #000000; stroke-width: 1.62"/>
    </g>
   </g>
   <g id="text_18">
    <!-- Overall -->
    <g style="fill: #262626" transform="translate(66.69025 21.653063) scale(0.088 -0.088)">
     <defs>
      <path id="SourceSansPro-Regular-4f" d="M 2125 -77
C 3181 -77 3923 768 3923 2118
C 3923 3456 3181 4275 2125 4275
C 1069 4275 333 3462 333 2118
C 333 768 1069 -77 2125 -77
z
M 2125 397
C 1376 397 890 1069 890 2118
C 890 3162 1376 3802 2125 3802
C 2874 3802 3366 3162 3366 2118
C 3366 1069 2874 397 2125 397
z
" transform="scale(0.015625)"/>
      <path id="SourceSansPro-Regular-76" d="M 1197 0
L 1818 0
L 2918 3110
L 2394 3110
L 1811 1350
C 1715 1043 1613 730 1523 429
L 1498 429
C 1402 730 1306 1043 1210 1350
L 627 3110
L 77 3110
L 1197 0
z
" transform="scale(0.015625)"/>
      <path id="SourceSansPro-Regular-65" d="M 1779 -77
C 2208 -77 2541 51 2810 243
L 2624 582
C 2406 435 2144 352 1843 352
C 1254 352 864 774 819 1414
L 2912 1414
C 2931 1517 2938 1613 2938 1728
C 2938 2624 2483 3187 1690 3187
C 979 3187 294 2566 294 1555
C 294 525 947 -77 1779 -77
z
M 819 1824
C 883 2419 1267 2765 1702 2765
C 2176 2765 2464 2438 2464 1824
L 819 1824
z
" transform="scale(0.015625)"/>
      <path id="SourceSansPro-Regular-6c" d="M 1082 -77
C 1216 -77 1312 -58 1389 -19
L 1318 378
C 1267 365 1242 365 1210 365
C 1126 365 1056 422 1056 589
L 1056 4557
L 525 4557
L 525 627
C 525 179 685 -77 1082 -77
z
" transform="scale(0.015625)"/>
     </defs>
     <use xlink:href="#SourceSansPro-Regular-4f"/>
     <use xlink:href="#SourceSansPro-Regular-76" x="66.399994"/>
     <use xlink:href="#SourceSansPro-Regular-65" x="113.199982"/>
     <use xlink:href="#SourceSansPro-Regular-72" x="162.799973"/>
     <use xlink:href="#SourceSansPro-Regular-61" x="197.59996"/>
     <use xlink:href="#SourceSansPro-Regular-6c" x="247.999954"/>
     <use xlink:href="#SourceSansPro-Regular-6c" x="273.499939"/>
    </g>
   </g>
   <g id="PathCollection_6">
    <g>
     <use xlink:href="#mabe453eed3" x="119.40225" y="19.343063" style="fill: #e69f00; stroke: #e69f00; stroke-width: 1.62"/>
    </g>
   </g>
   <g id="text_19">
    <!-- Few -->
    <g style="fill: #262626" transform="translate(130.40225 21.653063) scale(0.088 -0.088)">
     <defs>
      <path id="SourceSansPro-Regular-46" d="M 576 0
L 1114 0
L 1114 1875
L 2714 1875
L 2714 2330
L 1114 2330
L 1114 3744
L 2995 3744
L 2995 4198
L 576 4198
L 576 0
z
" transform="scale(0.015625)"/>
      <path id="SourceSansPro-Regular-77" d="M 1024 0
L 1664 0
L 2080 1670
C 2163 1952 2221 2227 2278 2592
L 2304 2592
C 2374 2227 2432 1958 2509 1670
L 2931 0
L 3603 0
L 4442 3110
L 3936 3110
L 3482 1306
C 3411 1024 3360 755 3296 422
L 3270 422
C 3206 755 3136 1024 3066 1306
L 2592 3110
L 2022 3110
L 1555 1306
C 1485 1024 1427 755 1363 422
L 1338 422
C 1286 755 1222 1024 1152 1306
L 698 3110
L 154 3110
L 1024 0
z
" transform="scale(0.015625)"/>
     </defs>
     <use xlink:href="#SourceSansPro-Regular-46"/>
     <use xlink:href="#SourceSansPro-Regular-65" x="49.499985"/>
     <use xlink:href="#SourceSansPro-Regular-77" x="99.099976"/>
    </g>
   </g>
   <g id="PathCollection_7">
    <g>
     <use xlink:href="#m5aeb3baad7" x="171.840625" y="19.343063" style="fill: #56b4e9; stroke: #56b4e9; stroke-width: 1.62"/>
    </g>
   </g>
   <g id="text_20">
    <!-- Medium -->
    <g style="fill: #262626" transform="translate(182.840625 21.653063) scale(0.088 -0.088)">
     <defs>
      <path id="SourceSansPro-Regular-4d" d="M 570 0
L 1062 0
L 1062 2317
C 1062 2688 1018 3206 986 3571
L 1011 3571
L 1344 2592
L 2125 422
L 2515 422
L 3302 2592
L 3629 3571
L 3654 3571
C 3622 3206 3578 2688 3578 2317
L 3578 0
L 4083 0
L 4083 4198
L 3411 4198
L 2618 1952
C 2515 1658 2438 1389 2342 1075
L 2317 1075
C 2227 1389 2138 1658 2035 1952
L 1242 4198
L 570 4198
L 570 0
z
" transform="scale(0.015625)"/>
      <path id="SourceSansPro-Regular-64" d="M 1587 -77
C 1952 -77 2285 128 2528 365
L 2547 365
L 2592 0
L 3027 0
L 3027 4557
L 2496 4557
L 2496 3360
L 2522 2829
C 2246 3053 2010 3187 1651 3187
C 941 3187 301 2560 301 1549
C 301 512 806 -77 1587 -77
z
M 1702 371
C 1158 371 851 813 851 1555
C 851 2266 1248 2739 1741 2739
C 1997 2739 2234 2656 2496 2419
L 2496 794
C 2240 512 1990 371 1702 371
z
" transform="scale(0.015625)"/>
      <path id="SourceSansPro-Regular-69" d="M 525 0
L 1056 0
L 1056 3110
L 525 3110
L 525 0
z
M 794 3750
C 998 3750 1146 3885 1146 4096
C 1146 4301 998 4442 794 4442
C 589 4442 442 4301 442 4096
C 442 3885 589 3750 794 3750
z
" transform="scale(0.015625)"/>
      <path id="SourceSansPro-Regular-6d" d="M 525 0
L 1056 0
L 1056 2253
C 1344 2573 1600 2726 1830 2726
C 2227 2726 2406 2483 2406 1901
L 2406 0
L 2938 0
L 2938 2253
C 3226 2573 3475 2726 3718 2726
C 4109 2726 4294 2483 4294 1901
L 4294 0
L 4826 0
L 4826 1971
C 4826 2765 4518 3187 3878 3187
C 3501 3187 3174 2944 2854 2598
C 2726 2963 2470 3187 1990 3187
C 1619 3187 1299 2957 1024 2662
L 1005 2662
L 960 3110
L 525 3110
L 525 0
z
" transform="scale(0.015625)"/>
     </defs>
     <use xlink:href="#SourceSansPro-Regular-4d"/>
     <use xlink:href="#SourceSansPro-Regular-65" x="72.699982"/>
     <use xlink:href="#SourceSansPro-Regular-64" x="122.299973"/>
     <use xlink:href="#SourceSansPro-Regular-69" x="177.799957"/>
     <use xlink:href="#SourceSansPro-Regular-75" x="202.499954"/>
     <use xlink:href="#SourceSansPro-Regular-6d" x="256.899948"/>
    </g>
   </g>
   <g id="PathCollection_8">
    <g>
     <use xlink:href="#mdd5aef9b99" x="239.144125" y="19.343063" style="fill: #009e73; stroke: #009e73; stroke-width: 1.62"/>
    </g>
   </g>
   <g id="text_21">
    <!-- Many -->
    <g style="fill: #262626" transform="translate(250.144125 21.653063) scale(0.088 -0.088)">
     <defs>
      <path id="SourceSansPro-Regular-6e" d="M 525 0
L 1056 0
L 1056 2253
C 1363 2566 1587 2726 1901 2726
C 2310 2726 2490 2483 2490 1901
L 2490 0
L 3021 0
L 3021 1971
C 3021 2765 2726 3187 2067 3187
C 1638 3187 1318 2957 1024 2662
L 1005 2662
L 960 3110
L 525 3110
L 525 0
z
" transform="scale(0.015625)"/>
     </defs>
     <use xlink:href="#SourceSansPro-Regular-4d"/>
     <use xlink:href="#SourceSansPro-Regular-61" x="72.699982"/>
     <use xlink:href="#SourceSansPro-Regular-6e" x="123.099976"/>
     <use xlink:href="#SourceSansPro-Regular-79" x="177.799973"/>
    </g>
   </g>
  </g>
 </g>
 <defs>
  <clipPath id="p111910871b">
   <rect x="30.25149" y="4.900212" width="254.74827" height="124.926173"/>
  </clipPath>
 </defs>
</svg>
